<?xml version="1.0" standalone="yes"?>
<svg xmlns="http://www.w3.org/2000/svg" width="688" height="688">
<path style="fill:#010101; stroke:none;" d="M0 0L0 688L688 688L688 0L0 0z"/>
<path style="fill:#48460a; stroke:none;" d="M303 72L302 74L303 72z"/>
<path style="fill:#58550d; stroke:none;" d="M302 74L302 75L308 78L307 81C302.733 78.3226 295.542 70.7607 294 80C288.71 80.0006 282.834 79.0657 284 86L264 88L268 85L257 88L254 94L254 98L274 91.9344L321 80L321 79L306 75L307 73L306 72L302 74z"/>
<path style="fill:#48460a; stroke:none;" d="M339 72L340 73L339 72z"/>
<path style="fill:#58550d; stroke:none;" d="M340 72L339 77L339 78L366 81L362 75L354 77L355 74C349.98 74.3962 345.841 75.9184 342 72L340 72z"/>
<path style="fill:#48460a; stroke:none;" d="M306 74L307 75L306 74z"/>
<path style="fill:#58550d; stroke:none;" d="M333 78L338 78L337 75L333 78z"/>
<path style="fill:#48460a; stroke:none;" d="M354 75L355 76L354 75M362 75L363 76L362 75z"/>
<path style="fill:#58550d; stroke:none;" d="M367 75L367 78L371 78L370 82L388 84L388 83L386 80L371 78L371 75L367 75z"/>
<path style="fill:#2d2b06; stroke:none;" d="M340 76L341 77L340 76z"/>
<path style="fill:#6a681e; stroke:none;" d="M319 78L319 79L321 79L321 80C296.464 81.9366 273.223 98.0238 249 97L249 98L253 98L253 99L246 100L244 106L231 108C230.716 110.749 229.701 111.099 227 111L227 112L229 114C220.842 116.133 216.721 127.543 208 125C208 128.221 203.784 127.927 201 128L201 129L204 130L196 134L190 139L185 142L186 145L181 146L182 150L146 156.299L128 160L126 162C126 166.368 118.252 165.186 115 165L115 166L117 166L117 167L112 167L102 184L101 184L101 179L100 179L98 187L94 187L91 198L89 197L88 201L85 201C87.6919 204.589 82.5292 211.632 80 211C81.5042 214.76 81.824 216.936 79 220L77.25 246L80 277C89.4161 277.516 92.123 285.576 91 294L94 299L99 299L100 311L105 311L110.736 322.09L111 360L113 359L110 363L114 392L117 392L122 423L125 423L125 429L128 429L128 434L131 434L131 440C137.005 442.207 140.922 444.843 143.37 451C146.197 458.114 144.029 465.405 153 468C153.325 472.374 154.662 474.803 159 476C159.016 480.655 158.775 484.128 164 485L163 488L173 494L171 495L171 496L179 496L185 502L184 507L189 510L193 510L192 515L198 519L204 518C205.528 525.167 219.944 527 226 527L226 535L229 535L229 541L232 544L238 547L239 544L240 544C244.245 554.272 245.108 567.898 258 572L257 575L262 574L263 583C270.035 582.577 276.813 591.083 280 597L285 597L285 600L312 609L311 611L345 611L344 609L368 606L368 608L375 606L382.866 599.699L403 586C404.987 578.337 409.428 569.394 417 566L417 561L420 561L422 555C421.563 552.263 422.605 537.501 425 542L426 542C426.132 537.588 426.831 534.92 431 533L436 530L450 519L449 516L456 515L459 513L462 510L466 506L465 503C469.882 501.959 470 496.24 470 492L475 493L481 488L487 482L487 476L490 476L493 467L496 468L497 453L507 448C507.001 441.794 506.743 436.914 513 434L512 429C516.726 427.987 515 420.995 515 417L518 417L519 409L520 409L519 412L522 400L523 400L523 403L524 403C524.053 398.205 524.515 394.426 529 392C529.562 387.698 538.254 386.386 542 387L546 381L551 381C551 371.635 565.764 374.962 566 366L568 368L569 368C569 359.64 569.855 356.525 578 352C579.416 351.213 579.48 353.553 581 353C584.757 351.634 581.607 349.152 585 350L597 337L601 314L602 317L603 317C602.735 306.152 598.896 290.06 603 280C597.545 273.929 600 260.771 600 253L599 253L599 259L598 259L597 249L594 249L594 243L591 243L591 236L590 236L590 238L589 238C588.283 233.592 586.377 230.393 582 229L583 226L580 221L574 215L557 210L554 206L555 202L554 202L552 204L553 201L552 199C548.272 197.136 538.695 198.222 540 193C536.013 192.997 532.332 193.598 530 190L517 189L517 184L516 184L516 186L515 186C514.705 181.61 513.405 177.513 509 176C509.523 173.46 509.595 173.315 507 173L509 171L498 156L492 156L493 151L492 151L490 153L490 148L484 148L481 145L481 139L480 139L481 142L480 142C478.113 138.034 476.336 137.144 472 137L473 131L467 125L462 120L457 119L459 118L459 117L454 117L449 108L429 102L431 101L431 100L426 100L425 94C420.031 93.9791 403.837 91.7144 403 86L392 83L367.83 80.4445L319 78z"/>
<path style="fill:#58550d; stroke:none;" d="M327 77L328 78L327 77z"/>
<path style="fill:#48460a; stroke:none;" d="M363 77L364 78L363 77M371 77L372 78L371 77z"/>
<path style="fill:#6a681e; stroke:none;" d="M305 78L307 81L307 78L305 78z"/>
<path style="fill:#48460a; stroke:none;" d="M307 78L308 79L307 78z"/>
<path style="fill:#2d2b06; stroke:none;" d="M370 78L371 79L370 78z"/>
<path style="fill:#010101; stroke:none;" d="M307 79L308 80L307 79z"/>
<path style="fill:#2d2b06; stroke:none;" d="M365 79L366 80L365 79z"/>
<path style="fill:#6a681e; stroke:none;" d="M381 80L382 81L381 80M384 80L385 81L384 80M386 80L387 81L386 80z"/>
<path style="fill:#2d2b06; stroke:none;" d="M387 80L388 81L387 80z"/>
<path style="fill:#58550d; stroke:none;" d="M270 81L269 84L273 85L272 81L270 81z"/>
<path style="fill:#48460a; stroke:none;" d="M272.333 81.6667L272.667 82.3333L272.333 81.6667M282.333 81.6667L282.667 82.3333L282.333 81.6667M293 81L294 82L293 81M386.333 81.6667L386.667 82.3333L386.333 81.6667M270 82L271 83L270 82z"/>
<path style="fill:#58550d; stroke:none;" d="M390 83L391 84L390 83M392 83L399 86C398.216 82.3616 395.268 83.1995 392 83z"/>
<path style="fill:#6a681e; stroke:none;" d="M395 83L396 84L395 83z"/>
<path style="fill:#48460a; stroke:none;" d="M269 84L270 85L269 84z"/>
<path style="fill:#2d2b06; stroke:none;" d="M399 85L400 86L399 85z"/>
<path style="fill:#48460a; stroke:none;" d="M266 86L267 87L266 86z"/>
<path style="fill:#2d2b06; stroke:none;" d="M264 87L265 88L264 87z"/>
<path style="fill:#58550d; stroke:none;" d="M402 87L403 88L402 87z"/>
<path style="fill:#48460a; stroke:none;" d="M258 88L259 89L258 88z"/>
<path style="fill:#2d2b06; stroke:none;" d="M265 88L266 89L265 88z"/>
<path style="fill:#58550d; stroke:none;" d="M418.333 92.6667L418.667 93.3333L418.333 92.6667z"/>
<path style="fill:#6a681e; stroke:none;" d="M255 94L256 95L255 94z"/>
<path style="fill:#48460a; stroke:none;" d="M247 95L246 98L247 98L247 95z"/>
<path style="fill:#58550d; stroke:none;" d="M248 95L249 98L248 95z"/>
<path style="fill:#6a681e; stroke:none;" d="M247 97L248 98L247 97z"/>
<path style="fill:#58550d; stroke:none;" d="M426 97L426 100L427 100L426 97z"/>
<path style="fill:#48460a; stroke:none;" d="M427 97L428 98L427 97M249 98L250 99L249 98z"/>
<path style="fill:#58550d; stroke:none;" d="M249 99L249 100L253 99L249 99z"/>
<path style="fill:#48460a; stroke:none;" d="M427 99L428 100L427 99z"/>
<path style="fill:#58550d; stroke:none;" d="M429.667 101.333L430.333 101.667L429.667 101.333M243 103L243 106L244 106L243 103M433.333 103.667L433.667 104.333L433.333 103.667z"/>
<path style="fill:#2d2b06; stroke:none;" d="M441 104L442 105L441 104M434 105L435 106L434 105z"/>
<path style="fill:#48460a; stroke:none;" d="M441 105L442 106L441 105z"/>
<path style="fill:#58550d; stroke:none;" d="M442 105L443 106L442 105z"/>
<path style="fill:#48460a; stroke:none;" d="M443 105L444 106L443 105z"/>
<path style="fill:#58550d; stroke:none;" d="M233 108L237 107L233 108M441.667 108.333L442.333 108.667L441.667 108.333M447 108L448 109L447 108z"/>
<path style="fill:#48460a; stroke:none;" d="M449 108L450 109L449 108z"/>
<path style="fill:#58550d; stroke:none;" d="M219 111L220 113L215 114L210 118L211 122L209 122L209 126C217.147 127.354 221.656 116.791 229 114L229 112L225 111C225 113.795 223.52 113.265 221 113L224 109L219 111M230 109L230 111L232 109L230 109z"/>
<path style="fill:#6a681e; stroke:none;" d="M223.667 111.333L224.333 111.667L223.667 111.333z"/>
<path style="fill:#58550d; stroke:none;" d="M229 111L230 112L229 111z"/>
<path style="fill:#48460a; stroke:none;" d="M219 112L220 113L219 112z"/>
<path style="fill:#010101; stroke:none;" d="M221 112L224 114L221 112z"/>
<path style="fill:#2d2b06; stroke:none;" d="M224 112L225 113L224 112z"/>
<path style="fill:#48460a; stroke:none;" d="M225 112L226 113L225 112M216 114L217 115L216 114z"/>
<path style="fill:#58550d; stroke:none;" d="M454 114L456 117L454 114z"/>
<path style="fill:#2d2b06; stroke:none;" d="M455 114L456 115L455 114z"/>
<path style="fill:#48460a; stroke:none;" d="M211 117L212 118L211 117z"/>
<path style="fill:#58550d; stroke:none;" d="M457.667 118.333L458.333 118.667L457.667 118.333M462 123L464 125L462 123z"/>
<path style="fill:#2d2b06; stroke:none;" d="M463 123L464 124L463 123z"/>
<path style="fill:#6a681e; stroke:none;" d="M205.667 125.333L206.333 125.667L205.667 125.333z"/>
<path style="fill:#58550d; stroke:none;" d="M207 125L205 128L209 126L207 125M465 125L466 126L465 125z"/>
<path style="fill:#48460a; stroke:none;" d="M205 126L206 127L205 126z"/>
<path style="fill:#58550d; stroke:none;" d="M466 126L467 127L466 126z"/>
<path style="fill:#48460a; stroke:none;" d="M201 129L202 130L201 129z"/>
<path style="fill:#58550d; stroke:none;" d="M201 131L204 129L201 131M199 131L201 133L201 131L199 131z"/>
<path style="fill:#48460a; stroke:none;" d="M199 132L200 133L199 132z"/>
<path style="fill:#2d2b06; stroke:none;" d="M198 133L199 134L198 133z"/>
<path style="fill:#58550d; stroke:none;" d="M472 133L472 137L473 137L472 133M196 135L197 136L196 135M193 137L194 138L193 137M478 138L479 139L478 138M479 139L481 142L479 139M190 140L191 141L190 140M320 148L323 151L338 150C336.445 140.247 325.022 140.662 320 148M185 143L184 145L186 145L185 143M181 145L182 147L183 147L184 145L181 145z"/>
<path style="fill:#48460a; stroke:none;" d="M337 145L338 146L337 145z"/>
<path style="fill:#010101; stroke:none;" d="M338 145L338 150L323 151L323 148L317 148L317 149L321 150L321 152L311.074 151.273L295 156.204L286 162L282 162L268 176L262 176L249 187L254 187L260 193L260 201L263 201L265 212L269 212L271 224L276 222L275 231L279 232L279 249L282 249L282 268L277 268C277 272.386 278.033 277.385 274 280C274.29 282.451 274.675 299.576 270 294L269 294L268 303C265.152 302.932 263.936 305.29 264 308L260 308L257 311L254 322L251 319L245 333L243 333L240 330L237 336C233.654 336.002 229.485 335.142 229 339L222 339L222 342L212 342C206.85 351.523 193.797 345.543 185.92 344.843C183.405 344.62 180.555 346.62 178 347C174.99 355.426 172.168 379.309 181 385L179 387L179 388L179 389L184 392L182 401C185.342 401 189.257 407.748 189 411L192 420L195 426L201 431L200 434L204 434L207 440L212 440L212 446L220 454L237 457L246 440L252 440L252 434L260 434L260 433L257 429L265 431L263 423L267 423L267 426C269.858 425.791 271 425.826 271 423L276 423C272.366 412.523 285.679 413.376 292 415L295 408L301 409L301 412L305 412L305 409L325 407L325 406C329.501 406.331 332.76 408.024 335 412L352 417L352 420L361 420L361 423L369 423C372.083 432.38 387.401 429.966 389 440L392 443L403 446L403 449L400 450L406 454L405 459C411.807 463.722 422.053 455.627 423 448L434 440C434.944 436.387 436.387 434.944 440 434L439 423L445 423L445 422L442 421L442 419L448 417L448 409L451 409L456 386L456 385L456 384L454 381L444 381C443.475 376.818 430.651 370.073 426 370L427 367L423 367L417 361L417 356L411 356L412 353L409 347L406 345L405 345L404 345C399.735 347.461 398.819 342.476 399 339L394 336C394.061 328.022 393.771 324.67 386 321L392 315L382 304L385 306L381 298L385.972 280.028L382 268.222L386 269L385 253L389 252L392 255L392 244C395.114 243.569 394.897 240.913 395 238L398 238L400 229C403.054 228.346 402.936 226.993 403 224L412 221L418 212L434 210L433.146 198.515L420 184C415.493 182.877 411.936 180.256 410 176L406 176L400 167L390 165L387 159L381 159L381 156L365.171 155.501L351 151L351 148L340 148L340 145L338 145z"/>
<path style="fill:#58550d; stroke:none;" d="M340 145L341 146L340 145M343 145L341 148L345 146L343 145z"/>
<path style="fill:#2d2b06; stroke:none;" d="M337 146L338 147L337 146z"/>
<path style="fill:#58550d; stroke:none;" d="M181 147L182 148L181 147M301 153L303 151L320 153L317 147C310.524 147 304.549 146.699 301 153M318 147L319 148L318 147z"/>
<path style="fill:#6a681e; stroke:none;" d="M321 147L322 148L321 147z"/>
<path style="fill:#48460a; stroke:none;" d="M340 147L341 148L340 147M487 147L488 148L487 147z"/>
<path style="fill:#58550d; stroke:none;" d="M488 147L489 148L488 147z"/>
<path style="fill:#48460a; stroke:none;" d="M489 147L490 148L489 147z"/>
<path style="fill:#2d2b06; stroke:none;" d="M316 148L317 149L316 148z"/>
<path style="fill:#58550d; stroke:none;" d="M351 148L351 151L352 151L353 151L351 148z"/>
<path style="fill:#48460a; stroke:none;" d="M318 149L319 150L318 149M335 149L336 150L335 149M351 149L352 150L351 149z"/>
<path style="fill:#58550d; stroke:none;" d="M489 149L490 150L489 149z"/>
<path style="fill:#6a681e; stroke:none;" d="M320 150L321 151L320 150z"/>
<path style="fill:#48460a; stroke:none;" d="M328 150L329 151L328 150z"/>
<path style="fill:#58550d; stroke:none;" d="M354.667 150.333L355.333 150.667L354.667 150.333M169 151L169 153L173 153L173 151L169 151z"/>
<path style="fill:#48460a; stroke:none;" d="M303 151L304 152L303 151z"/>
<path style="fill:#2d2b06; stroke:none;" d="M304 151L305 152L304 151M320 151L321 152L320 151z"/>
<path style="fill:#58550d; stroke:none;" d="M490 151L490 153L492 153L492 151L490 151z"/>
<path style="fill:#2d2b06; stroke:none;" d="M303 152L304 153L303 152z"/>
<path style="fill:#48460a; stroke:none;" d="M305 152L306 153L305 152M136 153L137 154L136 153z"/>
<path style="fill:#58550d; stroke:none;" d="M128 159L128 160C133.08 161.822 140.256 159.867 144 156L141 153L128 159z"/>
<path style="fill:#48460a; stroke:none;" d="M141 153L142 154L141 153z"/>
<path style="fill:#2d2b06; stroke:none;" d="M142 153L143 154L142 153z"/>
<path style="fill:#58550d; stroke:none;" d="M145 153L146 154L145 153z"/>
<path style="fill:#6a681e; stroke:none;" d="M146.667 153.333L147.333 153.667L146.667 153.333z"/>
<path style="fill:#58550d; stroke:none;" d="M146 156C150.06 155.997 153.471 156.507 156 153L146 156z"/>
<path style="fill:#6a681e; stroke:none;" d="M150 153L150 154L153 154L150 153z"/>
<path style="fill:#58550d; stroke:none;" d="M159 153L159 154L164 154L159 153M297 156L300 153L297 156z"/>
<path style="fill:#48460a; stroke:none;" d="M300.667 153.333L301.333 153.667L300.667 153.333z"/>
<path style="fill:#2d2b06; stroke:none;" d="M361 153L362 154L361 153z"/>
<path style="fill:#58550d; stroke:none;" d="M362 153L362 154L364 156L369 156L369 155L369 154L362 153z"/>
<path style="fill:#48460a; stroke:none;" d="M146 154L147 155L146 154M363.333 154.667L363.667 155.333L363.333 154.667z"/>
<path style="fill:#58550d; stroke:none;" d="M492.333 154.667L492.667 155.333L492.333 154.667z"/>
<path style="fill:#2d2b06; stroke:none;" d="M126 155L127 156L126 155z"/>
<path style="fill:#58550d; stroke:none;" d="M127 155L127 157L129 157L127 155z"/>
<path style="fill:#2d2b06; stroke:none;" d="M128 155L129 156L128 155z"/>
<path style="fill:#48460a; stroke:none;" d="M141 155L142 156L141 155M145 155L146 156L145 155z"/>
<path style="fill:#6a681e; stroke:none;" d="M366 155L367 156L366 155z"/>
<path style="fill:#48460a; stroke:none;" d="M126 156L128 158L126 156z"/>
<path style="fill:#2d2b06; stroke:none;" d="M130 156L131 157L130 156z"/>
<path style="fill:#48460a; stroke:none;" d="M131 156L131 157L134 158L131 156z"/>
<path style="fill:#6a681e; stroke:none;" d="M133 156L134 157L133 156z"/>
<path style="fill:#58550d; stroke:none;" d="M289 159L293 157C290.588 155.645 289.568 156.351 289 159z"/>
<path style="fill:#48460a; stroke:none;" d="M293 156L294 157L293 156z"/>
<path style="fill:#58550d; stroke:none;" d="M381 156L384 159L381 156z"/>
<path style="fill:#2d2b06; stroke:none;" d="M126 157L127 158L126 157z"/>
<path style="fill:#48460a; stroke:none;" d="M381.333 157.667L381.667 158.333L381.333 157.667z"/>
<path style="fill:#2d2b06; stroke:none;" d="M128 158L129 159L128 158z"/>
<path style="fill:#48460a; stroke:none;" d="M129 158L129 159L132 159L129 158z"/>
<path style="fill:#58550d; stroke:none;" d="M286 158L287 159L286 158M284 159L285 162L284 159z"/>
<path style="fill:#48460a; stroke:none;" d="M285 159L286 160L285 159z"/>
<path style="fill:#58550d; stroke:none;" d="M499 159L499 162L501 162L501 159L499 159z"/>
<path style="fill:#48460a; stroke:none;" d="M379 160L380 161L379 160z"/>
<path style="fill:#6a681e; stroke:none;" d="M380 160L381 161L380 160z"/>
<path style="fill:#58550d; stroke:none;" d="M128 161L129 162L128 161z"/>
<path style="fill:#6a681e; stroke:none;" d="M285 161L286 162L285 161z"/>
<path style="fill:#58550d; stroke:none;" d="M379 161L380 164L382 161L379 161M279 165L282 162L279 165z"/>
<path style="fill:#48460a; stroke:none;" d="M381 162L381 164L383 162L381 162z"/>
<path style="fill:#58550d; stroke:none;" d="M390 162L391 165L392 165L392 162L390 162M126 163L127 164L126 163z"/>
<path style="fill:#2d2b06; stroke:none;" d="M390 163L391 164L390 163z"/>
<path style="fill:#6a681e; stroke:none;" d="M280 164L281 165L280 164z"/>
<path style="fill:#48460a; stroke:none;" d="M281 164L282 165L281 164z"/>
<path style="fill:#6a681e; stroke:none;" d="M390 164L391 165L390 164z"/>
<path style="fill:#58550d; stroke:none;" d="M396 164L398 167L396 164M118 165L119 166L118 165z"/>
<path style="fill:#48460a; stroke:none;" d="M395.333 165.667L395.667 166.333L395.333 165.667M115 166L116 167L115 166z"/>
<path style="fill:#58550d; stroke:none;" d="M116 166L117 167L116 166M113 167L114 168L113 167z"/>
<path style="fill:#48460a; stroke:none;" d="M506 167L507 168L506 167M400 168L401 169L400 168M111 169L112 170L111 169z"/>
<path style="fill:#58550d; stroke:none;" d="M400 169L401 170L400 169M109.333 170.667L109.667 171.333L109.333 170.667z"/>
<path style="fill:#48460a; stroke:none;" d="M509 170L510 171L509 170z"/>
<path style="fill:#58550d; stroke:none;" d="M270.333 171.667L270.667 172.333L270.333 171.667M507 173L510 171L507 173M106 173L107 174L106 173M267 173L268 174L267 173M406 174L407 175L406 174M267 175L268 176L267 175M509 175L510 176L509 175M261 176L262 177L261 176M410 176L411 177L410 176z"/>
<path style="fill:#48460a; stroke:none;" d="M261 177L262 178L261 177M410 177L411 178L410 177z"/>
<path style="fill:#58550d; stroke:none;" d="M261 178L262 179L261 178z"/>
<path style="fill:#6a681e; stroke:none;" d="M410 178L411 179L410 178z"/>
<path style="fill:#58550d; stroke:none;" d="M411 178L412 179L411 178M101 179L101 184L102 184L101 179M513 179L513 181L515 181L515 179L513 179M251 181L252 182L251 181M416 182L417 183L416 182M246 184L248 187L248 184L246 184M515.333 184.667L515.667 185.333L515.333 184.667M517 184L517 187L518 187L517 184z"/>
<path style="fill:#2d2b06; stroke:none;" d="M420 185L421 186L420 185M89 186L90 187L89 186z"/>
<path style="fill:#48460a; stroke:none;" d="M90.3333 186.667L90.6667 187.333L90.3333 186.667z"/>
<path style="fill:#58550d; stroke:none;" d="M420 186L421 187L420 186z"/>
<path style="fill:#6a681e; stroke:none;" d="M89.3333 187.667L89.6667 188.333L89.3333 187.667z"/>
<path style="fill:#58550d; stroke:none;" d="M91 187L89 189L90 198L95 188L94 188L91 187z"/>
<path style="fill:#48460a; stroke:none;" d="M92 187L93 188L92 187z"/>
<path style="fill:#58550d; stroke:none;" d="M253 187L254 188L253 187M517 188L517 189L525 190L517 188z"/>
<path style="fill:#6a681e; stroke:none;" d="M522 187L522 188L525 188L522 187z"/>
<path style="fill:#48460a; stroke:none;" d="M519 188L520 189L519 188M523 188L524 189L523 188M92 189L93 190L92 189z"/>
<path style="fill:#2d2b06; stroke:none;" d="M93 189L94 190L93 189z"/>
<path style="fill:#6a681e; stroke:none;" d="M89.6667 190.333L90.3333 190.667L89.6667 190.333z"/>
<path style="fill:#58550d; stroke:none;" d="M527 190L528 191L527 190M530 190L530 193L533 193L533 190L530 190z"/>
<path style="fill:#48460a; stroke:none;" d="M532 191L533 192L532 191M533 192L534 193L533 192z"/>
<path style="fill:#58550d; stroke:none;" d="M258 193L259 197L260 197L258 193z"/>
<path style="fill:#48460a; stroke:none;" d="M259 193L260 194L259 193z"/>
<path style="fill:#6a681e; stroke:none;" d="M259 194L260 195L259 194z"/>
<path style="fill:#58550d; stroke:none;" d="M539 194L540 195L539 194M87 198L87 201L88 201L89 198L87 198M545 198L545 199L548 199L545 198z"/>
<path style="fill:#48460a; stroke:none;" d="M551 198L552 199L551 198M81 199L81 201L83 199L81 199z"/>
<path style="fill:#58550d; stroke:none;" d="M434 199L435 200L434 199M82 200L81 212L87 202L84 203L82 200M551 200L552 201L551 200z"/>
<path style="fill:#48460a; stroke:none;" d="M84.3333 201.667L84.6667 202.333L84.3333 201.667z"/>
<path style="fill:#58550d; stroke:none;" d="M260 201L262 207L263 207L260 201z"/>
<path style="fill:#6a681e; stroke:none;" d="M261 201L262 202L261 201z"/>
<path style="fill:#2d2b06; stroke:none;" d="M262 201L263 202L262 201z"/>
<path style="fill:#58550d; stroke:none;" d="M553 201L552 204L553 201z"/>
<path style="fill:#48460a; stroke:none;" d="M554 201L555 202L554 201M81 202L82 203L81 202z"/>
<path style="fill:#58550d; stroke:none;" d="M265 202L265 206L268 205L268 203L267 202L265 202z"/>
<path style="fill:#2d2b06; stroke:none;" d="M267 202L268 203L267 202z"/>
<path style="fill:#58550d; stroke:none;" d="M434 202L435 203L434 202z"/>
<path style="fill:#48460a; stroke:none;" d="M80 203L81 204L80 203M434 203L434 205L436 205L434 203z"/>
<path style="fill:#58550d; stroke:none;" d="M436 203L434 209L436 203z"/>
<path style="fill:#6a681e; stroke:none;" d="M80 205L81 206L80 205z"/>
<path style="fill:#48460a; stroke:none;" d="M266 205L267 206L266 205M80 206L81 207L80 206z"/>
<path style="fill:#6a681e; stroke:none;" d="M80.3333 207.667L80.6667 208.333L80.3333 207.667z"/>
<path style="fill:#58550d; stroke:none;" d="M557 209L558 210L557 209M422 210L426 212L422 210M562.333 210.667L562.667 211.333L562.333 210.667M80 212L78 221C81.6299 218.641 82.6781 215.593 80 212M265 212L275 243L278 232L275 234L276 229L277 229L275 222L271 224C270.856 219.124 269.872 213.947 265 212z"/>
<path style="fill:#6a681e; stroke:none;" d="M267 212L268 213L267 212z"/>
<path style="fill:#2d2b06; stroke:none;" d="M268 212L269 213L268 212z"/>
<path style="fill:#58550d; stroke:none;" d="M418 212L419 213L418 212M569 212L570 215L571 215L571 212L569 212z"/>
<path style="fill:#6a681e; stroke:none;" d="M77 215L78 216L77 215z"/>
<path style="fill:#48460a; stroke:none;" d="M269 215L269 218L271 218L271 215L269 215z"/>
<path style="fill:#58550d; stroke:none;" d="M415 215L416 216L415 215M270 216L271 217L270 216z"/>
<path style="fill:#6a681e; stroke:none;" d="M77 219L78 220L77 219z"/>
<path style="fill:#58550d; stroke:none;" d="M412 219L413 220L412 219M407.333 221.667L407.667 222.333L407.333 221.667z"/>
<path style="fill:#2d2b06; stroke:none;" d="M275 222L276 223L275 222z"/>
<path style="fill:#48460a; stroke:none;" d="M273 223L274 224L273 223z"/>
<path style="fill:#58550d; stroke:none;" d="M77 224L77 236C80.8037 233.267 80.8094 228.439 81 224L77 224z"/>
<path style="fill:#6a681e; stroke:none;" d="M275 224L276 225L275 224z"/>
<path style="fill:#58550d; stroke:none;" d="M404 224L404 226L406 226L406 224L404 224M580 224L583 226L580 224z"/>
<path style="fill:#6a681e; stroke:none;" d="M582 224L583 225L582 224M275 227L274 229L276 229L275 227z"/>
<path style="fill:#58550d; stroke:none;" d="M403 227L404 228L403 227M582 227L583 228L582 227z"/>
<path style="fill:#48460a; stroke:none;" d="M400 229L401 230L400 229z"/>
<path style="fill:#2d2b06; stroke:none;" d="M275 231L276 232L275 231z"/>
<path style="fill:#48460a; stroke:none;" d="M275.333 232.667L275.667 233.333L275.333 232.667z"/>
<path style="fill:#6a681e; stroke:none;" d="M276 232L277 233L276 232M278 232L279 233L278 232z"/>
<path style="fill:#58550d; stroke:none;" d="M399 233L398 235L400 235L399 233z"/>
<path style="fill:#6a681e; stroke:none;" d="M278 235L279 236L278 235z"/>
<path style="fill:#58550d; stroke:none;" d="M589 235L589 238L590 238L591 235L589 235z"/>
<path style="fill:#48460a; stroke:none;" d="M76 238L74 244L75 244L76 238z"/>
<path style="fill:#58550d; stroke:none;" d="M590 238L591 239L590 238M77 239L75 246C77.6607 244.122 78.1769 242.037 77 239z"/>
<path style="fill:#2d2b06; stroke:none;" d="M74 244L75 245L74 244z"/>
<path style="fill:#58550d; stroke:none;" d="M276 244C276 251.187 272.439 267.255 282 268L282 262L280 263L282 249L279 249L279 244L276 244M392 244L393 245L392 244M393 245L393 249L394 249L393 245M77.3333 248.667L77.6667 249.333L77.3333 248.667M74 252L74 257L80 266L78 252L74 252z"/>
<path style="fill:#48460a; stroke:none;" d="M387.333 252.667L387.667 253.333L387.333 252.667z"/>
<path style="fill:#2d2b06; stroke:none;" d="M388 252L389 253L388 252z"/>
<path style="fill:#58550d; stroke:none;" d="M597 252L598 259L599 259L597 252z"/>
<path style="fill:#6a681e; stroke:none;" d="M74 253L74 256L75 256L74 253z"/>
<path style="fill:#48460a; stroke:none;" d="M385 253L386 254L385 253z"/>
<path style="fill:#58550d; stroke:none;" d="M385 254L387 269L384 266C378.556 270.17 385.085 277.796 390 279L393 255L385 254z"/>
<path style="fill:#48460a; stroke:none;" d="M598 254L599 255L598 254z"/>
<path style="fill:#010101; stroke:none;" d="M387 259L388 260L387 259z"/>
<path style="fill:#48460a; stroke:none;" d="M280 261L280 263L282 261L280 261M384.333 261.667L384.667 262.333L384.333 261.667z"/>
<path style="fill:#6a681e; stroke:none;" d="M386.333 263.667L386.667 264.333L386.333 263.667z"/>
<path style="fill:#2d2b06; stroke:none;" d="M77 265L78 266L77 265z"/>
<path style="fill:#6a681e; stroke:none;" d="M78 265L79 266L78 265M277 266L278 267L277 266z"/>
<path style="fill:#48460a; stroke:none;" d="M381 267L382 268L381 267z"/>
<path style="fill:#6a681e; stroke:none;" d="M386.333 267.667L386.667 268.333L386.333 267.667z"/>
<path style="fill:#48460a; stroke:none;" d="M77 269L77 271L79 271L77 269z"/>
<path style="fill:#58550d; stroke:none;" d="M78 269L79 274L80 274L78 269z"/>
<path style="fill:#48460a; stroke:none;" d="M381 269L382 270L381 269z"/>
<path style="fill:#58550d; stroke:none;" d="M77.3333 271.667L77.6667 272.333L77.3333 271.667z"/>
<path style="fill:#2d2b06; stroke:none;" d="M78 271L78 274L79 274L78 271z"/>
<path style="fill:#58550d; stroke:none;" d="M276 271L275 280L276 271M600 275L602 279L600 275z"/>
<path style="fill:#48460a; stroke:none;" d="M601.333 275.667L601.667 276.333L601.333 275.667z"/>
<path style="fill:#58550d; stroke:none;" d="M83 277L84 283L92 288C90.7077 282.458 88.9296 278.207 83 277z"/>
<path style="fill:#6a681e; stroke:none;" d="M276 277L276 280L277 280L276 277z"/>
<path style="fill:#48460a; stroke:none;" d="M386 278L388 283L389 282L386 278M274 279L275 280L274 279z"/>
<path style="fill:#6a681e; stroke:none;" d="M387 279L388 280L387 279z"/>
<path style="fill:#48460a; stroke:none;" d="M388 279L389 280L388 279M602 279L603 280L602 279z"/>
<path style="fill:#010101; stroke:none;" d="M387.667 280.333L388.333 280.667L387.667 280.333z"/>
<path style="fill:#6a681e; stroke:none;" d="M83 281L84 282L83 281M386 281L386 285L387 285L386 281z"/>
<path style="fill:#58550d; stroke:none;" d="M601 281L602 285L603 285L601 281z"/>
<path style="fill:#48460a; stroke:none;" d="M602.333 281.667L602.667 282.333L602.333 281.667z"/>
<path style="fill:#6a681e; stroke:none;" d="M85 282L86 283L85 282z"/>
<path style="fill:#58550d; stroke:none;" d="M388 282L386 285L386 286L388 289L387 289L386 287L384 310L391 315L392 315C391.95 306.045 392.204 289.756 388 282z"/>
<path style="fill:#48460a; stroke:none;" d="M274.333 283.667L274.667 284.333L274.333 283.667M276 284L277 285L276 284z"/>
<path style="fill:#2d2b06; stroke:none;" d="M88 285L89 286L88 285z"/>
<path style="fill:#58550d; stroke:none;" d="M271 292L268 293L270 297C274.888 295.035 274.405 289.707 275 285C271.699 286.734 270.643 288.274 271 292z"/>
<path style="fill:#6a681e; stroke:none;" d="M276 285L277 286L276 285z"/>
<path style="fill:#48460a; stroke:none;" d="M276 286L277 287L276 286z"/>
<path style="fill:#6a681e; stroke:none;" d="M386 286L387 287L386 286z"/>
<path style="fill:#48460a; stroke:none;" d="M387 286L387 289L388 289L387 286z"/>
<path style="fill:#58550d; stroke:none;" d="M602 286L603 287L602 286z"/>
<path style="fill:#6a681e; stroke:none;" d="M273 287L274 288L273 287z"/>
<path style="fill:#2d2b06; stroke:none;" d="M272 288L273 289L272 288z"/>
<path style="fill:#48460a; stroke:none;" d="M603 288L605 292L603 288z"/>
<path style="fill:#6a681e; stroke:none;" d="M272 289L273 290L272 289z"/>
<path style="fill:#58550d; stroke:none;" d="M602 289L602 306C605.326 303.603 604.77 301.418 603 298C607.229 297.295 603.81 291.148 602 289M91 290L92 291L91 290z"/>
<path style="fill:#48460a; stroke:none;" d="M272 290L273 291L272 290z"/>
<path style="fill:#58550d; stroke:none;" d="M91 292L92 293L91 292z"/>
<path style="fill:#48460a; stroke:none;" d="M268 294L268 298L269 298L268 294z"/>
<path style="fill:#2d2b06; stroke:none;" d="M381 295L381 298L382 298L381 295z"/>
<path style="fill:#48460a; stroke:none;" d="M382 295L383 296L382 295M382 297L383 298L382 297M603 298L604 299L603 298z"/>
<path style="fill:#58550d; stroke:none;" d="M98 299L98 302L99 302L98 299M266 299L261 308L268 299L266 299z"/>
<path style="fill:#48460a; stroke:none;" d="M267 302L268 303L267 302z"/>
<path style="fill:#2d2b06; stroke:none;" d="M384 302L385 303L384 302z"/>
<path style="fill:#58550d; stroke:none;" d="M268.333 304.667L268.667 305.333L268.333 304.667z"/>
<path style="fill:#48460a; stroke:none;" d="M269.333 304.667L269.667 305.333L269.333 304.667M382.333 304.667L382.667 305.333L382.333 304.667z"/>
<path style="fill:#58550d; stroke:none;" d="M383.333 304.667L383.667 305.333L383.333 304.667z"/>
<path style="fill:#48460a; stroke:none;" d="M388 304L389 305L388 304z"/>
<path style="fill:#2d2b06; stroke:none;" d="M263 305L264 306L263 305z"/>
<path style="fill:#6a681e; stroke:none;" d="M386 305L388 307L386 305z"/>
<path style="fill:#58550d; stroke:none;" d="M251 319L252 319L253 317L254 321L256 321L260 311L259 306C254.181 308.898 251.693 313.476 251 319z"/>
<path style="fill:#2d2b06; stroke:none;" d="M268.667 306.333L269.333 306.667L268.667 306.333M382.667 306.333L383.333 306.667L382.667 306.333z"/>
<path style="fill:#48460a; stroke:none;" d="M384 306L385 307L384 306z"/>
<path style="fill:#2d2b06; stroke:none;" d="M263 307L264 308L263 307z"/>
<path style="fill:#58550d; stroke:none;" d="M602 308L603 309L602 308z"/>
<path style="fill:#48460a; stroke:none;" d="M259 309L260 310L259 309z"/>
<path style="fill:#58550d; stroke:none;" d="M602.333 310.667L602.667 311.333L602.333 310.667z"/>
<path style="fill:#2d2b06; stroke:none;" d="M103 311L104 312L103 311z"/>
<path style="fill:#58550d; stroke:none;" d="M104.333 311.667L104.667 312.333L104.333 311.667z"/>
<path style="fill:#48460a; stroke:none;" d="M386 311L387 312L386 311M390 313L391 314L390 313z"/>
<path style="fill:#58550d; stroke:none;" d="M601 314C599.763 317.914 598.15 322.43 602 325L601 314M389 316C387.031 321.632 389.717 324.268 395 326C394.937 320.698 393.958 318.254 389 316z"/>
<path style="fill:#48460a; stroke:none;" d="M252.333 317.667L252.667 318.333L252.333 317.667M387 317L386 320L387 317z"/>
<path style="fill:#2d2b06; stroke:none;" d="M386 318L387 319L386 318z"/>
<path style="fill:#48460a; stroke:none;" d="M602 318L602 322L603 322L602 318z"/>
<path style="fill:#2d2b06; stroke:none;" d="M386 320L387 321L386 320z"/>
<path style="fill:#48460a; stroke:none;" d="M254 321L255 322L254 321z"/>
<path style="fill:#2d2b06; stroke:none;" d="M255 321L256 322L255 321M602 322L603 323L602 322z"/>
<path style="fill:#58550d; stroke:none;" d="M247 323L248 324L247 323M244 325L243 333L246 330L243 330L246 328L244 325z"/>
<path style="fill:#2d2b06; stroke:none;" d="M244 327L246 329L244 327z"/>
<path style="fill:#58550d; stroke:none;" d="M598 327L598 330L600 327L598 327z"/>
<path style="fill:#010101; stroke:none;" d="M243.667 328.333L244.333 328.667L243.667 328.333z"/>
<path style="fill:#48460a; stroke:none;" d="M392 328L391 330L392 328M243 329L244 330L243 329M245 329L246 330L245 329z"/>
<path style="fill:#58550d; stroke:none;" d="M392 329L391 331L392 329M394 329L394 335L400 339L400 340L400 341L398 341C399.462 345.763 401.384 347.361 406 345L406 344L394 329z"/>
<path style="fill:#6a681e; stroke:none;" d="M599 329L600 330L599 329z"/>
<path style="fill:#2d2b06; stroke:none;" d="M242 330L243 331L242 330z"/>
<path style="fill:#6a681e; stroke:none;" d="M392.333 330.667L392.667 331.333L392.333 330.667z"/>
<path style="fill:#58550d; stroke:none;" d="M239.333 331.667L239.667 332.333L239.333 331.667z"/>
<path style="fill:#48460a; stroke:none;" d="M391 331L392 332L391 331z"/>
<path style="fill:#58550d; stroke:none;" d="M236.333 334.667L236.667 335.333L236.333 334.667z"/>
<path style="fill:#6a681e; stroke:none;" d="M395 334L395 336L397 336L395 334z"/>
<path style="fill:#2d2b06; stroke:none;" d="M394 335L395 336L394 335z"/>
<path style="fill:#48460a; stroke:none;" d="M228 336L229 337L228 336z"/>
<path style="fill:#58550d; stroke:none;" d="M595 336L594 339L597 337L595 336z"/>
<path style="fill:#48460a; stroke:none;" d="M107 337L108 338L107 337z"/>
<path style="fill:#58550d; stroke:none;" d="M108 337L108 344L109 344L108 337z"/>
<path style="fill:#48460a; stroke:none;" d="M397 337L398 338L397 337M228 338L229 339L228 338z"/>
<path style="fill:#6a681e; stroke:none;" d="M397 338L398 339L397 338z"/>
<path style="fill:#48460a; stroke:none;" d="M596 338L597 339L596 338M109 339L109 344L110 344L109 339z"/>
<path style="fill:#58550d; stroke:none;" d="M110 339L110 344L111 344L110 339M221.333 339.667L221.667 340.333L221.333 339.667z"/>
<path style="fill:#6a681e; stroke:none;" d="M399.333 339.667L399.667 340.333L399.333 339.667z"/>
<path style="fill:#58550d; stroke:none;" d="M593.333 340.667L593.667 341.333L593.333 340.667M187 344C192.369 351.444 208.251 346.445 214 342C206.829 338.991 194.385 342.185 187 344M215 341L215 342L219 342L215 341z"/>
<path style="fill:#48460a; stroke:none;" d="M401.667 342.333L402.333 342.667L401.667 342.333z"/>
<path style="fill:#58550d; stroke:none;" d="M589.333 342.667L589.667 343.333L589.333 342.667z"/>
<path style="fill:#2d2b06; stroke:none;" d="M590 342L591 343L590 342z"/>
<path style="fill:#48460a; stroke:none;" d="M398 343L399 344L398 343M211 344L212 345L211 344z"/>
<path style="fill:#010101; stroke:none;" d="M199 345L200 346L199 345z"/>
<path style="fill:#2d2b06; stroke:none;" d="M200 345L201 346L200 345z"/>
<path style="fill:#58550d; stroke:none;" d="M406 345L407 346L406 345z"/>
<path style="fill:#6a681e; stroke:none;" d="M198 346L199 347L198 346z"/>
<path style="fill:#58550d; stroke:none;" d="M584 348L585 349L584 348M583 349L584 350L583 349M173 352L173 357L175 358L176 358L176 352L173 352M409.667 352.333L410.333 352.667L409.667 352.333M572 356L572 358L576 359L580 353L572 356M581.667 352.333L582.333 352.667L581.667 352.333M412 353L415 356L412 353z"/>
<path style="fill:#48460a; stroke:none;" d="M577 353L578 354L577 353M412.333 354.667L412.667 355.333L412.333 354.667z"/>
<path style="fill:#2d2b06; stroke:none;" d="M577 354L578 355L577 354M411 355L412 356L411 355z"/>
<path style="fill:#6a681e; stroke:none;" d="M577 355L578 356L577 355z"/>
<path style="fill:#2d2b06; stroke:none;" d="M108.333 357.667L108.667 358.333L108.333 357.667z"/>
<path style="fill:#58550d; stroke:none;" d="M174 358L175 359L174 358M569 358C568.256 362.422 569.63 363.659 574 364C573.482 360.474 572.464 358.978 569 358z"/>
<path style="fill:#2d2b06; stroke:none;" d="M573 358L574 359L573 358M576 358L577 359L576 358z"/>
<path style="fill:#48460a; stroke:none;" d="M108.667 359.333L109.333 359.667L108.667 359.333z"/>
<path style="fill:#58550d; stroke:none;" d="M110 359L111 364L112 364L113 359L110 359M417.333 359.667L417.667 360.333L417.333 359.667z"/>
<path style="fill:#48460a; stroke:none;" d="M577 359L580 362L577 359z"/>
<path style="fill:#58550d; stroke:none;" d="M578 359L579 360L578 359M108 360L108 363L109 363L108 360z"/>
<path style="fill:#2d2b06; stroke:none;" d="M109 360L109 364L110 364L109 360z"/>
<path style="fill:#58550d; stroke:none;" d="M175 360L176 361L175 360M577 360L576 361L579 363L577 360z"/>
<path style="fill:#2d2b06; stroke:none;" d="M576 362L577 363L576 362M579 362L580 363L579 362z"/>
<path style="fill:#48460a; stroke:none;" d="M577 363L578 364L577 363z"/>
<path style="fill:#2d2b06; stroke:none;" d="M578 363L579 364L578 363z"/>
<path style="fill:#58550d; stroke:none;" d="M112 364L113 365L112 364M423 365L424 366L423 365M566 366L566 370L570 370L566 366z"/>
<path style="fill:#2d2b06; stroke:none;" d="M569 366L569 369L570 369L569 366z"/>
<path style="fill:#58550d; stroke:none;" d="M427 367L427 370L428 370L427 367M112.333 369.667L112.667 370.333L112.333 369.667z"/>
<path style="fill:#48460a; stroke:none;" d="M426 369L427 370L426 369z"/>
<path style="fill:#6a681e; stroke:none;" d="M567.667 369.333L568.333 369.667L567.667 369.333z"/>
<path style="fill:#58550d; stroke:none;" d="M565 370L566 371L565 370z"/>
<path style="fill:#48460a; stroke:none;" d="M569 370L570 371L569 370z"/>
<path style="fill:#58550d; stroke:none;" d="M175 371L175 375L176 375L175 371M555 373L555 375L557 375L557 373L555 373M111 374L113 383L114 383L111 374M438 375L440 377L438 375z"/>
<path style="fill:#48460a; stroke:none;" d="M438 376L439 377L438 376z"/>
<path style="fill:#58550d; stroke:none;" d="M175 378C175.039 389.12 182.105 411.839 192 418L192 412C189.228 411.103 187.122 408.683 189 406C182.948 401.616 183.587 398.857 184 392C180.494 390.382 179.254 388.625 181 385L175 378z"/>
<path style="fill:#48460a; stroke:none;" d="M176.667 378.333L177.333 378.667L176.667 378.333z"/>
<path style="fill:#58550d; stroke:none;" d="M444 378L445 381L448 380L448 379L444 378M550 379L551 380L550 379z"/>
<path style="fill:#6a681e; stroke:none;" d="M444 380L445 381L444 380z"/>
<path style="fill:#48460a; stroke:none;" d="M111.333 381.667L111.667 382.333L111.333 381.667z"/>
<path style="fill:#58550d; stroke:none;" d="M454.333 381.667L454.667 382.333L454.333 381.667M542 385L543 386L542 385z"/>
<path style="fill:#48460a; stroke:none;" d="M179.667 386.333L180.333 386.667L179.667 386.333z"/>
<path style="fill:#58550d; stroke:none;" d="M454 386L454 390L455 390L456 386L454 386M538.667 386.333L539.333 386.667L538.667 386.333z"/>
<path style="fill:#48460a; stroke:none;" d="M540 386L541 387L540 386z"/>
<path style="fill:#2d2b06; stroke:none;" d="M534 387L535 388L534 387z"/>
<path style="fill:#48460a; stroke:none;" d="M179.667 389.333L180.333 389.667L179.667 389.333z"/>
<path style="fill:#58550d; stroke:none;" d="M528 390L529 391L528 390M117 396L119 400L120 400L117 396z"/>
<path style="fill:#48460a; stroke:none;" d="M183 397L184 398L183 397M183 400L184 401L183 400z"/>
<path style="fill:#58550d; stroke:none;" d="M522 400L522 403L523 403L522 400M119 401L120 402L119 401M119.333 403.667L119.667 404.333L119.333 403.667M119 406L120 407L119 406z"/>
<path style="fill:#2d2b06; stroke:none;" d="M325 406L326 407L325 406z"/>
<path style="fill:#58550d; stroke:none;" d="M326 406L327 409L305 409L305 412L301 412L301 409L295 408L290 417C288.854 408.344 275.831 415.906 274 421L277 423L278 423C286.935 417.077 298.724 417.784 309 416.205C313.133 415.57 317.821 413.525 322 413.984C330.093 414.872 338.846 419.744 347 418C344.022 412.849 340.701 412.02 335 412L335 409L329 408L331 407L326 406z"/>
<path style="fill:#48460a; stroke:none;" d="M187 407L189 409L189 407L187 407M329.667 407.333L330.333 407.667L329.667 407.333z"/>
<path style="fill:#6a681e; stroke:none;" d="M189.333 408.667L189.667 409.333L189.333 408.667z"/>
<path style="fill:#48460a; stroke:none;" d="M326 408L327 409L326 408M331 408L332 409L331 408z"/>
<path style="fill:#58550d; stroke:none;" d="M119 409L119 414L120 414L119 409M519 409L518 412L519 409M448 410L448 413C450.006 411.873 450.006 411.127 448 410z"/>
<path style="fill:#2d2b06; stroke:none;" d="M189 411L190 412L189 411z"/>
<path style="fill:#6a681e; stroke:none;" d="M448 411L449 412L448 411z"/>
<path style="fill:#48460a; stroke:none;" d="M284 412L285 413L284 412z"/>
<path style="fill:#2d2b06; stroke:none;" d="M285 412L286 413L285 412z"/>
<path style="fill:#48460a; stroke:none;" d="M286 412L287 413L286 412z"/>
<path style="fill:#2d2b06; stroke:none;" d="M278 414L279 415L278 414M289 414L290 415L289 414z"/>
<path style="fill:#48460a; stroke:none;" d="M291 415L290 417L292 417L291 415M346.333 415.667L346.667 416.333L346.333 415.667z"/>
<path style="fill:#6a681e; stroke:none;" d="M274 417L274 419L276 417L274 417z"/>
<path style="fill:#58550d; stroke:none;" d="M349 417L352 420L349 417z"/>
<path style="fill:#6a681e; stroke:none;" d="M350.667 417.333L351.333 417.667L350.667 417.333z"/>
<path style="fill:#48460a; stroke:none;" d="M445 417L446 418L445 417z"/>
<path style="fill:#6a681e; stroke:none;" d="M443.333 418.667L443.667 419.333L443.333 418.667z"/>
<path style="fill:#58550d; stroke:none;" d="M443 420L443 421L446 423L447 418L443 420z"/>
<path style="fill:#2d2b06; stroke:none;" d="M442.333 419.667L442.667 420.333L442.333 419.667z"/>
<path style="fill:#58550d; stroke:none;" d="M197 420L200 426L197 420z"/>
<path style="fill:#48460a; stroke:none;" d="M199 420L200 421L199 420z"/>
<path style="fill:#58550d; stroke:none;" d="M353 420L354 421L353 420M360 420L359 423L360 423L361 423L360 420M193 421L193 424L195 424L195 421L193 421z"/>
<path style="fill:#6a681e; stroke:none;" d="M197 421L198 422L197 421z"/>
<path style="fill:#48460a; stroke:none;" d="M200 421L200 425L201 425L200 421z"/>
<path style="fill:#58550d; stroke:none;" d="M270 421L269 423L270 421z"/>
<path style="fill:#48460a; stroke:none;" d="M360 421L361 422L360 421M444 421L445 422L444 421M195 422L196 423L195 422M270 422L271 423L270 422z"/>
<path style="fill:#58550d; stroke:none;" d="M263 423L266 431L257 429L260 435C264.723 433.687 268.547 430.767 270 426L267 423L263 423M271 423L271 426L275 423L271 423z"/>
<path style="fill:#48460a; stroke:none;" d="M439 423L440 424L439 423z"/>
<path style="fill:#58550d; stroke:none;" d="M441 433L445 423C438.541 423.503 438.709 427.845 441 433M367.667 424.333L368.333 424.667L367.667 424.333z"/>
<path style="fill:#48460a; stroke:none;" d="M198 425L199 426L198 425z"/>
<path style="fill:#58550d; stroke:none;" d="M196 426C195.439 430.006 196.681 431.785 200 434L201 431L198 426L196 426z"/>
<path style="fill:#6a681e; stroke:none;" d="M197 427L198 428L197 427z"/>
<path style="fill:#58550d; stroke:none;" d="M371 427L372 428L371 427z"/>
<path style="fill:#6a681e; stroke:none;" d="M439.333 427.667L439.667 428.333L439.333 427.667z"/>
<path style="fill:#58550d; stroke:none;" d="M372 428L373 429L372 428z"/>
<path style="fill:#2d2b06; stroke:none;" d="M198.333 429.667L198.667 430.333L198.333 429.667z"/>
<path style="fill:#6a681e; stroke:none;" d="M265.333 429.667L265.667 430.333L265.333 429.667z"/>
<path style="fill:#58550d; stroke:none;" d="M376 430L377 431L376 430M512 430L513 431L512 430z"/>
<path style="fill:#48460a; stroke:none;" d="M378 431L378 432L381 432L378 431M258 432L259 433L258 432z"/>
<path style="fill:#58550d; stroke:none;" d="M382 432L383 433L382 432z"/>
<path style="fill:#48460a; stroke:none;" d="M252.667 434.333L253.333 434.667L252.667 434.333z"/>
<path style="fill:#58550d; stroke:none;" d="M252 441L257 435C252.572 434.551 252.133 436.997 252 441M383 434C384.179 441.64 393.135 449.037 400 452L400 451L398 447L403 449C400.334 444.172 397.372 443.063 392 443L389 440C388.511 435.751 387.297 434.343 383 434M436 434L434 440C428.327 440.189 426.824 442.548 426 448C433.365 447.597 438.648 441.788 441 435L440 434L436 434z"/>
<path style="fill:#6a681e; stroke:none;" d="M437 434L438 435L437 434z"/>
<path style="fill:#48460a; stroke:none;" d="M388 435L389 436L388 435z"/>
<path style="fill:#58550d; stroke:none;" d="M391 435L395 440L394 435L391 435z"/>
<path style="fill:#48460a; stroke:none;" d="M203 436L204 437L203 436z"/>
<path style="fill:#2d2b06; stroke:none;" d="M434 436L435 437L434 436z"/>
<path style="fill:#58550d; stroke:none;" d="M205.667 437.333L206.333 437.667L205.667 437.333z"/>
<path style="fill:#48460a; stroke:none;" d="M206 438L207 439L206 438z"/>
<path style="fill:#2d2b06; stroke:none;" d="M394.667 438.333L395.333 438.667L394.667 438.333z"/>
<path style="fill:#58550d; stroke:none;" d="M206 439L207 440L206 439z"/>
<path style="fill:#48460a; stroke:none;" d="M395 439L396 440L395 439z"/>
<path style="fill:#58550d; stroke:none;" d="M507 439L507 443L510 442L507 439z"/>
<path style="fill:#48460a; stroke:none;" d="M508 439L508 441L510 441L508 439z"/>
<path style="fill:#58550d; stroke:none;" d="M509 439L510 440L509 439M207 440L212 445L210 443L207 440z"/>
<path style="fill:#48460a; stroke:none;" d="M210 440L210 443L212 442L212 441L210 440z"/>
<path style="fill:#6a681e; stroke:none;" d="M211 440L212 441L211 440z"/>
<path style="fill:#2d2b06; stroke:none;" d="M246 440L247 441L246 440z"/>
<path style="fill:#6a681e; stroke:none;" d="M247 440L248 441L247 440z"/>
<path style="fill:#58550d; stroke:none;" d="M247 441L247 442L251 440L247 441z"/>
<path style="fill:#6a681e; stroke:none;" d="M249 440L250 441L249 440z"/>
<path style="fill:#2d2b06; stroke:none;" d="M395 440L396 441L395 440z"/>
<path style="fill:#58550d; stroke:none;" d="M134 442L144 457C146.292 450.391 140.551 442.745 134 442z"/>
<path style="fill:#48460a; stroke:none;" d="M426 442L427 443L426 442M508 442L509 443L508 442z"/>
<path style="fill:#6a681e; stroke:none;" d="M244 443L245 444L244 443z"/>
<path style="fill:#58550d; stroke:none;" d="M245 443L246 444L245 443z"/>
<path style="fill:#6a681e; stroke:none;" d="M426 443L427 444L426 443z"/>
<path style="fill:#58550d; stroke:none;" d="M244.333 444.667L244.667 445.333L244.333 444.667z"/>
<path style="fill:#2d2b06; stroke:none;" d="M426 444L427 445L426 444z"/>
<path style="fill:#58550d; stroke:none;" d="M214.333 446.667L214.667 447.333L214.333 446.667M241 446L241 448L243 448L243 446L241 446z"/>
<path style="fill:#48460a; stroke:none;" d="M402.333 446.667L402.667 447.333L402.333 446.667M395 447L396 448L395 447z"/>
<path style="fill:#2d2b06; stroke:none;" d="M396 447L397 448L396 447z"/>
<path style="fill:#010101; stroke:none;" d="M398 447L398 451L399 451L398 447z"/>
<path style="fill:#6a681e; stroke:none;" d="M399 448L399 451L400 451L399 448z"/>
<path style="fill:#48460a; stroke:none;" d="M423 448L424 449L423 448z"/>
<path style="fill:#6a681e; stroke:none;" d="M424 448L425 449L424 448z"/>
<path style="fill:#58550d; stroke:none;" d="M425 448L426 449L425 448M237 449L238 451L239 451L240 449L237 449M424.333 449.667L424.667 450.333L424.333 449.667z"/>
<path style="fill:#48460a; stroke:none;" d="M423 450L424 451L423 450z"/>
<path style="fill:#58550d; stroke:none;" d="M401 451L402 452L401 451M421 451L421 454L422 454L421 451z"/>
<path style="fill:#48460a; stroke:none;" d="M421 452L422 453L421 452z"/>
<path style="fill:#58550d; stroke:none;" d="M497 453L497 462L498 462L501 452L497 453z"/>
<path style="fill:#48460a; stroke:none;" d="M139 453L140 454L139 453z"/>
<path style="fill:#58550d; stroke:none;" d="M237 454L238 455L237 454M404 454L403 455L406 458L404 454z"/>
<path style="fill:#48460a; stroke:none;" d="M405 454L406 455L405 454M499.667 455.333L500.333 455.667L499.667 455.333z"/>
<path style="fill:#2d2b06; stroke:none;" d="M499 456L500 457L499 456z"/>
<path style="fill:#6a681e; stroke:none;" d="M500 456L501 457L500 456z"/>
<path style="fill:#58550d; stroke:none;" d="M412.333 460.667L412.667 461.333L412.333 460.667z"/>
<path style="fill:#010101; stroke:none;" d="M498 460L499 461L498 460z"/>
<path style="fill:#2d2b06; stroke:none;" d="M498 461L498 462L501 462L498 461z"/>
<path style="fill:#48460a; stroke:none;" d="M498 463L501 463L500 461L498 463z"/>
<path style="fill:#58550d; stroke:none;" d="M145 462L145 465L146 465L145 462M410 462L411 463L410 462M498 463L499 464L498 463z"/>
<path style="fill:#6a681e; stroke:none;" d="M499 463L500 464L499 463z"/>
<path style="fill:#2d2b06; stroke:none;" d="M500 463L501 464L500 463z"/>
<path style="fill:#58550d; stroke:none;" d="M148 465L149 466L148 465M149.333 466.667L149.667 467.333L149.333 466.667z"/>
<path style="fill:#2d2b06; stroke:none;" d="M148 467L149 468L148 467z"/>
<path style="fill:#58550d; stroke:none;" d="M493 467L494 468L493 467M492 469L493 473L494 473L492 469z"/>
<path style="fill:#6a681e; stroke:none;" d="M494 470L494 473L495 473L494 470z"/>
<path style="fill:#58550d; stroke:none;" d="M495 470L496 471L495 470z"/>
<path style="fill:#48460a; stroke:none;" d="M495 471L496 472L495 471M153 473L154 474L153 473z"/>
<path style="fill:#58550d; stroke:none;" d="M159 484L160 485L159 484M162 485L164 487L164 485L162 485M480 486L481 487L480 486z"/>
<path style="fill:#48460a; stroke:none;" d="M162 487L163 488L162 487z"/>
<path style="fill:#58550d; stroke:none;" d="M477.333 488.667L477.667 489.333L477.333 488.667M475.333 491.667L475.667 492.333L475.333 491.667M470 492L472 499L473 493L470 492z"/>
<path style="fill:#2d2b06; stroke:none;" d="M171 494L172 495L171 494z"/>
<path style="fill:#58550d; stroke:none;" d="M172 494L173 495L172 494z"/>
<path style="fill:#48460a; stroke:none;" d="M471 494L472 495L471 494M472 495L471 498L472 495z"/>
<path style="fill:#2d2b06; stroke:none;" d="M472 498L473 499L472 498z"/>
<path style="fill:#58550d; stroke:none;" d="M184 502L185 503L184 502M465 505L468 505L466 503L465 505z"/>
<path style="fill:#2d2b06; stroke:none;" d="M466 504L467 505L466 504z"/>
<path style="fill:#58550d; stroke:none;" d="M184 505L185 506L184 505M464 505L463 506L466 510L464 505M185 506L186 507L185 506z"/>
<path style="fill:#48460a; stroke:none;" d="M186 507L187 508L186 507z"/>
<path style="fill:#58550d; stroke:none;" d="M187 507L188 510L189 510L189 507L187 507z"/>
<path style="fill:#48460a; stroke:none;" d="M462 507L463 508L462 507z"/>
<path style="fill:#2d2b06; stroke:none;" d="M463 507L464 508L463 507z"/>
<path style="fill:#58550d; stroke:none;" d="M461 508L462 509L461 508z"/>
<path style="fill:#48460a; stroke:none;" d="M464.333 508.667L464.667 509.333L464.333 508.667M187 509L188 510L187 509z"/>
<path style="fill:#2d2b06; stroke:none;" d="M465 510L466 511L465 510z"/>
<path style="fill:#58550d; stroke:none;" d="M455 513L456 514L455 513M454 514L454 516L456 516L454 514M197 516L197 519L199 518L199 517L197 516M449.333 516.667L449.667 517.333L449.333 516.667M200 517L201 518L200 517M199 518L200 519L199 518M203 518L204 519L203 518M207 521L208 522L207 521M208.333 522.667L208.667 523.333L208.333 522.667M213 524L214 525L213 524M214 525L217 527L214 525M441.333 525.667L441.667 526.333L441.333 525.667z"/>
<path style="fill:#6a681e; stroke:none;" d="M214 526L215 527L214 526z"/>
<path style="fill:#58550d; stroke:none;" d="M435 528L436 529L435 528M430 531L431 532L430 531M423 539L422 544L425 544L425 539L423 539M230 540L231 541L230 540z"/>
<path style="fill:#48460a; stroke:none;" d="M425 542L426 543L425 542z"/>
<path style="fill:#58550d; stroke:none;" d="M236 544L237 545L236 544M239 544L240 552L244 551L239 544z"/>
<path style="fill:#48460a; stroke:none;" d="M236 545L237 546L236 545z"/>
<path style="fill:#58550d; stroke:none;" d="M236.667 546.333L237.333 546.667L236.667 546.333z"/>
<path style="fill:#48460a; stroke:none;" d="M239 546L240 547L239 546z"/>
<path style="fill:#58550d; stroke:none;" d="M422 548L421 554L422 554L422 548z"/>
<path style="fill:#6a681e; stroke:none;" d="M422 552L423 553L422 552z"/>
<path style="fill:#58550d; stroke:none;" d="M243 558L243 561L244 561L243 558M412.667 568.333L413.333 568.667L412.667 568.333M411 569L412 570L411 569z"/>
<path style="fill:#2d2b06; stroke:none;" d="M411 570L412 571L411 570z"/>
<path style="fill:#48460a; stroke:none;" d="M411 571L412 572L411 571z"/>
<path style="fill:#58550d; stroke:none;" d="M257 572L258 573L257 572M261 574L260 580L263 580L261 574M403 583L406 581L403 583M264 582L265 583L264 582z"/>
<path style="fill:#6a681e; stroke:none;" d="M405 582L406 583L405 582z"/>
<path style="fill:#58550d; stroke:none;" d="M266 583L270 587L268 589L274 592L273 597L277 594L277 592L266 583z"/>
<path style="fill:#48460a; stroke:none;" d="M269 587L270 588L269 587M270 590L271 591L270 590z"/>
<path style="fill:#58550d; stroke:none;" d="M377 602L378 606L384 606L397 590L377 602z"/>
<path style="fill:#48460a; stroke:none;" d="M273 593L274 594L273 593M271.667 594.333L272.333 594.667L271.667 594.333z"/>
<path style="fill:#6a681e; stroke:none;" d="M275 594L276 595L275 594z"/>
<path style="fill:#48460a; stroke:none;" d="M272 596L273 597L272 596z"/>
<path style="fill:#2d2b06; stroke:none;" d="M274.333 596.667L274.667 597.333L274.333 596.667z"/>
<path style="fill:#48460a; stroke:none;" d="M394 596L394 599L395 599L394 596z"/>
<path style="fill:#58550d; stroke:none;" d="M275 599L278 597L275 599z"/>
<path style="fill:#6a681e; stroke:none;" d="M278 597L277 599L279 599L278 597z"/>
<path style="fill:#58550d; stroke:none;" d="M283 597L284 600L285 600L285 597L283 597M278 599L280 601L280 599L278 599z"/>
<path style="fill:#48460a; stroke:none;" d="M283 599L284 600L283 599M278 600L279 601L278 600M280 600L281 601L280 600z"/>
<path style="fill:#58550d; stroke:none;" d="M289 600L289 603L290 603L291 603L289 600z"/>
<path style="fill:#48460a; stroke:none;" d="M386 600L387 601L386 600z"/>
<path style="fill:#2d2b06; stroke:none;" d="M279.667 601.333L280.333 601.667L279.667 601.333M289 601L290 602L289 601z"/>
<path style="fill:#6a681e; stroke:none;" d="M385 602L386 603L385 602z"/>
<path style="fill:#48460a; stroke:none;" d="M294 603L295 604L294 603z"/>
<path style="fill:#58550d; stroke:none;" d="M294 606L300 606C297.878 603.054 296.122 603.054 294 606z"/>
<path style="fill:#48460a; stroke:none;" d="M377 603L378 604L377 603z"/>
<path style="fill:#58550d; stroke:none;" d="M374 604L375 605L374 604z"/>
<path style="fill:#2d2b06; stroke:none;" d="M377 604L378 605L377 604z"/>
<path style="fill:#48460a; stroke:none;" d="M384 604L385 605L384 604z"/>
<path style="fill:#6a681e; stroke:none;" d="M377 605L378 606L377 605M381 605L382 606L381 605z"/>
<path style="fill:#58550d; stroke:none;" d="M367 606L344 609L344 610L359 611L369 609L367 606M369 606L369 608L371 608L371 606L369 606z"/>
<path style="fill:#48460a; stroke:none;" d="M307.333 609.667L307.667 610.333L307.333 609.667z"/>
<path style="fill:#58550d; stroke:none;" d="M308 611L312 610L308 611z"/>
<path style="fill:#48460a; stroke:none;" d="M356.333 609.667L356.667 610.333L356.333 609.667M359 609L360 610L359 609z"/>
<path style="fill:#6a681e; stroke:none;" d="M346 610L347 611L346 610z"/>
<path style="fill:#48460a; stroke:none;" d="M362 610L363 611L362 610M329.667 611.333L330.333 611.667L329.667 611.333z"/>
<path style="fill:#58550d; stroke:none;" d="M322 614L322 616L323 617L327 616L327 614L322 614z"/>
<path style="fill:#48460a; stroke:none;" d="M322 616L323 617L322 616M325 616L326 617L325 616z"/>
<path style="fill:#2d2b06; stroke:none;" d="M326 616L327 617L326 616z"/>
</svg>
