<?xml version="1.0" standalone="yes"?>
<svg xmlns="http://www.w3.org/2000/svg" width="688" height="688">
<path style="fill:#010101; stroke:none;" d="M0 0L0 688L688 688L688 0L0 0z"/>
<path style="fill:#692d0b; stroke:none;" d="M466 62L468 66L466 62z"/>
<path style="fill:#572609; stroke:none;" d="M439.333 63.6667L439.667 64.3333L439.333 63.6667z"/>
<path style="fill:#692d0b; stroke:none;" d="M440.667 63.3333L441.333 63.6667L440.667 63.3333z"/>
<path style="fill:#953f0f; stroke:none;" d="M465 63L467 66L465 63M440.667 64.3333L441.333 64.6667L440.667 64.3333z"/>
<path style="fill:#401c06; stroke:none;" d="M439 65L440 66L439 65z"/>
<path style="fill:#692d0b; stroke:none;" d="M440 65L441 66L440 65z"/>
<path style="fill:#572609; stroke:none;" d="M441 65L442 66L441 65z"/>
<path style="fill:#692d0b; stroke:none;" d="M465 65L466 66L465 65z"/>
<path style="fill:#572609; stroke:none;" d="M468 65L469 66L468 65z"/>
<path style="fill:#401c06; stroke:none;" d="M416 71L417 72L416 71z"/>
<path style="fill:#572609; stroke:none;" d="M416 74L417 74L419 72L416 74z"/>
<path style="fill:#953f0f; stroke:none;" d="M417 72L417 74L419 72L417 72z"/>
<path style="fill:#692d0b; stroke:none;" d="M418 73L419 74L418 73z"/>
<path style="fill:#953f0f; stroke:none;" d="M474 79L467 76L468 81C455.837 75.8519 437.531 89.9895 424 90L424 93L417 93C417 97.0739 397.451 106.883 393 107L393 110L381 113L381 119L354 130L345.222 136.306L329 145C326.862 149.655 321.966 152.277 317 153C311.667 164.808 286.974 166.494 286 179L280 179L277 182L268.222 188.306L246 199C245.527 202.802 239.468 206.742 236 208L228 219L226 218C225.006 224.212 220.077 229.348 214 231L214 237L211 237L211 245L206 245L203 251L197 251L191 257L185 274L180 274L177 285L178 288L175 285C169.022 287.388 165.453 298.971 165 305L162 305C162.013 308.194 161.597 310.271 165 311L165 314C158.854 315.183 154.514 332.824 160 334L160 337L157 337L157 343L154 343L154 348L157 348L157 357L153 357L150 354L151 349C145.039 348.677 139.982 346.292 139 340L136 340C135.987 336.806 136.403 334.729 133 334L134 331C131.05 329.097 131.014 326.012 128.684 323.464C122.192 316.366 116.422 310.463 111.785 301.729C107.521 293.7 107.67 285.876 97 285L99 282L97 280L94 282L93 277L84 270C83.7113 264.52 77.5339 268.041 74 265L72 265L65 269L65 273L62 272C62.702 277.398 64.4421 278.823 70 279L66 273L71 274L72 271L73 271C70.7163 283.487 72.3989 291.426 76 303C69.0208 304.496 81.8877 325.676 82 331L85 331L85 337L88 337L88 343L91 343L91 348C95.3497 349.295 96.3286 351.592 96 356L110 375L108 380L115 384C114.931 387.292 115.859 388.054 119 389L118 397L119 397L120 391L121 391L122 400L123 400L123 398L124 398L127 406L131 406L134 410L151 440L159 443L162 446L162 447L162 448L160 452C170.117 457.148 176.655 473.196 188 475C189.743 480.303 199.555 488.134 205 489L205 492L209 492L209 495L214 495L217 501C222.14 501.381 226.561 504.462 229 509L234 509L248 518L255 518L258 524L283 526L292 532C297.629 532 305.269 529.107 308 535L305 532C301.046 534.201 299.639 536.457 300 541L292 540L292 544L289 544L289 549L288 549L283 547L284 552C280.459 551.601 269.396 552.019 277 557L277 558L271 558C268.584 563.233 262.053 561.858 257 564L258 569L249 570L248 570C238.816 578.133 231 575.575 231 590L226 590C224.31 594.596 221.605 594.945 217 595L217 598L203 601L203 607L209 610C208.12 619.95 217.859 616.469 223.91 618.564C227.834 619.922 229.595 622.903 234 623L234 621L230 619L240.015 620.942L264 622L263 616L264 616C267.254 619.721 276.426 615.578 281 615L280 607L285 609L283 604C286.291 602.539 288.651 600.474 291 604L294 603L292 598L299 601C303.409 599.539 302.9 596.678 301 593L305 598L307 598L309 590L314 592L312 588L312 587L319 587L324 584L324 581C328.779 580.24 337.847 575.149 336 570L350 566L351 561L357 561L357 555L362 558L366 557L366 555L363 553L371 553L375 549L373 544L379 546L383 544L383 539L386 532L388 535C396.471 534.718 392.854 530.022 392 524L397 521L397 520L395 518L399 518L398 523C401.081 523.283 402.144 523.03 403 520C407.159 520 407.178 512.895 403 512L403 511L406 511L405 507L409 507L407 514L408 514L411 511L414 512L421 503L418 502L421 492L427 492L427 486L432 486L435 472L440 472L440 471L438 471L438 470L443 469L442 467L447 465L446 461L449 455L452 455L452 449L455 449C455.079 445.278 456.846 438.605 461 438L461 430L462 429L464 430L475 394L478 394L478 386L481 386L481 374L484 374L481 367L484 366L481 358L481 357L488 357L488 360L492 358L495 365L495 366L496 378L500 379L499 371L510 383L516 383L522 394L518 394L521 397L524 394L524 400L530 406L534 406L534 409L539 409L539 412L546 412L544 414L544 415C549.53 417.952 555.642 416.725 559 423L563 426L569 426L569 429L576 429L576 432L582 435L610 443L610 440L616 436L613 435L613 434L616 434C615.477 425.882 614.031 419.215 607 414L610 413L610 409L598 397C593.193 396.266 590.734 393.807 590 389L582 391L581 391L577 388L579 384L575 380C570.936 379.379 568.806 377.676 567 374C560.591 372.959 549.432 360.1 547 354C531.968 350.08 529.003 328.368 516 322L518 317L508 308L504 308L501 302L496 303L496 298L493 299L493 294L490 291L483 285L472 279L472 274L442.501 246.285L429 234C422.144 233.92 416.549 229.997 412 225L409 222L395 222L396 219L392 219L388 211L385 211L384 215C380.631 213.235 378.237 212.564 376 216L371 211L368 211L367 214L366 214L365 211L362 211L361 214L359 214C355.936 205.491 345.153 203.261 337 202L346 199L346 194L352 196L352 191L335 199C338.006 192.307 350.778 185.53 358 185C358.43 181.713 361.04 182.05 364 182L367 179L372 176L390 168L390 165L396 165L396 162L403 162L404 157L408 153L409 156L413 154L412 148C416.479 149.596 420.038 150.771 421 145L433 142L433 139L437 139L437 136L460 122L464 119L464 116C467.414 115.409 468.355 114.467 468 111L472 113L475 111L475 110L478 102C481.767 103.984 484.282 104.27 486 100L481 96L483 90L487 90C486.737 86.5903 486.321 85.0989 483 84C483.667 81.5214 485.183 76.7848 483.278 74.5C480.629 71.3235 474.585 76.257 474 79z"/>
<path style="fill:#692d0b; stroke:none;" d="M482 73L483 74L482 73z"/>
<path style="fill:#572609; stroke:none;" d="M486 73L487 74L486 73z"/>
<path style="fill:#401c06; stroke:none;" d="M484 74L485 75L484 74z"/>
<path style="fill:#953f0f; stroke:none;" d="M485 74L486 78L489 77L489 75L485 74z"/>
<path style="fill:#692d0b; stroke:none;" d="M488 74L489 75L488 74z"/>
<path style="fill:#401c06; stroke:none;" d="M474 75L475 76L474 75z"/>
<path style="fill:#692d0b; stroke:none;" d="M484 75L485 78L486 78L486 75L484 75M471 76L472 77L471 76z"/>
<path style="fill:#572609; stroke:none;" d="M484 76L485 77L484 76z"/>
<path style="fill:#692d0b; stroke:none;" d="M465 79L466 80L465 79z"/>
<path style="fill:#010101; stroke:none;" d="M475 80L475 82L477 80L475 80z"/>
<path style="fill:#692d0b; stroke:none;" d="M446 84L447 85L446 84z"/>
<path style="fill:#010101; stroke:none;" d="M481.333 84.6667L481.667 85.3333L481.333 84.6667z"/>
<path style="fill:#572609; stroke:none;" d="M491 86L492 87L491 86z"/>
<path style="fill:#953f0f; stroke:none;" d="M492 86L496 88L492 86z"/>
<path style="fill:#692d0b; stroke:none;" d="M495 86L496 87L495 86z"/>
<path style="fill:#572609; stroke:none;" d="M496.333 86.6667L496.667 87.3333L496.333 86.6667z"/>
<path style="fill:#692d0b; stroke:none;" d="M433.667 87.3333L434.333 87.6667L433.667 87.3333M491 87L491 88L496 89L496 88L491 87z"/>
<path style="fill:#401c06; stroke:none;" d="M491 88L492 89L491 88M496 88L497 89L496 88z"/>
<path style="fill:#692d0b; stroke:none;" d="M433 89L434 90L433 89M483 90L484 91L483 90M376 96L375 98L377 98L376 96z"/>
<path style="fill:#953f0f; stroke:none;" d="M375 98C377.083 101.684 379.253 101.465 383 100C380.911 96.2042 378.721 96.116 375 98z"/>
<path style="fill:#692d0b; stroke:none;" d="M381 96L382 97L381 96M382 97L383 98L382 97M376 99L377 100L376 99M407.333 99.6667L407.667 100.333L407.333 99.6667M484 99L485 100L484 99z"/>
<path style="fill:#572609; stroke:none;" d="M485 99L486 100L485 99z"/>
<path style="fill:#401c06; stroke:none;" d="M486 100L487 101L486 100z"/>
<path style="fill:#692d0b; stroke:none;" d="M376 101L377 102L376 101M486 101L485 104L486 104L486 101z"/>
<path style="fill:#572609; stroke:none;" d="M486 102L487 103L486 102z"/>
<path style="fill:#692d0b; stroke:none;" d="M477.333 103.667L477.667 104.333L477.333 103.667z"/>
<path style="fill:#572609; stroke:none;" d="M400 104L401 105L400 104z"/>
<path style="fill:#401c06; stroke:none;" d="M480 104L481 105L480 104z"/>
<path style="fill:#692d0b; stroke:none;" d="M481 104L482 105L481 104z"/>
<path style="fill:#401c06; stroke:none;" d="M482 104L483 105L482 104z"/>
<path style="fill:#692d0b; stroke:none;" d="M392 107L393 108L392 107M473 109L474 110L473 109M387 110L388 111L387 110M473 111L473 113L475 111L473 111z"/>
<path style="fill:#572609; stroke:none;" d="M386 112L387 113L386 112z"/>
<path style="fill:#692d0b; stroke:none;" d="M468 114L469 115L468 114M373 121L374 122L373 121M458 121L459 122L458 121M362 127L363 128L362 127M354 131L355 132L354 131M349 133L350 134L349 133M437 136L438 137L437 136z"/>
<path style="fill:#572609; stroke:none;" d="M437 138L438 139L437 138z"/>
<path style="fill:#692d0b; stroke:none;" d="M428 144L429 145L428 144M420 149L421 150L420 149M411 154L412 155L411 154z"/>
<path style="fill:#572609; stroke:none;" d="M412 154L413 155L412 154M410.667 155.333L411.333 155.667L410.667 155.333z"/>
<path style="fill:#692d0b; stroke:none;" d="M440 155L441 156L440 155z"/>
<path style="fill:#953f0f; stroke:none;" d="M440 156L440 157L444 155L440 156z"/>
<path style="fill:#692d0b; stroke:none;" d="M444.333 155.667L444.667 156.333L444.333 155.667z"/>
<path style="fill:#572609; stroke:none;" d="M440 157L440 158L444 158L440 157z"/>
<path style="fill:#401c06; stroke:none;" d="M444 157L445 158L444 157z"/>
<path style="fill:#692d0b; stroke:none;" d="M298 167L299 168L298 167z"/>
<path style="fill:#401c06; stroke:none;" d="M295 168L296 169L295 168z"/>
<path style="fill:#692d0b; stroke:none;" d="M295 169L296 170L295 169M294 170L295 171L294 170M379 172L380 173L379 172M371 174L372 175L371 174z"/>
<path style="fill:#572609; stroke:none;" d="M366 177L367 178L366 177z"/>
<path style="fill:#401c06; stroke:none;" d="M384 180L385 181L384 180z"/>
<path style="fill:#692d0b; stroke:none;" d="M385 180L384 183L385 180z"/>
<path style="fill:#953f0f; stroke:none;" d="M386 180L385 184L386 180z"/>
<path style="fill:#401c06; stroke:none;" d="M278 181L279 182L278 181z"/>
<path style="fill:#692d0b; stroke:none;" d="M279 181L280 182L279 181M277 183L278 184L277 183z"/>
<path style="fill:#572609; stroke:none;" d="M387 183L388 184L387 183z"/>
<path style="fill:#692d0b; stroke:none;" d="M385 184L385 185L389 187L385 184z"/>
<path style="fill:#401c06; stroke:none;" d="M387 184L388 185L387 184z"/>
<path style="fill:#953f0f; stroke:none;" d="M385 185L384 190L389 189L385 185z"/>
<path style="fill:#401c06; stroke:none;" d="M235 186L236 187L235 186z"/>
<path style="fill:#572609; stroke:none;" d="M236 186L235 188L236 186z"/>
<path style="fill:#692d0b; stroke:none;" d="M237 186L238 187L237 186z"/>
<path style="fill:#401c06; stroke:none;" d="M238 186L239 187L238 186z"/>
<path style="fill:#953f0f; stroke:none;" d="M236.667 187.333L237.333 187.667L236.667 187.333z"/>
<path style="fill:#572609; stroke:none;" d="M238 187L239 188L238 187z"/>
<path style="fill:#692d0b; stroke:none;" d="M351 187L352 188L351 187z"/>
<path style="fill:#401c06; stroke:none;" d="M235 188L236 189L235 188z"/>
<path style="fill:#692d0b; stroke:none;" d="M236.667 188.333L237.333 188.667L236.667 188.333z"/>
<path style="fill:#401c06; stroke:none;" d="M238 188L239 189L238 188z"/>
<path style="fill:#572609; stroke:none;" d="M378 188L379 189L378 188z"/>
<path style="fill:#953f0f; stroke:none;" d="M379 188L378 189L379 193L382 193L383 189L379 188z"/>
<path style="fill:#692d0b; stroke:none;" d="M381 188L382 189L381 188z"/>
<path style="fill:#572609; stroke:none;" d="M382 188L383 189L382 188z"/>
<path style="fill:#692d0b; stroke:none;" d="M387 189L388 190L387 189M346 190L347 191L346 190M378.333 191.667L378.667 192.333L378.333 191.667M382.333 191.667L382.667 192.333L382.333 191.667M341 192L342 193L341 192z"/>
<path style="fill:#572609; stroke:none;" d="M352 192L353 193L352 192z"/>
<path style="fill:#692d0b; stroke:none;" d="M259.667 193.333L260.333 193.667L259.667 193.333z"/>
<path style="fill:#572609; stroke:none;" d="M261 193L262 194L261 193z"/>
<path style="fill:#692d0b; stroke:none;" d="M352 193L353 194L352 193M346 194L347 195L346 194z"/>
<path style="fill:#401c06; stroke:none;" d="M352 194L353 195L352 194z"/>
<path style="fill:#692d0b; stroke:none;" d="M256 195L257 196L256 195M347 195L348 196L347 195M251 196L252 197L251 196M352 197L351 200L352 197z"/>
<path style="fill:#953f0f; stroke:none;" d="M353 197L352 201L356 201L356 197L353 197z"/>
<path style="fill:#692d0b; stroke:none;" d="M356 197L356 201L357 201L356 197z"/>
<path style="fill:#401c06; stroke:none;" d="M351 198L352 199L351 198z"/>
<path style="fill:#572609; stroke:none;" d="M379 198L380 199L379 198z"/>
<path style="fill:#692d0b; stroke:none;" d="M380 198L379 203L380 203L380 199L381 199L381 202L382 202L382 198L380 198z"/>
<path style="fill:#953f0f; stroke:none;" d="M380 199L380 203L381 203L380 199z"/>
<path style="fill:#401c06; stroke:none;" d="M351 200L352 201L351 200z"/>
<path style="fill:#953f0f; stroke:none;" d="M384 201L388 204L388 200L384 201z"/>
<path style="fill:#692d0b; stroke:none;" d="M386 200L387 201L386 200z"/>
<path style="fill:#572609; stroke:none;" d="M353 201L354 202L353 201z"/>
<path style="fill:#692d0b; stroke:none;" d="M354 201L355 202L354 201z"/>
<path style="fill:#572609; stroke:none;" d="M355 201L356 202L355 201z"/>
<path style="fill:#692d0b; stroke:none;" d="M388.333 201.667L388.667 202.333L388.333 201.667z"/>
<path style="fill:#010101; stroke:none;" d="M329 202L332 205L329 202z"/>
<path style="fill:#692d0b; stroke:none;" d="M341 202L342 203L341 202z"/>
<path style="fill:#572609; stroke:none;" d="M381 202L382 203L381 202M384 203L385 204L384 203z"/>
<path style="fill:#401c06; stroke:none;" d="M388 203L389 204L388 203z"/>
<path style="fill:#692d0b; stroke:none;" d="M239 205L240 206L239 205M352 205L353 206L352 205z"/>
<path style="fill:#010101; stroke:none;" d="M318 206L318 208L323 208L318 206z"/>
<path style="fill:#692d0b; stroke:none;" d="M213.667 209.333L214.333 209.667L213.667 209.333z"/>
<path style="fill:#401c06; stroke:none;" d="M215 209L216 210L215 209z"/>
<path style="fill:#692d0b; stroke:none;" d="M360 209L361 210L360 209z"/>
<path style="fill:#953f0f; stroke:none;" d="M213.667 210.333L214.333 210.667L213.667 210.333z"/>
<path style="fill:#572609; stroke:none;" d="M215 210L216 211L215 210z"/>
<path style="fill:#953f0f; stroke:none;" d="M234 210L235 211L234 210M360 210L361 211L360 210z"/>
<path style="fill:#692d0b; stroke:none;" d="M213.667 211.333L214.333 211.667L213.667 211.333z"/>
<path style="fill:#401c06; stroke:none;" d="M215 211L216 212L215 211z"/>
<path style="fill:#692d0b; stroke:none;" d="M235 211L236 212L235 211M366 213L367 214L366 213z"/>
<path style="fill:#572609; stroke:none;" d="M226 217L227 218L226 217z"/>
<path style="fill:#692d0b; stroke:none;" d="M227.333 217.667L227.667 218.333L227.333 217.667M225.333 218.667L225.667 219.333L225.333 218.667z"/>
<path style="fill:#401c06; stroke:none;" d="M396 218L397 219L396 218z"/>
<path style="fill:#692d0b; stroke:none;" d="M396 219L397 220L396 219z"/>
<path style="fill:#953f0f; stroke:none;" d="M397 219L398 220L397 219z"/>
<path style="fill:#572609; stroke:none;" d="M221 225L222 226L221 225z"/>
<path style="fill:#692d0b; stroke:none;" d="M410 225L411 226L410 225z"/>
<path style="fill:#572609; stroke:none;" d="M412 225L413 226L412 225z"/>
<path style="fill:#692d0b; stroke:none;" d="M417 228L418 229L417 228M429 236L430 237L429 236z"/>
<path style="fill:#572609; stroke:none;" d="M431 237L432 238L431 237M432 239L433 240L432 239z"/>
<path style="fill:#692d0b; stroke:none;" d="M433 240L434 241L433 240z"/>
<path style="fill:#572609; stroke:none;" d="M438 242L439 243L438 242z"/>
<path style="fill:#692d0b; stroke:none;" d="M442 245L443 246L442 245z"/>
<path style="fill:#010101; stroke:none;" d="M303.333 248.667L303.667 249.333L303.333 248.667M283 251L283 254C279.922 254.05 277.414 253.703 277 257C272.169 257.02 260.668 259.62 260 265C255.681 265.317 252.409 266.713 251 271L244 271L246 276L234 278L234 279L237 279L237 280L231 280L231 285C224.792 287.038 217.426 298.676 217 305L211 308L211 317L207 318L208 322C201.502 326.12 200.001 334.889 200 342L199 342L198 340L197 355L194 354C194 359.032 191.454 381.172 197 382C197 385.687 195.544 392.44 200 393L211 423L217 426L216 432L220 432L224 443L228 443C229.864 455.375 242.842 456.358 248 466L256 466L256 469L262 469L262 472C272.603 472.778 282.605 478.623 293.039 480.66C307.96 483.574 320.486 481.927 335.015 480.309C342.202 479.509 358.332 480.116 361 472C364.346 471.998 368.515 472.857 369 469L375 469L378 463C384.547 461.94 388.808 455.32 389 449L393 449L395 443L402 443L400 439L406 440L406 432L412 432L409 426L412 422L415 422L415 415L418 415L423 400L427 399L429 351L428 351L428 354L424 354L427 348C426.62 343.476 425.822 332.033 421 331L424 327L421 317L412 311C411.832 305.477 409.46 301.637 404 300L392 287L395 282C391.133 281.882 389.936 280.73 389 277L384 277L384 274L379 274L378 268L345 257C344.44 252.544 337.687 254 334 254C333.327 248.645 306.973 249.308 304 254L302 254C298.678 248.876 288.531 251 283 251z"/>
<path style="fill:#692d0b; stroke:none;" d="M301 251L302 252L301 251z"/>
<path style="fill:#401c06; stroke:none;" d="M259 264L260 265L259 264z"/>
<path style="fill:#692d0b; stroke:none;" d="M74 265L75 266L74 265M80 265L80 266L83 266L80 265M185 266L186 267L185 266M67 268L68 269L67 268M84 269L85 270L84 269z"/>
<path style="fill:#401c06; stroke:none;" d="M64 270L65 271L64 270z"/>
<path style="fill:#692d0b; stroke:none;" d="M65 270L66 271L65 270M66 271L67 272L66 271z"/>
<path style="fill:#401c06; stroke:none;" d="M61 272L62 273L61 272z"/>
<path style="fill:#692d0b; stroke:none;" d="M63.6667 272.333L64.3333 272.667L63.6667 272.333z"/>
<path style="fill:#572609; stroke:none;" d="M67 272L66 274L67 272z"/>
<path style="fill:#692d0b; stroke:none;" d="M61.6667 273.333L62.3333 273.667L61.6667 273.333z"/>
<path style="fill:#010101; stroke:none;" d="M67 273L67 274L70 274L67 273z"/>
<path style="fill:#572609; stroke:none;" d="M61 274L62 275L61 274z"/>
<path style="fill:#692d0b; stroke:none;" d="M69 274L70 275L69 274M245.333 274.667L245.667 275.333L245.333 274.667M62 275L63 276L62 275z"/>
<path style="fill:#572609; stroke:none;" d="M112 275L113 276L112 275z"/>
<path style="fill:#692d0b; stroke:none;" d="M112 278L113 278C113.653 276.04 114 275.446 114 278L115 278L114 275L112 278z"/>
<path style="fill:#572609; stroke:none;" d="M114 275L115 276L114 275z"/>
<path style="fill:#953f0f; stroke:none;" d="M113.333 276.667L113.667 277.333L113.333 276.667z"/>
<path style="fill:#401c06; stroke:none;" d="M62 277L63 278L62 277z"/>
<path style="fill:#572609; stroke:none;" d="M472 277L473 278L472 277z"/>
<path style="fill:#692d0b; stroke:none;" d="M63 278L64 279L63 278z"/>
<path style="fill:#572609; stroke:none;" d="M382 278L383 279L382 278z"/>
<path style="fill:#692d0b; stroke:none;" d="M67 279L68 280L67 279M96 279L98 281L96 279z"/>
<path style="fill:#572609; stroke:none;" d="M97 279L98 280L97 279z"/>
<path style="fill:#692d0b; stroke:none;" d="M234 279L234 280L237 280L234 279M382 279L383 284L384 284L385 279L384 279L384 283L383 283L382 279z"/>
<path style="fill:#953f0f; stroke:none;" d="M383 279L383 283L384 283L383 279z"/>
<path style="fill:#572609; stroke:none;" d="M95 280L96 281L95 280z"/>
<path style="fill:#692d0b; stroke:none;" d="M95 281L96 282L95 281z"/>
<path style="fill:#572609; stroke:none;" d="M98 281L99 282L98 281z"/>
<path style="fill:#692d0b; stroke:none;" d="M391 282L392 283L391 282z"/>
<path style="fill:#572609; stroke:none;" d="M382 283L383 284L382 283M384 283L385 284L384 283z"/>
<path style="fill:#692d0b; stroke:none;" d="M118 284L120 287L121 286L120 284L118 284z"/>
<path style="fill:#572609; stroke:none;" d="M120 284L121 285L120 284z"/>
<path style="fill:#692d0b; stroke:none;" d="M100 285L101 286L100 285M102 285L103 286L102 285z"/>
<path style="fill:#953f0f; stroke:none;" d="M119 285L120 286L119 285z"/>
<path style="fill:#692d0b; stroke:none;" d="M172 285L173 286L172 285z"/>
<path style="fill:#572609; stroke:none;" d="M118 286L119 287L118 286z"/>
<path style="fill:#401c06; stroke:none;" d="M120 286L121 287L120 286z"/>
<path style="fill:#692d0b; stroke:none;" d="M392 286L393 287L392 286M121 287L122 288L121 287z"/>
<path style="fill:#953f0f; stroke:none;" d="M122 287L121 289L123 289L122 287z"/>
<path style="fill:#572609; stroke:none;" d="M123 287L121 289L121 290L123 287M486 288L487 289L486 288z"/>
<path style="fill:#692d0b; stroke:none;" d="M107 289L108 290L107 289z"/>
<path style="fill:#401c06; stroke:none;" d="M123 289L124 290L123 289z"/>
<path style="fill:#692d0b; stroke:none;" d="M124 290L125 291L124 290z"/>
<path style="fill:#953f0f; stroke:none;" d="M125 290L124 292L126 292L125 290z"/>
<path style="fill:#401c06; stroke:none;" d="M126 290L127 291L126 290z"/>
<path style="fill:#572609; stroke:none;" d="M124 292L124 293L127 294L127 291L124 292z"/>
<path style="fill:#692d0b; stroke:none;" d="M168 291L169 292L168 291M127.667 293.333L128.333 293.667L127.667 293.333z"/>
<path style="fill:#401c06; stroke:none;" d="M126 294L127 295L126 294z"/>
<path style="fill:#953f0f; stroke:none;" d="M127 294L130 302L132 302L133 299L127 294z"/>
<path style="fill:#692d0b; stroke:none;" d="M222 295L223 296L222 295M492 295L493 296L492 295M129 296L133 299L129 296z"/>
<path style="fill:#572609; stroke:none;" d="M131 296L132 297L131 296z"/>
<path style="fill:#692d0b; stroke:none;" d="M127 297L128 298L127 297M493 297L493 298L496 298L493 297z"/>
<path style="fill:#572609; stroke:none;" d="M115 298L116 299L115 298z"/>
<path style="fill:#692d0b; stroke:none;" d="M116 298L115 299L118 301L116 298z"/>
<path style="fill:#572609; stroke:none;" d="M117 298L118 299L117 298z"/>
<path style="fill:#692d0b; stroke:none;" d="M128 298L129 302L130 302L128 298z"/>
<path style="fill:#401c06; stroke:none;" d="M493 298L494 299L493 298z"/>
<path style="fill:#953f0f; stroke:none;" d="M116 299L117 300L116 299z"/>
<path style="fill:#572609; stroke:none;" d="M115 300L116 301L115 300z"/>
<path style="fill:#401c06; stroke:none;" d="M128 300L129 301L128 300z"/>
<path style="fill:#692d0b; stroke:none;" d="M132 300L133 301L132 300z"/>
<path style="fill:#401c06; stroke:none;" d="M495 300L496 301L495 300z"/>
<path style="fill:#692d0b; stroke:none;" d="M498.333 300.667L498.667 301.333L498.333 300.667M115.333 306.667L115.667 307.333L115.333 306.667M73 307L74 308L73 307M138 307L140 310L141 309L140 307L138 307z"/>
<path style="fill:#572609; stroke:none;" d="M140 307L141 308L140 307z"/>
<path style="fill:#401c06; stroke:none;" d="M73 308L74 309L73 308z"/>
<path style="fill:#953f0f; stroke:none;" d="M139 308L140 309L139 308z"/>
<path style="fill:#692d0b; stroke:none;" d="M116 309L117 310L116 309z"/>
<path style="fill:#572609; stroke:none;" d="M138 309L139 310L138 309M140 309L141 310L140 309z"/>
<path style="fill:#010101; stroke:none;" d="M209.333 309.667L209.667 310.333L209.333 309.667z"/>
<path style="fill:#692d0b; stroke:none;" d="M117.667 311.333L118.333 311.667L117.667 311.333M119 314L120 315L119 314z"/>
<path style="fill:#572609; stroke:none;" d="M514 314L515 315L514 314M125 320L126 321L125 320z"/>
<path style="fill:#692d0b; stroke:none;" d="M205 322L206 323L205 322z"/>
<path style="fill:#572609; stroke:none;" d="M129 323L130 324L129 323z"/>
<path style="fill:#692d0b; stroke:none;" d="M546.667 324.333L547.333 324.667L546.667 324.333z"/>
<path style="fill:#401c06; stroke:none;" d="M548 324L549 325L548 324z"/>
<path style="fill:#953f0f; stroke:none;" d="M546.667 325.333L547.333 325.667L546.667 325.333z"/>
<path style="fill:#572609; stroke:none;" d="M548 325L549 326L548 325M310 326L311 327L310 326z"/>
<path style="fill:#953f0f; stroke:none;" d="M311 326L312 330L317 329L311 326z"/>
<path style="fill:#692d0b; stroke:none;" d="M315 326L315 328L317 328L315 326M546.667 326.333L547.333 326.667L546.667 326.333z"/>
<path style="fill:#401c06; stroke:none;" d="M548 326L549 327L548 326z"/>
<path style="fill:#692d0b; stroke:none;" d="M305 327L305 328L308 329L305 327z"/>
<path style="fill:#401c06; stroke:none;" d="M307 327L308 328L307 327z"/>
<path style="fill:#692d0b; stroke:none;" d="M310.333 327.667L310.667 328.333L310.333 327.667z"/>
<path style="fill:#953f0f; stroke:none;" d="M300 332L303 333L301 337C293.229 337 286.311 336.425 286 346C281.78 347.273 280.327 349.691 280 354C273.382 354.528 274.004 359.468 274 365L273 365L273 360L269 360C269.006 367.577 270.502 372.056 278 375L277 379L280 385C285.613 388.742 289.598 396.999 295 400C299.146 402.303 312.556 396.778 311 403C317.484 403.023 321.04 404.9 326 409L327 409L329 400L337 400L343 383L347 383L347 386C354.014 384.779 349.331 378.88 349 374L354 377L354 365L354 361L345 343L343 343L340 346L340 340L337 336L332 335L333 340L332 340L318 334L319 336L306 331L307 328L300 332z"/>
<path style="fill:#692d0b; stroke:none;" d="M313 329L314 330L313 329M316 329L317 330L316 329z"/>
<path style="fill:#401c06; stroke:none;" d="M133 330L134 331L133 330z"/>
<path style="fill:#692d0b; stroke:none;" d="M290 330L291 333L292 333L293 330L292 330L290 330z"/>
<path style="fill:#953f0f; stroke:none;" d="M291.333 330.667L291.667 331.333L291.333 330.667z"/>
<path style="fill:#692d0b; stroke:none;" d="M314 330L315 331L314 330z"/>
<path style="fill:#572609; stroke:none;" d="M315 330L316 331L315 330M421 330L422 331L421 330M202 331L203 332L202 331z"/>
<path style="fill:#692d0b; stroke:none;" d="M311 331L312 332L311 331z"/>
<path style="fill:#572609; stroke:none;" d="M290 332L291 333L290 332M292 332L293 333L292 332z"/>
<path style="fill:#692d0b; stroke:none;" d="M317 334L318 335L317 334M320 334L321 335L320 334z"/>
<path style="fill:#572609; stroke:none;" d="M321 334L322 335L321 334M334 334L335 335L334 334z"/>
<path style="fill:#010101; stroke:none;" d="M317.667 335.333L318.333 335.667L317.667 335.333z"/>
<path style="fill:#692d0b; stroke:none;" d="M336 335L337 336L336 335M332 337L333 338L332 337M336 337L337 338L336 337z"/>
<path style="fill:#401c06; stroke:none;" d="M199 341L200 342L199 341z"/>
<path style="fill:#692d0b; stroke:none;" d="M537 346L538 347L537 346M72 347L72 350L75 349L75 348L72 347z"/>
<path style="fill:#572609; stroke:none;" d="M74 347L75 348L74 347z"/>
<path style="fill:#953f0f; stroke:none;" d="M73 348L74 349L73 348z"/>
<path style="fill:#572609; stroke:none;" d="M74 349L75 350L74 349z"/>
<path style="fill:#692d0b; stroke:none;" d="M96 351L97 352L96 351M541 351L542 352L541 351z"/>
<path style="fill:#010101; stroke:none;" d="M484.667 352.333L485.333 352.667L484.667 352.333z"/>
<path style="fill:#692d0b; stroke:none;" d="M96 353L97 354L96 353M196 353L197 354L196 353z"/>
<path style="fill:#401c06; stroke:none;" d="M196 354L197 355L196 354z"/>
<path style="fill:#692d0b; stroke:none;" d="M274 355L275 356L274 355z"/>
<path style="fill:#572609; stroke:none;" d="M96 356L97 357L96 356z"/>
<path style="fill:#401c06; stroke:none;" d="M351 356L352 357L351 356z"/>
<path style="fill:#692d0b; stroke:none;" d="M487 357L488 358L487 357z"/>
<path style="fill:#010101; stroke:none;" d="M344 358L344 360L346 360L344 358z"/>
<path style="fill:#692d0b; stroke:none;" d="M490 359L491 360L490 359M549 359L550 360L549 359M99 360L100 361L99 360z"/>
<path style="fill:#572609; stroke:none;" d="M268 362L269 363L268 362z"/>
<path style="fill:#692d0b; stroke:none;" d="M353.333 362.667L353.667 363.333L353.333 362.667M268 363L268 366L269 366L268 363M102.333 365.667L102.667 366.333L102.333 365.667z"/>
<path style="fill:#572609; stroke:none;" d="M268 366L269 367L268 366z"/>
<path style="fill:#401c06; stroke:none;" d="M495 366L496 367L495 366z"/>
<path style="fill:#692d0b; stroke:none;" d="M103 367L104 368L103 367z"/>
<path style="fill:#401c06; stroke:none;" d="M416 367L417 368L416 367z"/>
<path style="fill:#692d0b; stroke:none;" d="M417.667 367.333L418.333 367.667L417.667 367.333z"/>
<path style="fill:#572609; stroke:none;" d="M586 367L587 368L586 367z"/>
<path style="fill:#692d0b; stroke:none;" d="M587 367L586 369L586 370C588.158 369.022 588.501 368.812 587 367z"/>
<path style="fill:#572609; stroke:none;" d="M588 367L589 368L588 367M416.333 368.667L416.667 369.333L416.333 368.667z"/>
<path style="fill:#953f0f; stroke:none;" d="M417.667 368.333L418.333 368.667L417.667 368.333M586.667 368.333L587.333 368.667L586.667 368.333z"/>
<path style="fill:#692d0b; stroke:none;" d="M417.667 369.333L418.333 369.667L417.667 369.333z"/>
<path style="fill:#572609; stroke:none;" d="M588 369L589 370L588 369z"/>
<path style="fill:#692d0b; stroke:none;" d="M105 370L106 371L105 370z"/>
<path style="fill:#572609; stroke:none;" d="M270 370L271 371L270 370z"/>
<path style="fill:#692d0b; stroke:none;" d="M273 373L274 374L273 373z"/>
<path style="fill:#401c06; stroke:none;" d="M354 373L355 374L354 373M591 373L592 374L591 373z"/>
<path style="fill:#692d0b; stroke:none;" d="M592.667 373.333L593.333 373.667L592.667 373.333z"/>
<path style="fill:#401c06; stroke:none;" d="M594 373L595 374L594 373z"/>
<path style="fill:#572609; stroke:none;" d="M354 374L355 375L354 374z"/>
<path style="fill:#692d0b; stroke:none;" d="M496.333 374.667L496.667 375.333L496.333 374.667z"/>
<path style="fill:#572609; stroke:none;" d="M591 374L592 375L591 374z"/>
<path style="fill:#953f0f; stroke:none;" d="M592.667 374.333L593.333 374.667L592.667 374.333z"/>
<path style="fill:#572609; stroke:none;" d="M594 374L595 375L594 374z"/>
<path style="fill:#401c06; stroke:none;" d="M354 375L355 376L354 375M591 375L592 376L591 375z"/>
<path style="fill:#692d0b; stroke:none;" d="M592.667 375.333L593.333 375.667L592.667 375.333z"/>
<path style="fill:#401c06; stroke:none;" d="M594 375L595 376L594 375z"/>
<path style="fill:#692d0b; stroke:none;" d="M277 376L278 377L277 376M351 376L352 377L351 376z"/>
<path style="fill:#572609; stroke:none;" d="M500 376L501 377L500 376z"/>
<path style="fill:#692d0b; stroke:none;" d="M497 377L497 379L499 379L497 377M500 377L501 378L500 377M569 377L570 378L569 377z"/>
<path style="fill:#401c06; stroke:none;" d="M500 378L501 379L500 378z"/>
<path style="fill:#692d0b; stroke:none;" d="M277 379L278 380L277 379M351 381L352 382L351 381M280 383L281 384L280 383z"/>
<path style="fill:#953f0f; stroke:none;" d="M496 383C496.477 389.127 500.523 389.127 501 383L496 383z"/>
<path style="fill:#692d0b; stroke:none;" d="M351 384L352 385L351 384z"/>
<path style="fill:#401c06; stroke:none;" d="M495 384L496 385L495 384z"/>
<path style="fill:#572609; stroke:none;" d="M495.333 385.667L495.667 386.333L495.333 385.667z"/>
<path style="fill:#692d0b; stroke:none;" d="M114 387L115 388L114 387z"/>
<path style="fill:#572609; stroke:none;" d="M496 388L497 389L496 388z"/>
<path style="fill:#692d0b; stroke:none;" d="M516.667 388.333L517.333 388.667L516.667 388.333M581.333 389.667L581.667 390.333L581.333 389.667M120 391L121 392L120 391M286 391L287 392L286 391M117.333 392.667L117.667 393.333L117.333 392.667M199 393L200 394L199 393z"/>
<path style="fill:#572609; stroke:none;" d="M491 393L492 394L491 393z"/>
<path style="fill:#692d0b; stroke:none;" d="M491 395L492 396L494 393L491 395z"/>
<path style="fill:#401c06; stroke:none;" d="M502 393L503 394L502 393z"/>
<path style="fill:#692d0b; stroke:none;" d="M503.667 393.333L504.333 393.667L503.667 393.333z"/>
<path style="fill:#401c06; stroke:none;" d="M505 393L506 394L505 393z"/>
<path style="fill:#953f0f; stroke:none;" d="M492 394L493 395L492 394z"/>
<path style="fill:#572609; stroke:none;" d="M502 394L503 395L502 394z"/>
<path style="fill:#953f0f; stroke:none;" d="M503.667 394.333L504.333 394.667L503.667 394.333z"/>
<path style="fill:#572609; stroke:none;" d="M505 394L506 395L505 394M491 395L492 396L491 395M493 395L494 396L493 395z"/>
<path style="fill:#401c06; stroke:none;" d="M502 395L503 396L502 395z"/>
<path style="fill:#692d0b; stroke:none;" d="M503.667 395.333L504.333 395.667L503.667 395.333z"/>
<path style="fill:#401c06; stroke:none;" d="M505 395L506 396L505 395z"/>
<path style="fill:#692d0b; stroke:none;" d="M518 395L519 396L518 395z"/>
<path style="fill:#572609; stroke:none;" d="M117 396L118 397L117 396z"/>
<path style="fill:#692d0b; stroke:none;" d="M119 396L120 397L119 396z"/>
<path style="fill:#572609; stroke:none;" d="M519 396L520 397L519 396z"/>
<path style="fill:#692d0b; stroke:none;" d="M521 396L522 397L521 396M426 397L427 398L426 397z"/>
<path style="fill:#401c06; stroke:none;" d="M122 400L123 401L122 400z"/>
<path style="fill:#692d0b; stroke:none;" d="M124 401L125 402L124 401M311 401L312 402L311 401z"/>
<path style="fill:#572609; stroke:none;" d="M202 402L203 403L202 402z"/>
<path style="fill:#692d0b; stroke:none;" d="M202 403L203 404L202 403z"/>
<path style="fill:#572609; stroke:none;" d="M603 403L604 404L603 403M489.667 404.333L490.333 404.667L489.667 404.333z"/>
<path style="fill:#953f0f; stroke:none;" d="M489 405L489 407L493 408L494 407L494 405L493 404L489 405z"/>
<path style="fill:#572609; stroke:none;" d="M493 404L494 407L495 407L493 404z"/>
<path style="fill:#401c06; stroke:none;" d="M494 404L495 405L494 404z"/>
<path style="fill:#572609; stroke:none;" d="M508 404L509 405L508 404z"/>
<path style="fill:#953f0f; stroke:none;" d="M509 404L508 405L511 408L510 405L512 406L509 404z"/>
<path style="fill:#572609; stroke:none;" d="M511 404L512 405L511 404z"/>
<path style="fill:#692d0b; stroke:none;" d="M510 405L510 407L512 407L510 405M327 406L328 407L327 406M325 408L326 409L325 408z"/>
<path style="fill:#572609; stroke:none;" d="M327 408L328 409L327 408z"/>
<path style="fill:#692d0b; stroke:none;" d="M609 410L610 411L609 410M469 412L470 413L469 412M469 415L470 416L469 415M554 417L555 418L554 417M210 418L211 419L210 418M137 420L138 421L137 420z"/>
<path style="fill:#572609; stroke:none;" d="M137 421L138 422L137 421z"/>
<path style="fill:#692d0b; stroke:none;" d="M412 422L413 423L412 422M216 426L217 427L216 426M409 426L410 427L409 426M575 429L576 430L575 429M145 431L146 432L145 431M575 431L576 432L575 431M615 432L616 433L615 432z"/>
<path style="fill:#572609; stroke:none;" d="M582 433L583 434L582 433z"/>
<path style="fill:#692d0b; stroke:none;" d="M148 434L149 435L148 434z"/>
<path style="fill:#572609; stroke:none;" d="M581 434L582 435L581 434z"/>
<path style="fill:#010101; stroke:none;" d="M610 435L610 436L613 436L610 435z"/>
<path style="fill:#572609; stroke:none;" d="M403 438L404 439L403 438z"/>
<path style="fill:#692d0b; stroke:none;" d="M615.333 438.667L615.667 439.333L615.333 438.667z"/>
<path style="fill:#401c06; stroke:none;" d="M400.333 439.667L400.667 440.333L400.333 439.667z"/>
<path style="fill:#692d0b; stroke:none;" d="M154.667 443.333L155.333 443.667L154.667 443.333M395 443L396 444L395 443z"/>
<path style="fill:#401c06; stroke:none;" d="M468 447L469 448L468 447z"/>
<path style="fill:#572609; stroke:none;" d="M468 448L468 450L474 450L474 448L468 448z"/>
<path style="fill:#401c06; stroke:none;" d="M473 447L474 448L473 447z"/>
<path style="fill:#953f0f; stroke:none;" d="M469 448L469 450L473 450L473 448L469 448z"/>
<path style="fill:#401c06; stroke:none;" d="M468 450L469 451L468 450M473 450L474 451L473 450M261 453L262 454L261 453z"/>
<path style="fill:#692d0b; stroke:none;" d="M262 453L263 454L262 453z"/>
<path style="fill:#572609; stroke:none;" d="M263 453L264 454L263 453M261.333 454.667L261.667 455.333L261.333 454.667z"/>
<path style="fill:#953f0f; stroke:none;" d="M262 454L262 456L264 454L262 454z"/>
<path style="fill:#692d0b; stroke:none;" d="M236 455L237 456L236 455M263 455L264 456L263 455M383 460L384 461L383 460M446 465L447 466L446 465M369 469L370 470L369 469z"/>
<path style="fill:#572609; stroke:none;" d="M442 469L443 470L442 469z"/>
<path style="fill:#010101; stroke:none;" d="M438.667 470.333L439.333 470.667L438.667 470.333z"/>
<path style="fill:#401c06; stroke:none;" d="M440 470L441 471L440 470z"/>
<path style="fill:#572609; stroke:none;" d="M440 471L441 472L440 471z"/>
<path style="fill:#692d0b; stroke:none;" d="M361 472L362 473L361 472z"/>
<path style="fill:#401c06; stroke:none;" d="M437 472L438 473L437 472z"/>
<path style="fill:#572609; stroke:none;" d="M328 479L329 480L328 479M191 480L192 481L191 480z"/>
<path style="fill:#692d0b; stroke:none;" d="M328 480L329 481L328 480z"/>
<path style="fill:#953f0f; stroke:none;" d="M329 480L330 481L329 480z"/>
<path style="fill:#692d0b; stroke:none;" d="M420 499L421 500L420 499z"/>
<path style="fill:#401c06; stroke:none;" d="M420 502L421 503L420 502z"/>
<path style="fill:#010101; stroke:none;" d="M415 504L417 506L417 504L415 504z"/>
<path style="fill:#692d0b; stroke:none;" d="M420 504L421 505L420 504M417 506L418 507L417 506M411 511L412 512L411 511M408 512L408 514L410 514L408 512z"/>
<path style="fill:#010101; stroke:none;" d="M395 518L395 520L399 520L399 518L395 518z"/>
<path style="fill:#692d0b; stroke:none;" d="M405 519L406 520L405 519M397 520L398 521L397 520M403 520L404 521L403 520z"/>
<path style="fill:#010101; stroke:none;" d="M271 521L272 522L271 521z"/>
<path style="fill:#692d0b; stroke:none;" d="M399 523L400 524L399 523M401 523L402 524L401 523z"/>
<path style="fill:#953f0f; stroke:none;" d="M249 528L251 532L252 532L254 528L249 528z"/>
<path style="fill:#692d0b; stroke:none;" d="M251 527L252 528L251 527M249 530L250 531L249 530M253 530L254 531L253 530M292 530L293 531L292 530z"/>
<path style="fill:#010101; stroke:none;" d="M303 530L308 535L303 530z"/>
<path style="fill:#692d0b; stroke:none;" d="M394 530L395 531L394 530M250 531L251 532L250 531M252 531L253 532L252 531z"/>
<path style="fill:#572609; stroke:none;" d="M261.333 531.667L261.667 532.333L261.333 531.667z"/>
<path style="fill:#953f0f; stroke:none;" d="M262 531L264 533L264 538L267 538L268 533L262 531z"/>
<path style="fill:#572609; stroke:none;" d="M263 531L264 532L263 531M264 532L265 533L264 532z"/>
<path style="fill:#692d0b; stroke:none;" d="M265.667 532.333L266.333 532.667L265.667 532.333M303 532L304 533L303 532M387 532L388 533L387 532z"/>
<path style="fill:#953f0f; stroke:none;" d="M259 533L261 537L261 533L259 533z"/>
<path style="fill:#401c06; stroke:none;" d="M261 533L262 534L261 533z"/>
<path style="fill:#692d0b; stroke:none;" d="M262.667 533.333L263.333 533.667L262.667 533.333M304 533L305 534L304 533M394.333 533.667L394.667 534.333L394.333 533.667M260.333 534.667L260.667 535.333L260.333 534.667z"/>
<path style="fill:#572609; stroke:none;" d="M305 534L306 535L305 534M258 536L259 537L258 536z"/>
<path style="fill:#401c06; stroke:none;" d="M297 536L298 537L297 536z"/>
<path style="fill:#692d0b; stroke:none;" d="M299.333 536.667L299.667 537.333L299.333 536.667M265 537L266 538L265 537M267 537L268 538L267 537M297 537L298 538L297 537M282.667 538.333L283.333 538.667L282.667 538.333z"/>
<path style="fill:#953f0f; stroke:none;" d="M281 539L281 543L285 543L285 539L281 539z"/>
<path style="fill:#692d0b; stroke:none;" d="M295 540L296 541L295 540M282.667 541.333L283.333 541.667L282.667 541.333z"/>
<path style="fill:#572609; stroke:none;" d="M379 544L380 545L379 544z"/>
<path style="fill:#692d0b; stroke:none;" d="M376 545L377 546L376 545M288 548L289 549L288 548M372 549L373 550L372 549M276 550L277 551L276 550z"/>
<path style="fill:#572609; stroke:none;" d="M278 550L279 551L278 550z"/>
<path style="fill:#692d0b; stroke:none;" d="M279 551L280 552L279 551M357 555L358 556L357 555M362 556L363 557L362 556z"/>
<path style="fill:#572609; stroke:none;" d="M365 557L366 558L365 557z"/>
<path style="fill:#692d0b; stroke:none;" d="M357 558L358 559L357 558M351.333 563.667L351.667 564.333L351.333 563.667M348 565L349 566L348 565M350 565L351 566L350 565M243 572L244 573L243 572M337 573L338 574L337 573z"/>
<path style="fill:#572609; stroke:none;" d="M231 578L232 579L231 578z"/>
<path style="fill:#692d0b; stroke:none;" d="M312 587L313 588L312 587z"/>
<path style="fill:#010101; stroke:none;" d="M313 587L314 588L313 587z"/>
<path style="fill:#692d0b; stroke:none;" d="M314 587L315 588L314 587M313 590L314 591L313 590M225 592L226 593L225 592z"/>
<path style="fill:#572609; stroke:none;" d="M300 592L301 593L300 592z"/>
<path style="fill:#010101; stroke:none;" d="M301 593L301 595L304 595L304 593L301 593z"/>
<path style="fill:#692d0b; stroke:none;" d="M223 594L224 595L223 594M303 595L304 596L303 595M308 595L309 596L308 595M304 596L305 597L304 596z"/>
<path style="fill:#401c06; stroke:none;" d="M308 596L309 597L308 596z"/>
<path style="fill:#692d0b; stroke:none;" d="M307 597L308 598L307 597M207 598L208 599L207 598M302 600L303 601L302 600M286 601L287 602L286 601M290 601L291 602L290 601M285 603L286 604L285 603z"/>
<path style="fill:#401c06; stroke:none;" d="M290 603L291 604L290 603z"/>
<path style="fill:#572609; stroke:none;" d="M285 606L286 607L285 606z"/>
<path style="fill:#692d0b; stroke:none;" d="M285 607L286 608L285 607z"/>
<path style="fill:#572609; stroke:none;" d="M283 609L284 610L283 609z"/>
<path style="fill:#692d0b; stroke:none;" d="M280 610L281 611L280 610M195 614L195 615L199 615L195 614z"/>
<path style="fill:#572609; stroke:none;" d="M197 613L198 614L197 613z"/>
<path style="fill:#953f0f; stroke:none;" d="M195 615L195 616L199 616L195 615z"/>
<path style="fill:#692d0b; stroke:none;" d="M195 616L195 617L199 617L195 616z"/>
<path style="fill:#401c06; stroke:none;" d="M211 616L212 617L211 616z"/>
<path style="fill:#572609; stroke:none;" d="M196.667 617.333L197.333 617.667L196.667 617.333z"/>
<path style="fill:#692d0b; stroke:none;" d="M234 618L235 619L234 618M268.667 618.333L269.333 618.667L268.667 618.333M226.333 619.667L226.667 620.333L226.333 619.667M232 620L233 621L232 620M235 620L236 621L235 620z"/>
<path style="fill:#401c06; stroke:none;" d="M229 622L230 623L229 622z"/>
<path style="fill:#572609; stroke:none;" d="M263 622L264 623L263 622z"/>
<path style="fill:#692d0b; stroke:none;" d="M230 623L231 624L230 623M232 623L233 624L232 623M212 629L215 628L212 629z"/>
<path style="fill:#953f0f; stroke:none;" d="M212 629L212 632L216 633L216 628L212 629z"/>
<path style="fill:#572609; stroke:none;" d="M216 629L217 630L216 629z"/>
<path style="fill:#692d0b; stroke:none;" d="M212 630L213 631L212 630M216 630L216 635L217 635L216 630M218.667 630.333L219.333 630.667L218.667 630.333z"/>
<path style="fill:#953f0f; stroke:none;" d="M217 631L217 635L222 634L222 632L217 631z"/>
<path style="fill:#692d0b; stroke:none;" d="M221 631L222 632L221 631z"/>
</svg>
