<?xml version="1.0" standalone="yes"?>
<svg xmlns="http://www.w3.org/2000/svg" width="688" height="688">
<path style="fill:#010101; stroke:none;" d="M0 0L0 688L688 688L688 0L0 0z"/>
<path style="fill:#223614; stroke:none;" d="M346 54L347 55L346 54z"/>
<path style="fill:#3b5d21; stroke:none;" d="M344 55L344 58L348 58L348 55L344 55z"/>
<path style="fill:#2a4318; stroke:none;" d="M339 56L339 58L341 58L339 56z"/>
<path style="fill:#3b5d21; stroke:none;" d="M340 56L341 57L340 56z"/>
<path style="fill:#223614; stroke:none;" d="M343 56L344 57L343 56M348 56L349 57L348 56z"/>
<path style="fill:#1b2b0f; stroke:none;" d="M339 58L340 59L339 58z"/>
<path style="fill:#3b5d21; stroke:none;" d="M336 66L335 62C331.932 65.2098 333.496 67.262 335 71L332 80L329 80L329 85L324 83L326 91L326 92C319.716 97.7003 321 119.787 321 128L318 128L318 134L315 134C315 137.363 314.284 140.204 318 141L318 142L315 142L314 156L313 156L313 151C309.97 151.856 309.717 152.919 310 156L307 162L272 170L271 165C267.502 166.928 267.125 169.122 267 173L254 171L253 172L253 174L256 179L233 185L234 190C226.73 190.001 222.1 189.596 222 198L216 196L216 204C212.126 204.603 209.305 206.21 208 210L202 210L202 216L194 213C194.659 217.764 195.846 221.368 191 224C190.245 230.071 183.707 231.437 179 233L181 237L181 238L177 244L174 244L174 241L171 246L168 264L165 264L162 274L156 273L159 281C154.903 281.878 154.017 290.995 154 295L151 295C151.019 300.529 153.735 305.971 148 309L148 320L140 320L140 332L139 332L127 323L128 332L127 332C123.523 327.177 119.856 332.193 115.014 331.812C111.832 331.562 109.17 329.49 106 329C104.68 334.156 99.5216 333.985 95 334L96 337L89 337L89 340L69 342L72 344L72 345L68 350C62.1001 349.092 63.3773 354.683 63 359L73 374L75 374C79.7435 370.019 78.7472 376.479 82.3673 377.802C84.9432 378.744 89.2167 377.08 92 377L92 380L103 380L103 383C109.668 382.853 114.679 384.778 118 391L129.025 388.367L148 391C148.34 395.365 149.635 396.66 154 397L154 405L157 405C157.2 411.79 158.026 420.741 165 423C164.399 427.255 160.981 434.577 166 436L165 431C169.369 433.354 170.74 437.2 171 442C176.833 444.968 178.93 449.661 179 456L182 456L182 462C189.119 463.155 195.528 472.037 196 479L215 490C212.109 495.929 217.156 495.983 222 496L222 499L226 499L226 500L222 500L222 504L230.569 502.907L239 512L244 514L244 512L240 511L240 510L247 510L247 513L276 524L276 527L281 527L281 530L285 530L292 543L298 552L292 550L295 566L298 566L298 570L301 572C295.645 572.178 292.512 575.398 298 579L298 581L295 582L301 589L303 596L303 597L303 598C299.018 600.906 302.817 610.776 307 612L307 620L315 627L313 631L327 635L326 639L337 643L335 637L340 637L349 629L354 615L357 615L357 603L360 603L360 595L366 594C365.348 590.089 363.864 589.3 360 589L360 581L368 579C366.524 574.741 357.994 562.336 367 561L367 559L370 559L370 557L369 556L366 558C366.021 551.852 370.915 543.62 363 541L363 533L374 530L374 527L384 528L384 532L388 531L388 529L384 528L384 527L394 521L395 521L395 525L416 516L417 513C422.925 514.798 428.948 514.157 430 507L439.06 501.523L448 501L445 501L445 500L450 493L456 495L453 492L456 484C461.426 483.635 464.567 481.622 465 476L473 468L474 468L475 468C477.614 470.766 478.396 467.522 478 465L484 467L485 456L487 459L492 457L490 445L502 428L506 430L504 426L510 408C514.578 407.981 522.874 405.524 516 401C531.016 393.382 555.722 401.523 572 403L572 399L579 405L585 402L581 399L606 397L615 392L615 391L615 390L612 385C615.054 384.346 614.936 382.993 615 380L606 374L610 370L604 366L606 371L599 363L589 363C586.713 356.357 579.897 357 574 357L574 354C571.026 353.988 567.508 354.465 567 351L542 340L542 343L538 343L538 340C535.026 339.988 531.508 340.465 531 337L523 337L522 331L518 331L519 326L516 326L519 313L513 306C519.603 304.585 510.098 293.661 510 289L516 287L510 284L510 278L507 278C506.999 272.21 507.455 266.102 501 264C501.744 259.578 500.37 258.341 496 258L490 241L486 238L482 238L482 233L462 215L465 214L465 208C462.654 206.378 460.157 203.048 458 206L457 206L451 201L451 200L453 196L449 199C445.41 198.019 439.6 197.309 439 193L434 193L429 189L429 188L431 188L431 187L423 187L426 185L426 184L416 176L405 176L405 173L401 173L401 170L388 170L378 159L380 142L383 142L380 133C385.81 131.755 380.644 125.739 380 122L377 122L377 114L374 114L377 103L374 94L371 94L366 80L363 80C362.824 64.3117 347.544 55.8478 336 66z"/>
<path style="fill:#223614; stroke:none;" d="M333 62L334 63L333 62M335 62L336 63L335 62M332 63L333 64L332 63z"/>
<path style="fill:#2a4318; stroke:none;" d="M332.333 66.6667L332.667 67.3333L332.333 66.6667M358 68L359 69L358 68z"/>
<path style="fill:#223614; stroke:none;" d="M359 68L360 69L359 68z"/>
<path style="fill:#2a4318; stroke:none;" d="M332 71L333 72L332 71z"/>
<path style="fill:#223614; stroke:none;" d="M362 72L363 73L362 72z"/>
<path style="fill:#2a4318; stroke:none;" d="M368 85L369 86L368 85z"/>
<path style="fill:#223614; stroke:none;" d="M371 90L372 91L371 90z"/>
<path style="fill:#3b5d21; stroke:none;" d="M377 97L377 102L378 102L377 97z"/>
<path style="fill:#223614; stroke:none;" d="M378 97L379 98L378 97M376 98L377 99L376 98z"/>
<path style="fill:#1b2b0f; stroke:none;" d="M379 98L380 99L379 98z"/>
<path style="fill:#2a4318; stroke:none;" d="M376 99L377 100L376 99z"/>
<path style="fill:#223614; stroke:none;" d="M379 99L380 100L379 99z"/>
<path style="fill:#1b2b0f; stroke:none;" d="M376 100L377 101L376 100z"/>
<path style="fill:#2a4318; stroke:none;" d="M378.333 100.667L378.667 101.333L378.333 100.667z"/>
<path style="fill:#1b2b0f; stroke:none;" d="M379 100L380 101L379 100z"/>
<path style="fill:#2a4318; stroke:none;" d="M376 104L376 107L377 107L376 104M315.333 117.667L315.667 118.333L315.333 117.667z"/>
<path style="fill:#3b5d21; stroke:none;" d="M316 117L315 121L319 122L319 117L316 117z"/>
<path style="fill:#2a4318; stroke:none;" d="M380 125L381 126L380 125z"/>
<path style="fill:#3b5d21; stroke:none;" d="M313 126L313 127L317 127L313 126z"/>
<path style="fill:#2a4318; stroke:none;" d="M382.333 126.667L382.667 127.333L382.333 126.667M313 127L313 130L314 130L317 130L317 127L316 127L313 127z"/>
<path style="fill:#3b5d21; stroke:none;" d="M314.667 129.333L315.333 129.667L314.667 129.333z"/>
<path style="fill:#2a4318; stroke:none;" d="M309 152L310 153L309 152M268 165L269 166L268 165M385 165L386 166L385 165M278 167L279 168L278 167M282 167L283 168L282 167z"/>
<path style="fill:#223614; stroke:none;" d="M253 174L254 175L253 174M254 175L255 176L254 175z"/>
<path style="fill:#2a4318; stroke:none;" d="M255 175L256 176L255 175z"/>
<path style="fill:#1b2b0f; stroke:none;" d="M423 183L424 184L423 183z"/>
<path style="fill:#2a4318; stroke:none;" d="M235 184L235 185L238 185L235 184M431 187L432 188L431 187M222.667 190.333L223.333 190.667L222.667 190.333z"/>
<path style="fill:#010101; stroke:none;" d="M226 191L227 192L226 191z"/>
<path style="fill:#2a4318; stroke:none;" d="M219 196L220 197L219 196M447 198L448 199L447 198z"/>
<path style="fill:#223614; stroke:none;" d="M448 198L449 199L448 198z"/>
<path style="fill:#2a4318; stroke:none;" d="M453 201L454 202L453 201z"/>
<path style="fill:#223614; stroke:none;" d="M453 202L454 203L453 202z"/>
<path style="fill:#2a4318; stroke:none;" d="M211 204L212 205L211 204M457 204L458 205L457 204z"/>
<path style="fill:#010101; stroke:none;" d="M457 205L458 206L457 205z"/>
<path style="fill:#2a4318; stroke:none;" d="M461 205L462 206L461 205M463 207L464 208L463 207M464 209L465 210L464 209M197 213L198 214L197 213z"/>
<path style="fill:#1b2b0f; stroke:none;" d="M193 214L194 215L193 214z"/>
<path style="fill:#2a4318; stroke:none;" d="M194 214L195 215L194 214M193 215L194 216L193 215z"/>
<path style="fill:#223614; stroke:none;" d="M193 216L194 217L193 216z"/>
<path style="fill:#2a4318; stroke:none;" d="M194 217L195 218L194 217z"/>
<path style="fill:#010101; stroke:none;" d="M295 221L294 225L289 224L289 232C280.82 229.078 276.87 231.828 269 233L269 234L272 238L264 235L264 244C260.782 244.013 257.451 243.408 257 247L250 247L252 257L242 255L239 259C238.486 262.915 236.76 264.882 233 266L236 269L236 271L227 272L221 279L216 287C218.34 289.779 217.266 290.986 214 292L211 301L213 306L208 306L210 317L205 317C205.148 322.153 207.918 326.798 202 329L202 342L205 342L202 352C207.531 357.406 202.886 368.63 210 371L210 377L207 377L210 391L213 391C213.002 394.346 212.143 398.515 216 399L219 413L220 413L221 408L227 416L222 415C222.669 419.306 225.066 423.08 229 425L227 420L235 421L233 424L235 431L239 431C238.166 441.401 249.388 445.314 255 453C258.883 451.788 261.012 452.334 263 456L269 456C270.456 462.871 277.327 466.802 284 467L284 470L293 470C293.391 473.109 307.938 475.983 312 476L312 473L320 473L320 476L324 476L324 479L341 476L355 476L355 473L363 473L362 466L383 465L383 462L397 462L394 457L401 456L401 453C406.744 452.996 413.902 451.362 417 446C413.104 446.6 410.998 446.59 409 443L420 442L419 434C423.378 434.962 425.103 435.687 429 433L428 429L434 431L434 425L437 422L443 419L442 415L445 411L449 411L448 405L451 405L453 391L451 383L459 385L457 377C451.837 371.089 456.939 363.083 464 363C462.841 358.07 461.117 355.116 465 351L465 349C458.699 344.427 457.674 337.348 465 333L465 332L459 322L454 295L448 292C447.994 284.495 444.782 277.476 437 275L439 267L431 264L423 252L417 252L417 244L411 244C410.63 241.017 408.916 241.137 406 241L408 246C404.446 245.612 389.542 236.649 400 237C395.413 228.241 385.496 233.662 380 229L386 229L386 228L379 227C378.499 223.01 372.501 223.01 372 227C367.147 228.04 369 235.898 369 240L374 243L366 241C365.999 246.787 364.927 260.806 360 264L360 267L363 267L365 274L360 272L357 275L357 281L360 281L360 286L356 283L355 283L352 295L349 295L349 300L346 300C345.845 305.16 344.44 307.396 340 310C339.47 314.064 336.771 314.723 333 315L334 312L322 312C322 309.174 320.858 309.209 318 309L318 300L315 300L314.436 287.285L307.684 275L309 255L309 218L295 221z"/>
<path style="fill:#2a4318; stroke:none;" d="M304 219L305 220L304 219M470 221L471 222L470 221M307 223L308 224L307 223M379 226L380 227L379 226M380 229L380 231L382 229L380 229M274 230L275 231L274 230z"/>
<path style="fill:#223614; stroke:none;" d="M384 230L385 231L384 230z"/>
<path style="fill:#1b2b0f; stroke:none;" d="M181 231L182 232L181 231z"/>
<path style="fill:#3b5d21; stroke:none;" d="M280 231L279 235L284 232L280 231z"/>
<path style="fill:#2a4318; stroke:none;" d="M288 231L289 232L288 231M381 231L382 232L381 231M383 231L384 232L383 231z"/>
<path style="fill:#223614; stroke:none;" d="M179 232L180 233L179 232z"/>
<path style="fill:#2a4318; stroke:none;" d="M272 232L273 233L272 232M278 232L279 233L278 232M283 233L284 234L283 233M179 234L180 235L179 234M282 234L283 235L282 234M395 236L396 237L395 236M394 237L395 238L394 237M179 238L180 239L179 238M370 239L371 240L370 239z"/>
<path style="fill:#3b5d21; stroke:none;" d="M369 240L369 242L374 242L374 240L369 240z"/>
<path style="fill:#2a4318; stroke:none;" d="M372 239L373 240L372 239z"/>
<path style="fill:#223614; stroke:none;" d="M394 239L395 240L394 239z"/>
<path style="fill:#2a4318; stroke:none;" d="M395.333 239.667L395.667 240.333L395.333 239.667M368 240L369 241L368 240z"/>
<path style="fill:#3b5d21; stroke:none;" d="M306 241C304.878 243.66 304.606 244.334 307 246L306 241z"/>
<path style="fill:#2a4318; stroke:none;" d="M404 241L403 243L405 243L404 241M171 242L172 243L171 242z"/>
<path style="fill:#223614; stroke:none;" d="M304 242L305 243L304 242M369 242L370 243L369 242M373 242L374 243L373 242z"/>
<path style="fill:#2a4318; stroke:none;" d="M263 243L264 244L263 243M411 243L412 244L411 243M171 244L172 245L171 244M255 246L256 247L255 246z"/>
<path style="fill:#3b5d21; stroke:none;" d="M256 246L257 247L256 246z"/>
<path style="fill:#223614; stroke:none;" d="M405 246L406 247L405 246z"/>
<path style="fill:#2a4318; stroke:none;" d="M250 253L249 257L250 257L250 253z"/>
<path style="fill:#3b5d21; stroke:none;" d="M251 254L250 257L251 254z"/>
<path style="fill:#2a4318; stroke:none;" d="M170 255L171 256L170 255z"/>
<path style="fill:#223614; stroke:none;" d="M251 256L252 257L251 256z"/>
<path style="fill:#2a4318; stroke:none;" d="M241 257L242 258L241 257M362 258L363 259L362 258z"/>
<path style="fill:#223614; stroke:none;" d="M501 258L502 259L501 258z"/>
<path style="fill:#3b5d21; stroke:none;" d="M305 261C304.079 264.55 304.258 266.489 307 269L307 261L305 261z"/>
<path style="fill:#2a4318; stroke:none;" d="M362 263L363 264L362 263M304 265L305 266L304 265M309.333 265.667L309.667 266.333L309.333 265.667M164 267L165 268L164 267z"/>
<path style="fill:#223614; stroke:none;" d="M304 267L305 268L304 267z"/>
<path style="fill:#2a4318; stroke:none;" d="M506 267L507 268L506 267z"/>
<path style="fill:#223614; stroke:none;" d="M162 268L163 269L162 268z"/>
<path style="fill:#2a4318; stroke:none;" d="M305 268L306 269L305 268M235 270L236 271L235 270z"/>
<path style="fill:#223614; stroke:none;" d="M364 271L365 272L364 271M362 272L363 273L362 272z"/>
<path style="fill:#2a4318; stroke:none;" d="M364 272L365 273L364 272z"/>
<path style="fill:#223614; stroke:none;" d="M154 273L155 274L154 273z"/>
<path style="fill:#2a4318; stroke:none;" d="M155 273L155 277L156 277L155 273M157 273L158 274L157 273M159 273L160 274L159 273z"/>
<path style="fill:#223614; stroke:none;" d="M363 273L364 274L363 273z"/>
<path style="fill:#1b2b0f; stroke:none;" d="M364 273L365 274L364 273z"/>
<path style="fill:#3b5d21; stroke:none;" d="M154.333 274.667L154.667 275.333L154.333 274.667z"/>
<path style="fill:#010101; stroke:none;" d="M310.667 275.333L311.333 275.667L310.667 275.333z"/>
<path style="fill:#223614; stroke:none;" d="M154 276L155 277L154 276z"/>
<path style="fill:#2a4318; stroke:none;" d="M308 277L309 278L308 277M440 277L441 278L440 277M221 280L222 281L221 280M358 281L360 283L358 281z"/>
<path style="fill:#223614; stroke:none;" d="M359 281L360 282L359 281z"/>
<path style="fill:#2a4318; stroke:none;" d="M358 285L359 286L358 285z"/>
<path style="fill:#223614; stroke:none;" d="M359 285L360 286L359 285z"/>
<path style="fill:#2a4318; stroke:none;" d="M515 285L516 286L515 285M515 287L516 288L515 287M513.667 288.333L514.333 288.667L513.667 288.333M448 291L449 292L448 291z"/>
<path style="fill:#223614; stroke:none;" d="M351 294L352 295L351 294z"/>
<path style="fill:#1b2b0f; stroke:none;" d="M212 295L213 296L212 295z"/>
<path style="fill:#2a4318; stroke:none;" d="M455.333 303.667L455.667 304.333L455.333 303.667M212 305L213 306L212 305M456 306L457 307L456 306M456.333 309.667L456.667 310.333L456.333 309.667M518 310L519 311L518 310M340 311L341 312L340 311z"/>
<path style="fill:#223614; stroke:none;" d="M333 314L334 315L333 314z"/>
<path style="fill:#2a4318; stroke:none;" d="M209 316L210 317L209 316z"/>
<path style="fill:#223614; stroke:none;" d="M140 319L141 320L140 319z"/>
<path style="fill:#2a4318; stroke:none;" d="M141 319L142 320L141 319M459.333 320.667L459.667 321.333L459.333 320.667M129 323L130 324L129 323M205 323L206 324L205 323M106 330L107 331L106 330z"/>
<path style="fill:#223614; stroke:none;" d="M521 330L522 331L521 330z"/>
<path style="fill:#1b2b0f; stroke:none;" d="M522 330L523 331L522 330z"/>
<path style="fill:#2a4318; stroke:none;" d="M522 331L523 332L522 331z"/>
<path style="fill:#010101; stroke:none;" d="M107.667 333.333L108.333 333.667L107.667 333.333z"/>
<path style="fill:#223614; stroke:none;" d="M204 338L205 339L204 338M68.6667 341.333L69.3333 341.667L68.6667 341.333z"/>
<path style="fill:#2a4318; stroke:none;" d="M459 341L460 342L459 341M68.3333 342.667L68.6667 343.333L68.3333 342.667z"/>
<path style="fill:#1b2b0f; stroke:none;" d="M204 342L205 343L204 342z"/>
<path style="fill:#2a4318; stroke:none;" d="M204 343L205 344L204 343M204 346L205 347L204 346z"/>
<path style="fill:#223614; stroke:none;" d="M63 349L64 350L63 349z"/>
<path style="fill:#2a4318; stroke:none;" d="M67 349L68 350L67 349M564 349L565 350L564 349M63 353L64 354L63 353M204 353L205 354L204 353M574 354L575 355L574 354M204 355L205 356L204 355M574 356L575 357L574 356M63 357L64 358L63 357M204 357L204 360L205 360L204 357z"/>
<path style="fill:#1b2b0f; stroke:none;" d="M590 358L591 359L590 358z"/>
<path style="fill:#3b5d21; stroke:none;" d="M591 358L594 360L591 358z"/>
<path style="fill:#223614; stroke:none;" d="M593 358L594 359L593 358z"/>
<path style="fill:#2a4318; stroke:none;" d="M590.667 359.333L591.333 359.667L590.667 359.333z"/>
<path style="fill:#010101; stroke:none;" d="M202 361L202 363L204 363L204 361L202 361z"/>
<path style="fill:#2a4318; stroke:none;" d="M602 363L603 364L602 363M66 364L67 365L66 364M455 364L456 365L455 364M598 364L599 365L598 364M204 366L205 367L204 366M455 366L456 367L455 366z"/>
<path style="fill:#010101; stroke:none;" d="M598 366L601 368L598 366z"/>
<path style="fill:#2a4318; stroke:none;" d="M609 366L611 369L609 366M602 367L603 368L602 367M457 368L458 369L457 368z"/>
<path style="fill:#223614; stroke:none;" d="M610 369L611 370L610 369z"/>
<path style="fill:#2a4318; stroke:none;" d="M69 370L70 371L69 370M608 370L609 371L608 370M209 371L210 372L209 371M454 372L454 375L455 375L454 372z"/>
<path style="fill:#223614; stroke:none;" d="M75 373L76 374L75 373z"/>
<path style="fill:#2a4318; stroke:none;" d="M79 373L80 374L79 373z"/>
<path style="fill:#223614; stroke:none;" d="M76 375L77 376L76 375z"/>
<path style="fill:#010101; stroke:none;" d="M85 375L86 376L85 375z"/>
<path style="fill:#2a4318; stroke:none;" d="M76 376L76 378L78 378L78 376L76 376M80 377L81 378L80 377M611 377L612 378L611 377M81 378L82 379L81 378M82 379L83 380L82 379z"/>
<path style="fill:#223614; stroke:none;" d="M83 379L84 380L83 379z"/>
<path style="fill:#2a4318; stroke:none;" d="M456 380L457 381L456 380z"/>
<path style="fill:#010101; stroke:none;" d="M117.667 383.333L118.333 383.667L117.667 383.333M120 385L120 386L125 387L120 385z"/>
<path style="fill:#1b2b0f; stroke:none;" d="M125 386L126 387L125 386z"/>
<path style="fill:#2a4318; stroke:none;" d="M613 389L614 390L613 389M119 390L120 391L119 390z"/>
<path style="fill:#223614; stroke:none;" d="M133 390L134 391L133 390z"/>
<path style="fill:#2a4318; stroke:none;" d="M613 392L614 393L613 392z"/>
<path style="fill:#223614; stroke:none;" d="M614 392L615 393L614 392z"/>
<path style="fill:#2a4318; stroke:none;" d="M605 395L606 396L605 395M148 396L149 397L148 396z"/>
<path style="fill:#223614; stroke:none;" d="M451 396L452 397L451 396M519 399L520 400L519 399M537 399L538 400L537 399z"/>
<path style="fill:#2a4318; stroke:none;" d="M538 399L539 400L538 399M544 399L545 400L544 399z"/>
<path style="fill:#223614; stroke:none;" d="M572 399L573 400L572 399M584 399L585 400L584 399z"/>
<path style="fill:#2a4318; stroke:none;" d="M585 399L585 400L590 400L585 399M592 399L592 400L595 400L592 399M575 400L576 401L575 400z"/>
<path style="fill:#223614; stroke:none;" d="M575 401L576 402L575 401z"/>
<path style="fill:#2a4318; stroke:none;" d="M583 401L584 402L583 401z"/>
<path style="fill:#223614; stroke:none;" d="M578 402L579 403L578 402z"/>
<path style="fill:#2a4318; stroke:none;" d="M517 403L518 404L517 403M570.333 403.667L570.667 404.333L570.333 403.667z"/>
<path style="fill:#223614; stroke:none;" d="M571 403L572 404L571 403z"/>
<path style="fill:#2a4318; stroke:none;" d="M584 403L585 404L584 403M448 405L449 406L448 405M516 407L517 408L516 407z"/>
<path style="fill:#223614; stroke:none;" d="M517 407L518 408L517 407z"/>
<path style="fill:#2a4318; stroke:none;" d="M222 408L223 409L222 408z"/>
<path style="fill:#010101; stroke:none;" d="M160.333 414.667L160.667 415.333L160.333 414.667z"/>
<path style="fill:#2a4318; stroke:none;" d="M226.333 414.667L226.667 415.333L226.333 414.667M442 417L443 418L442 417M228 419L229 420L228 419M227 421L228 422L227 421z"/>
<path style="fill:#223614; stroke:none;" d="M437 422L438 423L437 422z"/>
<path style="fill:#3b5d21; stroke:none;" d="M157 423L157 427L162 426L157 423z"/>
<path style="fill:#223614; stroke:none;" d="M233 423L234 424L233 423z"/>
<path style="fill:#2a4318; stroke:none;" d="M504 425L505 426L504 425M160 426L161 427L160 426z"/>
<path style="fill:#010101; stroke:none;" d="M230 426L230 428L232 428L232 426L230 426z"/>
<path style="fill:#223614; stroke:none;" d="M506 426L507 427L506 426z"/>
<path style="fill:#2a4318; stroke:none;" d="M235 427L236 428L235 427M506.333 427.667L506.667 428.333L506.333 427.667M162 432L163 433L162 432M162 434L163 435L162 434z"/>
<path style="fill:#223614; stroke:none;" d="M240 434L241 435L240 434z"/>
<path style="fill:#3b5d21; stroke:none;" d="M241 434L240 437L244 438L243 434L241 434z"/>
<path style="fill:#2a4318; stroke:none;" d="M243.333 434.667L243.667 435.333L243.333 434.667M419.333 434.667L419.667 435.333L419.333 434.667M238 436L239 437L238 436M246.667 436.333L247.333 436.667L246.667 436.333z"/>
<path style="fill:#3b5d21; stroke:none;" d="M244 438L251 445C252.188 439.784 249.227 436.751 244 438z"/>
<path style="fill:#2a4318; stroke:none;" d="M251 439L252 440L251 439M495 439L496 440L495 439z"/>
<path style="fill:#223614; stroke:none;" d="M245 440L246 441L245 440z"/>
<path style="fill:#1b2b0f; stroke:none;" d="M252 440L253 441L252 440z"/>
<path style="fill:#2a4318; stroke:none;" d="M252.333 441.667L252.667 442.333L252.333 441.667z"/>
<path style="fill:#223614; stroke:none;" d="M412 441L413 442L412 441z"/>
<path style="fill:#2a4318; stroke:none;" d="M413.667 441.333L414.333 441.667L413.667 441.333M409 443L410 444L409 443M251 444L252 445L251 444M260.667 446.333L261.333 446.667L260.667 446.333z"/>
<path style="fill:#1b2b0f; stroke:none;" d="M262 446L263 447L262 446z"/>
<path style="fill:#3b5d21; stroke:none;" d="M260.667 447.333L261.333 447.667L260.667 447.333z"/>
<path style="fill:#223614; stroke:none;" d="M262.333 447.667L262.667 448.333L262.333 447.667z"/>
<path style="fill:#2a4318; stroke:none;" d="M261 448L262 449L261 448M410 450L411 451L410 450M490 455L491 456L490 455M268.333 456.667L268.667 457.333L268.333 456.667M394 457L395 458L394 457M490 457L491 458L490 457z"/>
<path style="fill:#223614; stroke:none;" d="M491 457L492 458L491 457z"/>
<path style="fill:#2a4318; stroke:none;" d="M489 458L490 459L489 458z"/>
<path style="fill:#1b2b0f; stroke:none;" d="M381 460L382 461L381 460z"/>
<path style="fill:#223614; stroke:none;" d="M382 460L381 462L382 460M271 461L272 462L271 461z"/>
<path style="fill:#3b5d21; stroke:none;" d="M382 461L383 462L382 461z"/>
<path style="fill:#2a4318; stroke:none;" d="M187 464L188 465L187 464M369 465L370 466L369 465M478 465L479 466L478 465z"/>
<path style="fill:#223614; stroke:none;" d="M484 465L485 466L484 465z"/>
<path style="fill:#2a4318; stroke:none;" d="M362 466L363 467L362 466M362 468L363 469L362 468z"/>
<path style="fill:#010101; stroke:none;" d="M370 468L370 470L372 470L370 468z"/>
<path style="fill:#2a4318; stroke:none;" d="M363 469L364 470L363 469M478 469L479 470L478 469M291 470L291 472L293 470L291 470z"/>
<path style="fill:#3b5d21; stroke:none;" d="M298 470L298 471L302 471L298 470z"/>
<path style="fill:#010101; stroke:none;" d="M364.333 471.667L364.667 472.333L364.333 471.667z"/>
<path style="fill:#223614; stroke:none;" d="M469 473L470 474L469 473z"/>
<path style="fill:#2a4318; stroke:none;" d="M312 474L313 475L312 474M348 475L349 476L348 475z"/>
<path style="fill:#223614; stroke:none;" d="M468 475L469 476L468 475z"/>
<path style="fill:#2a4318; stroke:none;" d="M323 476L324 477L323 476M199 481L200 482L199 481M214 491L215 492L214 491M453 491L453 492L455 494L456 494L453 491z"/>
<path style="fill:#223614; stroke:none;" d="M444 502L445 503L444 502z"/>
<path style="fill:#2a4318; stroke:none;" d="M447 502L448 503L447 502M235 509L236 510L235 509M430 509L431 510L430 509M240 510L241 511L240 510M246 510L247 511L246 510M428.333 511.667L428.667 512.333L428.333 511.667M238 512L239 513L238 512M246 512L247 513L246 512M424 513L425 514L424 513M239 514L240 515L239 514M243 514L244 515L243 514M420 514L421 515L420 514M247 515L248 516L247 515z"/>
<path style="fill:#3b5d21; stroke:none;" d="M248 517L252 516L248 517z"/>
<path style="fill:#2a4318; stroke:none;" d="M253 515L254 516L253 515M414 515L415 516L414 515M249 517L250 518L249 517M410 517L411 518L410 517M398 524L399 525L398 524z"/>
<path style="fill:#223614; stroke:none;" d="M396 526L397 527L396 526z"/>
<path style="fill:#2a4318; stroke:none;" d="M280 527L281 528L280 527z"/>
<path style="fill:#010101; stroke:none;" d="M289 527L289 530L292 530L292 527L289 527z"/>
<path style="fill:#2a4318; stroke:none;" d="M387 528L388 529L387 528z"/>
<path style="fill:#223614; stroke:none;" d="M280 529L281 530L280 529z"/>
<path style="fill:#2a4318; stroke:none;" d="M387 531L388 532L387 531z"/>
<path style="fill:#223614; stroke:none;" d="M366 532L367 533L366 532z"/>
<path style="fill:#010101; stroke:none;" d="M295 533L297 538L298 538L295 533z"/>
<path style="fill:#2a4318; stroke:none;" d="M292 541L293 542L292 541M368 545L369 546L368 545M368 547L369 548L368 547M292 554L293 555L292 554M366 557L367 558L366 557M365 560L366 561L365 560M366 561L367 562L366 561z"/>
<path style="fill:#1b2b0f; stroke:none;" d="M367 562L368 563L367 562z"/>
<path style="fill:#223614; stroke:none;" d="M368.667 562.333L369.333 562.667L368.667 562.333z"/>
<path style="fill:#2a4318; stroke:none;" d="M367 563L367 564L370 565L370 564L370 563L367 563z"/>
<path style="fill:#3b5d21; stroke:none;" d="M368 563L369 564L368 563z"/>
<path style="fill:#223614; stroke:none;" d="M367 564L368 565L367 564M294 573L295 574L294 573z"/>
<path style="fill:#2a4318; stroke:none;" d="M366 575L367 576L366 575z"/>
<path style="fill:#223614; stroke:none;" d="M367 576L368 577L367 576z"/>
<path style="fill:#2a4318; stroke:none;" d="M365 580L366 581L365 580M296 581L297 582L296 581z"/>
<path style="fill:#223614; stroke:none;" d="M295 585L296 586L295 585z"/>
<path style="fill:#2a4318; stroke:none;" d="M363.667 594.333L364.333 594.667L363.667 594.333M360 598L361 599L360 598M357.333 608.667L357.667 609.333L357.333 608.667z"/>
<path style="fill:#223614; stroke:none;" d="M306 616L307 617L306 616z"/>
<path style="fill:#2a4318; stroke:none;" d="M306 617L307 618L306 617M354 617L355 618L354 617z"/>
<path style="fill:#223614; stroke:none;" d="M306 618L307 619L306 618z"/>
<path style="fill:#2a4318; stroke:none;" d="M351 623L352 624L351 623M348 627L349 628L348 627M312 628L312 631L313 631L312 628z"/>
<path style="fill:#223614; stroke:none;" d="M315 631L316 632L315 631z"/>
<path style="fill:#2a4318; stroke:none;" d="M316 631L317 632L316 631M344 631L345 632L344 631M326 639L327 640L326 639M335 643L335 645L337 643L335 643z"/>
</svg>
