<?xml version="1.0" encoding="UTF-8"?>
<svg xmlns="http://www.w3.org/2000/svg" viewBox="0 0 38.78 38.78" fill= "#ffdc37">
  <g>
    <path class="cls-1" d="m2.64,34.02C.72,31.79.49,25.96.12,14.39-.19,4.65.07,1.55,1.31,1.21c1-.28,2.35,1.34,5.04,4.59,3.68,4.45,4.09,6.28,5.33,6.3C14.88,12.14,16.09.1,19.28,0c3.29-.1,5.47,12.62,8.47,12.32,1.16-.12,1.33-2.07,4.3-6.44,2.26-3.33,3.51-5.17,4.44-4.96.83.18,1.48,1.95.52,22.59-.33,7.12-.5,8.81-1.93,10.67-3.68,4.78-11.11,4.67-15.93,4.59-5.98-.09-12.6-.19-16.52-4.74Z"/>
  </g>
</svg>