<svg xmlns="http://www.w3.org/2000/svg" viewBox="0 0 37.77 37.77" fill="#6c6c6c">
  <g>
    <path class="cls-1" d="m34.56,30.4c-.58,1.29-1.8,2.29-4.22,4.22-2.26,1.81-3.42,2.72-4.78,3-1.76.36-3.22-.05-4.22-.33-1.5-.42-2.85-.8-3.44-2-.67-1.36.07-2.91.11-3,.97-1.97,3.3-2.05,7-3.22,6.33-2.01,8.46-4.62,9.74-3.56,1.09.9.43,3.53-.18,4.9Z"/>
    <path class="cls-1" d="m29.23,22.85c-2.97-9.2-4.8-9.84-5.54-9.77-.67.06-1.17.78-1.24.88-1.26,1.82.53,5.05,1,5.89,1.46,2.63,2.97,3.25,2.67,4.44-.19.75-.96,1.17-2.44,2-1.55.86-2.32,1.29-3,1.17-3-.54-2.73-10.67-4.89-10.84-.7-.05-1.29.96-1.44,1.22-1.04,1.78-.02,4.18.78,6,1.4,3.19,2.82,4.1,2.33,5.11-.39.8-1.68,1.02-3.56,1.33-1.37.23-2.05.34-2.58.12-.79-.34-1.45-1.23-2.63-6.65-.64-2.97-.79-4.28-1.35-4.35-.57-.08-1.33,1.12-1.67,2.22-1.27,4.14,3.13,7.78,1.9,9.42-.69.92-2.81.79-4.23.02C.05,29.29.02,23.74,0,20.18c-.01-2.9-.03-5.3,1.11-8.11C4.06,4.8,11.7,2.19,13.34,1.63c2.35-.8,11.03-3.77,16.56,1.11,3.46,3.05,3.88,7.59,4.22,11.33.23,2.53.58,6.27-1.71,7.96-1.05.78-2.32.86-3.18.82Z"/>
  </g>
</svg>