<?xml version="1.0" encoding="UTF-8"?>
<svg id="_Слой_2" data-name="Слой 2" xmlns="http://www.w3.org/2000/svg" viewBox="0 0 53.03 39.36">
  <defs>
    <style>
      .cls-1 {
        fill: #5d3618;
      }
    </style>
  </defs>
  <g id="_Корона" data-name="Корона">
    <path class="cls-1" d="m18.69,27.05c-2.81,1.82-7.94,1.07-9.33-1.33C5.84,19.68,22.31-2.89,33.21.31c9.33,2.74,13.22,23.98,8.84,27.03-.88.62-2.28.61-3.29.16-3.91-1.75-1.24-9.8-5.19-12.37-2.56-1.67-7.04-.45-9.56,1.78-3.8,3.36-1.98,7.97-5.33,10.15Z"/>
    <path class="cls-1" d="m.02,26.97c.43-.86,7.29,4.33,18.44,3.56,6.17-.43,7.01-2.22,12-2.47,12.67-.65,23.14,10.08,22.54,11.2-.56,1.04-10.48-6.47-23.84-3.99-2.93.54-2.88.98-5.37,1.34C10.92,38.44-.54,28.12.02,26.97Z"/>
  </g>
</svg>