<svg xmlns="http://www.w3.org/2000/svg" viewBox="0 0 43.43 43.43" fill="#6e2af4">
  <g>
    <path class="cls-1" d="m10.36,43.36c1.27.71,4.02-4.22,10.52-10.22,0,0,4.72-4.36,8.07-9.93.24-.41.78-1.34.45-2.14-.11-.27-.37-.64-2.15-1.33-1.24-.48-2.47-.82-4.1-1.54-.58-.25-.94-.44-1.07-.81-.27-.75.57-1.68.89-2.03,0,0,2.12-2.37,8.43-12.97.23-.38.74-1.26.4-1.83C31.47,0,30.51,0,30.17,0c-6.93.01-10.39.02-19.7.14-.28,0-1.06,0-1.81.48-.28.18-.73.53-1.11,1.26C6.87,3.15,3.97,10.12.18,19.73c-.17.59-.32,1.46.07,2.26.39.81,1.1,1.08,2.33,1.67,4.46,2.14,4.48,3.06,6.74,4.15.16.08.6.28.85.74.27.49.21,1.04.13,1.41-.26,2.93-.57,7.49-.39,12.04.02.54.05,1.15.44,1.37Z"/>
  </g>
</svg>