<?xml version="1.0" encoding="UTF-8"?>
<svg xmlns="http://www.w3.org/2000/svg" viewBox="0 0 47.4 47.4" fill="#eb3726">
  <g>
    <path class="cls-1" d="m19.92,47.33c-5.11.65-9.45-3.42-12.67-6.44C3.92,37.77.38,34.44.03,29.78c-.46-6.16,4.83-12.68,13-16.11-.77,1.4-3.2,6.26-1.2,10.71,1.1,2.45,3.46,4.59,4.2,4.18.83-.46-.68-3.98-1.11-6.33-.86-4.66,1.2-11.69,13.56-22.22-2.05,6.73-1.27,11.47-.44,14.22,1.05,3.49,3.17,7.08,4.44,9.22,3.36,5.67,4.93,6.35,4.78,8.67-.08,1.12-.55,2.48-7.78,8.56-5.09,4.28-7.68,6.43-9.56,6.67Z"/>
  </g>
</svg>