<?xml version="1.0" encoding="UTF-8"?>
<svg id="_Слой_2" data-name="Слой 2" xmlns="http://www.w3.org/2000/svg" viewBox="0 0 54.38 39.72">
  <defs>
    <style>
      .cls-1 {
        fill: #a863e8;
      }
    </style>
  </defs>
  <g id="_Корона" data-name="Корона">
    <path class="cls-1" d="m42.66,36.88c-.08-1.57,1.37-2.69,2.2-3.55,3.61-3.7,3.29-9.99,2.96-13.48-.36-3.8-.76-8.03-3.7-11.78-1.6-2.04-4.09-4.12-3.58-6.47.06-.28.28-1.26.91-1.53,2.48-1.02,12.26,8.63,12.89,19.85.57,10.18-6.45,20.3-9.56,19.78-1.02-.17-2.06-1.57-2.13-2.82Z"/>
    <path class="cls-1" d="m34.23,8.45c-1.47,2.69,2.51,5.4,3.1,9.98.84,6.51-5.85,11.37-4.08,13.41.84.97,2.87.45,3.1.39,2.46-.64,3.61-3.28,4.38-5.06,2.47-5.68,1.12-11,.96-11.61-1.03-3.83-3.74-8.69-5.93-8.37-.9.13-1.43,1.1-1.52,1.26Z"/>
    <path class="cls-1" d="m24.72,24.59c2.79,1.06,6.05-.65,7.19-3.11,1.65-3.57-1.24-8.48-4.67-8.74-3.1-.23-6.25,3.37-6,6.89.14,1.91,1.3,4.14,3.48,4.96Z"/>
    <path class="cls-1" d="m20.79,7.71c1.35,2.56-3.26,5.09-3.95,10.78-.13,1.04-.65,5.34,1.81,8.62,1.3,1.74,2.82,2.37,2.81,3.93,0,1.46-1.33,3.07-2.74,3.26-2.59.35-5.08-4.16-6-6.37-2.19-5.26-.83-10.25-.23-12.31,1.06-3.68,3.78-9.51,6.45-9.24.76.08,1.49.65,1.85,1.33Z"/>
    <path class="cls-1" d="m11.31,36.67c.14-1.52-1.24-2.74-1.81-3.33-3.56-3.67-3.14-10.57-2.96-13.48.17-2.77.47-7.65,3.7-11.78,1.6-2.04,4.09-4.12,3.58-6.47-.06-.28-.28-1.26-.91-1.53C10.41-.96.48,8.75.02,19.93c-.42,10.04,6.86,19.7,9.59,19.11.8-.17,1.61-1.33,1.7-2.37Z"/>
  </g>
</svg>