<svg xmlns="http://www.w3.org/2000/svg" viewBox="0 0 49.73 49.73" fill="#acffd4">
  <g  >
    <path class="cls-1" d="m17.63,25.09s-.12-.79.18-1.64c.81-2.34,12.11-18.77,11.93-22.01-.02-.29-.06-1.16-.56-1.39-.35-.16-.78.07-.94.17C23.1,3.11.91,23,.63,23.25c-.14.12-.61.53-.63,1.1-.03.91,1.15,1.63,1.44,1.81,3.98,2.56,28.77,25.71,30.9,23.41.15-.16.29-.55.35-.85.26-1.22-.45-2.35-.78-2.83-2.18-3.27-3.27-4.9-13.63-19.28-.18-.25-.54-.78-.65-1.52Z"/>
    <path class="cls-1" d="m25.33,25.76c.02-.44.24-.76.33-.89,3.96-5.63,11.37-12.27,14.22-13.44.13-.05.37-.14.56-.04.64.38-.11,2.78-.83,5-2.76,8.57-2.95,8.86-2.8,9.89.05.35.08.4,3.7,6.67,2.14,3.69,3.41,5.94,2.72,6.66-.2.21-.51.23-.72.23-4.73-.02-14.05-10.23-16.3-12.37-.23-.22-.93-.87-.89-1.7Z"/>
  </g>
</svg>