<?xml version="1.0" encoding="UTF-8"?>
<svg id="_Слой_2" data-name="Слой 2" xmlns="http://www.w3.org/2000/svg" viewBox="0 0 49.03 49.02">
  <defs>
    <style>
      .cls-1 {
        fill: #c734e9;
      }
    </style>
  </defs>
  <g id="_Корона" data-name="Корона">
    <path class="cls-1" d="m33.19,1.5c-.57-1.07-1.82-1.33-2.19-1.41-.36-.07-.56-.12-.78-.07-.75.14-1.58,1.24-2.78,7.37-.54,2.76-.73,4.35-1.85,4.81-.3.12-.49.09-1.59.04-1.22-.06-2.45-.04-3.67-.11-4.95-.31-16.76,7.69-18.3,8.74-.73.5-1.92,1.34-2.04,2.59-.11,1.17.78,2.14,2.93,4.07,3.61,3.26,5.42,4.89,8.22,6.44,3.19,1.78,5.01,2.22,5.93,2.22.24,0,1.19-.02,1.53.53.22.35.11.79.06.97-.77,2.88-3.56,8.6-2.14,10.57.25.35.73.72,1.22.75,1.53.1,3.92-2.99,7.63-17.56,4.57-15.31,7.77-26.53,8.04-28.3.05-.3.13-1-.22-1.67Zm-9.89,23.59c-1.14,2.4-2.17,4.57-3.63,4.52-1.34-.05-2.53-1.98-2.74-3.63-.4-3.17,2.64-6.54,5.11-6.37.73.05,1.63.43,2.07,1.17.68,1.13.01,2.58-.81,4.31Z"/>
    <path class="cls-1" d="m27.89,36.6c-.51-.51-.33-1.46-.25-1.88,1.27-6.29,5.68-13.7,6.04-18.07.04-.44.11-1.78.93-2.21.68-.35,1.56.09,2,.32,3.96,2,7.6,4.62,11.63,6.48.16.07.66.29.78.74.1.38-.13.76-.29,1-5.57,7.9-14.11,12.48-14.11,12.48s-1.41.75-4.52,1.33c-.94.17-1.74.26-2.2-.2Z"/>
  </g>
</svg>