<?xml version="1.0" encoding="UTF-8"?>
<svg xmlns="http://www.w3.org/2000/svg" viewBox="0 0 45.37 45.37" fill="#c84180">
  <g  >
    <path class="cls-1" d="m37.33,32.38c-.1-1.03-.7-1.77-1.11-2.22-3.73-4.15-7.67-5.61-7.67-5.61-5.71-2.11-10.78-.79-12.22-.39,0,0-5.11,1.41-9.33,6-.48.52-1.11,1.31-1.11,2.33,0,1.12.77,1.97,1.22,2.44,3.96,4.11,5.93,6.16,9.78,7.33.81.25,7.74,2.24,13.89-1.44,2.35-1.41,3.61-3.06,5.33-5.33.66-.87,1.34-1.88,1.22-3.11Zm-19,4.52c-.04.18-.13.56-.44.75-.06.04-.28.16-.68.1-1.17-.17-2.72-1.71-4.42-3.35-.39-.38-.8-.77-.79-1.3.01-.48.36-.82.81-1.24,2.43-2.27,2.97-2.62,3.69-2.93,1.16-.5,1.52-.34,1.67-.22.31.24.31.72.31,1.04,0,1.2.03,2.4.04,3.59,0,.68.05,2.44-.19,3.56Zm12.44-4.11c-.87,1.22-3.33,3.99-4.67,4.07-.11,0-.39.02-.63-.15-.25-.18-.32-.47-.35-.61-.31-1.33-.45-4.51.09-6.99.03-.16.11-.48.37-.63.3-.17.67-.04.89.04,1.71.65,2.59,1.89,3.96,2.85.14.1.51.35.56.74.03.3-.14.55-.22.67Z"/>
    <path class="cls-1" d="m44.08,10.12S40.53,2,26.37.04c-.31-.04-1.11-.15-1.78.3-.64.43-.87,1.19-.98,1.76-1.2,6.04.11,10.06.11,10.06,3.42,10.48,14.65,13.7,16.57,13.89,1.27.13,2.15-.37,2.15-.37.93-.53,1.33-1.45,1.56-2,3.03-7.53.07-13.56.07-13.56Zm-11.59.37c-1.16.84-1.74,1.26-2.26,1.26-1.43,0-2.63-1.63-2.96-3-.08-.35-.32-1.34.2-2.33.09-.16.4-.75,1.03-1.08,1.8-.96,4.36,1.14,5.33,2.3.2.24.39.51.4.86,0,.22-.05.77-1.73,1.99Zm7.3,8.93c-.17.41-.34.71-.67.89-.67.36-1.51-.09-2.78-.78-1.29-.7-2.07-1.14-2.19-1.93-.05-.34.05-.65.26-1.07.95-1.88,3.34-4.16,5.04-3.49.05.02.26.1.49.3,1.79,1.5.08,5.51-.16,6.08Z"/>
    <path class="cls-1" d="m20.45,2.99c-.07-.59-.25-1.34-.83-1.83-.9-.76-2.29-.51-3.11-.33-5.66,1.21-8.49,1.82-10.89,3.78,0,0-6.54,5.34-5.5,18.11.11,1.29.59,1.84.83,2.06.71.65,1.73.67,2.56.61,9.48-.72,13.11-4.11,13.11-4.11s5.47-5.1,3.83-18.28Zm-11.31,16.97c-1.26.53-2.5,1.06-3.33.47-.5-.35-.61-.92-.78-1.83-.11-.61-.43-2.73.86-4.5.31-.43.46-.64.72-.69.87-.19,1.29,1.49,3.61,4,.35.38.73.76.67,1.22-.08.62-.89.97-1.75,1.33Zm5.81-7.09c-.21.24-.33.33-.48.37-.67.18-1.41-.74-2.86-2.58-.49-.63-.63-.85-.64-1.17-.03-.79.74-1.39,1.31-1.83.6-.47,2.01-1.57,3-1.06.53.28.69.88.86,1.53.56,2.08-.44,3.89-1.19,4.74Z"/>
  </g>
</svg>