<svg xmlns="http://www.w3.org/2000/svg" width="230" height="230" style="shape-rendering:geometricPrecision;text-rendering:geometricPrecision;image-rendering:optimizeQuality;fill-rule:evenodd;clip-rule:evenodd"><path style="opacity:1" fill="#7e5e1e" d="M113.5 54.5c-1.135 1.713-2.802 2.38-5 2 1.43-1.038 3.097-1.704 5-2z"/><path style="opacity:.494" fill="#7a6b24" d="M140.5 58.5a19.24 19.24 0 0 0-6 1c.634-1.447 1.801-2.113 3.5-2 1.07.028 1.903.361 2.5 1z"/><path style="opacity:1" fill="#89501b" d="M127.5 56.5c.773 3.286 2.773 4.786 6 4.5.556-.383.889-.883 1-1.5a19.24 19.24 0 0 1 6-1c3.931.89 7.598 2.222 11 4 .473 1.406 1.473 2.073 3 2a21.622 21.622 0 0 1 5 4c1.085 2.087 2.751 3.42 5 4-.073 1.527.594 2.527 2 3-.073 1.527.594 2.527 2 3-.073 1.527.594 2.527 2 3a165.94 165.94 0 0 0 2 12c.61.891.943 1.891 1 3 .238 1.904 1.238 3.238 3 4-.073 1.527.594 2.527 2 3 1.074 2.999.907 5.999-.5 9a162.597 162.597 0 0 0-.5 18c-.207 2.741-1.207 5.074-3 7-1.713 1.135-2.38 2.802-2 5-1.495 4.173-4.162 7.506-8 10-1.333 0-2 .667-2 2-1.943 2.971-4.609 4.971-8 6-2.174.25-3.841 1.25-5 3-1.465 1.237-3.132 2.237-5 3-1.903.296-3.57.963-5 2-1.43 1.037-3.097 1.704-5 2-2.053-.098-3.72.569-5 2-3.445.306-7.111.306-11 0a18.453 18.453 0 0 1-6-.5c-.971-1.481-2.304-2.315-4-2.5-.992.172-1.658-.162-2-1a71.285 71.285 0 0 0-9-3 178.676 178.676 0 0 1-10-2c-1.16-1.75-2.826-2.75-5-3-1.135-1.713-2.802-2.38-5-2-1.291.237-2.291-.096-3-1a6.544 6.544 0 0 0-3-3c-.302-2.873-.969-5.539-2-8-.901-.79-1.568-1.79-2-3 0-2-1-3-3-3a16.336 16.336 0 0 1-5-2c-1.4-1.39-3.066-2.39-5-3a904.378 904.378 0 0 1-4-6v-9a218.375 218.375 0 0 1 6.5-30c.996-2.16 2.496-3.827 4.5-5 1.406-.473 2.073-1.473 2-3 .63-2.25 1.63-4.25 3-6 1.406-.473 2.073-1.473 2-3 1.527.073 2.527-.594 3-2 2.249-.58 3.915-1.913 5-4a807.966 807.966 0 0 0 5-4c2.667-1.333 5.333-1.333 8 0a20.677 20.677 0 0 1-1 5c-2.702 2.856-5.869 5.19-9.5 7a2401.605 2401.605 0 0 0-13.5 27c-1.497 3.723-2.163 7.723-2 12 .002 2.855.336 5.522 1 8 1.663 2.659 3.33 5.325 5 8 .333 2.333 1.667 3.667 4 4a6.544 6.544 0 0 1 3 3c-.073 1.527.594 2.527 2 3 3.715 4.037 8.048 7.37 13 10 .321 1.548 1.321 2.215 3 2h1c1.714 1.238 3.714 1.905 6 2 .834 1.248 2.167 1.915 4 2 4.356.166 6.356-2.001 6-6.5a68.627 68.627 0 0 0-2.5-13.5c-2.201-2.537-4.368-2.537-6.5 0-3.524 1.663-5.524.497-6-3.5.304-3.45 1.97-5.95 5-7.5 1.877-1.159 2.377-2.826 1.5-5-1.292-1.291-2.458-1.291-3.5 0a452.46 452.46 0 0 0-8 5h-4v-5c1.667-1 3-2.333 4-4a57.727 57.727 0 0 1 10-8c2.414-1.411 4.081-3.411 5-6-1.618-4.182-1.285-8.182 1-12 1.547-1.268 2.547-2.935 3-5h6a39.711 39.711 0 0 1 1 11c1.915.284 3.581-.049 5-1 1-1.667 2.333-3 4-4 1.527.073 2.527-.594 3-2 6.398-1.274 8.398 1.06 6 7-1.333 0-2 .667-2 2a100.813 100.813 0 0 0-7.5 5 29.964 29.964 0 0 1-6 7 4.934 4.934 0 0 0-.5 3c.12 1.086.787 1.753 2 2 .916-.043 1.583-.376 2-1 .342-.838 1.008-1.172 2-1 .996-.086 1.829.248 2.5 1 .49 2.045.323 4.045-.5 6-2.015 3.338-4.515 6.338-7.5 9a40.914 40.914 0 0 0-.5 9c-.626 7.084.041 13.75 2 20 3.292-.147 6.292-1.147 9-3 1.527.073 2.527-.594 3-2 2.398.241 4.398-.426 6-2a16.635 16.635 0 0 0 5-6c1.406-.473 2.073-1.473 2-3 1.527.073 2.527-.594 3-2 0-.667.333-1 1-1 1.406-.473 2.073-1.473 2-3 1.663-1.938 2.329-4.272 2-7 1.574-1.602 2.241-3.602 2-6 1.406-.473 2.073-1.473 2-3a21.435 21.435 0 0 0-1-7v-8a43.38 43.38 0 0 0 1.5-15 113.024 113.024 0 0 1-7.5-12c.073-1.527-.594-2.527-2-3a6.544 6.544 0 0 1-3-3c-.473-1.406-1.473-2.073-3-2-3.246-.554-6.246-1.554-9-3-.815-1.337-1.982-2.337-3.5-3-2.128 2.308-4.628 3.974-7.5 5a128.29 128.29 0 0 1-12-1c-2.174-.25-3.841-1.25-5-3-1.695-3.553-1.028-6.553 2-9 2.198.38 3.865-.287 5-2 4.908-1.469 9.574-.802 14 2z"/><path style="opacity:.678" fill="#7b6921" d="M108.5 56.5c-3.028 2.447-3.695 5.447-2 9-.617-.11-1.117-.444-1.5-1-1.421-4.006-.254-6.672 3.5-8z"/><path style="opacity:.678" fill="#7d6721" d="M127.5 56.5a25.136 25.136 0 0 1 4.5 4c.671-.752 1.504-1.086 2.5-1-.111.617-.444 1.117-1 1.5-3.227.286-5.227-1.214-6-4.5z"/><path style="opacity:.878" fill="#7b641f" d="M89.5 63.5c-2.667-1.333-5.333-1.333-8 0 .812-1.493 2.145-2.16 4-2 1.855-.16 3.188.507 4 2z"/><path style="opacity:.059" fill="#7d6b25" d="M151.5 62.5c1.527-.073 2.527.594 3 2-1.527.073-2.527-.594-3-2z"/><path style="opacity:.384" fill="#7e6d23" d="M89.5 63.5c1.43 1.955 1.097 3.621-1 5a20.677 20.677 0 0 0 1-5z"/><path style="opacity:.09" fill="#7c6921" d="M134.5 67.5c-3.831-.25-7.164.916-10 3.5-2.212.79-4.212.623-6-.5 1.915.284 3.581-.049 5-1 2.872-1.026 5.372-2.692 7.5-5 1.518.663 2.685 1.663 3.5 3z"/><path style="opacity:.059" fill="#7b6722" d="M159.5 68.5c2.249.58 3.915 1.913 5 4-2.249-.58-3.915-1.913-5-4z"/><path style="opacity:1" fill="#80571c" d="M111.5 68.5c3.981.52 7.981.854 12 1-1.419.951-3.085 1.284-5 1-2.567-.222-4.901-.888-7-2z"/><path style="opacity:1" fill="#805a1d" d="M76.5 67.5c-1.085 2.087-2.751 3.42-5 4 1.085-2.087 2.751-3.42 5-4z"/><path style="opacity:.678" fill="#7c6821" d="M143.5 70.5c1.527-.073 2.527.594 3 2-1.527.073-2.527-.594-3-2z"/><path style="opacity:.996" fill="#7e5e1e" d="M71.5 71.5c-.473 1.406-1.473 2.073-3 2 .473-1.406 1.473-2.073 3-2z"/><path style="opacity:.824" fill="#796521" d="M164.5 72.5c1.406.473 2.073 1.473 2 3-1.406-.473-2.073-1.473-2-3z"/><path style="opacity:.878" fill="#7c631f" d="M68.5 73.5c.073 1.527-.594 2.527-2 3-.073-1.527.594-2.527 2-3z"/><path style="opacity:.09" fill="#7d6921" d="M149.5 75.5c1.406.473 2.073 1.473 2 3-1.406-.473-2.073-1.473-2-3z"/><path style="opacity:.863" fill="#7a6520" d="M166.5 75.5c1.406.473 2.073 1.473 2 3-1.406-.473-2.073-1.473-2-3z"/><path style="opacity:.878" fill="#7c631f" d="M168.5 78.5c1.406.473 2.073 1.473 2 3-1.406-.473-2.073-1.473-2-3z"/><path style="opacity:.878" fill="#7a641f" d="M63.5 82.5c.073 1.527-.594 2.527-2 3-.073-1.527.594-2.527 2-3z"/><path style="opacity:.969" fill="#7a631f" d="M116.5 85.5h-6c2-2.667 4-2.667 6 0z"/><path style="opacity:.384" fill="#7d6c22" d="M116.5 85.5c.617.11 1.117.444 1.5 1 .498 2.982.665 5.982.5 9h4c-1.419.951-3.085 1.284-5 1 .177-3.734-.156-7.4-1-11z"/><path style="opacity:1" fill="#7e601f" d="M110.5 85.5c-.453 2.065-1.453 3.732-3 5-.241-2.534.759-4.2 3-5z"/><path style="opacity:.878" fill="#7b6420" d="M129.5 89.5c2.53-1.276 5.197-1.276 8 0 1.595 3.043.928 5.376-2 7 2.398-5.94.398-8.274-6-7z"/><path style="opacity:.996" fill="#7b5d1d" d="M129.5 89.5c-.473 1.406-1.473 2.073-3 2 .473-1.406 1.473-2.073 3-2z"/><path style="opacity:.384" fill="#7c6c23" d="M170.5 81.5c.617.11 1.117.444 1.5 1a60.93 60.93 0 0 1 .5 11 165.94 165.94 0 0 1-2-12z"/><path style="opacity:.384" fill="#7d6a21" d="M135.5 96.5c-.333 1-1 1.667-2 2 0-1.333.667-2 2-2z"/><path style="opacity:.961" fill="#7c631f" d="M173.5 96.5c1.762.762 2.762 2.096 3 4-1.762-.762-2.762-2.096-3-4z"/><path style="opacity:.878" fill="#7c621f" d="M176.5 100.5c1.406.473 2.073 1.473 2 3-1.406-.473-2.073-1.473-2-3z"/><path style="opacity:.996" fill="#805e1e" d="M106.5 102.5c-.919 2.589-2.586 4.589-5 6 .919-2.589 2.586-4.589 5-6z"/><path style="opacity:.996" fill="#7d5f1e" d="M157.5 105.5v8c-2.667-2.667-2.667-5.333 0-8z"/><path style="opacity:.878" fill="#79621f" d="M65.5 102.5a176.077 176.077 0 0 0-1 20c-.664-2.478-.998-5.145-1-8-.163-4.277.503-8.277 2-12z"/><path style="opacity:.678" fill="#7c6b22" d="M125.5 113.5c1.042-1.291 2.208-1.291 3.5 0 .667 2 .667 4 0 6-.383.556-.883.889-1.5 1 .823-1.955.99-3.955.5-6-.671-.752-1.504-1.086-2.5-1z"/><path style="opacity:.09" fill="#7d6d22" d="M119.5 113.5c1.208.734 2.541 1.067 4 1-.417.624-1.084.957-2 1-1.213-.247-1.88-.914-2-2z"/><path style="opacity:.878" fill="#7b6620" d="M91.5 116.5c-1 1.667-2.333 3-4 4 .333-2.333 1.667-3.667 4-4z"/><path style="opacity:.384" fill="#7c6a22" d="M178.5 103.5c1.493.812 2.16 2.145 2 4a216.91 216.91 0 0 0-3 23c-.166-6.009.001-12.009.5-18 1.407-3.001 1.574-6.001.5-9z"/><path style="opacity:.678" fill="#79641f" d="M99.5 120.5c1.042-1.291 2.208-1.291 3.5 0 .877 2.174.377 3.841-1.5 5 1.801-2.726 1.134-4.392-2-5z"/><path style="opacity:.969" fill="#7b5e1e" d="M158.5 120.5c.073 1.527-.594 2.527-2 3-.073-1.527.594-2.527 2-3z"/><path style="opacity:.999" fill="#846a23" d="M50.5 120.5v9c-2.517-2.961-2.517-5.961 0-9z"/><path style="opacity:.678" fill="#7d6620" d="M87.5 120.5v5h4c-2.58 1.508-4.58.841-6-2 .442-1.239 1.11-2.239 2-3z"/><path style="opacity:.969" fill="#7b5a1d" d="M156.5 123.5c.241 2.398-.426 4.398-2 6v-2c.16-1.653.826-2.986 2-4z"/><path style="opacity:.678" fill="#7a6921" d="M154.5 127.5v2c.329 2.728-.337 5.062-2 7 .358-3.189 1.025-6.189 2-9z"/><path style="opacity:1" fill="#7f5e1e" d="M69.5 130.5c1.667 1 3 2.333 4 4-2.333-.333-3.667-1.667-4-4z"/><path style="opacity:1" fill="#7b5b1e" d="M54.5 135.5c1.934.61 3.6 1.61 5 3-2.433.227-4.1-.773-5-3z"/><path style="opacity:.878" fill="#7c6420" d="M101.5 154.5c5.09 2.395 8.09.895 9-4.5a71.973 71.973 0 0 0-2.5-12.5c-1.394-1.902-3.227-2.235-5.5-1 2.132-2.537 4.299-2.537 6.5 0a68.627 68.627 0 0 1 2.5 13.5c.356 4.499-1.644 6.666-6 6.5-1.833-.085-3.166-.752-4-2z"/><path style="opacity:.878" fill="#7b6520" d="M152.5 136.5c.073 1.527-.594 2.527-2 3-.073-1.527.594-2.527 2-3z"/><path style="opacity:.969" fill="#7e5e1e" d="M76.5 137.5c1.406.473 2.073 1.473 2 3-1.406-.473-2.073-1.473-2-3z"/><path style="opacity:.961" fill="#7d6420" d="M174.5 137.5c-.296 1.903-.963 3.57-2 5-.38-2.198.287-3.865 2-5z"/><path style="opacity:1" fill="#805f1e" d="M64.5 140.5c2 0 3 1 3 3a6.544 6.544 0 0 1-3-3z"/><path style="opacity:.969" fill="#7c641f" d="M149.5 140.5c-.473 1.406-1.473 2.073-3 2 .473-1.406 1.473-2.073 3-2z"/><path style="opacity:.678" fill="#7b6821" d="M146.5 142.5c.073 1.527-.594 2.527-2 3-.073-1.527.594-2.527 2-3z"/><path style="opacity:.494" fill="#776422" d="M69.5 146.5c1.031 2.461 1.698 5.127 2 8-1.723-2.28-2.39-4.947-2-8z"/><path style="opacity:1" fill="#81611f" d="M91.5 150.5c1.21.432 2.21 1.099 3 2-1.679.215-2.679-.452-3-2z"/><path style="opacity:.878" fill="#7a621f" d="M95.5 152.5c2.398-.241 4.398.426 6 2-2.286-.095-4.286-.762-6-2z"/><path style="opacity:1" fill="#7e5d1e" d="M139.5 151.5c-1.602 1.574-3.602 2.241-6 2 1.714-1.238 3.714-1.905 6-2z"/><path style="opacity:.357" fill="#7c6a22" d="M164.5 152.5c-.333 1-1 1.667-2 2 0-1.333.667-2 2-2z"/><path style="opacity:.09" fill="#7e6d22" d="M119.5 138.5c.701 6.567 1.368 13.233 2 20-1.959-6.25-2.626-12.916-2-20z"/><path style="opacity:.969" fill="#7b6420" d="M133.5 153.5c-.473 1.406-1.473 2.073-3 2 .473-1.406 1.473-2.073 3-2z"/><path style="opacity:.235" fill="#762" d="M71.5 154.5a6.544 6.544 0 0 1 3 3c-2 0-3-1-3-3z"/><path style="opacity:1" fill="#7d5e1f" d="M77.5 158.5c2.198-.38 3.865.287 5 2-1.903-.296-3.57-.963-5-2z"/><path style="opacity:.78" fill="#786221" d="M82.5 160.5c2.174.25 3.84 1.25 5 3-2.174-.25-3.84-1.25-5-3z"/><path style="opacity:.545" fill="#7a6723" d="M154.5 160.5c-1.159 1.75-2.826 2.75-5 3 1.159-1.75 2.826-2.75 5-3z"/><path style="opacity:.545" fill="#796923" d="M97.5 165.5a71.285 71.285 0 0 1 9 3c-3.581.362-6.581-.638-9-3z"/><path style="opacity:.059" fill="#7b6a23" d="M144.5 166.5c-1.135 1.713-2.802 2.38-5 2 1.43-1.037 3.097-1.704 5-2z"/><path style="opacity:.635" fill="#7b6922" d="M134.5 170.5c-1.28 1.431-2.947 2.098-5 2 1.28-1.431 2.947-2.098 5-2z"/><path style="opacity:.788" fill="#7b6a23" d="M108.5 169.5c1.696.185 3.029 1.019 4 2.5 1.973.495 3.973.662 6 .5-3.999 2.344-7.333 1.344-10-3z"/></svg>