<svg xmlns="http://www.w3.org/2000/svg" width="230" height="230" style="shape-rendering:geometricPrecision;text-rendering:geometricPrecision;image-rendering:optimizeQuality;fill-rule:evenodd;clip-rule:evenodd"><path style="opacity:1" fill="#b83147" d="M105.5 56.5c4.679-.166 9.345 0 14 .5a51.617 51.617 0 0 0 15 5c9.225 4.531 17.392 10.698 24.5 18.5a154.04 154.04 0 0 1 12 20c2.963 11.905 3.297 23.905 1 36-3.265 11.055-9.765 19.555-19.5 25.5-10.118 6.206-21.118 9.706-33 10.5a169.595 169.595 0 0 1-8-1.5 58.06 58.06 0 0 0-16-6c-2.253-2.425-3.086-5.258-2.5-8.5.804-1.304 1.97-1.971 3.5-2a53.609 53.609 0 0 1 8 3.5c11.386 2.684 22.72 2.684 34 0a278.338 278.338 0 0 1 16-11c2.043-3.253 4.21-6.42 6.5-9.5 6.479-25.175-.687-45.342-21.5-60.5-8.45-4.962-17.617-7.796-27.5-8.5A246.78 246.78 0 0 1 87.5 71a41.042 41.042 0 0 1-9 6 45.24 45.24 0 0 1-7.5 8.5c-.326 6.031-2.326 11.364-6 16-2.75 20.255 4.25 36.255 21 48 1.359 5.843-.808 8.343-6.5 7.5-2.756-3.427-6.09-6.093-10-8L57 130.5a176.627 176.627 0 0 0-2.5-19.5c-.157-20.696 8.51-36.363 26-47a93.35 93.35 0 0 1 20-4c1.733-1.189 3.4-2.356 5-3.5z"/><path style="opacity:1" fill="#b93147" d="M111.5 139.5a16.58 16.58 0 0 1-2.5-4 135.35 135.35 0 0 0-3.5-16 40.016 40.016 0 0 0 2-11c-1.88-.271-3.213.396-4 2-1.96 2.654-4.627 4.321-8 5-3.663-2.844-3.996-6.178-1-10a54.513 54.513 0 0 0 11.5-10c.749-1.135.583-2.135-.5-3a103.483 103.483 0 0 0-14 10c-5.954-2.783-6.621-6.617-2-11.5a75.75 75.75 0 0 1 18-13c5.236-2.069 9.902-1.069 14 3 5.128 5.12 9.462 10.786 13 17-.598 2.048-1.931 3.215-4 3.5a45.919 45.919 0 0 1-10-6c.115 3.358 1.781 6.191 5 8.5a75.404 75.404 0 0 1 11.5 8.5c1.639 8.672-1.527 10.839-9.5 6.5-2.556-4.242-5.889-7.242-10-9a3.647 3.647 0 0 0-1 1.5c1.54 8.038 2.04 16.038 1.5 24-.713 4.272-2.88 5.605-6.5 4z"/><path style="opacity:.278" fill="#b0384a" d="M111.5 139.5c-1.911-.074-3.078-1.074-3.5-3-2.159-7.428-2.992-14.928-2.5-22.5-.108-1.681-.775-2.848-2-3.5.787-1.604 2.12-2.271 4-2a40.016 40.016 0 0 1-2 11 135.35 135.35 0 0 1 3.5 16 16.58 16.58 0 0 0 2.5 4z"/></svg>