<svg xmlns="http://www.w3.org/2000/svg" width="230" height="230" style="shape-rendering:geometricPrecision;text-rendering:geometricPrecision;image-rendering:optimizeQuality;fill-rule:evenodd;clip-rule:evenodd"><path style="opacity:1" fill="#115f60" d="M117.5 65.5a83.48 83.48 0 0 1 21 1.5c4.101.925 6.101 3.425 6 7.5 0 .667-.333 1-1 1-5.717.402-11.217-.265-16.5-2-3.967 1.439-8.134 2.272-12.5 2.5-.556.383-.889.883-1 1.5-.709.904-1.709 1.237-3 1-2.286.095-4.286.762-6 2-3.053-.39-5.72.277-8 2a807.966 807.966 0 0 0-5 4c-2.319.493-4.319 1.493-6 3-2.353.84-4.353 2.174-6 4-4 2-7 5-9 9-1.406.473-2.073 1.473-2 3-.333 1-1 1.667-2 2-1.29.558-2.123 1.558-2.5 3-.804 3.196-.638 6.196.5 9 .888 2.554 1.221 5.221 1 8 .002 3.665 1.335 6.665 4 9 .333 2.333 1.667 3.667 4 4a90.137 90.137 0 0 0 9 4c2.418 3.21 5.752 4.876 10 5 2.633 1.75 5.633 2.75 9 3a373.887 373.887 0 0 0 18-2h1a72.367 72.367 0 0 0 12-.5c.556-.383.889-.883 1-1.5a598.896 598.896 0 0 0 6-3 94.964 94.964 0 0 0 22-14c1.33-7.057.996-14.057-1-21-.838-.342-1.172-1.008-1-2-.58-2.249-1.913-3.915-4-5-.354-5.704 2.313-7.537 8-5.5a46.081 46.081 0 0 0 6 5.5c2.088 1.836 3.421 4.169 4 7v10c-1.618 5.403-2.451 11.07-2.5 17a12.64 12.64 0 0 0-2.5 4c-2.3 3.772-5.633 6.106-10 7-1.527-.073-2.527.594-3 2-.342.838-1.008 1.172-2 1-2.991-.334-5.324.666-7 3-.333 1-1 1.667-2 2-2.589-.039-4.589.961-6 3a61.71 61.71 0 0 1-8.5-1c-2.008-.193-3.508.474-4.5 2-.473 1.406-1.473 2.073-3 2h-27c-4.084-1.826-8.417-3.16-13-4-3.221-.396-5.888-1.729-8-4-1.74-2.743-4.073-4.743-7-6a33.313 33.313 0 0 0-10-11c-2.758-10.457-3.591-21.124-2.5-32l5-4c.837-3.657 2.67-6.657 5.5-9a303.438 303.438 0 0 1 4-3c3.461-2.899 7.128-5.232 11-7 2.13-2.45 4.796-4.117 8-5 2.927-1.257 5.26-3.257 7-6 3.216.154 5.883-.846 8-3 5.189.589 9.855-.411 14-3z"/><path style="opacity:.799" fill="#35615f" d="M117.5 65.5c-4.145 2.589-8.811 3.589-14 3 .418-.722 1.084-1.222 2-1.5a172.044 172.044 0 0 1 12-1.5z"/><path style="opacity:.549" fill="#446360" d="M144.5 74.5c.101-4.075-1.899-6.575-6-7.5a83.48 83.48 0 0 0-21-1.5c7.031-2.66 14.197-2.66 21.5 0 5.231 1.321 7.064 4.321 5.5 9z"/><path style="opacity:.737" fill="#39625f" d="M103.5 68.5c-2.117 2.154-4.784 3.154-8 3 2.436-1.371 5.103-2.371 8-3z"/><path style="opacity:.445" fill="#3e6461" d="M143.5 75.5c-1.973.663-4.139.996-6.5 1-3.535.143-6.868-.524-10-2-4.136 2.499-8.636 3.499-13.5 3 .111-.617.444-1.117 1-1.5 4.366-.228 8.533-1.061 12.5-2.5 5.283 1.735 10.783 2.402 16.5 2z"/><path style="opacity:.78" fill="#38625f" d="M95.5 71.5c-1.74 2.743-4.073 4.743-7 6 1.74-2.743 4.073-4.743 7-6z"/><path style="opacity:.341" fill="#406460" d="M110.5 78.5c-1.602 1.574-3.602 2.24-6 2 1.714-1.238 3.714-1.905 6-2z"/><path style="opacity:.216" fill="#446561" d="M104.5 80.5c-2.461 1.031-5.127 1.698-8 2 2.28-1.723 4.947-2.39 8-2z"/><path style="opacity:1" fill="#0f5f60" d="M141.5 107.5c1.609 2.101 2.109 4.435 1.5 7a83.484 83.484 0 0 1-7.5 4 29.555 29.555 0 0 0-5 3c-.617.111-1.117.444-1.5 1l-1 16c-3.206 1.624-5.872.958-8-2a169.749 169.749 0 0 1 2.5-33v-3c.532-5.652.865-11.319 1-17 2.596-2.126 5.429-2.46 8.5-1l-1 24c3.394.956 6.894 1.289 10.5 1z"/><path style="opacity:.78" fill="#366160" d="M80.5 82.5c-3.872 1.768-7.539 4.101-11 7 .359-1.871 1.359-3.371 3-4.5 2.654-.94 5.32-1.774 8-2.5z"/><path style="opacity:.341" fill="#3f6361" d="M91.5 86.5c-1.411 2.039-3.411 3.039-6 3 1.681-1.507 3.681-2.507 6-3z"/><path style="opacity:.549" fill="#3f6460" d="M107.5 108.5c.166-6.342 0-12.675-.5-19-3.206-1.624-5.872-.958-8 2-.296 5.228-1.129 10.228-2.5 15a90.09 90.09 0 0 1 1.5-16c2.559-2.85 5.726-3.683 9.5-2.5 1.48 1.3 2.146 2.966 2 5a196.761 196.761 0 0 1-2 15.5z"/><path style="opacity:1" fill="#0e5f60" d="M107.5 108.5c-1.765 2.623-2.432 5.623-2 9-.722.418-1.222 1.084-1.5 2l-1 18-1.5 3c-2.95.213-5.618-.454-8-2 .204-3.018.537-6.018 1-9 1.375-6.789 2.042-13.789 2-21v-2c1.371-4.772 2.204-9.772 2.5-15 2.128-2.958 4.794-3.624 8-2 .5 6.325.666 12.658.5 19z"/><path style="opacity:.031" fill="#456562" d="M85.5 89.5c-1.302 2.322-3.302 3.655-6 4 1.647-1.826 3.647-3.16 6-4z"/><path style="opacity:.187" fill="#416561" d="M123.5 83.5a242.956 242.956 0 0 1-1 17c-.656-1.122-.989-2.455-1-4 .385-4.52 1.052-8.854 2-13z"/><path style="opacity:.19" fill="#436560" d="M141.5 107.5c-3.606.289-7.106-.044-10.5-1l1-24c-3.071-1.46-5.904-1.126-8.5 1 2.225-4.345 5.392-5.012 9.5-2a10.256 10.256 0 0 1 1.5 4 68.271 68.271 0 0 0-2.5 20 285.14 285.14 0 0 1 9.5 2z"/><path style="opacity:.475" fill="#3e6461" d="M169.5 103.5a46.081 46.081 0 0 1-6-5.5c-5.687-2.037-8.354-.204-8 5.5-2.361-4.977-.694-7.643 5-8 4.28 1.283 7.28 3.95 9 8z"/><path style="opacity:.016" fill="#446561" d="M70.5 102.5c.073 1.527-.594 2.527-2 3-.073-1.527.594-2.527 2-3z"/><path style="opacity:.031" fill="#426560" d="M155.5 103.5c2.087 1.085 3.42 2.751 4 5-2.087-1.085-3.42-2.751-4-5z"/><path style="opacity:.169" fill="#436561" d="M66.5 107.5c-1.643 3.8-2.31 7.8-2 12-1.138-2.804-1.304-5.804-.5-9 .377-1.442 1.21-2.442 2.5-3z"/><path style="opacity:.582" fill="#406461" d="M173.5 110.5c2.362 3.271 2.362 6.604 0 10v-10z"/><path style="opacity:.427" fill="#3a625f" d="M65.5 92.5c-2.83 2.343-4.663 5.343-5.5 9l-5 4c-1.091 10.876-.258 21.543 2.5 32-1.29-.558-2.123-1.558-2.5-3a129.269 129.269 0 0 1-1-30c3.828-1.829 6.161-4.829 7-9 1.129-1.641 2.629-2.641 4.5-3z"/><path style="opacity:.475" fill="#3e6361" d="M107.5 108.5c-.176 3.227-.843 6.227-2 9-.432-3.377.235-6.377 2-9z"/><path style="opacity:.416" fill="#3b6360" d="M141.5 107.5c4.202 1.452 5.036 4.119 2.5 8-2.492 1.997-5.325 2.997-8.5 3a83.484 83.484 0 0 0 7.5-4c.609-2.565.109-4.899-1.5-7z"/><path style="opacity:.308" fill="#3d6360" d="M96.5 108.5c.042 7.211-.625 14.211-2 21-.241-7.23.425-14.23 2-21z"/><path style="opacity:.158" fill="#476761" d="M160.5 110.5c1.996 6.943 2.33 13.943 1 21a287.942 287.942 0 0 0-1-21z"/><path style="opacity:.799" fill="#356160" d="m173.5 120.5-1.5 18c-.759 1.563-1.926 2.563-3.5 3a12.64 12.64 0 0 1 2.5-4c.049-5.93.882-11.597 2.5-17z"/><path style="opacity:.91" fill="#3a625f" d="M65.5 127.5c2.125 2.588 3.458 5.588 4 9-2.665-2.335-3.998-5.335-4-9z"/><path style="opacity:.875" fill="#396260" d="M105.5 117.5c-1.266 4.995-1.266 9.995 0 15l-1.5 6c-.417 1.256-1.25 1.923-2.5 2l1.5-3 1-18c.278-.916.778-1.582 1.5-2z"/><path style="opacity:.275" fill="#426560" d="M94.5 129.5a104.578 104.578 0 0 0-1 9c-1.315-3.127-.981-6.127 1-9z"/><path style="opacity:.416" fill="#3e6460" d="M122.5 103.5a169.749 169.749 0 0 0-2.5 33c2.128 2.958 4.794 3.624 8 2l1-16c.383-.556.883-.889 1.5-1a580.83 580.83 0 0 1-1.5 18c-4.987 2.197-8.654.864-11-4-.242-4.55.258-9.05 1.5-13.5-1.827-6.725-.827-12.892 3-18.5z"/><path style="opacity:.549" fill="#3f6460" d="M69.5 136.5c1.667 1 3 2.333 4 4-2.333-.333-3.667-1.667-4-4z"/><path style="opacity:.416" fill="#406460" d="M93.5 138.5c2.382 1.546 5.05 2.213 8 2-3.218 1.684-5.885 1.017-8-2z"/><path style="opacity:.216" fill="#426460" d="M73.5 140.5c3.788-.191 6.788 1.142 9 4a90.137 90.137 0 0 1-9-4z"/><path style="opacity:.737" fill="#3a6360" d="M57.5 137.5a33.313 33.313 0 0 1 10 11c-2.216-.703-4.049-2.036-5.5-4a43.87 43.87 0 0 1-4.5-7z"/><path style="opacity:.78" fill="#3c6360" d="m82.5 144.5 10 5c-4.248-.124-7.582-1.79-10-5z"/><path style="opacity:.549" fill="#3c635f" d="M139.5 145.5a598.896 598.896 0 0 1-6 3c1.187-2.475 3.187-3.475 6-3z"/><path style="opacity:.549" fill="#426562" d="M67.5 148.5c2.927 1.257 5.26 3.257 7 6-2.927-1.257-5.26-3.257-7-6z"/><path style="opacity:.937" fill="#3a6360" d="M133.5 148.5c-.111.617-.444 1.117-1 1.5a72.367 72.367 0 0 1-12 .5 135.35 135.35 0 0 1 13-2z"/><path style="opacity:.031" fill="#466761" d="M158.5 148.5c-.473 1.406-1.473 2.073-3 2 .473-1.406 1.473-2.073 3-2z"/><path style="opacity:.582" fill="#39625f" d="M92.5 149.5a35.175 35.175 0 0 1 8 2 96.187 96.187 0 0 1 19-1 373.887 373.887 0 0 1-18 2c-3.367-.25-6.367-1.25-9-3z"/><path style="opacity:.275" fill="#406561" d="M153.5 151.5c-2.149 1.236-4.482 2.236-7 3 1.676-2.334 4.009-3.334 7-3z"/><path style="opacity:.341" fill="#416661" d="M144.5 156.5c-1.681 1.508-3.681 2.508-6 3 1.411-2.039 3.411-3.039 6-3z"/><path style="opacity:.216" fill="#436661" d="M138.5 159.5c-4.21.26-8.543.594-13 1 .992-1.526 2.492-2.193 4.5-2a61.71 61.71 0 0 0 8.5 1z"/><path style="opacity:.378" fill="#3d6461" d="M82.5 158.5c4.583.84 8.916 2.174 13 4-4.807-.175-9.14-1.509-13-4z"/><path style="opacity:.838" fill="#3b6460" d="M95.5 162.5h27c-1.783.955-3.783 1.622-6 2-5.325-1.274-10.658-1.274-16 0-2.057.064-3.723-.602-5-2z"/></svg>