<?xml version="1.0" encoding="UTF-8"?>
<!DOCTYPE svg PUBLIC "-//W3C//DTD SVG 1.1//EN" "http://www.w3.org/Graphics/SVG/1.1/DTD/svg11.dtd">
<svg xmlns="http://www.w3.org/2000/svg" version="1.1" width="638px" height="656px" style="shape-rendering:geometricPrecision; text-rendering:geometricPrecision; image-rendering:optimizeQuality; fill-rule:evenodd; clip-rule:evenodd" xmlns:xlink="http://www.w3.org/1999/xlink">
<g><path style="opacity:0.973" fill="#fd2d03" d="M 325.5,19.5 C 326.708,20.2341 328.041,20.5674 329.5,20.5C 335.458,41.9987 340.958,63.6653 346,85.5C 352.829,128.299 361.329,170.799 371.5,213C 371.082,215.763 370.416,218.43 369.5,221C 359.478,224.51 349.812,228.843 340.5,234C 337.833,234.667 335.167,234.667 332.5,234C 318.98,228.871 305.313,224.204 291.5,220C 290.711,217.733 290.044,215.4 289.5,213C 291.172,193.269 294.005,173.769 298,154.5C 299.362,135.658 302.029,116.992 306,98.5C 311.492,74.8663 316.825,51.1997 322,27.5C 322.316,24.3588 323.483,21.6922 325.5,19.5 Z"/></g>
<g><path style="opacity:0.981" fill="#2f7a30" d="M 294.5,60.5 C 296.75,60.9513 298.084,62.2847 298.5,64.5C 297.38,72.1701 296.214,79.8367 295,87.5C 294.697,89.8884 293.863,92.0551 292.5,94C 260.65,100.432 231.65,113.098 205.5,132C 194.539,139.635 184.206,147.969 174.5,157C 200.421,163.647 226.421,169.98 252.5,176C 260.166,178.611 267.833,181.111 275.5,183.5C 275.833,184.167 276.167,184.833 276.5,185.5C 274.794,195.452 272.794,205.286 270.5,215C 252.223,213.111 234.223,209.611 216.5,204.5C 221.046,220.675 226.212,236.675 232,252.5C 232.667,253.833 232.667,255.167 232,256.5C 219.571,258.766 207.071,260.766 194.5,262.5C 186.376,228.667 178.876,194.667 172,160.5C 148.987,187.37 133.487,217.537 125.5,251C 123.529,257.751 121.696,264.251 120,270.5C 109.392,275.886 98.559,280.886 87.5,285.5C 88.3804,244.353 99.8804,206.353 122,171.5C 162.856,108.969 220.356,71.9687 294.5,60.5 Z"/></g>
<g><path style="opacity:0.991" fill="#2f7b30" d="M 356.5,60.5 C 397.926,66.3866 435.259,81.8866 468.5,107C 473.833,110 479.167,113 484.5,116C 509.339,141.516 529.506,170.349 545,202.5C 553.598,223.79 559.432,245.79 562.5,268.5C 551.585,268.268 540.752,267.601 530,266.5C 526.723,251.057 522.057,236.057 516,221.5C 504.603,203.764 493.603,185.764 483,167.5C 470.167,155.333 457.333,143.167 444.5,131C 418.287,112.648 389.454,100.148 358,93.5C 354.818,83.4092 353.485,73.0759 354,62.5C 354.995,61.9341 355.828,61.2674 356.5,60.5 Z"/></g>
<g><path style="opacity:0.972" fill="#2e7a30" d="M 469.5,162.5 C 474.547,162.376 476.38,164.709 475,169.5C 463.313,198.576 453.313,228.243 445,258.5C 443.414,260.537 441.247,261.537 438.5,261.5C 428.521,260.671 418.854,258.504 409.5,255C 408.665,251.437 409.165,247.937 411,244.5C 416.328,233.347 421.495,222.181 426.5,211C 421.833,210.333 417.167,210.333 412.5,211C 404.636,212.839 396.802,214.672 389,216.5C 386.625,214.055 385.291,211.055 385,207.5C 383.651,198.771 382.318,190.105 381,181.5C 381.5,181 382,180.5 382.5,180C 411.729,174.603 440.729,168.77 469.5,162.5 Z"/></g>
<g><path style="opacity:0.978" fill="#fd2d04" d="M 325.5,258.5 C 341.613,259.138 354.113,266.138 363,279.5C 365.917,283.666 368.584,287.999 371,292.5C 371.667,300.5 371.667,308.5 371,316.5C 364.683,332.816 353.183,343.649 336.5,349C 324.28,350.811 312.613,349.144 301.5,344C 295.967,338.802 290.8,333.302 286,327.5C 282.889,323.613 280.556,319.28 279,314.5C 276.029,295.833 281.529,280.333 295.5,268C 305.307,263.888 315.307,260.721 325.5,258.5 Z"/></g>
<g><path style="opacity:0.996" fill="#2f7b31" d="M 404.5,269.5 C 433.92,274.751 463.254,280.584 492.5,287C 510.815,289.829 529.149,292.496 547.5,295C 550.525,295.154 552.191,296.654 552.5,299.5C 529.002,303.04 505.668,307.54 482.5,313C 458.79,319.178 435.123,325.511 411.5,332C 407.167,332.667 402.833,332.667 398.5,332C 391.791,323.082 386.791,313.248 383.5,302.5C 388.061,293.046 392.894,283.713 398,274.5C 399.805,272.174 401.972,270.508 404.5,269.5 Z"/></g>
<g><path style="opacity:1" fill="#2f7b31" d="M 238.5,270.5 C 240.17,270.751 241.67,271.418 243,272.5C 249.729,281.72 256.229,291.053 262.5,300.5C 257.264,309.297 251.764,317.964 246,326.5C 245.097,327.701 243.931,328.535 242.5,329C 195.978,320.597 149.311,312.764 102.5,305.5C 102.5,304.5 102.5,303.5 102.5,302.5C 113.215,300.655 123.882,298.489 134.5,296C 169.37,287.809 204.037,279.309 238.5,270.5 Z"/></g>
<g><path style="opacity:0.986" fill="#2f7b30" d="M 553.5,318.5 C 556.518,318.335 559.518,318.502 562.5,319C 561.57,345.96 555.404,371.793 544,396.5C 524.606,437.224 497.106,471.39 461.5,499C 438.886,511.808 415.219,522.142 390.5,530C 380.179,533.102 369.846,534.936 359.5,535.5C 357.382,525.171 357.548,514.838 360,504.5C 371.353,500.448 382.853,496.615 394.5,493C 402.071,490.215 409.405,486.881 416.5,483C 429.492,473.835 442.826,465.169 456.5,457C 458.167,455.333 459.833,453.667 461.5,452C 431.172,446.867 401.172,440.201 371.5,432C 370.106,431.044 369.439,429.711 369.5,428C 372.199,416.638 373.866,405.138 374.5,393.5C 382.21,393.792 389.543,395.625 396.5,399C 404.127,400.272 411.794,401.105 419.5,401.5C 415.767,385.234 411.1,369.234 405.5,353.5C 405.62,350.936 406.953,349.436 409.5,349C 418.182,346.661 426.848,344.661 435.5,343C 444.246,366.236 452.413,389.736 460,413.5C 462.478,423.745 464.478,434.079 466,444.5C 466.423,445.956 467.256,446.456 468.5,446C 482.1,429.735 494.934,412.902 507,395.5C 518.391,372.995 526.391,349.328 531,324.5C 538.515,322.269 546.015,320.269 553.5,318.5 Z"/></g>
<g><path style="opacity:0.984" fill="#2f7b30" d="M 88.5,328.5 C 95.8441,328.779 103.177,329.279 110.5,330C 114.333,331.833 118.167,333.667 122,335.5C 125.586,352.246 131.252,368.579 139,384.5C 148.608,399.772 158.608,414.772 169,429.5C 171.964,433.466 175.297,437.133 179,440.5C 186.15,416.267 191.15,391.601 194,366.5C 195.999,358.505 197.999,350.505 200,342.5C 200.667,341.833 201.333,341.167 202,340.5C 212.769,341.907 223.603,342.907 234.5,343.5C 235.661,347.795 235.828,352.129 235,356.5C 232.563,369.749 229.729,382.916 226.5,396C 226.645,396.772 226.978,397.439 227.5,398C 245.527,395.049 263.193,390.549 280.5,384.5C 280.297,396.675 281.631,408.675 284.5,420.5C 284.392,421.442 284.059,422.275 283.5,423C 277.123,424.511 270.79,426.177 264.5,428C 236.728,432.528 209.062,437.528 181.5,443C 187.198,449.032 193.198,454.699 199.5,460C 222.614,474.225 246.614,486.892 271.5,498C 280.674,500.96 290.008,503.294 299.5,505C 300,505.5 300.5,506 301,506.5C 304.277,516.539 306.11,526.706 306.5,537C 267.085,534.973 230.752,523.306 197.5,502C 187.5,494.667 177.5,487.333 167.5,480C 154.968,467.469 142.801,454.636 131,441.5C 112.822,414.141 99.8224,384.474 92,352.5C 89.7297,344.651 88.5631,336.651 88.5,328.5 Z"/></g>
<g><path style="opacity:0.994" fill="#2f7b30" d="M 328.5,366.5 C 329.552,366.351 330.552,366.517 331.5,367C 337.984,372.411 344.984,377.078 352.5,381C 356.257,383.393 358.257,386.727 358.5,391C 353.585,424.99 347.752,458.823 341,492.5C 340.133,504.518 339.133,516.518 338,528.5C 336.682,532.47 334.849,536.136 332.5,539.5C 331.201,538.91 330.368,537.91 330,536.5C 323.368,505.004 317.368,473.337 312,441.5C 307.186,423.578 302.686,405.578 298.5,387.5C 298.406,385.088 299.406,383.255 301.5,382C 310.668,376.97 319.668,371.803 328.5,366.5 Z"/></g>
</svg>
