<?xml version="1.0" standalone="no"?>
<!DOCTYPE svg PUBLIC "-//W3C//DTD SVG 20010904//EN"
 "http://www.w3.org/TR/2001/REC-SVG-20010904/DTD/svg10.dtd">
<svg version="1.0" xmlns="http://www.w3.org/2000/svg"
 width="688.000000pt" height="688.000000pt" viewBox="0 0 688.000000 688.000000"
 preserveAspectRatio="xMidYMid meet">

<g transform="translate(0.000000,688.000000) scale(0.100000,-0.100000)"
fill="#902831" stroke="none">
<path d="M2034 5726 c-14 -14 -23 -38 -26 -71 -6 -58 -63 -206 -84 -218 -17
-10 -18 -50 -2 -76 14 -23 -6 -81 -28 -81 -8 0 -14 -4 -14 -10 0 -5 5 -10 10
-10 12 0 13 -67 1 -74 -9 -6 -19 -51 -27 -131 -3 -27 -11 -55 -18 -60 -7 -6
-13 -21 -12 -35 1 -19 -4 -24 -16 -22 -20 3 -25 -27 -8 -44 13 -13 -10 -74
-28 -74 -19 0 -24 -23 -12 -55 9 -25 7 -32 -16 -56 -22 -23 -24 -30 -14 -49 9
-17 9 -25 -4 -39 -10 -11 -16 -36 -16 -70 0 -29 -5 -72 -11 -97 -10 -38 -14
-43 -27 -32 -13 12 -14 7 -8 -39 6 -46 4 -53 -14 -63 -17 -9 -19 -14 -9 -26
16 -19 -6 -92 -34 -115 -17 -14 -18 -21 -9 -65 10 -52 6 -121 -9 -130 -5 -3
-9 -20 -9 -39 0 -39 -36 -161 -50 -170 -6 -3 -10 -17 -10 -29 0 -13 -7 -30
-16 -37 -13 -11 -15 -25 -11 -67 4 -39 2 -61 -9 -76 -7 -13 -17 -51 -21 -87
-3 -35 -12 -73 -19 -84 -6 -11 -15 -48 -19 -82 -5 -41 -12 -63 -22 -67 -12 -5
-14 -15 -9 -46 5 -33 3 -41 -14 -50 -11 -6 -18 -14 -16 -19 3 -4 -2 -20 -10
-36 -13 -25 -12 -29 2 -39 14 -11 13 -14 -11 -30 -25 -17 -27 -22 -21 -63 5
-36 2 -51 -14 -73 -12 -17 -17 -35 -13 -46 4 -11 0 -22 -12 -30 -16 -12 -17
-17 -5 -40 11 -20 11 -29 2 -44 -6 -11 -15 -44 -18 -75 -4 -30 -11 -55 -17
-55 -5 0 -7 -12 -4 -27 6 -33 -1 -53 -19 -53 -17 0 -33 -28 -27 -50 3 -10 0
-21 -6 -24 -6 -4 -11 -20 -11 -35 0 -15 -5 -32 -11 -38 -8 -8 -8 -20 1 -45 10
-28 9 -42 -9 -97 -12 -35 -21 -75 -21 -87 0 -13 -9 -28 -20 -34 -12 -6 -20
-21 -20 -35 0 -14 -3 -25 -8 -25 -4 0 -8 -35 -9 -77 -3 -112 -12 -156 -39
-188 -20 -23 -23 -35 -18 -69 9 -65 35 -116 64 -122 14 -3 36 -10 50 -15 17
-8 26 -7 28 0 5 15 57 14 99 -1 27 -10 38 -9 67 5 35 16 91 14 130 -5 13 -7
21 -6 26 2 6 10 15 10 41 1 31 -11 36 -10 52 10 13 17 23 20 45 14 59 -15 115
-17 138 -5 19 11 26 11 39 0 12 -10 21 -10 44 0 23 9 37 9 63 0 24 -9 43 -9
72 -2 30 9 45 8 65 -3 17 -8 32 -10 42 -4 10 5 49 3 100 -6 67 -12 96 -13 141
-4 45 9 61 9 73 -1 10 -8 19 -9 28 -2 33 26 187 31 224 6 28 -18 42 -18 62 0
12 11 28 12 70 5 30 -4 58 -6 62 -3 7 4 193 15 259 15 44 0 88 -8 108 -19 19
-11 22 -10 22 4 0 13 7 15 43 9 23 -4 50 -11 59 -16 9 -5 35 -9 57 -9 31 0 41
4 41 16 0 13 6 15 28 9 15 -5 36 -7 47 -6 11 1 67 4 125 7 58 2 114 4 125 5
33 2 257 -10 302 -17 29 -4 48 -2 64 9 19 14 25 14 50 2 16 -9 40 -12 57 -9
16 3 45 1 64 -4 21 -6 41 -6 51 -1 10 6 25 5 42 -3 19 -9 28 -9 37 0 16 16 71
15 87 -1 10 -10 14 -9 22 5 8 14 23 16 101 13 50 -2 96 -9 101 -14 16 -16 57
-13 57 3 0 11 28 13 163 10 175 -5 169 -5 272 0 57 2 75 -1 97 -17 27 -20 51
-16 42 7 -8 22 23 26 42 5 20 -23 44 -25 44 -4 0 18 0 18 75 0 74 -18 95 -19
95 -2 0 19 156 10 202 -13 21 -10 31 -10 42 -1 8 7 25 9 39 6 15 -4 34 -1 49
9 12 8 43 18 66 22 27 4 46 13 49 23 2 9 9 24 14 34 14 26 -9 87 -45 117 -16
14 -48 42 -71 63 -23 20 -51 37 -62 37 -10 0 -37 19 -58 42 -50 52 -113 98
-135 98 -9 0 -31 11 -50 25 -19 14 -41 23 -48 20 -8 -3 -24 5 -36 17 -12 13
-53 48 -90 78 -38 30 -72 65 -77 77 -9 23 -54 57 -145 108 -29 17 -62 40 -74
53 -11 12 -31 22 -44 22 -23 0 -66 37 -66 57 0 21 -31 37 -48 26 -14 -8 -22
-3 -42 29 -14 22 -35 41 -50 45 -47 11 -109 45 -104 57 4 12 -56 83 -87 101
-9 6 -49 34 -88 64 -72 55 -92 84 -72 104 6 6 11 25 11 43 0 44 19 93 40 104
15 8 17 19 13 68 -4 39 -2 62 6 66 6 4 11 18 11 31 0 13 5 27 10 30 6 3 10 23
10 43 0 27 8 44 29 65 31 30 42 66 34 109 -4 23 -1 29 21 38 19 7 26 17 26 35
0 15 5 35 10 45 7 13 7 33 0 62 -8 37 -7 47 10 69 11 16 17 35 13 48 -4 14 2
33 16 51 13 18 21 44 21 68 0 45 23 108 42 114 7 3 12 24 11 56 -1 41 4 55 18
66 10 7 16 16 12 19 -3 4 2 16 13 28 15 17 19 36 19 95 0 40 4 74 8 74 14 -1
57 90 57 121 0 16 7 41 16 55 12 17 15 36 10 64 -6 38 10 82 37 101 5 4 4 10
-2 13 -18 11 -13 51 9 71 11 10 20 29 20 42 0 13 7 26 16 30 12 4 14 14 10 35
-4 22 0 39 15 60 13 17 19 37 16 50 -8 30 14 96 35 101 10 3 19 19 23 43 4 22
14 58 22 81 15 40 14 44 -6 78 -11 20 -21 46 -21 58 0 20 -5 22 -37 21 -21 -1
-49 5 -61 13 -21 13 -26 13 -43 -3 -12 -11 -28 -15 -48 -11 -23 5 -30 2 -34
-13 -4 -15 -14 -20 -42 -20 -22 0 -47 -8 -62 -20 -15 -11 -41 -20 -61 -20 -20
0 -44 -7 -53 -16 -16 -14 -23 -15 -48 -4 -26 10 -34 9 -58 -8 -58 -40 -100
-54 -143 -47 -23 4 -40 3 -40 -3 0 -5 -25 -12 -56 -16 -61 -7 -87 -17 -121
-49 -18 -16 -32 -19 -73 -15 -43 4 -52 2 -61 -14 -6 -11 -13 -17 -16 -14 -3 3
-23 -4 -44 -16 -35 -19 -42 -20 -64 -8 -21 11 -30 12 -45 2 -11 -7 -27 -12
-35 -12 -8 0 -15 -7 -15 -15 0 -11 -11 -15 -37 -15 -21 0 -45 -8 -57 -18 -26
-23 -118 -46 -150 -38 -15 4 -26 1 -29 -7 -3 -9 -26 -14 -70 -14 -38 -1 -78
-8 -96 -17 -16 -9 -37 -16 -46 -16 -8 0 -20 -11 -25 -25 -7 -19 -17 -25 -42
-25 -17 0 -51 -9 -74 -21 -33 -16 -47 -18 -63 -10 -36 20 -68 13 -91 -19 -21
-30 -62 -41 -75 -20 -9 15 -25 2 -19 -14 6 -16 -58 -41 -82 -32 -9 3 -22 -1
-30 -9 -11 -11 -20 -12 -34 -5 -29 16 -51 12 -57 -10 -5 -17 -11 -18 -68 -13
-41 4 -65 2 -69 -6 -4 -6 -22 -11 -41 -11 -19 0 -37 -4 -40 -10 -3 -5 -15 -10
-26 -10 -11 0 -23 -10 -28 -24 -9 -23 -44 -36 -96 -36 -28 0 -58 43 -50 71 4
12 1 28 -7 37 -20 24 -38 91 -38 143 0 25 -7 55 -16 67 -9 13 -17 46 -18 75
-1 36 -8 62 -24 84 -12 17 -27 54 -32 82 -5 29 -14 60 -20 71 -5 10 -15 42
-21 72 -6 29 -18 66 -26 82 -8 16 -19 58 -24 93 -5 38 -18 76 -29 90 -11 14
-20 30 -20 35 0 6 -11 19 -25 29 -13 11 -34 38 -46 59 -21 38 -25 40 -68 39
-33 -1 -52 -7 -67 -23z m2266 -1411 c0 -16 -6 -25 -15 -25 -18 0 -19 -23 -3
-49 9 -15 7 -26 -10 -55 -12 -21 -22 -46 -22 -58 0 -20 -23 -69 -48 -100 -7
-9 -15 -37 -16 -62 -2 -26 -11 -55 -20 -65 -9 -9 -16 -24 -16 -32 0 -8 -11
-41 -25 -74 -13 -33 -25 -75 -25 -93 0 -18 -4 -40 -9 -50 -24 -47 -34 -86 -61
-226 -5 -27 -14 -54 -20 -60 -5 -5 -10 -21 -10 -36 0 -14 -7 -38 -15 -54 -8
-15 -15 -34 -15 -41 0 -6 -11 -33 -25 -59 -14 -26 -25 -61 -25 -79 0 -43 -35
-174 -51 -194 -8 -9 -14 -30 -15 -47 -3 -42 -13 -84 -30 -123 -8 -17 -14 -42
-14 -55 0 -13 -6 -32 -14 -43 -7 -11 -16 -37 -19 -58 -3 -21 -13 -52 -21 -69
-9 -17 -16 -41 -16 -53 0 -13 -6 -28 -14 -34 -8 -7 -17 -23 -20 -36 -4 -14
-10 -25 -15 -25 -5 0 -23 -14 -40 -31 -27 -26 -37 -30 -76 -28 -24 2 -47 0
-51 -4 -4 -4 -20 -7 -34 -7 -15 0 -33 -6 -39 -14 -19 -22 -130 -28 -164 -8
-28 16 -30 16 -44 -5 -14 -20 -15 -21 -44 -5 -26 15 -31 15 -39 2 -8 -12 -13
-13 -30 -2 -26 16 -45 15 -73 -2 -12 -7 -44 -16 -71 -20 -27 -3 -55 -11 -61
-16 -9 -7 -21 -7 -39 1 -20 10 -29 10 -38 1 -15 -15 -75 -16 -83 -1 -4 6 -19
7 -38 3 -18 -4 -62 -6 -99 -5 -39 1 -68 -2 -68 -8 0 -16 -38 -23 -60 -11 -17
9 -25 8 -40 -5 -18 -17 -33 -16 -92 1 -12 4 -18 0 -18 -10 0 -14 -11 -16 -66
-13 -36 2 -67 0 -70 -5 -9 -14 -61 -9 -75 8 -12 15 -15 14 -29 -3 -15 -19 -79
-36 -125 -34 -11 1 -38 1 -60 0 -109 -3 -191 6 -213 23 -7 7 -12 37 -12 83 0
58 4 75 19 89 14 13 17 26 13 61 -3 30 0 50 9 61 9 11 14 41 14 76 0 50 4 63
23 79 17 13 22 24 17 39 -5 14 2 29 24 50 30 31 40 66 46 168 2 26 9 82 15
125 11 67 16 80 36 87 23 9 32 37 32 103 0 59 12 94 37 107 22 12 24 18 19 47
-4 19 -2 53 4 76 6 23 16 68 23 100 7 32 16 60 21 63 4 3 8 17 8 31 0 18 4 24
15 19 11 -4 15 1 15 18 0 28 19 38 60 30 19 -4 38 -1 55 10 13 9 42 16 63 16
24 0 49 8 65 20 14 11 35 20 47 20 13 0 28 7 34 15 6 9 35 18 66 22 30 3 60
10 66 15 6 4 19 6 28 2 9 -3 22 -2 29 4 7 6 30 12 52 14 30 2 42 9 50 25 8 20
45 31 108 34 10 0 23 9 30 20 9 14 23 19 59 19 29 0 48 5 48 11 0 7 12 9 31 7
25 -4 32 -1 40 19 10 26 9 26 43 13 27 -10 76 4 76 22 0 4 10 8 22 8 12 0 29
7 38 15 10 9 41 18 71 22 30 3 63 13 74 23 35 30 62 40 113 40 35 0 52 4 56
15 3 9 18 15 34 15 16 0 32 3 36 8 4 4 34 7 67 7 53 1 62 4 93 34 19 18 39 31
44 27 5 -3 20 3 32 14 13 11 30 20 40 20 9 0 21 5 27 11 8 8 20 8 39 2 23 -8
37 -4 74 16 25 14 47 29 48 33 5 12 50 10 74 -3 11 -6 18 -7 15 -2 -16 25 42
51 116 52 44 1 47 -1 47 -24z"/>
</g>
</svg>
