<svg xmlns="http://www.w3.org/2000/svg" width="230" height="230" style="shape-rendering:geometricPrecision;text-rendering:geometricPrecision;image-rendering:optimizeQuality;fill-rule:evenodd;clip-rule:evenodd"><path style="opacity:1" fill="#624b75" d="M110.5 65.5c6.98.665 13.98.999 21 1a33.683 33.683 0 0 0 9 2c1.653.16 2.986.826 4 2 .535 1.946 1.868 2.946 4 3 1.085 2.087 2.751 3.42 5 4 1 3 3 5 6 6 4.984 2.29 7.151 6.29 6.5 12l5 7c.815 4.852.648 9.519-.5 14a22.581 22.581 0 0 0-4 8 29.417 29.417 0 0 0-2 7c-3.018 1.355-4.351 3.688-4 7-1.39 1.399-2.39 3.066-3 5-3.841 5.514-8.841 9.514-15 12-2 0-3 1-3 3-.901 2.227-2.567 3.227-5 3a21.435 21.435 0 0 0-7 1 24.935 24.935 0 0 1-7-.5c.881-.708 1.547-1.542 2-2.5l3-4c2.646-1.753 5.646-2.753 9-3 1.88.271 3.213-.396 4-2 1.904-.238 3.238-1.238 4-3 0-.667.333-1 1-1 2.414-1.411 4.081-3.411 5-6 1.406-.473 2.073-1.473 2-3 3.073-2.069 5.406-4.736 7-8a19.22 19.22 0 0 1 1-6c3.803-1.805 5.469-4.805 5-9a310.27 310.27 0 0 0-2.5-14c-.223-2.38-1.39-4.047-3.5-5-.973-2.635-2.64-4.635-5-6-.838-.342-1.172-1.008-1-2-1.411-2.414-3.411-4.08-6-5-1.135-1.713-2.802-2.38-5-2-1.291.237-2.291-.096-3-1-.473-1.406-1.473-2.073-3-2-.558-1.29-1.558-2.123-3-2.5a72.442 72.442 0 0 0-12-.5h-1c-1.765-.961-3.765-1.295-6-1-1.668-1.979-2.334-4.312-2-7v-1z"/><path style="opacity:.963" fill="#685c71" d="M131.5 65.5v1c-7.02-.001-14.02-.335-21-1 .111-.617.444-1.117 1-1.5 6.851-.261 13.517.239 20 1.5z"/><path style="opacity:.38" fill="#796972" d="M131.5 66.5v-1c3.285.428 6.285 1.428 9 3a33.683 33.683 0 0 1-9-2z"/><path style="opacity:.969" fill="#5c5471" d="M110.5 66.5c-.334 2.688.332 5.021 2 7-3.455-.628-4.622-2.628-3.5-6 .383-.556.883-.89 1.5-1z"/><path style="opacity:.969" fill="#6b5f71" d="M144.5 70.5c1.73.526 3.064 1.526 4 3-2.132-.054-3.465-1.054-4-3z"/><path style="opacity:.016" fill="#75676f" d="M148.5 73.5c2.249.58 3.915 1.913 5 4-2.249-.58-3.915-1.913-5-4z"/><path style="opacity:.294" fill="#70646d" d="M95.5 74.5c.905 1.464.905 2.798 0 4a21.628 21.628 0 0 1-5 4c.703-2.216 2.036-4.049 4-5.5a4.452 4.452 0 0 0-2-1.5c-2.024 2.706-4.69 4.039-8 4 3.04-3.038 6.706-4.704 11-5z"/><path style="opacity:.533" fill="#6d6272" d="M119.5 74.5a72.442 72.442 0 0 1 12 .5c1.442.377 2.442 1.21 3 2.5a131.922 131.922 0 0 1-15-3z"/><path style="opacity:.161" fill="#7f6d70" d="M110.5 65.5v1c-.617.11-1.117.444-1.5 1-1.122 3.372.045 5.372 3.5 6 2.235-.295 4.235.039 6 1a50.442 50.442 0 0 0-10 .5l-3 3a108.83 108.83 0 0 0-10 .5c.905-1.202.905-2.536 0-4 .996-.086 1.83.248 2.5 1 .816-1.323 1.983-1.99 3.5-2 3.439-2.26 6.439-4.927 9-8z"/><path style="opacity:.553" fill="#6d6371" d="M101.5 73.5h4c.116 3.41-1.55 4.744-5 4-.067-1.459.266-2.792 1-4z"/><path style="opacity:.275" fill="#766a74" d="M134.5 77.5c1.527-.073 2.527.594 3 2-1.527.073-2.527-.594-3-2z"/><path style="opacity:.953" fill="#6b5f70" d="M153.5 77.5a25.647 25.647 0 0 1 6 6c-3-1-5-3-6-6z"/><path style="opacity:.976" fill="#675c71" d="M140.5 80.5c2.198-.38 3.865.287 5 2-1.903-.296-3.57-.963-5-2z"/><path style="opacity:.986" fill="#5c4f72" d="M90.5 82.5c0 .667-.333 1-1 1a13.117 13.117 0 0 1-7-1 186.2 186.2 0 0 0 2-3c3.31.039 5.976-1.294 8-4a4.452 4.452 0 0 1 2 1.5c-1.964 1.451-3.297 3.284-4 5.5z"/><path style="opacity:.882" fill="#6a5f6e" d="M145.5 82.5c2.589.92 4.589 2.586 6 5-2.589-.92-4.589-2.586-6-5z"/><path style="opacity:.596" fill="#70646f" d="M84.5 79.5a186.2 186.2 0 0 1-2 3 13.117 13.117 0 0 0 7 1c-2.386 1.42-5.053 2.42-8 3-.442 1.239-1.11 2.239-2 3v-5h-4a59.754 59.754 0 0 0 9-5z"/><path style="opacity:1" fill="#634b75" d="M75.5 84.5h4v5c0 .667-.333 1-1 1-1.527-.073-2.527.594-3 2-.372 3.797-1.706 7.13-4 10-1.636 1.249-2.803 2.916-3.5 5a42.498 42.498 0 0 0 0 13c.232 1.237.732 2.237 1.5 3 .907 2.157 1.573 4.49 2 7 .92 2.589 2.586 4.589 5 6 .58 2.249 1.913 3.915 4 5 3.026 2.695 6.026 5.362 9 8 1.208 2.544 3.208 3.878 6 4 1.599-.268 2.932.066 4 1 1.014 1.174 2.347 1.84 4 2 1.395 1.879 3.395 2.879 6 3 .73 1.212 1.73 2.212 3 3a31.116 31.116 0 0 1-11 1c-1.602-1.574-3.602-2.241-6-2-1.486-2.119-3.486-3.619-6-4.5a12.93 12.93 0 0 0-5-.5c-1.085-2.087-2.751-3.42-5-4 0-2-1-3-3-3a30.566 30.566 0 0 1-7-8c-.762-1.762-2.096-2.762-4-3a66.382 66.382 0 0 1-6-9c.09-2.652-.576-4.985-2-7-1.333-3.333-1.333-6.667 0-10 1.238-1.714 1.905-3.714 2-6 .764-3.637 2.097-6.97 4-10a72.006 72.006 0 0 0 12-12z"/><path style="opacity:.875" fill="#695f71" d="M75.5 84.5a72.006 72.006 0 0 1-12 12 2.428 2.428 0 0 1 .5-2 468.383 468.383 0 0 1 11.5-10z"/><path style="opacity:.984" fill="#6c5e6e" d="M152.5 89.5c2.36 1.365 4.027 3.365 5 6-2.39-1.39-4.057-3.39-5-6z"/><path style="opacity:.078" fill="#79696f" d="M78.5 90.5c-.473 1.406-1.473 2.073-3 2 .473-1.406 1.473-2.073 3-2z"/><path style="opacity:.749" fill="#635b6f" d="M118.5 93.5h5v3c.172.992-.162 1.658-1 2v-4c-2.953-.35-5.287.65-7 3 .238-1.904 1.238-3.238 3-4z"/><path style="opacity:.078" fill="#806d6e" d="M118.5 93.5c1.765-.961 3.765-1.295 6-1 .268 1.599-.066 2.932-1 4v-3h-5z"/><path style="opacity:1" fill="#624a75" d="M122.5 98.5c.172.992-.162 1.658-1 2-1 .333-1.667 1-2 2h-3c-.475 2.823.525 4.823 3 6 1.538.047 2.538-.62 3-2 1.599-.268 2.932.066 4 1-.329 2.728.337 5.062 2 7 1.868.763 3.535 1.763 5 3l3 4v5h-6c-2.319-.492-4.319-1.492-6-3-.597-.639-1.43-.972-2.5-1-1.376.184-2.209.851-2.5 2-1.75 1.159-2.75 2.826-3 5 .073 1.527-.594 2.527-2 3-1.406.473-2.073 1.473-2 3-1 .333-1.667 1-2 2-2.473.412-3.806-.588-4-3-.643-3.942.357-7.276 3-10-.233-1.432-.9-1.932-2-1.5a33.673 33.673 0 0 1-4 5.5c-.667 0-1 .333-1 1-.624 2.254-1.957 3.921-4 5-4.333.333-6.333-1.667-6-6a6.544 6.544 0 0 1 3-3c4.167-2.364 6.167-6.03 6-11 4.037-1.816 4.704-4.149 2-7-.683-1.676-2.017-2.343-4-2-.983-3.487-3.317-4.82-7-4-1.58-1.642-2.248-3.642-2-6h5c1.014 1.174 2.347 1.84 4 2 .8 2.24 2.466 3.241 5 3h1c2.804 1.138 5.804 1.305 9 .5.837-1.011 1.17-2.178 1-3.5 1.713-2.35 4.047-3.35 7-3v4z"/><path style="opacity:.439" fill="#77676d" d="M135.5 99.5v-5h-5c1.714-1.238 3.714-1.905 6-2-.17 1.322.163 2.489 1 3.5a19.588 19.588 0 0 1-2 3.5z"/><path style="opacity:.294" fill="#73656d" d="M95.5 95.5c1.88-.27 3.213.396 4 2-1.653-.16-2.986-.826-4-2z"/><path style="opacity:1" fill="#604b74" d="M130.5 95.5h4v5a6.547 6.547 0 0 0-3 3c-2.743.423-4.076-.744-4-3.5.022-2.183 1.022-3.683 3-4.5z"/><path style="opacity:.882" fill="#5d5670" d="M130.5 95.5v-1h5v5c0 .667-.333 1-1 1v-5h-4z"/><path style="opacity:.439" fill="#79696e" d="M95.5 95.5h-5c-.248 2.358.42 4.358 2 6-2.952-.899-4.119-2.899-3.5-6 2.273-1.311 4.44-1.311 6.5 0z"/><path style="opacity:.173" fill="#776971" d="M157.5 95.5c2.11.953 3.277 2.62 3.5 5a310.27 310.27 0 0 1 2.5 14c.469 4.195-1.197 7.195-5 9 .531-2.044 1.698-3.711 3.5-5-.132-7.906-1.632-15.573-4.5-23z"/><path style="opacity:.882" fill="#6b606f" d="M99.5 97.5c1.868.763 3.535 1.763 5 3-2.534.241-4.2-.76-5-3z"/><path style="opacity:.063" fill="#7a6a6c" d="M130.5 94.5v1c-1.978.817-2.978 2.317-3 4.5-.076 2.756 1.257 3.923 4 3.5-2.036 1.126-3.37 2.793-4 5 0-.667-.333-1-1-1-1.068-.934-2.401-1.268-4-1 .761-.891 1.761-1.558 3-2a42.764 42.764 0 0 0 1.5-9c1.011-.837 2.178-1.17 3.5-1z"/><path style="opacity:.749" fill="#6f636f" d="M115.5 97.5c.17 1.322-.163 2.489-1 3.5-3.196.805-6.196.638-9-.5a32.462 32.462 0 0 0 8-.5c.566-.995 1.233-1.828 2-2.5z"/><path style="opacity:.963" fill="#695d71" d="M92.5 101.5c3.683-.82 6.017.513 7 4a36.063 36.063 0 0 1-7-4z"/><path style="opacity:.016" fill="#7d6b6e" d="M121.5 100.5c0 1.333-.667 2-2 2 .333-1 1-1.667 2-2z"/><path style="opacity:.016" fill="#78676c" d="M134.5 100.5c0 2-1 3-3 3a6.547 6.547 0 0 1 3-3z"/><path style="opacity:.173" fill="#6c606e" d="M119.5 102.5c-.734 1.208-1.067 2.541-1 4h4c-.462 1.38-1.462 2.047-3 2-2.475-1.177-3.475-3.177-3-6h3z"/><path style="opacity:.957" fill="#6a5e72" d="M99.5 105.5c1.983-.343 3.317.324 4 2-1.653-.16-2.986-.826-4-2z"/><path style="opacity:.173" fill="#75676f" d="M59.5 106.5c-.095 2.286-.762 4.286-2 6-.24-2.398.426-4.398 2-6z"/><path style="opacity:.882" fill="#61596f" d="M126.5 107.5c.667 0 1 .333 1 1l1 6c-1.663-1.938-2.329-4.272-2-7z"/><path style="opacity:.533" fill="#736672" d="M103.5 107.5c2.704 2.851 2.037 5.184-2 7 1.433-2.058 2.1-4.392 2-7z"/><path style="opacity:.58" fill="#6e6471" d="M71.5 102.5c-2.888 6.777-3.555 13.777-2 21-.768-.763-1.268-1.763-1.5-3a42.498 42.498 0 0 1 0-13c.697-2.084 1.864-3.751 3.5-5z"/><path style="opacity:.078" fill="#72666f" d="M133.5 117.5c2.333.333 3.667 1.667 4 4h-1l-3-4z"/><path style="opacity:.839" fill="#615671" d="M170.5 116.5c.134 1.792-.199 3.458-1 5a10.165 10.165 0 0 0-3 3 22.581 22.581 0 0 1 4-8z"/><path style="opacity:.976" fill="#6d6072" d="M101.5 114.5c.167 4.97-1.833 8.636-6 11a89.285 89.285 0 0 0 6-11z"/><path style="opacity:.596" fill="#686070" d="M124.5 123.5a20.69 20.69 0 0 0-5 1c.291-1.149 1.124-1.816 2.5-2 1.07.028 1.903.361 2.5 1z"/><path style="opacity:.235" fill="#786a72" d="M169.5 121.5c-1.159 3.651-2.826 6.985-5 10a29.417 29.417 0 0 1 2-7 10.165 10.165 0 0 1 3-3z"/><path style="opacity:.016" fill="#75666d" d="M57.5 122.5c1.424 2.015 2.09 4.348 2 7-1.424-2.015-2.09-4.348-2-7z"/><path style="opacity:.596" fill="#615b70" d="M106.5 134.5h-1v-1c.423-2.281-.244-3.948-2-5a33.673 33.673 0 0 0 4-5.5c1.1-.432 1.767.068 2 1.5-2.643 2.724-3.643 6.058-3 10z"/><path style="opacity:.235" fill="#796a71" d="M119.5 124.5c-.25 2.174-1.25 3.841-3 5 .25-2.174 1.25-3.841 3-5z"/><path style="opacity:.953" fill="#6b5f71" d="M136.5 121.5h1c1.83 5.345-.17 7.512-6 6.5-.556-.383-.889-.883-1-1.5h6v-5z"/><path style="opacity:.275" fill="#796b71" d="M92.5 128.5c-.333 4.333 1.667 6.333 6 6-3.774 1.932-6.107.765-7-3.5.028-1.07.361-1.903 1-2.5z"/><path style="opacity:.047" fill="#857170" d="M102.5 129.5c0-.667.333-1 1-1 1.756 1.052 2.423 2.719 2 5-.522-1.719-1.522-3.052-3-4z"/><path style="opacity:.941" fill="#6b5f71" d="M71.5 130.5c2.414 1.411 4.08 3.411 5 6-2.414-1.411-4.08-3.411-5-6z"/><path style="opacity:.596" fill="#6e626f" d="M157.5 129.5c-1.594 3.264-3.927 5.931-7 8 1.594-3.264 3.927-5.931 7-8z"/><path style="opacity:.008" fill="#7a6c74" d="M164.5 131.5a475.953 475.953 0 0 0-4 7c-.351-3.312.982-5.645 4-7z"/><path style="opacity:.173" fill="#75686f" d="M114.5 132.5c.073 1.527-.594 2.527-2 3-.073-1.527.594-2.527 2-3z"/><path style="opacity:.016" fill="#76696f" d="M112.5 135.5c0 1.333-.667 2-2 2 .333-1 1-1.667 2-2z"/><path style="opacity:.922" fill="#695f71" d="M76.5 136.5c2.087 1.085 3.42 2.751 4 5-2.087-1.085-3.42-2.751-4-5z"/><path style="opacity:.294" fill="#74686e" d="M105.5 134.5h1c.194 2.412 1.527 3.412 4 3-3.176 1.773-4.843.773-5-3z"/><path style="opacity:.882" fill="#6c606e" d="M65.5 138.5c1.904.238 3.238 1.238 4 3-1.904-.238-3.238-1.238-4-3z"/><path style="opacity:.922" fill="#675c70" d="M150.5 137.5c.073 1.527-.594 2.527-2 3-.073-1.527.594-2.527 2-3z"/><path style="opacity:.149" fill="#756871" d="M160.5 138.5c.227 2.433-.773 4.099-3 5 .61-1.934 1.61-3.601 3-5z"/><path style="opacity:.596" fill="#695e6e" d="M148.5 140.5c-.919 2.589-2.586 4.589-5 6 .919-2.589 2.586-4.589 5-6z"/><path style="opacity:.596" fill="#6f6470" d="M142.5 147.5c-.762 1.762-2.096 2.762-4 3 .762-1.762 2.096-2.762 4-3z"/><path style="opacity:.957" fill="#695d71" d="M76.5 149.5c2 0 3 1 3 3a6.544 6.544 0 0 1-3-3z"/><path style="opacity:.016" fill="#7a6a6f" d="M89.5 149.5a18.474 18.474 0 0 1 6 4c-2.792-.122-4.792-1.456-6-4z"/><path style="opacity:.173" fill="#7d6d71" d="M138.5 150.5c-.787 1.604-2.12 2.271-4 2 1.014-1.174 2.347-1.84 4-2z"/><path style="opacity:.922" fill="#6a5f71" d="M79.5 152.5c2.249.58 3.915 1.913 5 4-2.249-.58-3.915-1.913-5-4z"/><path style="opacity:.294" fill="#6e646e" d="M99.5 154.5c1.88-.271 3.213.396 4 2-1.653-.16-2.986-.826-4-2z"/><path style="opacity:.173" fill="#72676e" d="M142.5 155.5a6.547 6.547 0 0 1-3 3c0-2 1-3 3-3z"/><path style="opacity:.439" fill="#71656f" d="M103.5 156.5c2.897.629 5.564 1.629 8 3h-2c-2.605-.121-4.605-1.121-6-3z"/><path style="opacity:.898" fill="#685d72" d="M84.5 156.5c1.7-.16 3.366.006 5 .5 2.514.881 4.514 2.381 6 4.5-4.082-.876-7.749-2.543-11-5z"/><path style="opacity:.592" fill="#6f6571" d="m125.5 155.5-3 4c-3.801 1.215-7.467 1.215-11 0 2.357.163 4.69-.003 7-.5l7-3.5z"/><path style="opacity:.974" fill="#5b5072" d="M109.5 159.5h2c3.533 1.215 7.199 1.215 11 0-.453.958-1.119 1.792-2 2.5 2.31.497 4.643.663 7 .5-.763.768-1.763 1.268-3 1.5-6.658.5-13.325.666-20 .5-1.291.237-2.291-.096-3-1a31.116 31.116 0 0 0 11-1c-1.27-.788-2.27-1.788-3-3z"/><path style="opacity:.749" fill="#71646f" d="M95.5 161.5c2.398-.241 4.398.426 6 2-2.286-.095-4.286-.762-6-2z"/><path style="opacity:.067" fill="#81736f" d="M134.5 161.5c-2.782 1.433-5.782 2.6-9 3.5-7.179.821-14.179.655-21-.5 6.675.166 13.342 0 20-.5 1.237-.232 2.237-.732 3-1.5a21.435 21.435 0 0 1 7-1z"/></svg>