<svg xmlns="http://www.w3.org/2000/svg" width="230" height="230" style="shape-rendering:geometricPrecision;text-rendering:geometricPrecision;image-rendering:optimizeQuality;fill-rule:evenodd;clip-rule:evenodd"><path style="opacity:.783" fill="#803e29" d="M61.5 52.5a966.855 966.855 0 0 1 62 0 747.02 747.02 0 0 1-62 0z"/><path style="opacity:.021" fill="#804029" d="M165.5 52.5c-2.307 1.547-4.973 2.214-8 2a1288.66 1288.66 0 0 1-34-2 532.045 532.045 0 0 1 42 0z"/><path style="opacity:.157" fill="#7e4228" d="M178.5 141.5c-.667 0-1-.333-1-1 .166-9.006 0-18.006-.5-27a113.145 113.145 0 0 1-2-20c-.232-1.237-.732-2.237-1.5-3a254.404 254.404 0 0 1 1.5-34c-1.78-4.733-4.946-6.066-9.5-4 4.697-4.266 8.197-3.266 10.5 3a193.737 193.737 0 0 0-1.5 32c2.376 5.86 3.043 11.86 2 18a180.8 180.8 0 0 1 2 36z"/><path style="opacity:1" fill="#8e2930" d="M173.5 90.5c.166 6.342 0 12.675-.5 19-.986.671-2.153.671-3.5 0a898.666 898.666 0 0 1-3-43c-.853-3.018-2.853-4.851-6-5.5a512.462 512.462 0 0 0-32-.5 462.834 462.834 0 0 0-43-1c-8.007.166-16.007 0-24-.5-2.561-2.156-2.561-4.323 0-6.5a747.02 747.02 0 0 0 62 0 1288.66 1288.66 0 0 0 34 2c3.027.214 5.693-.453 8-2 4.554-2.066 7.72-.733 9.5 4a254.404 254.404 0 0 0-1.5 34z"/><path style="opacity:.278" fill="#7e4228" d="M61.5 52.5c-2.561 2.177-2.561 4.344 0 6.5 7.993.5 15.993.666 24 .5 2.448.973 5.115 1.306 8 1-1.634.661-3.467.994-5.5 1A759.281 759.281 0 0 0 60.5 60c-2.98-1.38-3.648-3.546-2-6.5a5.576 5.576 0 0 1 3-1z"/><path style="opacity:.391" fill="#803e29" d="M85.5 59.5c14.51-.33 28.843.004 43 1h-7c-9.35.937-18.683.937-28 0-2.885.306-5.552-.027-8-1z"/><path style="opacity:.266" fill="#7e4328" d="M121.5 60.5h7c10.672-.166 21.339 0 32 .5 3.147.649 5.147 2.482 6 5.5v12c-.825-4.147-1.325-8.48-1.5-13a6.977 6.977 0 0 0-3.5-2.5 2622.752 2622.752 0 0 0-40-2.5z"/><path style="opacity:1" fill="#8e2930" d="M61.5 83.5a787.26 787.26 0 0 1 0 64c-1.174 1.014-1.84 2.347-2 4-1.347.671-2.514.671-3.5 0-.183-2.865-.683-5.531-1.5-8a49.393 49.393 0 0 1-1-11c1.333-11 1.333-22 0-33a18.976 18.976 0 0 1-2-8c.768-.763 1.268-1.763 1.5-3 .5-6.658.666-13.325.5-20 .951-1.618 2.284-2.951 4-4a7.253 7.253 0 0 1 2.5 2c.173 5.848.673 11.515 1.5 17z"/><path style="opacity:.38" fill="#7e4228" d="M119.5 72.5c-2.257-2.084-4.757-2.418-7.5-1l-1 10c-3.278 4.552-5.444 9.552-6.5 15-.207 2.74-1.207 5.074-3 7 .51-4.06 1.344-8.06 2.5-12 2.319-4.47 4.486-8.97 6.5-13.5-2.028-7.257.639-9.924 8-8 .752.67 1.086 1.504 1 2.5z"/><path style="opacity:.999" fill="#8c2b2f" d="M119.5 72.5a50.464 50.464 0 0 1-.5 10 17.339 17.339 0 0 0-3.5 7c-.617.11-1.117.444-1.5 1-.812 5.105-2.312 9.938-4.5 14.5a9.839 9.839 0 0 0 1 4c1.973.495 3.973.662 6 .5-2.448.973-5.115 1.306-8 1 .238-5.358.404-10.691.5-16a39.098 39.098 0 0 1-4.5 2c1.056-5.448 3.222-10.448 6.5-15l1-10c2.743-1.418 5.243-1.084 7.5 1z"/><path style="opacity:.352" fill="#7f4228" d="M119.5 72.5c1.145 3.811 1.312 7.811.5 12a208.89 208.89 0 0 1-4.5 5 17.339 17.339 0 0 1 3.5-7c.498-3.317.665-6.65.5-10z"/><path style="opacity:.886" fill="#803d29" d="M61.5 83.5c-.827-5.485-1.327-11.152-1.5-17a7.253 7.253 0 0 0-2.5-2c-1.716 1.049-3.049 2.382-4 4 .839-5.168 3.339-6.168 7.5-3l1.5 9a41.562 41.562 0 0 0-1 9z"/><path style="opacity:.498" fill="#803f29" d="M53.5 68.5c.166 6.675 0 13.342-.5 20-.232 1.237-.732 2.237-1.5 3 0-.667-.333-1-1-1 2.019-2.895 2.352-6.062 1-9.5.312-4.365.978-8.532 2-12.5z"/><path style="opacity:.999" fill="#8b2d2e" d="M173.5 90.5c.768.763 1.268 1.763 1.5 3 .078 6.774.745 13.441 2 20 .5 8.994.666 17.994.5 27a573.491 573.491 0 0 0-2.5-26c-.667 1.333-1.333 1.333-2 0-.093 8.049-.259 16.049-.5 24-1.398-2.096-2.398-4.429-3-7 1.935-6.524 2.435-13.19 1.5-20-.717-.544-1.217-1.211-1.5-2 1.347.671 2.514.671 3.5 0 .5-6.325.666-12.658.5-19z"/><path style="opacity:1" fill="#8e2930" d="M116.5 109.5a60.379 60.379 0 0 1 7-3c4.184-.092 7.517-1.759 10-5 5.431-1.406 7.765.594 7 6a14.698 14.698 0 0 0-3.5 3 2079.78 2079.78 0 0 0-13 38c-1.667 1.333-3.333 1.333-5 0a72.367 72.367 0 0 1-.5-12c4.95-2.903 6.95-7.236 6-13 .656-1.122.989-2.455 1-4-.085-1.833-.752-3.166-2-4-6.003-.167-11.67.833-17 3-2.589.919-4.589 2.586-6 5-3.937.293-7.77-.04-11.5-1-.667-1.333-.667-2.667 0-4 2.533-.45 4.7-1.45 6.5-3 0-.667.333-1 1-1 1.424-2.015 2.09-4.348 2-7 1.762-.762 2.762-2.096 3-4 1.793-1.926 2.793-4.26 3-7a39.098 39.098 0 0 0 4.5-2 608.456 608.456 0 0 1-.5 16c2.885.306 5.552-.027 8-1z"/><path style="opacity:.021" fill="#7d4628" d="M50.5 90.5c.667 0 1 .333 1 1 .084 2.827.75 5.494 2 8v16c-.827-5.485-1.327-11.152-1.5-17-2.116-2.496-2.616-5.163-1.5-8z"/><path style="opacity:.382" fill="#7e4228" d="M133.5 101.5c6.753-2.748 9.086-.748 7 6 .765-5.406-1.569-7.406-7-6z"/><path style="opacity:.612" fill="#7f4028" d="M133.5 101.5c-2.483 3.241-5.816 4.908-10 5l10-5z"/><path style="opacity:.463" fill="#7f4228" d="M101.5 103.5c-.238 1.904-1.238 3.238-3 4 .238-1.904 1.238-3.238 3-4z"/><path style="opacity:.339" fill="#7f4128" d="M115.5 89.5c-.448 6.108-1.948 11.775-4.5 17a7.248 7.248 0 0 0 2.5 2 27.001 27.001 0 0 1 10-2 60.379 60.379 0 0 0-7 3 18.453 18.453 0 0 1-6-.5 9.839 9.839 0 0 1-1-4c2.188-4.562 3.688-9.395 4.5-14.5.383-.556.883-.89 1.5-1z"/><path style="opacity:.401" fill="#7f3f28" d="M53.5 99.5c1.333 11 1.333 22 0 33a41.516 41.516 0 0 1 0-17v-16z"/><path style="opacity:.914" fill="#813d29" d="M98.5 107.5c.09 2.652-.576 4.985-2 7-.33-2.728.337-5.062 2-7z"/><path style="opacity:1" fill="#8f2830" d="M177.5 140.5c0 .667.333 1 1 1v1c.393 3.013-.274 5.68-2 8h-3c.315-3.871-.018-7.538-1-11v-1c.241-7.951.407-15.951.5-24 .667 1.333 1.333 1.333 2 0a573.491 573.491 0 0 1 2.5 26z"/><path style="opacity:.337" fill="#7f4228" d="M61.5 83.5c2.008 3.077 2.341 6.41 1 10a3173 3173 0 0 0 2 20.5c-1.986 5.084-2.32 10.251-1 15.5-.483 6.17-1.15 12.17-2 18a787.26 787.26 0 0 0 0-64z"/><path style="opacity:.034" fill="#7f4129" d="M123.5 115.5c.888 2.554 1.221 5.221 1 8 .95 5.764-1.05 10.097-6 13a43.842 43.842 0 0 1 4.5-7 30.485 30.485 0 0 0 0-11c-5.429-.867-10.929-.867-16.5 0 5.33-2.167 10.997-3.167 17-3z"/><path style="opacity:.055" fill="#7f4129" d="M106.5 118.5c-1.411 2.414-3.411 4.081-6 5 1.411-2.414 3.411-4.081 6-5z"/><path style="opacity:.886" fill="#83352a" d="M123.5 115.5c1.248.834 1.915 2.167 2 4-.011 1.545-.344 2.878-1 4 .221-2.779-.112-5.446-1-8z"/><path style="opacity:.851" fill="#803f29" d="M95.5 115.5c-1.8 1.55-3.967 2.55-6.5 3-.667 1.333-.667 2.667 0 4 3.73.96 7.563 1.293 11.5 1-4.11 2.483-8.277 2.483-12.5 0-1.564-2.13-1.564-4.13 0-6a24.96 24.96 0 0 1 7.5-2z"/><path style="opacity:.999" fill="#8c2c2e" d="M172.5 139.5c.982 3.462 1.315 7.129 1 11h3c.69 4.058.69 8.058 0 12-2.629 1.55-4.463.884-5.5-2-2.284-4.275-1.95-8.275 1-12 .498-2.982.665-5.982.5-9z"/><path style="opacity:.255" fill="#7f4128" d="M140.5 107.5a254.925 254.925 0 0 1-8.5 20 176.752 176.752 0 0 0-7 22c-4.706 3.392-7.539 2.225-8.5-3.5.446-3.35 1.112-6.517 2-9.5a72.367 72.367 0 0 0 .5 12c1.667 1.333 3.333 1.333 5 0a2079.78 2079.78 0 0 1 13-38 14.698 14.698 0 0 1 3.5-3z"/><path style="opacity:.262" fill="#7f4228" d="M53.5 132.5a49.393 49.393 0 0 0 1 11c-.165 3.35.002 6.683.5 10 2.245 1.295 3.745.628 4.5-2 .16-1.653.826-2.986 2-4 .085 4.737-1.748 8.404-5.5 11a11.392 11.392 0 0 1-2.5-2 542.925 542.925 0 0 0-.5-15c-2.107-3.239-1.94-6.239.5-9z"/><path style="opacity:.341" fill="#7f4028" d="M166.5 66.5a898.666 898.666 0 0 0 3 43c.283.789.783 1.456 1.5 2 .935 6.81.435 13.476-1.5 20 .602 2.571 1.602 4.904 3 7v1a40.914 40.914 0 0 1-.5 9c-2.95 3.725-3.284 7.725-1 12 1.037 2.884 2.871 3.55 5.5 2 .69-3.942.69-7.942 0-12 1.726-2.32 2.393-4.987 2-8 1.296 3.653.963 7.319-1 11a20.435 20.435 0 0 1 .5 10c-2.373 2.35-4.873 2.517-7.5.5a35.742 35.742 0 0 1-3-9 83.314 83.314 0 0 0 4-10.5 38.348 38.348 0 0 0-4-13 82.773 82.773 0 0 0 3-15.5 34.05 34.05 0 0 1-4-11.5 229.647 229.647 0 0 1 0-26v-12z"/><path style="opacity:.969" fill="#87312c" d="M54.5 143.5c.817 2.469 1.317 5.135 1.5 8 .986.671 2.153.671 3.5 0-.755 2.628-2.255 3.295-4.5 2a50.442 50.442 0 0 1-.5-10z"/><path style="opacity:.375" fill="#7f4228" d="M58.5 165.5c3.476-1.143 7.142-1.31 11-.5 2.409 1.707 5.076 2.54 8 2.5-.597.639-1.43.972-2.5 1-5.229-2.415-10.729-3.415-16.5-3z"/><path style="opacity:1" fill="#8e2930" d="M58.5 165.5c5.771-.415 11.271.585 16.5 3 1.07-.028 1.903-.361 2.5-1a642.861 642.861 0 0 0 65.5 0c3.271.221 6.437.888 9.5 2 3.21-1.444 6.543-1.944 10-1.5 2.152 4.873.485 7.54-5 8a581.391 581.391 0 0 1-49 .5c-13.004.167-26.004 0-39-.5a216.17 216.17 0 0 0-13-2.5 9.107 9.107 0 0 1-1-5 6.544 6.544 0 0 0 3-3z"/><path style="opacity:.463" fill="#7f4228" d="M58.5 165.5a6.544 6.544 0 0 1-3 3c0-2 1-3 3-3z"/><path style="opacity:.448" fill="#7f4029" d="M114.5 177.5c-2.235.295-4.235-.039-6-1 16.304.522 32.638.356 49-.5 5.485-.46 7.152-3.127 5-8-3.457-.444-6.79.056-10 1.5a34.516 34.516 0 0 0-9.5-2 642.861 642.861 0 0 1-65.5 0c.418-.722 1.084-1.222 2-1.5 3.66-.547 7.327-1.047 11-1.5a216.535 216.535 0 0 0 22 3c6.973-1.258 13.973-1.258 21 0 6.491-2.864 12.824-2.53 19 1 2.54-.902 5.04-1.902 7.5-3 5.023 1.108 6.69 4.108 5 9a9.454 9.454 0 0 1-2.5 1.5 2104.395 2104.395 0 0 0-39.5 3.5 52.417 52.417 0 0 0-8.5-2z"/><path style="opacity:.288" fill="#7e4228" d="M55.5 168.5a9.107 9.107 0 0 0 1 5 216.17 216.17 0 0 1 13 2.5c12.996.5 25.996.667 39 .5 1.765.961 3.765 1.295 6 1-.949.652-2.115.986-3.5 1a1102.564 1102.564 0 0 0-42.5-1.5c-2.714-1.317-5.381-1.484-8-.5-5.293-.604-6.96-3.27-5-8z"/></svg>