<?xml version="1.0" standalone="no"?>
<!DOCTYPE svg PUBLIC "-//W3C//DTD SVG 20010904//EN"
 "http://www.w3.org/TR/2001/REC-SVG-20010904/DTD/svg10.dtd">
<svg version="1.0" xmlns="http://www.w3.org/2000/svg"
 width="207.000000pt" height="235.000000pt" viewBox="0 0 207.000000 235.000000"
 preserveAspectRatio="xMidYMid meet">

<g transform="translate(0.000000,235.000000) scale(0.100000,-0.100000)"
fill="#000000" stroke="none">
<path d="M333 2336 c-35 -7 -63 -10 -63 -7 0 3 -5 0 -12 -7 -7 -7 -20 -12 -30
-12 -10 0 -18 -4 -18 -10 0 -5 -5 -10 -11 -10 -15 0 -79 -62 -79 -76 0 -7 -11
-25 -24 -41 -12 -15 -21 -34 -19 -40 3 -7 0 -13 -6 -13 -6 0 -10 -3 -9 -7 0
-5 -7 -26 -17 -48 -10 -22 -18 -56 -19 -75 0 -19 -4 -40 -8 -46 -4 -6 -5 -30
-2 -52 3 -27 1 -42 -6 -42 -7 0 -8 -5 -3 -12 4 -7 8 -36 9 -63 0 -28 4 -56 8
-63 4 -7 8 -27 8 -45 0 -17 5 -37 10 -44 5 -7 7 -16 4 -22 -4 -5 1 -16 9 -25
8 -8 15 -19 14 -23 -1 -4 0 -15 3 -23 3 -8 13 -40 23 -70 17 -52 112 -228 141
-261 8 -8 14 -19 14 -24 0 -5 21 -40 48 -77 26 -38 52 -76 57 -85 6 -9 22 -28
38 -43 15 -15 27 -31 27 -35 0 -4 11 -18 25 -31 14 -13 25 -25 25 -28 0 -3 29
-36 65 -73 62 -64 65 -66 79 -48 8 11 12 21 8 23 -11 3 -6 181 7 242 16 77 62
123 123 123 43 0 162 -49 183 -76 6 -6 16 -13 24 -15 15 -3 90 -60 108 -82 7
-8 13 -12 13 -8 0 6 49 -37 157 -139 25 -24 47 -43 48 -43 1 0 20 -17 41 -37
22 -21 53 -50 69 -65 17 -15 54 -52 83 -82 30 -31 58 -56 63 -56 5 0 9 -5 9
-10 0 -6 43 -54 95 -107 52 -54 95 -101 95 -105 0 -4 7 -8 15 -8 8 0 15 -6 15
-13 0 -7 13 -24 30 -37 16 -14 29 -29 30 -34 0 -5 15 -23 33 -40 17 -18 60
-67 95 -109 34 -42 69 -77 78 -77 33 0 24 32 -30 104 -31 42 -56 78 -56 80 0
3 -12 18 -26 33 -14 15 -30 37 -35 48 -5 11 -34 54 -64 95 -30 41 -69 95 -87
120 -18 25 -37 50 -43 56 -5 6 -17 22 -25 34 -8 12 -21 28 -27 36 -7 7 -13 16
-13 21 0 4 -9 14 -20 21 -11 7 -20 17 -20 23 0 11 -69 102 -82 107 -5 2 -8 8
-8 13 0 6 -16 28 -36 49 -20 22 -44 50 -53 62 -8 13 -23 32 -33 43 -10 11 -35
44 -56 75 -20 30 -41 58 -47 62 -5 4 -6 8 -2 8 4 0 -1 10 -12 21 -24 26 -51
81 -51 103 0 9 -4 16 -9 16 -6 0 -10 8 -10 18 0 9 -5 37 -11 61 -25 102 -1
208 59 250 36 26 123 28 178 5 75 -32 109 -49 143 -71 76 -50 82 -11 9 67 -93
102 -172 180 -181 180 -4 0 -8 7 -8 15 0 8 -3 15 -7 15 -5 0 -29 19 -55 43
-64 58 -150 134 -168 149 -68 57 -151 118 -160 118 -5 0 -10 7 -10 15 0 8 -9
15 -20 15 -11 0 -23 7 -26 15 -4 8 -11 15 -17 15 -5 0 -24 11 -41 23 -17 13
-62 39 -101 58 -38 18 -71 37 -73 41 -2 5 -10 8 -18 8 -8 0 -22 4 -32 9 -30
17 -147 51 -187 55 -22 3 -47 7 -55 9 -8 3 -43 -1 -77 -7z m145 -279 c6 3 12
-1 12 -7 0 -7 6 -10 14 -7 7 3 30 -6 50 -19 19 -13 39 -24 43 -24 32 0 219
-190 266 -270 21 -34 37 -65 37 -70 0 -5 9 -24 20 -43 12 -19 23 -46 25 -58 3
-13 7 -35 10 -49 8 -41 7 -148 -1 -162 -9 -13 -10 -18 -13 -39 -2 -18 -21 1
-21 22 0 11 -4 18 -8 15 -4 -2 -8 3 -9 12 -3 43 -93 157 -199 252 -45 41 -116
75 -138 67 -22 -9 -7 -51 28 -78 16 -12 35 -38 43 -56 12 -30 12 -37 -4 -64
-13 -23 -24 -29 -40 -26 -12 2 -24 -1 -26 -7 -3 -7 -11 -5 -24 7 -11 9 -27 17
-36 17 -9 0 -17 5 -17 10 0 6 -7 10 -15 10 -17 0 -121 107 -117 121 1 5 -2 9
-7 9 -10 0 -19 15 -57 90 -10 19 -23 38 -28 42 -6 4 -8 8 -3 8 4 0 1 13 -8 29
-9 19 -11 32 -5 36 7 4 7 12 0 25 -15 29 -12 59 12 106 29 59 55 81 119 102
42 14 57 16 69 6 8 -6 21 -9 28 -7z"/>
<path d="M1620 1115 c0 -15 79 -205 102 -245 4 -8 11 -22 14 -30 3 -8 9 -22
14 -30 5 -8 17 -30 26 -48 10 -19 23 -36 31 -39 7 -3 13 -9 13 -15 0 -13 53
-78 64 -78 5 0 17 -7 26 -15 20 -18 80 -28 80 -13 0 5 7 8 15 4 9 -3 15 0 15
9 0 8 5 15 10 15 6 0 10 7 10 15 0 8 6 14 13 13 14 -3 21 78 6 87 -5 4 -9 14
-9 23 0 30 -154 197 -172 186 -4 -3 -8 -1 -8 5 0 5 -33 33 -72 62 -40 29 -76
57 -79 62 -4 5 -11 7 -16 4 -5 -3 -16 3 -23 14 -12 16 -60 28 -60 14z"/>
<path d="M967 733 c-19 -19 4 -104 52 -198 12 -21 21 -44 21 -51 0 -15 85 -87
106 -90 25 -4 60 12 83 37 23 25 27 63 10 106 -15 41 -102 116 -177 154 -37
19 -68 37 -70 41 -4 10 -16 10 -25 1z"/>
</g>
</svg>
