<?xml version="1.0" standalone="no"?>
<!DOCTYPE svg PUBLIC "-//W3C//DTD SVG 20010904//EN"
 "http://www.w3.org/TR/2001/REC-SVG-20010904/DTD/svg10.dtd">
<svg version="1.0" xmlns="http://www.w3.org/2000/svg"
 width="688.000000pt" height="688.000000pt" viewBox="0 0 688.000000 688.000000"
 preserveAspectRatio="xMidYMid meet">

<g transform="translate(0.000000,688.000000) scale(0.100000,-0.100000)"
fill="#5e5b14" stroke="none">
<path d="M3295 6079 c-33 -4 -98 -12 -145 -18 -47 -6 -99 -8 -115 -5 -22 4
-49 -4 -102 -30 -40 -20 -85 -36 -101 -36 -15 0 -45 -9 -67 -20 -21 -11 -55
-23 -74 -26 -20 -3 -50 -12 -68 -20 -17 -8 -36 -14 -42 -14 -6 0 -11 -5 -11
-10 0 -6 -19 -19 -43 -29 -23 -10 -53 -30 -67 -44 -14 -15 -33 -27 -42 -27
-26 0 -70 -21 -106 -52 -18 -15 -39 -28 -47 -28 -7 0 -42 -24 -77 -53 -35 -30
-81 -64 -103 -77 -22 -14 -48 -35 -58 -47 -10 -13 -23 -23 -29 -23 -15 0 -130
-107 -149 -138 -20 -34 -80 -50 -229 -62 -185 -14 -249 -30 -325 -80 -22 -14
-65 -34 -95 -43 -66 -21 -138 -85 -170 -152 -12 -26 -32 -50 -44 -55 -12 -4
-30 -24 -41 -44 -11 -20 -23 -36 -27 -36 -5 0 -8 -6 -8 -13 0 -8 -13 -34 -30
-58 -16 -24 -30 -51 -30 -60 0 -9 -7 -30 -15 -45 -8 -16 -15 -45 -15 -64 0
-20 -5 -41 -11 -47 -16 -16 -18 -348 -1 -364 6 -7 12 -28 12 -45 0 -48 13 -74
64 -128 28 -30 48 -62 52 -82 3 -19 10 -37 15 -40 5 -3 9 -13 9 -23 0 -9 13
-30 29 -45 16 -15 32 -43 35 -61 4 -18 13 -36 21 -39 9 -3 20 -16 26 -29 6
-12 20 -27 32 -32 21 -10 22 -17 29 -225 4 -118 12 -248 18 -288 5 -40 10
-102 10 -137 0 -60 10 -97 46 -167 8 -14 14 -40 14 -57 0 -37 27 -158 41 -183
5 -10 9 -24 9 -32 0 -7 7 -19 15 -26 8 -7 15 -20 15 -30 0 -10 7 -23 15 -30 8
-7 15 -21 15 -30 0 -10 13 -32 29 -48 17 -16 40 -48 52 -71 12 -23 30 -46 40
-52 11 -5 19 -20 19 -34 0 -40 18 -75 50 -93 19 -11 30 -25 30 -39 0 -13 12
-32 30 -45 19 -13 30 -31 30 -45 0 -13 10 -34 23 -46 13 -12 32 -37 42 -54 11
-18 26 -33 33 -33 43 0 152 -83 152 -115 0 -7 18 -24 40 -36 23 -13 43 -33 46
-46 4 -16 18 -26 47 -34 22 -6 60 -26 82 -45 23 -19 48 -34 56 -34 8 0 44 -8
81 -17 64 -16 68 -19 74 -50 3 -18 10 -36 15 -39 5 -3 9 -15 9 -28 0 -25 33
-60 67 -70 29 -9 69 -63 78 -106 12 -57 29 -81 114 -162 45 -42 81 -83 81 -91
0 -19 32 -47 54 -47 10 0 22 -12 28 -28 6 -15 29 -41 52 -57 57 -42 75 -52
119 -70 6 -3 26 -14 42 -24 17 -11 40 -20 52 -20 12 -1 28 -7 35 -14 36 -37
270 -57 433 -37 50 6 113 12 140 15 52 4 119 27 130 45 3 5 20 10 37 10 33 0
76 30 168 118 30 28 58 52 62 52 5 0 8 8 8 18 0 9 7 26 15 36 8 11 15 25 15
32 0 6 25 37 55 69 30 31 55 65 55 75 0 10 7 23 15 30 8 7 15 25 15 41 0 15 5
31 10 34 6 3 10 21 10 38 1 18 7 43 15 57 8 14 14 34 15 45 0 30 108 115 145
115 7 0 39 27 71 60 33 33 67 60 77 60 9 0 17 5 17 10 0 6 5 10 10 10 19 0 90
78 101 110 6 16 15 30 20 30 5 0 14 12 19 26 6 14 19 28 30 31 11 3 20 11 20
18 0 7 17 25 38 40 46 35 71 65 72 86 0 9 7 22 15 29 8 7 15 19 15 27 0 8 11
24 25 34 13 11 27 35 31 55 3 19 10 37 15 40 5 3 9 14 9 25 0 11 13 32 29 48
38 37 61 83 61 121 0 20 9 39 25 54 14 13 25 30 25 38 0 8 7 23 15 34 8 10 15
38 15 62 0 28 5 45 15 48 8 4 15 18 15 33 0 15 7 36 15 47 8 10 15 30 15 44 0
14 7 34 15 44 8 11 15 30 15 42 0 23 57 74 83 74 8 0 20 7 27 15 7 8 24 15 38
15 14 0 40 11 58 25 18 14 37 25 43 25 6 0 31 20 55 45 25 25 55 45 67 45 24
0 79 51 79 73 0 20 94 117 113 117 8 0 22 12 32 26 9 14 35 44 58 67 53 53 77
90 77 119 0 13 7 32 15 42 8 11 15 34 15 50 0 17 4 46 10 65 15 55 21 202 10
266 -12 65 -33 206 -46 295 -4 36 -16 67 -34 90 -14 19 -34 59 -43 88 -10 32
-31 68 -57 94 -22 23 -40 48 -40 55 0 14 -56 71 -88 91 -12 6 -30 12 -39 12
-34 1 -98 46 -133 93 -24 33 -42 47 -59 47 -13 0 -36 11 -53 25 -16 14 -42 28
-56 31 -15 3 -41 12 -59 20 -17 8 -49 14 -70 14 -47 0 -70 22 -102 93 -12 26
-25 47 -29 47 -5 0 -19 20 -31 45 -12 25 -30 50 -39 57 -9 7 -28 30 -42 50
-14 20 -34 39 -45 42 -11 3 -30 24 -43 46 -12 22 -30 40 -40 40 -16 1 -24 9
-73 73 -12 16 -32 32 -44 37 -13 5 -31 27 -41 49 -11 25 -30 46 -51 58 -19 10
-36 27 -39 39 -3 11 -23 32 -44 45 -22 13 -40 32 -40 42 0 19 -30 34 -95 46
-49 10 -81 27 -120 64 -16 15 -36 27 -43 27 -7 0 -17 10 -23 23 -11 24 -94 57
-143 57 -15 0 -29 7 -32 15 -4 8 -14 15 -25 15 -10 0 -22 6 -26 14 -11 18
-112 39 -248 52 -30 3 -93 14 -190 34 -63 14 -201 18 -280 9z m190 -652 c75
-18 115 -34 115 -45 0 -9 94 -31 167 -39 29 -2 57 -11 64 -19 6 -8 20 -14 30
-14 11 0 19 -4 19 -9 0 -5 12 -16 28 -24 88 -45 111 -60 143 -93 18 -20 45
-40 57 -45 13 -5 26 -18 29 -29 3 -11 11 -20 18 -20 18 0 205 -182 205 -200 0
-7 8 -22 17 -32 14 -16 15 -22 5 -36 -7 -9 -16 -26 -21 -38 -7 -15 -26 -24
-77 -34 -56 -12 -77 -22 -114 -55 -25 -23 -58 -51 -73 -62 -67 -51 -127 -179
-178 -378 -13 -52 -18 -338 -7 -390 5 -22 14 -65 20 -95 6 -30 15 -61 22 -69
6 -8 16 -50 22 -94 12 -80 12 -80 73 -138 34 -33 61 -66 61 -75 0 -9 9 -18 20
-21 11 -3 20 -9 20 -13 0 -5 9 -11 19 -15 10 -3 22 -16 25 -28 7 -28 60 -87
78 -87 8 0 32 -17 55 -37 48 -45 123 -82 200 -100 12 -3 31 -15 43 -28 22 -23
22 -24 6 -103 -9 -43 -16 -93 -16 -110 0 -17 -4 -33 -9 -37 -5 -3 -15 -22 -22
-43 -15 -48 -68 -160 -78 -166 -4 -3 -14 -24 -22 -48 -9 -30 -41 -71 -108
-140 -53 -54 -100 -98 -106 -98 -5 0 -34 -25 -64 -55 -58 -59 -68 -64 -78 -37
-3 9 -19 33 -35 53 -15 20 -28 42 -28 48 0 6 -10 13 -22 16 -13 4 -37 25 -55
48 -60 80 -126 147 -143 147 -10 0 -23 7 -30 15 -7 8 -17 15 -22 15 -5 0 -24
11 -41 24 -18 13 -47 27 -65 31 -18 4 -45 13 -60 21 -15 8 -35 14 -44 14 -9 0
-20 5 -23 10 -3 6 -14 10 -24 10 -10 0 -24 7 -31 15 -7 8 -27 15 -44 15 -18 0
-37 5 -44 12 -16 16 -183 24 -210 9 -11 -6 -51 -11 -89 -12 -42 -1 -74 -7 -84
-15 -8 -8 -44 -17 -78 -20 -41 -5 -75 -15 -97 -31 -19 -12 -37 -23 -39 -23
-11 0 -80 -53 -92 -70 -8 -12 -20 -19 -26 -18 -16 4 -139 -86 -189 -137 -21
-22 -46 -56 -54 -75 -19 -47 -64 -68 -102 -49 -15 8 -33 20 -40 27 -7 6 -24
12 -37 12 -30 0 -282 248 -291 288 -4 15 -18 44 -31 64 -12 21 -23 43 -23 50
0 20 -39 90 -66 119 -17 17 -24 37 -24 63 0 21 -6 50 -14 64 -20 40 -39 118
-47 202 -4 41 -11 100 -14 130 -6 52 -5 57 27 93 18 20 41 37 50 37 8 0 21 7
28 15 15 18 43 19 70 3 15 -10 26 -10 53 0 18 7 48 12 67 12 39 0 182 38 245
65 17 7 47 19 68 25 20 6 50 25 65 42 15 16 44 46 65 66 20 19 37 41 37 49 0
7 9 18 20 25 11 7 20 20 20 28 0 9 22 32 49 52 48 36 81 84 81 118 0 10 7 23
15 30 8 7 15 20 15 30 0 10 7 23 15 30 9 8 15 30 15 59 0 25 7 69 16 96 21 68
21 235 0 295 -9 25 -16 55 -16 67 0 32 -60 183 -87 219 -13 17 -23 35 -23 40
0 5 -14 36 -30 69 -17 33 -30 66 -30 75 0 8 -19 23 -42 33 -42 19 -67 42 -68
63 0 14 73 54 99 54 10 0 26 9 37 21 10 12 39 31 64 42 25 12 56 34 70 49 13
15 31 28 40 28 8 1 33 19 55 40 22 22 47 40 56 40 9 0 22 7 29 15 7 8 21 15
31 15 11 0 38 12 60 26 25 16 62 28 95 31 30 3 59 12 65 19 8 10 35 14 85 14
40 0 76 4 79 10 8 13 104 6 180 -13z"/>
</g>
</svg>
