<?xml version="1.0" standalone="no"?>
<!DOCTYPE svg PUBLIC "-//W3C//DTD SVG 20010904//EN"
 "http://www.w3.org/TR/2001/REC-SVG-20010904/DTD/svg10.dtd">
<svg version="1.0" xmlns="http://www.w3.org/2000/svg"
 width="688.000000pt" height="688.000000pt" viewBox="0 0 688.000000 688.000000"
 preserveAspectRatio="xMidYMid meet">

<g transform="translate(0.000000,688.000000) scale(0.100000,-0.100000)"
fill="#634976" stroke="none">
<path d="M3410 5980 c-14 -9 -68 -12 -210 -10 -84 1 -190 -18 -218 -40 -13
-11 -36 -20 -51 -20 -14 0 -35 -7 -45 -15 -11 -8 -33 -15 -49 -15 -34 0 -107
-19 -121 -32 -6 -4 -19 -8 -30 -8 -12 0 -33 -6 -48 -14 -15 -8 -40 -17 -57
-21 -17 -4 -33 -11 -36 -16 -4 -5 -14 -9 -23 -9 -10 0 -25 -9 -35 -20 -9 -11
-28 -20 -41 -20 -13 0 -29 -6 -35 -14 -13 -16 -86 -36 -130 -36 -16 0 -33 -5
-36 -10 -4 -6 -23 -19 -43 -30 -20 -11 -57 -36 -82 -55 -54 -41 -115 -75 -135
-75 -7 0 -16 -8 -19 -18 -8 -24 -102 -101 -133 -108 -13 -4 -23 -14 -23 -23 0
-10 -35 -45 -77 -79 -43 -34 -85 -69 -93 -78 -8 -10 -22 -23 -30 -31 -8 -8
-48 -45 -89 -84 -40 -38 -77 -69 -82 -69 -5 0 -9 -10 -9 -21 0 -12 -21 -42
-47 -69 -99 -99 -113 -117 -113 -136 0 -11 -7 -29 -15 -40 -8 -10 -15 -31 -15
-47 0 -19 -7 -31 -25 -39 -17 -8 -24 -17 -20 -29 3 -9 -5 -41 -18 -70 -14 -30
-30 -70 -37 -89 -8 -19 -20 -42 -27 -52 -8 -9 -20 -36 -28 -60 -7 -24 -22 -62
-34 -83 -15 -29 -19 -49 -15 -77 4 -22 2 -43 -4 -51 -11 -13 -35 -126 -52
-242 -20 -132 -23 -150 -30 -160 -8 -11 -4 -430 5 -520 4 -33 15 -80 25 -105
10 -25 21 -74 25 -110 8 -75 24 -130 60 -201 14 -27 23 -53 21 -58 -3 -4 4
-32 15 -62 11 -30 23 -62 26 -73 3 -10 17 -40 31 -65 66 -121 112 -216 112
-230 0 -8 9 -24 19 -35 10 -12 29 -46 42 -76 12 -30 32 -66 44 -80 12 -14 31
-40 41 -57 10 -18 24 -33 31 -33 7 0 27 -19 44 -42 17 -24 49 -55 72 -70 44
-29 117 -98 117 -110 0 -4 17 -16 38 -27 21 -11 54 -35 73 -53 19 -18 61 -56
94 -83 33 -28 74 -63 91 -80 37 -36 119 -95 131 -95 5 0 25 -11 46 -25 39 -27
119 -40 148 -24 25 13 42 91 35 156 -8 66 -9 86 -7 128 1 17 0 72 -3 123 -4
86 -7 95 -35 128 -17 19 -31 38 -31 43 0 5 -13 14 -29 21 -39 16 -100 77 -117
117 -8 17 -22 38 -33 45 -21 15 -96 110 -151 193 -19 29 -56 79 -81 112 -25
32 -55 76 -66 98 -42 82 -83 172 -83 182 0 6 -11 35 -25 66 -18 39 -27 78 -30
138 -7 109 -14 146 -31 160 -17 14 -18 46 -3 51 9 3 9 17 1 53 -10 46 -25 206
-26 280 0 51 15 119 31 137 11 12 13 28 8 61 -5 34 -3 51 9 69 9 12 16 37 16
55 0 17 7 38 15 47 8 8 15 26 15 39 0 14 6 30 14 36 8 7 17 39 21 72 4 37 13
63 21 66 8 3 14 15 14 28 0 37 30 97 51 102 13 4 19 14 19 33 0 19 7 30 25 38
21 10 24 15 16 31 -8 14 -6 25 9 44 11 14 20 30 20 36 0 5 18 25 40 42 22 18
40 38 40 44 0 7 11 17 25 23 15 7 25 20 25 32 0 27 17 60 31 60 20 0 87 62 93
86 4 13 19 31 34 41 15 9 43 31 64 48 67 56 111 85 128 85 9 0 25 9 35 20 10
11 20 18 23 15 3 -2 25 14 50 35 25 22 50 40 57 40 7 0 18 7 25 14 15 19 75
48 179 85 46 17 89 35 96 41 9 7 35 9 72 4 49 -5 67 -3 101 15 23 12 53 21 67
21 15 0 36 5 47 11 13 7 65 11 132 9 61 -1 144 -3 183 -4 40 0 74 3 76 7 8 26
286 -21 364 -61 23 -12 48 -19 56 -16 13 5 140 -55 161 -77 6 -5 24 -9 41 -9
32 0 136 -59 164 -93 7 -9 20 -17 28 -17 22 0 94 -40 139 -76 23 -19 45 -34
50 -34 12 0 83 -74 113 -117 12 -18 42 -47 66 -64 24 -17 49 -44 55 -59 6 -15
23 -39 37 -52 13 -12 30 -36 37 -53 7 -16 30 -50 50 -73 20 -24 36 -49 36 -56
0 -7 12 -22 26 -35 14 -12 32 -37 40 -56 7 -18 18 -36 24 -40 5 -3 10 -16 10
-27 0 -11 9 -36 21 -55 12 -18 18 -40 15 -48 -3 -8 3 -23 13 -32 32 -30 49
-75 56 -148 4 -38 14 -80 22 -92 9 -13 12 -31 8 -43 -4 -12 -2 -26 3 -33 17
-21 25 -86 13 -101 -10 -11 -9 -22 4 -46 13 -25 14 -40 5 -87 -15 -82 -13
-130 6 -137 12 -5 14 -17 8 -68 -4 -35 -10 -68 -15 -74 -4 -5 -11 -48 -15 -95
-3 -46 -13 -94 -20 -106 -8 -12 -14 -31 -14 -42 0 -11 -4 -22 -9 -25 -5 -3
-12 -38 -16 -77 -4 -39 -13 -83 -21 -98 -8 -14 -14 -34 -14 -45 0 -10 -15 -33
-33 -50 -32 -30 -54 -88 -48 -124 1 -7 -12 -18 -29 -23 -25 -9 -33 -20 -43
-56 -7 -29 -22 -52 -39 -65 -18 -12 -28 -28 -28 -45 0 -14 -14 -43 -32 -65
-47 -56 -119 -128 -128 -128 -11 0 -66 -56 -73 -74 -3 -8 -18 -20 -33 -28 -16
-7 -41 -32 -56 -55 -21 -30 -42 -47 -83 -64 -51 -21 -55 -25 -55 -55 0 -18 -4
-36 -10 -39 -6 -3 -10 -19 -10 -35 0 -16 -4 -31 -9 -34 -19 -12 -35 -340 -20
-416 13 -67 37 -120 53 -120 7 0 23 11 36 25 13 14 29 25 36 25 6 0 36 18 65
41 30 22 66 43 82 46 16 3 27 12 27 23 0 21 37 55 70 64 14 3 37 24 52 46 18
25 36 40 49 40 25 0 87 46 100 74 21 45 59 95 104 137 58 55 84 81 118 123 21
25 45 46 52 46 8 0 16 9 20 19 3 11 35 47 70 80 36 33 65 67 65 76 0 9 11 27
25 39 14 13 43 57 64 98 92 177 105 198 123 204 12 3 17 12 14 21 -3 8 5 35
19 61 14 26 25 52 25 58 0 6 8 22 18 35 10 13 19 37 20 52 1 16 11 40 22 54
11 14 20 41 20 59 0 18 5 36 10 39 6 3 10 16 10 28 0 12 9 36 20 52 11 17 20
37 20 46 0 9 6 22 14 28 11 9 15 35 15 93 0 46 5 86 12 94 6 8 9 24 6 35 -3
12 0 34 8 49 7 14 14 53 14 86 1 32 1 77 2 99 3 189 -3 470 -11 485 -7 13 -5
27 7 49 16 28 17 33 2 73 -9 24 -17 69 -18 101 -1 32 -9 74 -17 92 -8 19 -14
45 -14 58 0 13 -4 27 -9 33 -6 5 -14 34 -20 64 -5 30 -18 82 -29 115 -11 33
-28 87 -37 120 -41 142 -57 184 -80 205 -14 13 -25 31 -25 40 0 9 -18 41 -40
70 -22 29 -40 58 -40 63 0 5 -13 25 -30 44 -16 18 -30 41 -30 50 0 17 -46 83
-67 96 -7 4 -27 29 -44 54 -40 57 -161 179 -199 198 -15 8 -30 20 -33 27 -2 7
-26 24 -52 38 -78 41 -85 46 -118 78 -18 17 -61 42 -97 56 -59 22 -168 75
-304 149 -27 15 -59 27 -71 27 -13 0 -28 7 -35 15 -7 8 -26 19 -44 24 -17 5
-50 17 -74 25 -23 9 -53 14 -66 10 -14 -3 -44 3 -75 16 -44 20 -55 21 -81 10
-25 -10 -39 -10 -73 0 -37 11 -166 23 -237 20 -14 0 -37 5 -53 11 -21 9 -31 9
-42 -1 -9 -7 -25 -10 -41 -6 -50 13 -189 17 -204 6z"/>
<path d="M3476 4613 c-10 -10 -29 -12 -235 -19 l-175 -6 -28 -30 c-15 -17 -34
-28 -42 -25 -7 3 -48 -12 -90 -34 -54 -27 -84 -37 -103 -33 -20 3 -36 -2 -56
-18 -75 -60 -86 -68 -96 -68 -6 0 -11 -9 -11 -21 0 -29 -18 -59 -35 -59 -8 0
-24 -8 -35 -17 -47 -42 -104 -105 -114 -125 -7 -13 -24 -29 -39 -36 -15 -7
-27 -21 -27 -31 0 -10 -9 -26 -21 -37 -12 -11 -18 -26 -15 -38 3 -10 -8 -45
-25 -77 -16 -32 -29 -65 -29 -72 0 -8 -11 -34 -24 -60 -14 -25 -26 -66 -27
-93 -2 -27 -11 -68 -21 -91 -11 -25 -16 -52 -12 -67 3 -13 1 -27 -5 -30 -14
-9 -14 -79 0 -93 7 -7 9 -22 4 -40 -9 -32 -10 -106 -2 -120 3 -5 9 -37 13 -71
3 -34 11 -65 15 -68 5 -3 9 -20 9 -38 0 -19 10 -46 25 -66 16 -22 25 -47 25
-71 0 -28 6 -40 26 -54 14 -9 32 -31 39 -49 8 -18 21 -38 29 -46 9 -7 16 -19
16 -27 0 -35 60 -115 150 -203 143 -138 194 -176 299 -226 77 -37 100 -44 130
-39 26 4 50 0 84 -15 l47 -21 -5 -122 c-7 -156 -7 -151 3 -222 5 -38 5 -69 -2
-87 -7 -18 -6 -38 2 -64 7 -24 8 -43 2 -55 -13 -24 -13 -116 0 -124 7 -4 9
-36 4 -89 -5 -66 -3 -88 9 -107 10 -16 16 -59 20 -129 2 -62 13 -136 25 -180
12 -41 24 -87 27 -102 l5 -28 88 4 c48 2 114 11 147 19 143 35 154 50 160 219
3 68 1 155 -3 193 -5 39 -6 82 -2 96 5 15 4 31 -1 36 -6 6 -6 26 0 53 8 34 6
48 -6 67 -13 20 -14 28 -3 47 9 18 9 29 1 44 -8 15 -8 27 0 46 8 17 8 33 1 54
-5 16 -8 49 -5 74 4 32 0 53 -11 70 -12 19 -15 36 -10 67 4 27 2 51 -6 65 -9
18 -9 29 -1 45 9 15 8 25 0 39 -16 25 -5 52 19 52 11 0 25 6 31 14 6 8 26 16
44 19 18 3 50 11 72 17 22 7 59 13 83 15 23 1 55 10 70 21 15 11 46 26 69 32
31 9 47 21 58 42 12 23 25 31 55 36 30 5 40 11 42 28 2 15 11 22 31 24 20 2
27 8 23 18 -7 19 29 51 68 58 35 7 99 80 111 128 4 15 18 34 31 43 13 8 24 23
24 31 0 9 19 51 41 93 39 72 46 90 67 186 5 22 14 50 21 63 7 13 12 45 13 73
0 41 4 52 24 66 18 11 22 19 14 28 -7 9 -6 16 5 25 20 16 19 49 -2 72 -16 18
-16 21 1 49 9 16 15 37 12 47 -3 9 -8 60 -12 112 -4 69 -11 103 -25 126 -10
17 -19 39 -19 49 0 10 -6 26 -14 34 -19 22 -96 168 -96 182 0 6 -9 22 -20 36
-11 14 -20 37 -20 50 0 17 -15 39 -45 67 -25 24 -45 46 -45 50 0 13 -91 126
-102 126 -5 0 -27 13 -47 28 -20 16 -43 32 -51 35 -8 4 -33 19 -55 32 -22 14
-54 32 -72 40 -17 8 -34 19 -38 25 -3 5 -17 10 -30 10 -13 0 -30 6 -37 13 -24
24 -81 47 -100 41 -12 -3 -32 4 -53 20 -18 14 -46 26 -62 26 -15 0 -41 7 -57
15 -30 16 -97 20 -110 8z m-87 -713 c36 -7 59 -6 72 1 32 17 182 -35 225 -77
19 -19 34 -40 34 -47 0 -7 27 -41 60 -77 33 -36 60 -74 60 -85 0 -11 6 -29 13
-40 10 -15 14 -55 12 -150 -1 -125 -2 -133 -34 -197 -18 -38 -41 -70 -51 -73
-11 -3 -28 -16 -37 -29 -10 -13 -29 -28 -41 -35 -13 -7 -25 -25 -29 -42 -7
-36 -37 -59 -76 -59 -15 0 -40 -8 -54 -17 -45 -30 -94 -43 -115 -32 -11 6 -36
8 -57 4 -29 -5 -44 -1 -74 19 -24 16 -52 26 -75 26 -20 0 -57 7 -82 16 -46 16
-120 78 -120 101 0 7 -14 26 -30 43 -34 35 -63 97 -55 118 3 8 -4 30 -15 49
-22 37 -26 78 -10 88 8 5 7 11 -1 21 -7 9 -8 24 -3 41 4 16 6 34 5 42 -1 7 1
20 5 30 4 9 8 23 10 31 12 60 34 96 87 142 31 28 57 57 57 66 0 20 39 62 57
62 7 0 13 4 13 9 0 13 92 45 125 43 17 -1 37 3 45 8 19 12 16 12 79 0z"/>
</g>
</svg>
