<?xml version="1.0" standalone="no"?>
<!DOCTYPE svg PUBLIC "-//W3C//DTD SVG 20010904//EN"
 "http://www.w3.org/TR/2001/REC-SVG-20010904/DTD/svg10.dtd">
<svg version="1.0" xmlns="http://www.w3.org/2000/svg"
 width="688.000000pt" height="688.000000pt" viewBox="0 0 688.000000 688.000000"
 preserveAspectRatio="xMidYMid meet">

<g transform="translate(0.000000,688.000000) scale(0.100000,-0.100000)"
fill="#0a6061" stroke="none">
<path d="M3284 6088 c-4 -7 -7 -25 -6 -41 1 -15 -5 -35 -13 -43 -11 -11 -14
-26 -9 -49 3 -19 1 -43 -7 -56 -14 -26 -27 -81 -36 -144 -3 -22 -12 -50 -21
-63 -8 -13 -16 -49 -18 -80 -3 -62 -17 -143 -33 -195 -5 -17 -17 -114 -25
-215 -8 -102 -20 -190 -26 -198 -9 -10 -9 -30 0 -81 11 -67 6 -138 -11 -149
-5 -3 -7 -15 -4 -27 8 -34 -12 -246 -24 -261 -7 -8 -28 -16 -49 -19 -36 -4
-89 -21 -124 -38 -10 -5 -28 -9 -42 -9 -13 0 -29 -7 -36 -15 -7 -8 -22 -15
-34 -15 -12 0 -31 -7 -42 -15 -10 -8 -25 -15 -33 -15 -14 0 -132 -56 -176 -83
-209 -129 -285 -193 -513 -437 -46 -50 -53 -54 -71 -43 -12 7 -32 13 -47 13
-14 0 -40 11 -58 25 -18 14 -38 25 -44 25 -7 0 -12 4 -12 10 0 5 -15 17 -32
26 -18 9 -48 30 -66 45 -18 16 -39 29 -48 29 -21 0 -67 34 -152 112 -48 44
-100 80 -155 106 -45 22 -93 51 -106 66 -14 14 -28 26 -32 26 -4 0 -47 18 -96
41 -48 22 -101 46 -118 54 -32 15 -73 23 -146 32 -41 4 -49 2 -63 -18 -20 -29
-21 -63 -1 -79 8 -7 15 -16 15 -21 0 -8 116 -179 129 -189 3 -3 24 -25 45 -50
22 -25 65 -65 95 -88 31 -24 63 -54 71 -67 22 -33 120 -120 158 -139 18 -9 50
-35 71 -57 21 -21 44 -39 49 -39 17 0 82 -33 82 -41 0 -12 88 -92 121 -111 39
-21 69 -48 69 -61 0 -6 10 -21 22 -34 19 -20 20 -27 10 -44 -8 -13 -10 -36 -6
-67 5 -40 3 -50 -15 -66 -15 -13 -21 -31 -21 -59 0 -23 -7 -48 -16 -58 -19
-21 -26 -129 -26 -432 0 -209 7 -259 59 -442 15 -49 30 -108 34 -130 4 -22 18
-69 32 -105 14 -36 31 -81 39 -100 7 -19 21 -41 31 -48 9 -7 17 -19 17 -26 0
-8 7 -19 15 -26 8 -7 15 -25 15 -40 0 -19 18 -48 60 -96 33 -38 68 -81 78 -97
9 -15 24 -29 33 -32 9 -3 74 -62 145 -131 71 -69 143 -139 159 -155 17 -16 40
-29 52 -29 12 0 48 -22 80 -50 32 -27 65 -50 74 -50 9 0 34 -13 56 -29 24 -17
57 -31 84 -33 40 -5 162 -46 192 -65 6 -4 28 -9 47 -9 51 -3 91 -15 109 -33
14 -14 37 -16 146 -14 72 2 163 -2 203 -8 60 -9 84 -8 139 6 54 14 70 14 89 4
20 -10 26 -9 42 11 17 20 29 23 119 28 87 4 102 7 106 23 7 24 52 35 83 19 20
-11 27 -11 42 3 10 10 24 17 30 17 7 0 21 9 32 20 11 11 32 20 48 20 42 0 185
77 196 105 3 8 12 15 19 15 8 0 20 7 27 15 7 8 21 15 31 15 10 0 23 9 29 20 6
11 20 20 31 20 12 0 34 14 49 30 15 17 38 30 49 30 13 0 28 12 39 29 18 30 63
71 99 90 13 6 26 24 29 39 4 15 40 61 80 103 41 42 74 82 74 88 0 6 7 11 15
11 9 0 20 12 25 28 6 15 17 39 25 54 8 14 15 37 15 50 0 12 17 57 38 98 21 41
41 84 45 95 3 11 17 54 31 95 15 41 26 86 26 100 0 14 6 34 13 45 14 20 25 62
48 170 21 102 9 585 -16 625 -2 4 -9 31 -14 61 -16 90 -67 244 -126 374 -32
73 -35 114 -10 128 26 14 83 76 100 109 9 16 27 29 45 33 20 4 35 16 40 31 6
14 31 47 57 74 27 27 54 55 60 62 51 53 102 98 119 105 11 4 42 33 68 63 67
79 66 77 82 116 10 24 26 40 45 47 16 6 29 18 29 25 0 17 59 102 83 121 43 31
73 69 88 106 8 22 21 40 29 40 10 0 16 12 18 32 2 20 10 34 21 38 33 10 64 53
65 89 1 19 9 43 19 54 9 10 17 22 17 27 0 5 6 16 14 24 8 9 17 37 21 64 6 39
5 47 -8 47 -9 0 -19 -4 -22 -10 -3 -5 -21 -10 -40 -10 -19 0 -37 -4 -40 -10
-3 -5 -17 -10 -31 -10 -13 0 -34 -11 -46 -26 -32 -36 -81 -64 -112 -64 -18 0
-30 -7 -38 -25 -6 -13 -19 -27 -28 -30 -9 -3 -23 -17 -30 -30 -9 -16 -22 -25
-37 -25 -13 0 -35 -11 -49 -25 -14 -14 -38 -32 -54 -40 -16 -8 -35 -27 -42
-42 -7 -16 -21 -28 -29 -28 -9 0 -30 -14 -47 -30 -16 -17 -48 -43 -71 -60 -23
-16 -63 -51 -90 -77 -27 -27 -56 -48 -64 -48 -9 0 -31 -13 -49 -28 -18 -16
-40 -33 -49 -38 -9 -5 -49 -38 -89 -74 -40 -36 -79 -69 -86 -73 -8 -4 -14 -14
-14 -21 0 -16 -36 -49 -78 -70 -18 -9 -37 -28 -42 -41 -13 -34 -43 -32 -83 5
-18 16 -63 59 -102 94 -38 36 -81 71 -95 78 -14 7 -32 18 -40 25 -9 7 -56 34
-106 61 -187 102 -293 149 -359 159 -16 2 -39 8 -50 13 -11 4 -58 18 -105 30
-47 13 -91 24 -98 26 -17 5 -33 49 -33 93 -1 20 -5 50 -10 66 -5 17 -11 73
-14 125 -2 52 -9 116 -14 141 -9 41 -23 292 -22 379 0 19 -3 44 -8 55 -34 77
-42 114 -29 134 10 17 10 25 0 41 -6 11 -12 29 -12 40 0 10 -6 34 -14 52 -22
53 -36 103 -36 129 0 32 -32 132 -49 152 -8 11 -11 30 -7 54 4 29 -1 51 -22
93 -25 50 -30 55 -64 58 -21 2 -39 -2 -44 -10z m471 -2194 c182 -60 282 -110
403 -200 95 -72 103 -90 66 -141 -42 -56 -214 -223 -230 -223 -8 0 -14 -4 -14
-9 0 -21 -52 -70 -81 -76 -19 -4 -34 -16 -39 -31 -6 -14 -18 -24 -29 -24 -12
0 -21 -9 -25 -25 -4 -14 -17 -30 -31 -35 -13 -5 -42 -27 -63 -50 -22 -22 -46
-40 -54 -40 -19 0 -45 -29 -50 -55 -5 -30 -52 -28 -56 3 -2 13 2 29 8 37 6 8
13 59 15 117 6 191 17 343 27 354 5 7 4 22 -4 38 -10 24 -9 30 15 52 22 21 25
28 15 43 -9 15 -8 24 5 45 12 18 17 47 17 101 0 73 10 112 34 127 15 10 14 10
71 -8z m-715 -83 c5 -11 10 -90 11 -177 1 -110 6 -167 16 -191 7 -19 11 -38 8
-43 -4 -6 1 -58 9 -118 8 -59 15 -118 15 -132 1 -72 10 -130 25 -151 22 -32
21 -69 -2 -69 -10 0 -47 29 -82 66 -36 36 -90 81 -120 101 -30 20 -64 44 -75
54 -35 33 -79 65 -126 92 -26 14 -68 47 -93 72 -26 25 -52 45 -59 45 -17 0
-87 66 -87 82 0 7 40 57 90 110 91 98 201 180 310 232 30 14 68 34 84 45 33
22 57 16 76 -18z m1483 -589 c24 -27 62 -124 88 -227 21 -79 23 -113 23 -280
-1 -173 -3 -199 -27 -290 -75 -280 -268 -551 -510 -713 -68 -47 -236 -132
-259 -132 -6 0 -33 -7 -62 -16 -28 -9 -64 -20 -80 -25 -17 -5 -88 -14 -159
-21 -101 -9 -152 -9 -238 0 -112 13 -221 35 -251 52 -10 6 -25 10 -33 10 -26
0 -173 74 -255 127 -87 57 -208 158 -266 223 -50 55 -121 152 -134 182 -6 13
-21 41 -35 63 -13 22 -24 47 -25 56 0 9 -7 22 -15 29 -8 7 -15 22 -15 34 0 11
-7 30 -15 40 -8 11 -15 33 -15 49 0 15 -5 38 -12 50 -41 73 -40 471 1 521 27
32 63 20 107 -37 26 -34 63 -66 100 -87 32 -18 78 -50 102 -70 23 -21 59 -46
80 -55 20 -10 48 -26 61 -36 13 -11 34 -19 46 -19 13 0 25 -7 28 -15 11 -27
183 -125 220 -125 14 0 30 -7 37 -15 7 -8 27 -17 46 -21 18 -3 38 -12 45 -20
6 -8 20 -14 30 -14 21 0 68 -19 89 -36 20 -17 99 -44 129 -44 13 0 40 14 61
30 21 17 46 30 55 30 18 0 84 48 127 92 14 16 34 28 43 28 9 0 26 11 37 25 11
14 29 25 41 25 23 0 69 38 100 84 10 14 24 26 31 26 7 0 18 11 24 25 6 14 19
25 27 25 9 0 39 23 68 50 61 59 170 146 210 166 15 8 45 33 65 56 20 23 52 47
70 55 17 7 32 20 32 28 0 8 25 33 55 55 30 22 59 49 65 60 13 25 42 26 63 2z"/>
</g>
</svg>
