<?xml version="1.0" standalone="no"?>
<!DOCTYPE svg PUBLIC "-//W3C//DTD SVG 20010904//EN"
 "http://www.w3.org/TR/2001/REC-SVG-20010904/DTD/svg10.dtd">
<svg version="1.0" xmlns="http://www.w3.org/2000/svg"
 width="688.000000pt" height="688.000000pt" viewBox="0 0 688.000000 688.000000"
 preserveAspectRatio="xMidYMid meet">

<g transform="translate(0.000000,688.000000) scale(0.100000,-0.100000)"
fill="#8b4f1b" stroke="none">
<path d="M4674 5994 c6 -32 5 -34 -11 -26 -10 5 -47 10 -82 10 -52 2 -62 -1
-57 -13 6 -18 -11 -19 -50 -5 -15 6 -31 7 -38 2 -6 -5 -33 -12 -61 -15 -42 -4
-54 -11 -81 -42 l-31 -37 -32 17 c-38 19 -61 14 -61 -14 0 -14 -9 -23 -25 -27
-19 -5 -24 -11 -20 -25 8 -23 2 -24 -30 -3 -31 20 -39 14 -61 -41 -15 -41 -20
-45 -50 -45 -18 0 -36 5 -39 10 -3 6 -13 10 -21 10 -13 0 -14 -8 -9 -40 6 -36
5 -40 -14 -40 -11 0 -23 5 -26 10 -11 17 -23 11 -18 -9 6 -23 -47 -52 -93 -51
-48 2 -88 -12 -106 -35 -10 -12 -31 -25 -48 -28 -27 -6 -43 -27 -20 -27 6 0
10 -11 10 -24 0 -37 -49 -49 -81 -20 -11 10 -25 14 -36 9 -16 -6 -16 -8 5 -16
30 -11 18 -33 -13 -25 -13 3 -27 2 -30 -4 -3 -5 -17 -10 -30 -10 -13 0 -27 -5
-30 -11 -4 -5 -18 -14 -32 -20 -21 -8 -24 -13 -18 -39 5 -23 3 -30 -9 -30 -8
0 -18 5 -21 10 -12 19 -45 10 -55 -15 -6 -15 -17 -25 -30 -25 -11 0 -20 -6
-21 -12 -1 -7 -2 -22 -3 -32 -1 -13 -15 -24 -43 -35 -24 -8 -46 -23 -49 -33
-6 -21 -13 -22 -48 -9 -21 8 -34 3 -88 -32 -74 -49 -79 -55 -72 -84 5 -17 -2
-27 -33 -46 -21 -13 -47 -27 -58 -31 -12 -3 -29 -20 -39 -36 -13 -23 -23 -29
-36 -25 -13 4 -22 -1 -30 -15 -8 -14 -21 -20 -48 -20 -63 0 -112 -12 -112 -26
0 -8 -18 -21 -40 -30 -22 -9 -40 -22 -40 -30 0 -7 -7 -17 -16 -22 -13 -7 -14
-13 -5 -29 12 -23 6 -33 -20 -33 -9 0 -25 -12 -34 -27 -10 -16 -24 -35 -31
-43 -52 -60 -72 -78 -91 -84 -20 -6 -40 -37 -57 -88 -3 -10 -14 -18 -25 -18
-14 0 -21 -8 -23 -27 -2 -23 -9 -29 -33 -31 -16 -2 -43 -16 -60 -31 -16 -15
-47 -38 -67 -50 -21 -13 -38 -28 -38 -36 0 -7 -6 -18 -14 -24 -8 -7 -17 -27
-20 -45 -4 -19 -13 -39 -21 -46 -8 -7 -15 -21 -15 -30 0 -36 -12 -50 -42 -50
-30 0 -31 -1 -25 -40 6 -48 -21 -90 -59 -90 -17 0 -24 -6 -24 -19 0 -10 -9
-21 -20 -24 -13 -3 -20 -14 -20 -28 0 -12 -8 -31 -17 -41 -12 -13 -16 -35 -15
-77 1 -53 -1 -61 -23 -75 -26 -17 -32 -45 -14 -63 12 -12 -7 -128 -25 -152 -6
-8 -12 -59 -12 -113 -1 -82 -4 -101 -19 -112 -15 -11 -16 -15 -4 -34 7 -12 10
-24 7 -27 -8 -8 -60 19 -77 39 -11 13 -11 17 3 22 31 12 16 24 -22 18 -36 -6
-41 -3 -70 34 -18 22 -32 46 -32 53 0 8 -13 39 -30 69 -16 30 -30 62 -30 70
-1 24 -46 73 -59 65 -15 -8 -61 21 -61 38 0 8 -11 24 -25 37 -14 13 -25 31
-25 41 0 9 -11 24 -24 32 -26 17 -40 65 -24 84 13 16 -24 69 -55 79 -29 8 -77
60 -77 82 0 10 -13 33 -30 52 -16 19 -29 40 -30 47 0 6 -25 23 -55 37 -30 14
-55 30 -55 36 0 20 -18 1 -25 -27 -4 -19 -2 -29 9 -35 20 -11 21 -34 1 -42
-10 -4 -13 -14 -9 -36 4 -17 2 -36 -5 -44 -9 -11 -6 -24 14 -61 13 -26 22 -51
20 -56 -3 -4 4 -23 15 -41 11 -18 20 -45 20 -60 0 -15 4 -29 9 -32 15 -10 23
-59 10 -66 -9 -6 -8 -16 2 -41 38 -92 86 -168 132 -211 49 -45 50 -48 32 -61
-17 -14 -16 -17 32 -63 47 -46 93 -126 93 -163 0 -9 22 -41 48 -72 27 -31 55
-72 62 -90 8 -19 26 -49 42 -67 15 -18 28 -37 28 -42 0 -6 8 -10 18 -10 10 0
27 -7 38 -15 19 -14 19 -15 -3 -21 -35 -10 -27 -28 22 -49 43 -19 61 -45 30
-45 -23 0 -18 -15 15 -48 17 -17 30 -37 30 -46 0 -21 42 -49 51 -35 5 8 17 8
43 -1 28 -9 36 -17 36 -36 0 -26 -18 -32 -38 -12 -6 6 -15 9 -19 5 -3 -4 19
-31 50 -60 34 -31 57 -61 57 -73 0 -23 75 -114 93 -114 6 0 27 -17 46 -38 55
-58 187 -172 200 -172 6 0 11 9 11 21 0 33 24 16 35 -26 7 -22 26 -50 48 -69
75 -64 105 -86 117 -86 7 0 32 -18 56 -40 24 -22 50 -40 58 -40 9 0 32 -15 52
-32 28 -24 47 -33 75 -34 21 0 47 -8 57 -17 10 -9 26 -17 34 -17 9 0 18 -7 22
-15 3 -9 18 -15 40 -15 19 0 38 -4 41 -10 9 -15 42 -12 49 5 8 21 32 19 56 -5
24 -24 33 -25 50 -5 7 8 21 15 32 15 27 0 78 -31 78 -47 0 -19 -37 -16 -44 4
-5 12 -10 13 -18 5 -8 -8 -8 -15 2 -27 14 -17 95 -21 105 -5 8 13 45 13 45 0
0 -5 15 -10 33 -10 21 0 41 -8 52 -20 26 -29 39 -20 39 26 1 33 4 39 21 36 22
-4 45 -4 89 0 17 2 31 -2 33 -9 3 -8 -4 -13 -16 -13 -17 0 -21 -6 -21 -35 0
-28 -4 -35 -19 -35 -11 0 -23 -5 -26 -10 -4 -6 -15 -8 -26 -5 -15 5 -19 1 -19
-19 0 -24 -2 -25 -52 -23 l-53 2 0 -49 c0 -41 -4 -50 -21 -57 -12 -4 -25 -13
-29 -19 -4 -6 -15 -8 -26 -5 -16 5 -19 1 -19 -26 0 -30 -2 -31 -31 -25 -40 8
-89 -17 -89 -45 0 -19 -4 -20 -39 -14 -36 6 -39 5 -34 -13 4 -18 -1 -21 -44
-27 -77 -10 -78 -11 -75 -24 2 -8 -6 -24 -18 -36 -11 -12 -17 -24 -14 -27 3
-4 1 -15 -4 -25 -9 -15 -23 -18 -79 -18 l-68 0 -3 -31 c-3 -31 -26 -48 -58
-45 -6 1 -19 -10 -28 -23 -8 -14 -28 -31 -43 -38 -19 -9 -28 -21 -27 -36 1
-20 -4 -22 -45 -22 -43 -1 -45 -2 -27 -15 18 -14 19 -19 7 -50 -7 -19 -9 -39
-6 -45 3 -5 -3 -10 -14 -10 -18 0 -26 6 -60 45 -9 11 -17 13 -23 7 -16 -16 -4
-35 41 -66 36 -25 45 -27 64 -17 18 9 29 9 57 -3 19 -8 47 -12 62 -9 23 4 29
1 37 -20 8 -21 16 -25 45 -24 41 1 40 1 24 27 -16 26 -5 35 24 18 12 -8 46
-14 73 -14 41 1 50 4 47 18 -4 26 47 48 92 41 33 -5 37 -3 34 13 -2 10 2 19 7
19 23 1 74 28 69 37 -11 18 28 48 63 48 26 0 33 4 33 20 0 11 -4 20 -10 20 -5
0 -10 7 -10 15 0 23 20 18 42 -10 29 -37 48 -33 41 8 -5 31 -1 37 48 76 44 35
58 41 81 35 20 -4 35 -1 48 11 15 14 21 14 39 3 17 -10 24 -10 39 0 9 7 29 20
44 30 21 13 26 22 21 39 -4 19 -1 23 21 23 15 0 30 8 36 20 6 11 19 20 28 20
22 0 42 19 42 38 0 26 32 82 48 82 8 0 21 8 28 18 12 16 14 16 27 -2 13 -18
14 -18 21 7 5 21 12 27 35 27 31 0 48 24 32 44 -16 19 24 38 64 30 28 -5 35
-3 35 10 0 8 9 20 21 26 13 7 18 17 15 27 -5 12 -1 14 21 10 39 -8 73 21 66
56 -5 24 -2 27 25 27 29 0 30 1 25 38 -5 35 -3 39 33 58 23 12 38 27 38 37 -2
22 2 21 33 -3 24 -19 53 -27 53 -15 0 3 -14 18 -32 34 -22 20 -29 33 -25 46 6
14 10 15 22 5 20 -17 38 -4 25 19 -14 27 -3 32 58 24 61 -7 83 8 55 39 -14 16
-13 18 11 24 14 3 35 19 47 35 11 16 30 29 41 29 15 0 19 5 15 20 -3 13 4 31
18 48 18 22 21 32 13 46 -8 15 -6 22 10 35 11 9 23 26 27 39 3 12 10 22 15 22
4 0 37 28 73 62 67 65 137 173 137 211 0 12 8 27 18 33 10 7 24 31 32 55 7 24
17 48 21 53 4 5 5 21 2 37 -4 21 0 30 16 38 25 14 64 99 57 125 -3 11 0 26 6
34 7 8 13 32 14 53 1 22 8 47 16 56 8 10 12 34 10 65 -4 49 -4 50 43 52 33 2
33 69 1 101 -14 14 -26 30 -26 35 0 16 18 11 29 -7 17 -32 24 -5 23 98 0 83
-3 104 -16 111 -18 10 -21 45 -6 68 7 11 13 12 23 5 8 -5 41 -29 73 -51 87
-61 108 -87 94 -113 -12 -24 -6 -41 16 -41 8 0 19 -10 25 -23 6 -13 25 -28 42
-33 21 -6 33 -16 35 -30 2 -12 14 -27 28 -34 13 -7 24 -19 24 -27 0 -7 6 -13
14 -13 17 0 66 -73 66 -99 0 -28 47 -62 75 -55 18 4 28 -2 46 -28 13 -18 29
-37 37 -42 8 -4 20 -23 27 -40 10 -24 24 -35 52 -44 21 -6 55 -20 76 -31 31
-16 42 -17 68 -8 27 10 32 9 45 -7 8 -11 14 -28 14 -38 0 -10 6 -18 13 -18 14
0 77 -55 77 -67 0 -5 15 -17 34 -27 31 -17 47 -18 96 -5 9 3 16 -4 18 -18 2
-15 10 -23 23 -23 11 0 27 -7 35 -15 19 -18 68 -20 82 -2 6 7 8 23 5 36 -4 14
-1 26 8 32 12 7 12 13 -1 36 -9 16 -23 28 -32 28 -20 0 -48 24 -48 41 0 8 -22
36 -50 62 -27 26 -50 51 -50 55 0 18 27 4 45 -23 19 -29 65 -43 65 -20 0 6 -4
10 -9 10 -5 0 -25 23 -45 50 -30 41 -41 50 -66 50 -18 0 -33 6 -37 15 -3 9
-19 23 -35 31 -24 12 -32 13 -45 3 -12 -11 -24 -3 -74 49 -52 54 -61 69 -68
114 -9 53 -44 98 -77 98 -33 0 -112 72 -162 148 -29 43 -52 82 -52 87 0 4 -25
36 -55 70 -30 35 -55 68 -55 73 0 6 -13 20 -29 31 -16 11 -36 39 -45 61 -10
25 -31 51 -55 68 -22 15 -42 35 -44 45 -3 9 -13 17 -23 17 -25 0 -103 62 -104
82 0 21 -48 78 -65 78 -7 0 -15 7 -19 15 -3 8 -32 34 -65 59 -69 50 -78 59
-109 103 -16 22 -28 30 -42 26 -14 -4 -20 0 -20 11 0 10 -13 22 -31 28 -19 7
-28 15 -25 24 5 12 -23 65 -54 101 -6 8 -22 10 -41 6 -26 -5 -30 -3 -27 13 2
14 -3 19 -18 19 -11 1 -33 11 -49 23 -15 12 -35 22 -44 22 -20 0 -81 54 -81
72 0 7 -12 25 -25 41 -19 21 -30 26 -50 21 -20 -5 -34 2 -69 34 -26 24 -59 43
-79 47 -19 4 -48 20 -63 36 -32 34 -54 37 -78 10 -15 -17 -28 -19 -84 -15 -38
2 -69 9 -71 15 -9 29 -43 50 -69 45 -31 -7 -44 0 -61 32 -7 12 -21 22 -34 22
-12 0 -41 8 -65 17 -32 12 -49 14 -61 6 -9 -6 -30 -8 -47 -6 -25 4 -32 1 -37
-16 -4 -17 -13 -21 -50 -21 -25 0 -49 5 -52 10 -3 6 -13 10 -21 10 -17 0 -53
38 -54 57 0 7 19 13 48 15 47 3 47 3 44 36 -3 30 -1 32 27 32 23 0 29 4 25 15
-5 12 0 14 23 9 24 -5 46 5 119 50 49 31 105 63 124 72 19 9 42 20 50 24 8 4
15 18 15 31 0 20 5 24 25 24 16 0 25 6 25 15 0 21 7 24 34 15 13 -4 33 -2 45
4 11 6 34 15 49 21 16 5 26 14 23 18 -3 5 8 6 24 4 22 -3 32 2 45 22 10 14 24
26 32 26 11 0 13 7 8 30 -8 35 4 39 30 10 10 -11 23 -20 28 -20 19 0 62 55 62
80 0 20 6 26 28 28 18 2 32 12 39 27 11 24 12 24 39 8 33 -20 49 -11 31 17
-15 24 -1 33 33 20 36 -14 36 -13 29 15 -4 15 -2 25 5 25 6 0 11 -4 11 -10 0
-5 11 -10 25 -10 24 0 25 2 20 45 -5 39 -3 45 13 45 10 0 27 -7 38 -15 27 -21
49 -18 63 8 6 12 30 32 52 45 22 13 37 27 34 32 -4 6 4 10 16 10 17 0 20 4 16
21 -4 15 1 23 19 31 13 6 27 22 30 35 4 13 12 23 19 23 8 0 15 12 17 28 2 21
8 27 28 27 21 0 26 6 30 35 5 32 8 35 35 33 25 -2 28 0 14 10 -9 7 -19 23 -22
37 -4 14 -4 19 -1 13 9 -21 41 -15 58 12 21 31 20 35 -3 35 -11 0 -26 7 -35
15 -8 8 -22 15 -31 15 -14 0 -16 -6 -11 -36z m-974 -444 c0 -5 -4 -10 -10 -10
-5 0 -10 5 -10 10 0 6 5 10 10 10 6 0 10 -4 10 -10z m-644 -1125 c22 -17 179
-21 189 -5 10 16 34 12 52 -10 23 -26 37 -25 56 3 l15 22 32 -37 c32 -39 65
-49 88 -26 9 9 15 9 24 0 9 -9 8 -12 -5 -12 -9 0 -17 -5 -17 -11 0 -5 5 -7 10
-4 6 3 23 -3 39 -14 31 -22 62 -27 99 -16 19 6 24 2 33 -24 13 -36 44 -58 62
-43 14 12 43 -9 69 -50 19 -29 60 -53 110 -63 36 -8 78 -41 78 -61 0 -7 14
-29 31 -49 23 -25 30 -42 27 -60 -5 -22 -1 -26 32 -31 52 -8 120 -96 120 -154
0 -34 4 -42 25 -50 26 -10 32 -24 15 -35 -15 -9 -12 -45 4 -51 8 -3 16 -19 20
-35 3 -17 15 -43 26 -59 22 -30 26 -65 10 -75 -12 -7 -13 -57 -2 -70 12 -13
40 -96 40 -115 0 -8 3 -23 7 -32 5 -12 2 -20 -9 -24 -19 -7 -21 -35 -4 -52 9
-9 9 -17 -1 -36 -10 -19 -11 -34 -1 -79 11 -47 11 -58 -3 -78 -13 -18 -14 -26
-5 -37 10 -11 9 -17 -5 -27 -9 -7 -17 -22 -17 -33 0 -12 -8 -26 -19 -31 -10
-6 -21 -26 -24 -47 -4 -24 -18 -48 -37 -66 -26 -23 -30 -34 -25 -56 5 -23 0
-32 -25 -50 -26 -20 -30 -29 -30 -72 0 -53 -14 -72 -34 -44 -18 24 -30 2 -21
-42 6 -32 4 -36 -29 -49 -20 -8 -43 -15 -52 -15 -19 0 -74 -60 -116 -127 -15
-23 -45 -54 -67 -67 -22 -14 -45 -35 -51 -46 -6 -11 -20 -20 -30 -20 -11 0
-20 -6 -20 -14 0 -18 -56 -47 -76 -39 -8 3 -21 -1 -30 -8 -14 -12 -118 -33
-224 -46 -25 -3 -50 -9 -56 -14 -6 -5 -42 -10 -82 -13 -78 -5 -103 -13 -81
-27 7 -4 10 -11 6 -15 -4 -4 -13 -2 -19 4 -7 7 -20 12 -29 12 -9 0 -30 7 -45
15 -40 21 -104 19 -119 -2 -11 -15 -15 -15 -29 -4 -9 8 -14 16 -11 19 3 3 -14
15 -38 27 -50 26 -137 42 -137 26 0 -6 -8 -11 -17 -11 -17 1 -17 1 0 11 26 15
11 29 -33 29 -21 0 -41 4 -45 9 -9 15 -66 41 -90 41 -33 0 -92 27 -99 45 -3 8
-18 20 -33 27 -47 19 -122 72 -123 86 0 6 -5 12 -10 12 -14 0 -70 55 -70 68 0
11 -31 74 -41 82 -4 3 -9 15 -13 28 -6 17 -15 22 -41 22 -38 0 -55 26 -29 44
15 12 15 15 -1 47 -10 19 -23 41 -30 49 -7 8 -27 44 -45 80 -17 36 -36 74 -42
84 -18 34 -60 150 -63 176 -20 166 -24 244 -14 262 7 12 9 40 5 66 -3 25 -2
50 2 56 5 6 14 31 21 56 14 53 37 114 58 153 10 19 13 42 9 70 -7 51 4 72 33
62 19 -6 21 -3 21 35 0 37 3 41 30 46 31 7 46 32 41 71 -1 15 6 25 26 35 21
10 29 23 33 48 3 19 11 34 17 33 17 -4 53 46 53 72 0 30 20 45 67 51 63 9 65
11 51 34 -17 27 1 40 55 40 28 0 44 7 61 25 13 14 33 25 45 25 12 0 24 7 27
15 4 8 13 15 21 15 12 0 53 19 206 96 16 8 36 14 44 14 9 0 31 9 49 21 24 15
42 18 67 14 21 -4 37 -3 41 4 10 15 39 14 62 -4z m554 -85 c0 -5 -4 -10 -10
-10 -5 0 -10 5 -10 10 0 6 5 10 10 10 6 0 10 -4 10 -10z m-2740 -297 c0 -13
-3 -13 -15 -3 -8 7 -15 16 -15 21 0 5 7 6 15 3 8 -4 15 -13 15 -21z m1080
-1853 c0 -5 -4 -10 -10 -10 -5 0 -10 5 -10 10 0 6 5 10 10 10 6 0 10 -4 10
-10z m60 -65 c0 -8 -4 -15 -10 -15 -5 0 -10 7 -10 15 0 8 5 15 10 15 6 0 10
-7 10 -15z m650 -955 c0 -11 -2 -20 -4 -20 -2 0 -6 9 -9 20 -3 11 -1 20 4 20
5 0 9 -9 9 -20z"/>
<path d="M3100 3495 c-7 -9 -19 -14 -25 -11 -13 5 -79 -15 -91 -27 -3 -3 -19
-4 -34 -1 -23 5 -30 1 -49 -30 -13 -20 -26 -36 -29 -36 -4 0 -20 -23 -36 -52
-33 -58 -41 -144 -19 -188 7 -14 13 -33 13 -43 0 -40 96 -157 140 -171 27 -9
110 -24 179 -33 26 -3 52 0 67 7 14 8 38 10 63 6 34 -5 41 -3 41 10 0 9 15 31
34 50 52 52 77 111 81 196 4 67 2 75 -22 100 -19 20 -24 33 -19 52 5 22 2 26
-21 32 -39 9 -53 23 -53 50 0 15 -6 24 -15 24 -8 0 -15 5 -15 10 0 6 -11 10
-24 10 -13 0 -50 13 -82 30 -69 35 -68 35 -84 15z"/>
<path d="M5045 3170 c-3 -5 -1 -10 4 -10 6 0 11 5 11 10 0 6 -2 10 -4 10 -3 0
-8 -4 -11 -10z"/>
<path d="M3022 1000 c0 -14 2 -19 5 -12 2 6 2 18 0 25 -3 6 -5 1 -5 -13z"/>
</g>
</svg>
