<?xml version="1.0" standalone="no"?>
<!DOCTYPE svg PUBLIC "-//W3C//DTD SVG 20010904//EN"
 "http://www.w3.org/TR/2001/REC-SVG-20010904/DTD/svg10.dtd">
<svg version="1.0" xmlns="http://www.w3.org/2000/svg"
 width="688.000000pt" height="688.000000pt" viewBox="0 0 688.000000 688.000000"
 preserveAspectRatio="xMidYMid meet">

<g transform="translate(0.000000,688.000000) scale(0.100000,-0.100000)"
fill="#415175" stroke="none">
<path d="M3275 5964 c-55 -7 -136 -16 -180 -19 -44 -4 -100 -13 -125 -20 -25
-7 -76 -18 -115 -24 -122 -21 -184 -44 -230 -84 -41 -36 -136 -87 -162 -87 -7
0 -13 -3 -13 -8 0 -9 -51 -36 -104 -54 -23 -8 -57 -33 -85 -64 -25 -28 -63
-61 -83 -73 -21 -12 -38 -28 -38 -35 0 -8 -21 -21 -47 -31 -73 -27 -109 -52
-123 -85 -7 -17 -16 -30 -19 -30 -16 0 -116 -94 -130 -123 -9 -18 -31 -39 -48
-48 -49 -24 -62 -38 -89 -91 -15 -29 -36 -54 -55 -63 -18 -10 -36 -31 -45 -53
-8 -20 -25 -57 -38 -82 -19 -37 -31 -71 -39 -110 -6 -32 -28 -127 -41 -173 -9
-32 -16 -75 -16 -97 0 -21 -5 -42 -10 -45 -6 -4 -8 -26 -4 -55 4 -27 1 -63 -5
-82 -15 -46 -16 -260 -2 -287 7 -11 14 -60 16 -108 2 -47 9 -91 15 -97 5 -5
10 -28 10 -50 0 -23 7 -50 15 -60 8 -11 15 -30 15 -42 0 -13 5 -26 10 -29 6
-3 10 -19 10 -34 0 -15 10 -38 21 -50 26 -28 89 -120 89 -130 0 -5 9 -16 20
-26 12 -11 28 -34 37 -52 9 -20 30 -40 51 -50 19 -9 37 -25 40 -35 2 -11 22
-28 43 -39 22 -11 39 -23 39 -28 0 -11 109 -121 121 -121 9 0 32 -11 69 -32 8
-4 25 -13 38 -18 12 -6 32 -14 45 -20 12 -5 29 -14 37 -20 22 -14 117 -54 175
-75 28 -9 65 -23 83 -31 18 -9 65 -21 105 -28 39 -7 88 -19 107 -28 62 -27
175 -58 213 -58 19 0 69 -7 109 -16 40 -9 96 -18 123 -19 291 -17 312 -17 395
-2 47 9 100 19 118 22 75 12 97 18 104 28 3 5 36 11 73 13 37 2 72 8 79 13 7
6 29 13 48 15 36 5 99 35 131 64 22 20 44 63 52 104 6 34 18 65 41 110 8 14
14 42 14 61 0 20 4 38 9 41 5 3 11 20 14 38 3 18 10 51 16 73 7 22 12 68 11
102 0 34 4 64 8 67 4 2 9 46 10 98 1 51 9 129 18 173 12 57 15 104 10 165 -12
156 -20 195 -49 229 -15 18 -27 36 -27 41 0 5 -16 25 -35 46 -19 20 -35 42
-35 47 0 14 -71 77 -86 77 -6 0 -21 11 -34 25 -13 14 -32 25 -43 25 -24 0 -94
18 -124 32 -15 7 -31 7 -53 -1 -18 -6 -36 -9 -40 -6 -25 16 -80 -53 -80 -101
0 -13 -6 -27 -14 -30 -14 -5 -27 -41 -30 -80 -1 -11 -10 -34 -21 -50 -11 -16
-18 -35 -17 -42 2 -7 -13 -31 -32 -54 -20 -23 -36 -49 -36 -58 0 -9 -11 -27
-25 -40 -14 -13 -25 -28 -25 -35 0 -16 -165 -185 -181 -185 -8 0 -23 -16 -34
-36 -10 -19 -31 -42 -47 -50 -15 -8 -44 -25 -64 -39 -20 -14 -45 -25 -54 -25
-10 0 -42 -12 -72 -27 -83 -42 -110 -53 -135 -53 -12 0 -42 -4 -65 -10 -203
-45 -243 -48 -320 -18 -21 8 -53 28 -71 45 -19 17 -42 33 -53 37 -29 9 -45 42
-65 129 -20 92 -17 312 5 356 8 14 11 41 9 59 -3 20 0 40 8 50 24 29 39 61 39
81 0 10 7 24 15 31 8 7 15 21 15 31 0 10 4 20 9 24 5 3 12 19 16 35 4 17 13
44 22 60 8 16 12 39 8 49 -3 11 -1 22 4 25 14 9 41 66 41 88 0 10 7 21 15 24
8 4 15 14 15 24 0 11 5 22 10 25 6 3 10 17 10 29 0 27 35 76 55 76 13 0 55 62
55 82 0 6 11 21 25 34 14 13 25 27 25 33 0 5 14 19 30 31 17 12 38 38 48 58 9
19 24 38 32 42 44 20 56 29 66 50 11 21 33 37 79 59 12 5 27 17 35 26 8 9 31
23 51 32 20 8 47 28 60 44 12 16 30 29 39 29 23 0 81 29 103 52 10 10 22 16
26 13 5 -2 16 4 26 15 11 12 31 20 49 20 17 0 49 5 71 10 108 27 131 28 220
14 50 -8 110 -17 135 -21 25 -3 54 -11 65 -18 11 -6 40 -18 65 -25 25 -8 52
-20 61 -27 8 -7 20 -13 25 -13 6 0 29 -9 52 -20 22 -11 46 -20 51 -20 27 0
121 -50 121 -64 0 -9 5 -16 10 -16 6 0 18 -8 28 -17 10 -10 30 -25 46 -33 68
-35 166 -144 166 -185 0 -6 27 -40 61 -76 33 -35 65 -73 70 -84 11 -24 26 -49
56 -92 13 -17 23 -36 23 -41 0 -6 11 -20 25 -33 13 -13 25 -31 25 -40 0 -8 11
-26 25 -39 14 -13 25 -31 25 -41 0 -9 3 -19 8 -21 10 -4 122 -230 122 -246 0
-6 4 -12 10 -12 5 0 12 -12 16 -27 6 -30 12 -47 38 -106 9 -21 16 -58 16 -83
0 -25 4 -53 10 -63 7 -14 22 -257 20 -328 -1 -14 -1 -18 2 -143 1 -47 -6 -123
-15 -169 -9 -46 -14 -95 -11 -108 4 -13 -1 -43 -9 -66 -9 -23 -19 -58 -22 -77
-4 -19 -17 -53 -30 -75 -12 -22 -20 -46 -18 -53 3 -7 -3 -22 -12 -32 -10 -11
-14 -26 -11 -38 4 -11 0 -24 -9 -32 -8 -6 -26 -35 -39 -64 -13 -28 -34 -60
-45 -70 -12 -11 -21 -25 -21 -33 0 -7 -10 -18 -23 -24 -12 -6 -29 -24 -36 -40
-7 -16 -25 -38 -40 -47 -14 -9 -34 -27 -44 -39 -10 -13 -24 -23 -32 -23 -7 0
-28 -18 -45 -40 -17 -22 -42 -43 -55 -46 -14 -3 -40 -29 -61 -60 -21 -30 -43
-54 -49 -54 -7 0 -18 -7 -25 -15 -7 -8 -22 -15 -34 -15 -13 0 -33 -11 -46 -25
-13 -14 -29 -25 -37 -25 -7 0 -13 -5 -13 -10 0 -14 -96 -58 -140 -65 -20 -3
-59 -21 -89 -40 -29 -19 -63 -35 -76 -35 -13 0 -26 -4 -30 -9 -3 -5 -31 -12
-63 -16 -31 -4 -94 -18 -139 -32 -45 -14 -90 -22 -102 -18 -11 3 -30 0 -44 -9
-18 -12 -44 -15 -120 -12 -54 2 -99 0 -103 -5 -7 -12 -190 -10 -223 2 -15 6
-36 6 -58 -2 -29 -9 -42 -8 -74 6 -36 17 -43 17 -106 1 -74 -17 -149 -21 -157
-7 -3 4 -31 11 -61 14 -31 3 -62 10 -69 16 -6 6 -21 8 -32 5 -11 -3 -40 2 -64
10 -25 9 -54 16 -66 16 -11 0 -29 7 -40 15 -10 8 -28 15 -40 15 -11 0 -24 4
-30 9 -5 5 -42 23 -82 39 -76 32 -190 96 -252 142 -19 14 -52 34 -72 45 -21
11 -38 23 -38 28 0 11 -68 77 -79 77 -5 0 -39 27 -75 60 -37 33 -71 60 -76 60
-5 0 -36 27 -69 60 -33 33 -66 60 -74 60 -8 0 -24 22 -35 48 -11 26 -30 56
-42 67 -11 10 -30 33 -40 51 -21 34 -25 35 -163 54 -62 8 -71 7 -100 -13 -61
-41 -167 -156 -167 -180 0 -13 -5 -28 -10 -33 -14 -14 -13 -50 4 -174 19 -134
39 -210 71 -260 14 -23 23 -45 21 -49 -3 -5 9 -28 27 -52 17 -24 41 -60 51
-79 10 -19 34 -56 51 -81 18 -25 36 -59 39 -75 9 -41 95 -149 163 -203 32 -26
62 -57 68 -69 5 -12 13 -22 17 -22 3 0 33 -25 65 -55 33 -31 67 -55 80 -55 12
0 30 -11 40 -25 11 -16 46 -34 93 -51 41 -15 84 -33 95 -40 11 -8 29 -14 42
-14 12 0 25 -5 28 -10 3 -6 22 -10 42 -10 19 0 52 -8 72 -19 100 -51 126 -61
156 -61 19 0 36 -4 39 -9 3 -4 39 -11 81 -14 41 -4 83 -11 92 -16 30 -16 189
-52 230 -51 21 0 157 -2 302 -5 146 -3 272 -3 280 1 16 7 47 9 219 16 57 2 96
8 100 15 4 7 46 14 102 17 146 8 264 21 280 31 8 6 47 15 85 22 122 20 169 33
196 52 15 11 35 17 46 15 11 -3 27 2 37 11 13 14 19 15 32 5 12 -10 21 -10 47
2 44 21 99 38 125 38 11 0 24 5 27 10 3 5 21 10 39 10 21 0 40 8 55 24 14 15
39 26 67 31 24 3 46 10 49 16 4 5 13 9 21 9 8 0 27 11 42 25 28 27 176 105
197 105 23 0 101 39 120 60 10 11 24 20 31 20 6 0 35 22 63 50 28 27 57 50 65
50 7 0 19 7 26 15 7 8 18 15 25 15 20 0 96 91 102 122 3 18 12 28 23 28 20 0
38 21 65 75 10 22 24 46 29 54 6 7 11 19 12 27 1 8 14 24 28 35 14 11 26 29
26 39 0 10 5 22 10 25 6 3 10 14 10 24 0 10 10 26 21 37 12 10 26 28 31 39 5
11 18 36 28 55 11 19 19 47 20 62 0 29 22 95 46 140 8 14 14 35 14 46 0 12 10
38 22 58 15 26 24 62 29 118 4 45 14 106 24 136 9 30 21 82 25 115 5 33 13 89
18 125 5 36 8 178 6 315 -3 269 -5 310 -17 321 -4 4 -7 26 -7 50 0 45 -24 158
-40 186 -6 10 -10 28 -10 41 0 13 -4 27 -9 33 -13 12 -51 124 -51 147 0 10 -7
25 -15 33 -8 9 -15 29 -15 45 0 17 -13 49 -30 74 -16 24 -30 51 -30 60 0 27
-68 157 -116 222 -13 17 -24 35 -24 40 0 4 -16 26 -35 48 -19 22 -35 45 -35
51 0 6 -7 17 -15 24 -8 7 -15 22 -15 35 0 31 -28 83 -51 95 -10 6 -19 17 -19
25 0 8 -6 18 -14 22 -7 4 -28 36 -46 71 -19 37 -47 74 -69 89 -20 15 -61 52
-91 84 -30 31 -65 60 -77 63 -13 4 -27 21 -35 42 -6 18 -17 34 -23 34 -7 0
-24 11 -40 24 -15 13 -40 27 -55 30 -21 4 -34 17 -50 51 -12 26 -30 49 -39 52
-9 3 -25 9 -36 13 -11 5 -31 10 -44 12 -15 2 -31 17 -45 43 -13 22 -36 47 -51
55 -16 8 -40 25 -54 38 -14 12 -34 22 -43 22 -10 0 -18 5 -18 10 0 6 -7 10
-16 10 -9 0 -26 10 -39 22 -28 27 -101 57 -142 57 -17 1 -35 6 -38 11 -3 6
-15 10 -27 10 -11 0 -34 6 -51 14 -77 33 -156 46 -322 51 -93 3 -190 10 -215
15 -73 16 -238 19 -345 4z"/>
</g>
</svg>
