<?xml version="1.0" standalone="no"?>
<!DOCTYPE svg PUBLIC "-//W3C//DTD SVG 20010904//EN"
 "http://www.w3.org/TR/2001/REC-SVG-20010904/DTD/svg10.dtd">
<svg version="1.0" xmlns="http://www.w3.org/2000/svg"
 width="688.000000pt" height="688.000000pt" viewBox="0 0 688.000000 688.000000"
 preserveAspectRatio="xMidYMid meet">

<g transform="translate(0.000000,688.000000) scale(0.100000,-0.100000)"
fill="#275e1b" stroke="none">
<path d="M3411 6217 c-13 -15 -19 -30 -15 -40 4 -11 0 -19 -10 -23 -22 -9 -60
-92 -57 -128 1 -18 -6 -38 -18 -50 -20 -21 -43 -113 -61 -241 -14 -106 -32
-199 -40 -220 -11 -25 -20 -81 -27 -165 -5 -70 -22 -100 -58 -100 -11 0 -27
-6 -34 -12 -6 -7 -29 -14 -49 -14 -67 -3 -287 -67 -316 -93 -11 -10 -34 -16
-62 -15 -31 1 -44 -3 -44 -13 0 -7 -1 -13 -3 -13 -1 0 -27 -9 -57 -20 -30 -11
-62 -20 -71 -20 -9 0 -47 -23 -85 -51 -38 -29 -85 -60 -106 -71 -20 -11 -42
-26 -49 -35 -7 -8 -23 -19 -36 -24 -13 -5 -23 -15 -23 -22 0 -14 -52 -57 -69
-57 -5 0 -31 -25 -58 -57 -50 -58 -102 -111 -147 -150 -14 -13 -26 -32 -26
-43 0 -10 -10 -25 -22 -31 -33 -18 -54 -46 -89 -119 -16 -36 -35 -73 -40 -82
-5 -10 -9 -24 -9 -33 0 -8 -13 -29 -29 -47 -16 -19 -38 -66 -52 -110 -15 -48
-29 -78 -38 -78 -10 0 -12 -8 -8 -30 4 -19 2 -32 -7 -37 -13 -7 -18 -28 -33
-143 -3 -24 -16 -59 -30 -77 -13 -17 -24 -42 -23 -55 4 -39 1 -48 -15 -48 -9
0 -15 -9 -15 -25 0 -14 -4 -25 -10 -25 -5 0 -17 -14 -26 -31 -14 -28 -19 -30
-47 -24 -36 7 -45 7 -140 0 -37 -2 -91 -11 -120 -19 -28 -8 -72 -17 -97 -19
-25 -3 -65 -14 -90 -24 -25 -11 -60 -23 -78 -26 -71 -14 -183 -113 -182 -160
1 -15 35 -57 47 -57 5 0 27 -18 48 -40 23 -24 48 -40 62 -40 13 0 40 -9 60
-20 21 -11 48 -20 61 -20 29 0 112 -19 133 -30 9 -5 26 -6 38 -3 12 3 55 -8
99 -25 78 -30 144 -47 173 -43 9 1 22 -5 29 -14 7 -8 23 -15 37 -15 13 0 26
-7 29 -15 3 -8 13 -17 23 -20 21 -6 51 -56 51 -84 0 -23 27 -88 48 -112 7 -9
14 -28 16 -42 1 -14 7 -32 13 -39 5 -7 15 -32 22 -56 7 -23 25 -54 40 -68 17
-15 31 -39 34 -60 3 -20 17 -46 29 -57 13 -12 34 -47 47 -79 15 -37 43 -78 84
-120 34 -34 71 -82 81 -106 12 -26 28 -45 41 -48 12 -3 40 -23 61 -45 21 -21
46 -39 56 -39 10 0 37 -20 61 -45 24 -25 48 -45 52 -45 5 0 22 -10 39 -23 32
-24 116 -67 131 -67 4 0 22 -11 39 -24 17 -13 50 -27 74 -31 23 -4 44 -11 48
-16 3 -5 17 -9 31 -9 14 0 58 -21 97 -47 49 -32 83 -48 111 -49 65 -5 99 -15
123 -38 30 -26 75 -113 66 -127 -12 -19 -11 -242 2 -277 6 -20 9 -62 7 -96 -4
-44 1 -82 17 -136 12 -41 23 -96 24 -121 1 -26 10 -58 19 -72 9 -15 17 -33 17
-42 0 -27 72 -114 109 -131 20 -10 42 -23 49 -31 8 -7 35 -13 61 -13 39 0 56
6 89 32 57 46 78 77 87 125 4 24 11 45 16 49 5 3 9 23 9 45 0 22 5 49 11 60 6
11 12 61 15 111 3 62 11 104 25 132 17 35 19 54 13 154 -4 82 -2 117 7 128 9
12 9 26 -1 68 -24 99 11 130 210 182 104 27 202 62 215 78 21 24 66 46 94 46
16 0 33 5 36 11 4 6 14 8 22 5 20 -8 133 46 162 78 14 14 34 26 46 26 24 0
125 91 125 112 0 7 25 31 55 53 30 22 55 45 55 53 0 18 103 122 121 122 29 1
58 37 99 123 24 48 47 90 52 93 10 6 38 71 38 89 0 7 16 30 36 51 22 24 33 46
30 57 -3 11 7 32 25 51 16 19 29 40 29 48 0 8 7 23 15 34 8 10 15 27 15 36 0
21 65 88 100 105 44 20 54 21 145 11 129 -13 345 -17 351 -6 4 5 61 8 128 7
78 -1 137 3 166 11 25 8 47 14 50 15 34 8 47 21 62 61 16 45 16 48 -4 74 -11
15 -37 37 -59 49 -21 12 -44 30 -51 40 -16 22 -140 91 -164 91 -46 0 -135 40
-173 77 -18 18 -31 22 -51 18 -18 -4 -31 -1 -40 10 -7 8 -20 15 -29 15 -9 0
-25 7 -35 15 -13 10 -32 13 -56 9 -26 -4 -40 -2 -49 10 -7 9 -17 16 -22 16 -5
0 -33 11 -63 25 -30 14 -59 25 -64 25 -15 0 -48 43 -64 85 -19 47 -40 158 -44
227 -1 27 -7 55 -13 62 -6 7 -19 55 -30 108 -19 95 -59 190 -103 244 -13 16
-33 56 -43 89 -11 33 -23 64 -27 69 -4 6 -8 17 -8 26 0 9 -19 30 -42 46 -24
17 -52 48 -63 70 -22 43 -74 104 -89 104 -18 0 -115 108 -122 136 -11 42 -102
114 -145 114 -12 0 -45 20 -73 45 -29 25 -57 45 -61 45 -25 0 -84 37 -103 64
-14 21 -36 36 -65 44 -24 7 -59 23 -78 35 -19 12 -65 29 -104 38 -142 35 -188
48 -196 56 -7 7 16 237 26 253 9 14 -16 182 -30 210 -15 28 -30 107 -44 222
-4 32 -12 63 -19 70 -7 7 -12 18 -12 24 0 7 -13 32 -29 56 -16 24 -43 70 -60
103 -50 95 -123 131 -170 82z m-285 -1565 c-16 -152 -16 -231 0 -330 9 -57 14
-112 11 -123 -3 -10 -1 -36 5 -56 5 -21 22 -96 38 -168 15 -71 31 -137 34
-145 4 -8 32 -23 64 -32 50 -15 60 -15 79 -2 12 7 29 14 37 14 9 0 28 27 46
68 17 37 35 75 40 84 6 10 10 27 10 38 0 18 24 79 56 142 8 14 14 49 14 77 0
28 5 51 10 51 6 0 10 8 10 18 0 10 6 26 14 37 7 11 16 36 19 55 5 32 16 69 38
125 4 11 10 42 13 69 10 81 49 112 117 92 42 -13 199 -91 209 -105 15 -19 90
-61 127 -70 43 -12 113 -70 113 -95 0 -19 96 -117 142 -144 35 -22 58 -62 58
-103 0 -10 6 -22 13 -26 20 -12 57 -69 57 -88 0 -9 14 -37 30 -62 47 -69 60
-99 60 -137 0 -19 9 -50 20 -69 18 -30 30 -74 57 -207 2 -14 0 -50 -5 -80 -8
-45 -7 -56 5 -65 12 -9 14 -23 10 -56 -3 -24 -8 -64 -10 -89 -2 -25 -8 -58
-14 -75 -24 -66 -33 -103 -33 -141 0 -22 -9 -52 -20 -69 -12 -18 -20 -47 -20
-71 0 -25 -7 -51 -19 -65 -10 -14 -26 -41 -34 -62 -9 -20 -23 -37 -31 -37 -8
0 -26 -24 -40 -53 -13 -29 -34 -61 -46 -72 -12 -11 -31 -37 -41 -57 -12 -23
-29 -40 -44 -44 -14 -3 -25 -12 -25 -19 0 -8 -13 -23 -30 -35 -16 -12 -30 -27
-30 -33 -1 -12 -45 -67 -54 -67 -3 0 -27 -13 -53 -29 -27 -16 -60 -31 -75 -35
-15 -3 -35 -18 -44 -32 -20 -30 -70 -58 -90 -50 -8 3 -23 -3 -34 -14 -28 -28
-69 -47 -122 -54 -27 -4 -56 -16 -71 -30 -22 -20 -33 -23 -73 -18 -36 4 -49 1
-55 -11 -6 -10 -23 -16 -47 -15 -20 0 -75 -6 -122 -12 -109 -15 -172 -13 -186
5 -12 17 -39 21 -29 5 10 -16 -61 -12 -75 5 -7 9 -21 13 -31 10 -10 -3 -32 1
-48 9 -17 9 -43 16 -60 16 -42 0 -133 21 -151 35 -8 6 -29 17 -47 24 -17 7
-41 23 -53 36 -13 13 -36 27 -53 31 -17 3 -45 22 -62 40 -18 19 -39 34 -47 34
-8 0 -29 16 -47 35 -17 19 -49 46 -70 59 -37 24 -101 95 -101 113 0 5 -36 44
-79 88 -66 65 -84 90 -101 140 -12 33 -30 78 -41 101 -10 23 -19 47 -19 53 0
7 -16 45 -35 85 -19 40 -35 87 -35 103 0 17 -6 36 -14 42 -12 10 -27 107 -26
166 0 11 0 34 0 50 -1 17 -2 41 -2 55 -2 59 11 197 21 223 6 16 11 41 11 57 0
15 9 38 19 51 13 17 17 33 14 55 -3 21 0 41 11 55 9 13 16 34 16 48 0 13 11
39 25 57 14 18 25 41 25 52 0 10 11 29 25 42 14 13 25 32 25 41 0 10 8 23 19
28 10 6 63 64 117 131 54 66 103 120 110 120 15 0 51 41 56 65 3 13 11 19 25
18 12 -1 27 4 33 12 7 8 18 15 26 15 7 0 25 16 40 35 14 19 35 35 45 35 10 0
20 4 24 9 8 13 65 41 84 41 9 0 25 7 35 15 10 8 23 12 27 9 5 -2 17 4 29 16
11 11 30 20 42 20 12 0 29 6 37 14 9 8 50 23 91 34 101 27 114 20 106 -56z"/>
</g>
</svg>
