<?xml version="1.0" standalone="yes"?>
<svg xmlns="http://www.w3.org/2000/svg" width="688" height="688">
<path style="fill:#010101; stroke:none;" d="M0 0L0 688L688 688L688 0L0 0z"/>
<path style="fill:#1a1220; stroke:none;" d="M354 79L355 80L354 79z"/>
<path style="fill:#3e2c4b; stroke:none;" d="M355 79L356 80L355 79z"/>
<path style="fill:#5d4373; stroke:none;" d="M355 80L355 82L361 80L355 80z"/>
<path style="fill:#3e2c4b; stroke:none;" d="M360 79L359 83L360 79z"/>
<path style="fill:#291d32; stroke:none;" d="M361 79L362 80L361 79z"/>
<path style="fill:#1a1220; stroke:none;" d="M373 79L373 82L374 82L373 79z"/>
<path style="fill:#291d32; stroke:none;" d="M374 79L374 82L375 82L374 79M354.333 80.6667L354.667 81.3333L354.333 80.6667z"/>
<path style="fill:#3e2c4b; stroke:none;" d="M374 80L375 81L374 80z"/>
<path style="fill:#291d32; stroke:none;" d="M361.667 81.3333L362.333 81.6667L361.667 81.3333z"/>
<path style="fill:#5d4373; stroke:none;" d="M363 81L362 86L334 86C330.346 86 325.904 84.7791 325 89C318.249 86.1345 297.696 85.118 295 94L286 96L283 94L282 94L281 94C276.122 98.571 259.763 101.921 253 102L253 105C249.171 105.304 247.827 106.205 247 110L233 113L216 120L213 118C210.75 124.801 206.73 130.47 199 131L200 133C195.117 133.27 193.255 134.715 191 139L190 136L186 136L189 141L189 142C182.031 144.728 167.266 145.549 173 155L169 155C169 160.077 162.229 160.152 159 158L158 162L160 168C151.54 168.653 151.457 177.615 142 174C142.814 181.191 140.76 189.727 133 192C131.088 196.253 128.628 197.772 124 197L122 205L122 206L124 207L124 208L120 216C110.282 218.892 114.584 237.449 106 243L102 254L102 251C96.5702 252.164 97.854 263.131 100 267L96 271L98 270L98 271L93 307C87.4822 308.675 86.7766 326.395 90 331C86.6401 335.446 90.2708 338.978 90.1427 343.921C89.9468 351.486 88.8841 358.123 90.2238 365.961C91.2109 371.735 94.6507 377.124 95.6713 383C96.7125 388.995 95.4674 397.96 101 402L99 410L104 410L103 418L105 416L106 416C105.456 420.57 103.097 424.971 109 426L112 429C111.257 435.461 113.889 435.957 116.63 441.149C121.201 449.808 124.67 459.034 128.929 467.715C130.928 471.79 133.385 476.233 138 477L147 495L153 496L152 500L160 503L181 521L177 519L176 524L184 522L199 536C196.957 539.973 200.328 541.351 204 541L205 544L214 543L214 544L211 545L212 549L213 549L214 544L233 552C238.272 536.827 237 526.568 237 511C237 500.836 237.637 490.318 228 484C228.069 480.708 227.141 479.946 224 479C225.572 473.991 218.751 466.588 218 471L217 464C210.249 465.985 208.802 460.201 204 457L205 455L188 437L189 434C182.629 430.566 182.777 424.251 180.157 418.428C176.882 411.148 172.474 404.834 170 397C176.021 395.29 171.617 386.459 169.866 382.259C163.009 365.812 161.938 344.911 163 327C166.165 326.884 167.128 326.054 168 323L164 323C166.36 317.295 163.353 310.22 171 309L168 299C171.492 297.943 172.432 296.582 173 293L176 293L178 285L180 287C179.737 283.59 179.321 282.099 176 281L176 280C182.859 277.916 178.23 274.031 180.387 269.302C182.599 264.456 187.656 265.813 186 259C190.695 256.637 191.349 253.536 189 249C192.631 247.327 207.271 245.356 199 240L201 235L206 234L209 236L205 234L218 214L226 208L230 210L229 206L234 206L234 203L244 203L244 200L253 199L253 192L263 192L260 187L264 187C264 183.115 273.574 182 277 182C277 178.472 281.09 179 284 179C283.088 174.439 292.812 175.752 292 179L312 174C312.778 168.048 318.571 172.858 320 176L324 176L324 169L325 169L336 171L336 174C343.345 173.762 348.591 169.87 355 176L359 174L358 171L374 172L374 173L372 173L372 174L378 174C379.144 180.857 387.455 178.127 393 179.125C401.055 180.575 426.326 189.546 428 198C441.628 198.057 448.927 211.595 460 217C460.627 221.062 463.614 225.304 468 225L465 227L465 231L470 232L468 227L471 232C476.979 235.186 477.079 240.313 480.429 245.334C485.441 252.847 492.442 258.919 495.907 267.424C498.169 272.974 498.865 283.141 505 285L508 299C498.918 300.946 510.704 315.502 513 319L510 319L510 325L513 325L510 346L513 346L516 360C509.155 361.467 511.222 376.381 513 381C509.284 381.796 510 384.637 510 388L507 388L507 393L506 393L506 390L505 390L500 418L494 418L493 432C486.221 432.903 483.718 435.544 486 442L482 442L479 446L481 452L473 456L474 461L469 458L468 466L461 464L462 468L455 469L457 474L451 472L452 479L449 485L443 484L444 487C436.19 487.167 434.762 489.408 432 496L431 496L429 494L431.792 504.116L431 522C427.093 524.639 429.832 528.883 429.981 533C430.348 543.081 431.029 552.178 433 562L440 567L457 552L460 552L459 554L462 554C462 550.915 464.558 552.55 467 553C469.521 546.919 467.925 541.554 476 541L487 530L495 530L494 522L507 509L507 506L513 506C514.093 498.01 523.955 489.259 531 486L530 483C534.124 482.015 544.376 480.338 537 475L548 461L548 456L549 456L550 460C555.279 457.197 553.139 454.399 551 450L554 445L555 445L556 447L556 443C561.13 441.881 560.983 438.704 561 434L564 434L564 426L569 426C569.008 415.158 579.642 405.959 574 397L579 396L577 392L583 392L580 386L583 386L580 379L585 372L583 363C585.535 360.357 586.982 358.355 585 355L585 354C589.999 350.19 585.231 339.089 586 333L590 333L590 328L587 328L586 308L587 311L590 310C589.663 304.328 590.628 299.12 585 296L585 295L588 295L588 283L588 282L584.455 269.17L577 238L574 238L572 222L564.998 204.04L559 192L550.892 179.019L539 163L534 162C533.589 151.507 519.753 147.159 516 139L506 131C499.908 129.813 494.322 125.827 492 120L482 115C477.838 114.983 464.624 111.26 464 107C457.706 106.211 440.292 99.3413 439 93L424 89C418.581 93.1046 413.815 88.5302 407.996 88.0849C392.379 86.8899 376.928 89.5566 363 81z"/>
<path style="fill:#3e2c4b; stroke:none;" d="M364.333 81.6667L364.667 82.3333L364.333 81.6667z"/>
<path style="fill:#5d4373; stroke:none;" d="M375 81C376.945 84.5251 379.188 85.052 383 84L375 81z"/>
<path style="fill:#3e2c4b; stroke:none;" d="M355 82L356 83L355 82M382 82L383 83L382 82M375 83L376 84L375 83M380 84L381 85L380 84M313 86L314 87L313 86M394 86L395 87L394 86M400 86L400 87L403 87L400 86M330 87L331 88L330 87M303 88L304 89L303 88M322 88L323 89L322 88M296 89L297 90L296 89M426 89L427 90L426 89z"/>
<path style="fill:#5d4373; stroke:none;" d="M431 92L436 92L435 89L431 92z"/>
<path style="fill:#3e2c4b; stroke:none;" d="M431 90L432 91L431 90M276 91L277 92L276 91M429.667 91.3333L430.333 91.6667L429.667 91.3333z"/>
<path style="fill:#5d4373; stroke:none;" d="M274 92C275.809 94.5699 277.133 94.4506 279 92L274 92z"/>
<path style="fill:#1a1220; stroke:none;" d="M438 92L439 93L438 92z"/>
<path style="fill:#3e2c4b; stroke:none;" d="M278 93L279 94L278 93M275 94L276 95L275 94M283 94L284 95L283 94M285 95L286 96L285 95M278 96L279 97L278 96M448 99L449 100L448 99M458 105L459 106L458 105M472 112L473 113L472 112z"/>
<path style="fill:#291d32; stroke:none;" d="M223 113L224 114L223 113z"/>
<path style="fill:#3e2c4b; stroke:none;" d="M224 113L225 114L224 113M235 113L236 114L235 113M222.667 114.333L223.333 114.667L222.667 114.333M481 116L482 117L481 116M212 118L213 119L212 118M214 118L215 119L214 118M217 118L218 119L217 118M487 118L488 119L487 118M211.333 119.667L211.667 120.333L211.333 119.667z"/>
<path style="fill:#5d4373; stroke:none;" d="M210 123L211 124L210 123z"/>
<path style="fill:#3e2c4b; stroke:none;" d="M494 125L495 126L494 125z"/>
<path style="fill:#291d32; stroke:none;" d="M193 133L194 134L193 133z"/>
<path style="fill:#3e2c4b; stroke:none;" d="M194 133L195 134L194 133M192.333 134.667L192.667 135.333L192.333 134.667M187 135L188 136L187 135z"/>
<path style="fill:#291d32; stroke:none;" d="M188 135L189 136L188 135M190 138L191 139L190 138z"/>
<path style="fill:#3e2c4b; stroke:none;" d="M186 139L187 140L186 139M180 144L181 145L180 144M182 144L183 145L182 144z"/>
<path style="fill:#291d32; stroke:none;" d="M522 144L523 145L522 144M172 146L173 147L172 146z"/>
<path style="fill:#3e2c4b; stroke:none;" d="M170 148L171 149L170 148z"/>
<path style="fill:#1a1220; stroke:none;" d="M169 156L170 157L169 156z"/>
<path style="fill:#3e2c4b; stroke:none;" d="M158 158L157 161L158 158z"/>
<path style="fill:#291d32; stroke:none;" d="M157 159L158 160L157 159M157 161L158 162L157 161z"/>
<path style="fill:#3e2c4b; stroke:none;" d="M534 161L535 162L534 161M159 162L160 163L159 162M539 165L540 166L539 165M154 168L155 169L154 168M324.333 169.667L324.667 170.333L324.333 169.667M312 171L313 172L312 171M330 171L331 172L330 171z"/>
<path style="fill:#010101; stroke:none;" d="M306 172L307 173L306 172z"/>
<path style="fill:#3e2c4b; stroke:none;" d="M372 172L373 173L372 172z"/>
<path style="fill:#291d32; stroke:none;" d="M373 172L374 173L373 172z"/>
<path style="fill:#3e2c4b; stroke:none;" d="M308 173L309 174L308 173M318 173L319 174L318 173M349 173L350 174L349 173M370.667 173.333L371.333 173.667L370.667 173.333M354 174L355 175L354 174M141 175L141 177L143 177L141 175M322 175L323 176L322 175M356 175L357 176L356 175M289 176L290 177L289 176z"/>
<path style="fill:#291d32; stroke:none;" d="M305 176L306 177L305 176z"/>
<path style="fill:#3e2c4b; stroke:none;" d="M549 176L550 177L549 176z"/>
<path style="fill:#291d32; stroke:none;" d="M141 177L142 178L141 177z"/>
<path style="fill:#3e2c4b; stroke:none;" d="M283 177L284 178L283 177M302 178L303 179L302 178M276 180L277 181L276 180M552 181L553 182L552 181z"/>
<path style="fill:#1a1220; stroke:none;" d="M266 188L266 191L267 191L266 188z"/>
<path style="fill:#3e2c4b; stroke:none;" d="M263 189L262 194L265 193L266 190L263 189M555 189L556 190L555 189M137 190L138 191L137 190z"/>
<path style="fill:#5d4373; stroke:none;" d="M264.333 190.667L264.667 191.333L264.333 190.667z"/>
<path style="fill:#291d32; stroke:none;" d="M265 190L266 191L265 190z"/>
<path style="fill:#3e2c4b; stroke:none;" d="M256 192L257 193L256 192z"/>
<path style="fill:#291d32; stroke:none;" d="M261 192L262 193L261 192M257.667 194.333L258.333 194.667L257.667 194.333z"/>
<path style="fill:#3e2c4b; stroke:none;" d="M426 194L427 195L426 194M560 194L561 195L560 194M257.667 195.333L258.333 195.667L257.667 195.333M253 196L252 200L253 200L253 196M125 197L126 198L125 197z"/>
<path style="fill:#291d32; stroke:none;" d="M254.333 197.667L254.667 198.333L254.333 197.667z"/>
<path style="fill:#3e2c4b; stroke:none;" d="M124 198L125 199L124 198z"/>
<path style="fill:#291d32; stroke:none;" d="M253 199L254 200L253 199z"/>
<path style="fill:#3e2c4b; stroke:none;" d="M563 200L564 201L563 200z"/>
<path style="fill:#291d32; stroke:none;" d="M122 202L123 203L122 202z"/>
<path style="fill:#3e2c4b; stroke:none;" d="M122.333 203.667L122.667 204.333L122.333 203.667M565.333 203.667L565.667 204.333L565.333 203.667M444 204L445 205L444 204M439 205L441 207L441 205L439 205z"/>
<path style="fill:#5d4373; stroke:none;" d="M441 205L439 206L442 210L443 205L441 205z"/>
<path style="fill:#3e2c4b; stroke:none;" d="M122.333 206.667L122.667 207.333L122.333 206.667z"/>
<path style="fill:#010101; stroke:none;" d="M123.333 206.667L123.667 207.333L123.333 206.667z"/>
<path style="fill:#3e2c4b; stroke:none;" d="M442 207L442 210L444 209L444 208L442 207z"/>
<path style="fill:#291d32; stroke:none;" d="M443 207L444 208L443 207z"/>
<path style="fill:#3e2c4b; stroke:none;" d="M230 208L231 209L230 208M449 208L450 209L449 208M440 209L441 210L440 209z"/>
<path style="fill:#291d32; stroke:none;" d="M443 209L444 210L443 209z"/>
<path style="fill:#3e2c4b; stroke:none;" d="M221 213L222 214L221 213M457 216L458 217L457 216z"/>
<path style="fill:#010101; stroke:none;" d="M118 217L119 218L118 217z"/>
<path style="fill:#3e2c4b; stroke:none;" d="M459 217L460 218L459 217z"/>
<path style="fill:#5d4373; stroke:none;" d="M346 219L346 224L336 226L336 225L338 225L338 224C329.807 224.544 302.412 223.148 301 232L293 232L293 235L284 235L269 239L271 243L266 246L265 246L261 243L261 255L260 255L255 254L256 258L250 259L250 264L243 269L244 271C238.827 272.305 235.903 273.031 237 279L231 281L230 281L230 278L229 278L231 292L226 299L226 305L221 310L218 324C217.85 330.699 210.185 345.809 216 350L217 355C213.417 358.148 216.867 361.345 217.701 365.09C219.788 374.457 221.507 380.497 226 389L221 387C218.844 397.452 227.077 396.629 232.126 402.313C235.61 406.236 237.185 412.754 241 416L241 417C236.788 421.09 246.602 425.536 250 426C250.259 429.277 250.564 430.823 254 431L261 437L261 442L266 442L274 453L286 461L285 458L290 461L295 461L306 471L301 470L301 473C305.502 478.753 306 485.946 306 493L301 492L305.287 507.95L303.688 514.754L307.188 529.911L305.97 540.999L310.155 550.17L311 574L312 574L312 571L313 571C313.35 583.087 314.37 589.862 325 596L326 596C331.113 591.739 339.16 597.226 344 594C348.219 591.187 354.948 591.039 359 588C366.759 582.181 365 565.156 365 556C365 551.407 363.017 543.004 367 544C366.017 535.937 361.182 524.194 367 517L367 516L364.443 498.001L359 474C363.922 472.945 362.363 467.213 359 465C365.003 462.999 381.843 457.629 381 461L385 461C385 456.525 390.167 459.702 393 460L393 455L399 458L400 453L404 453L404 445L412 445L412 440L420 440L420 432C425.333 431.93 431.072 431.826 433 426L441 423L441 408C444.403 407.271 443.987 405.194 444 402L449 402L447 398L447 397L449 395L450 395L451 395L456 396L452 389L453 381L454 381L454 384L455 384L457 365L463 364L461 357C463.917 353.874 464.554 350.517 460 349L465 344L461 332C466.052 320.077 457.349 314.958 455 304L452 304C451.697 299.827 444.836 283.822 441 283L441 282L444 282L444 275L438 275C438.905 269.62 432.784 265.669 428 264L428 257L429 257L429 261L433 257C427.449 255.539 413.801 238.57 409 246L401 243L401 240L396 237C391.698 236.859 389.538 236.182 388 232C383.373 232 379.241 230.038 380 227C376.683 226.373 373.843 225.064 373 229L360 226L360 225L362 225L362 224L358 220L354 223L346 219z"/>
<path style="fill:#3e2c4b; stroke:none;" d="M356 219L356 221L358 219L356 219M217 220L218 221L217 220z"/>
<path style="fill:#291d32; stroke:none;" d="M358 220L358 221L362 221L358 220z"/>
<path style="fill:#3e2c4b; stroke:none;" d="M460 220L461 221L460 220M114.333 221.667L114.667 222.333L114.333 221.667M359 221L359 222L362 222L359 221M571 221L572 222L571 221M353 222L354 223L353 222M571 223L572 224L571 223M306.667 224.333L307.333 224.667L306.667 224.333z"/>
<path style="fill:#5d4373; stroke:none;" d="M308 224L308 225L313 225L308 224z"/>
<path style="fill:#3e2c4b; stroke:none;" d="M313 224L313 225L321 225L313 224z"/>
<path style="fill:#5d4373; stroke:none;" d="M321 224L321 225L332 225L321 224z"/>
<path style="fill:#3e2c4b; stroke:none;" d="M332 224L333 225L332 224M338.667 224.333L339.333 224.667L338.667 224.333M363.667 224.333L364.333 224.667L363.667 224.333z"/>
<path style="fill:#5d4373; stroke:none;" d="M365 224L365 225L368 225L365 224z"/>
<path style="fill:#291d32; stroke:none;" d="M461 224L463 226L461 224z"/>
<path style="fill:#3e2c4b; stroke:none;" d="M462 224L463 225L462 224M114 225L115 226L114 225M336 225L337 226L336 225z"/>
<path style="fill:#010101; stroke:none;" d="M337 225L337 226L340 226L337 225z"/>
<path style="fill:#1a1220; stroke:none;" d="M461 225L462 226L461 225z"/>
<path style="fill:#010101; stroke:none;" d="M467.333 225.667L467.667 226.333L467.333 225.667z"/>
<path style="fill:#3e2c4b; stroke:none;" d="M465 226L466 227L465 226z"/>
<path style="fill:#291d32; stroke:none;" d="M466 226L467 227L466 226z"/>
<path style="fill:#3e2c4b; stroke:none;" d="M301 227L302 228L301 227M464 227L465 228L464 227M465 228L466 229L465 228M473 232L474 233L473 232M205 233L206 234L205 233M208 233L209 234L208 233M206 234L208 237L206 234M275 235L276 236L275 235M283.333 235.667L283.667 236.333L283.333 235.667M286 235L287 236L286 235M201 237L202 238L201 237z"/>
<path style="fill:#291d32; stroke:none;" d="M269 238L270 239L269 238z"/>
<path style="fill:#3e2c4b; stroke:none;" d="M199 239L200 240L199 239M202.333 239.667L202.667 240.333L202.333 239.667M269 240L270 241L269 240z"/>
<path style="fill:#291d32; stroke:none;" d="M202 241L203 242L202 241z"/>
<path style="fill:#3e2c4b; stroke:none;" d="M106 244L107 245L106 244M411 244L412 245L411 244z"/>
<path style="fill:#291d32; stroke:none;" d="M265 245L266 246L265 245z"/>
<path style="fill:#3e2c4b; stroke:none;" d="M408 245L409 246L408 245M197.333 246.667L197.667 247.333L197.333 246.667z"/>
<path style="fill:#010101; stroke:none;" d="M409 246L409 248L412 248L412 246L409 246z"/>
<path style="fill:#291d32; stroke:none;" d="M479 249L480 250L479 249z"/>
<path style="fill:#5d4373; stroke:none;" d="M480 249L482 251L480 249z"/>
<path style="fill:#3e2c4b; stroke:none;" d="M481 249L482 250L481 249z"/>
<path style="fill:#010101; stroke:none;" d="M415 250L415 251L421 253L421 252L415 250z"/>
<path style="fill:#3e2c4b; stroke:none;" d="M479 250L480 253L482 253L483 250L479 250M101 252L102 253L101 252M256 253L257 254L256 253M425 253L426 254L425 253M428 255L429 256L428 255z"/>
<path style="fill:#291d32; stroke:none;" d="M429 256L430 257L429 256z"/>
<path style="fill:#3e2c4b; stroke:none;" d="M430.667 256.333L431.333 256.667L430.667 256.333M428 257L428 261L429 261L428 257M98 258L99 259L98 258M188 258L189 259L188 258M425 258L426 259L425 258z"/>
<path style="fill:#010101; stroke:none;" d="M426 258L427 259L426 258z"/>
<path style="fill:#3e2c4b; stroke:none;" d="M489 258L490 259L489 258M430 261L433 259L430 261M492 259L493 260L492 259M188 261L189 262L188 261z"/>
<path style="fill:#291d32; stroke:none;" d="M430 261L431 262L430 261M188 262L189 263L188 262z"/>
<path style="fill:#3e2c4b; stroke:none;" d="M98 264L99 265L98 264M186.333 264.667L186.667 265.333L186.333 264.667M184 266L185 267L184 266M432 267L433 268L432 267M96 268L97 269L96 268M180 269L181 270L180 269M97 270L96 273L97 270M180 273L181 274L180 273M236 273L237 274L236 273z"/>
<path style="fill:#010101; stroke:none;" d="M583 276L584 277L583 276z"/>
<path style="fill:#3e2c4b; stroke:none;" d="M587 276L587 278L589 278L587 276z"/>
<path style="fill:#291d32; stroke:none;" d="M588 276L589 277L588 276z"/>
<path style="fill:#3e2c4b; stroke:none;" d="M230 278L230 281L231 281L232 278L230 278M500 278L501 279L500 278z"/>
<path style="fill:#291d32; stroke:none;" d="M587.667 278.333L588.333 278.667L587.667 278.333M228.333 279.667L228.667 280.333L228.333 279.667z"/>
<path style="fill:#3e2c4b; stroke:none;" d="M586.667 281.333L587.333 281.667L586.667 281.333M500 283L501 284L500 283M586.667 283.333L587.333 283.667L586.667 283.333M176 285L176 287L178 285L176 285M177.667 287.333L178.333 287.667L177.667 287.333M587 288L588 289L587 288M93.3333 289.667L93.6667 290.333L93.3333 289.667M446 289L447 290L446 289M450 291L451 292L450 291z"/>
<path style="fill:#5d4373; stroke:none;" d="M451 291C449.094 294.812 452.522 302.216 456 297C457.663 294.505 454.69 292.24 455 291L451 291z"/>
<path style="fill:#3e2c4b; stroke:none;" d="M453 291L454 292L453 291M454.667 292.333L455.333 292.667L454.667 292.333M228 294L229 295L228 294z"/>
<path style="fill:#291d32; stroke:none;" d="M456.333 295.667L456.667 296.333L456.333 295.667z"/>
<path style="fill:#3e2c4b; stroke:none;" d="M505 295L506 296L505 295M587 296L588 297L587 296M172 297L173 298L172 297M226 298L227 299L226 298M505 298L506 299L505 298M589 299L590 300L589 299z"/>
<path style="fill:#1a1220; stroke:none;" d="M502 300L503 301L502 300z"/>
<path style="fill:#3e2c4b; stroke:none;" d="M169 301L170 302L169 301z"/>
<path style="fill:#010101; stroke:none;" d="M332 304C328.291 304 325.277 304.893 326 302L323 302L324 304L316 304L311 312C317.027 315.556 309.499 316.959 306 317L306 320L300 320L300 336L295 336L295 344L298 344L295 349L295 350L300 349L302 358L298 357C298.001 366.032 300.534 365.961 304.981 372.425C307.847 376.592 307.253 381.558 313.174 383.446C316.864 384.623 319.41 381.534 322.785 382.066C326.618 382.671 328.292 387.564 332.135 388.307C334.709 388.805 337.56 386.657 340 386C340.578 390.602 348.209 389 352 389L352 386L364 384L366 372L370 373L381 362L380 360L383 354L379 355L382 349L378 341L383 341L383 333L380 333L380 323L367 312L367 307L362 307L362 304L348 301L348 306L341 301C337.534 301 332.514 299.912 332 304z"/>
<path style="fill:#291d32; stroke:none;" d="M502 301L503 302L502 301z"/>
<path style="fill:#1a1220; stroke:none;" d="M502 302L503 303L502 302z"/>
<path style="fill:#5d4373; stroke:none;" d="M332 304L332 305L337 306L337 303L332 304z"/>
<path style="fill:#3e2c4b; stroke:none;" d="M337 304L338 305L337 304z"/>
<path style="fill:#1a1220; stroke:none;" d="M590 305L591 306L590 305z"/>
<path style="fill:#3e2c4b; stroke:none;" d="M363 306L364 307L363 306M589.333 306.667L589.667 307.333L589.333 306.667z"/>
<path style="fill:#291d32; stroke:none;" d="M590 306L591 307L590 306z"/>
<path style="fill:#3e2c4b; stroke:none;" d="M89 307L90 308L89 307M505 307L506 308L505 307z"/>
<path style="fill:#1a1220; stroke:none;" d="M590 307L591 308L590 307z"/>
<path style="fill:#5d4373; stroke:none;" d="M357 312L362 312C359.848 309.854 358.924 309.54 357 312z"/>
<path style="fill:#3e2c4b; stroke:none;" d="M507 309L508 310L507 309M367.333 310.667L367.667 311.333L367.333 310.667M588 310L589 311L588 310M357 312L357 313L362 313L357 312M507.333 312.667L507.667 313.333L507.333 312.667z"/>
<path style="fill:#1a1220; stroke:none;" d="M314 313L315 314L314 313z"/>
<path style="fill:#5d4373; stroke:none;" d="M358 313L358 314L361 314L358 313z"/>
<path style="fill:#291d32; stroke:none;" d="M314.333 314.667L314.667 315.333L314.333 314.667z"/>
<path style="fill:#3e2c4b; stroke:none;" d="M459 314L460 315L459 314M509 314L510 315L509 314M165 315L166 316L165 315M374 318L375 319L374 318z"/>
<path style="fill:#1a1220; stroke:none;" d="M309 319L310 320L309 319z"/>
<path style="fill:#291d32; stroke:none;" d="M307 320L308 321L307 320z"/>
<path style="fill:#3e2c4b; stroke:none;" d="M308 320L309 321L308 320z"/>
<path style="fill:#291d32; stroke:none;" d="M309 320L310 321L309 320z"/>
<path style="fill:#010101; stroke:none;" d="M163 323L164 324L163 323z"/>
<path style="fill:#3e2c4b; stroke:none;" d="M167 324L168 325L167 324z"/>
<path style="fill:#291d32; stroke:none;" d="M168.333 324.667L168.667 325.333L168.333 324.667M463 324L463 327L464 327L463 324z"/>
<path style="fill:#3e2c4b; stroke:none;" d="M167 326L168 327L167 326z"/>
<path style="fill:#1a1220; stroke:none;" d="M168 326L169 327L168 326z"/>
<path style="fill:#3e2c4b; stroke:none;" d="M218 326L219 327L218 326M164 327L165 328L164 327M166 327L167 328L166 327M215 329L217 332L217 329L215 329M462.333 329.667L462.667 330.333L462.333 329.667M162 330L163 331L162 330z"/>
<path style="fill:#010101; stroke:none;" d="M461.333 330.667L461.667 331.333L461.333 330.667z"/>
<path style="fill:#291d32; stroke:none;" d="M215 331L216 332L215 331z"/>
<path style="fill:#3e2c4b; stroke:none;" d="M464 331L463 335L464 335L464 331z"/>
<path style="fill:#5d4373; stroke:none;" d="M465 331L464 335L467 334L467 331L465 331z"/>
<path style="fill:#010101; stroke:none;" d="M514.333 331.667L514.667 332.333L514.333 331.667z"/>
<path style="fill:#3e2c4b; stroke:none;" d="M380 332L381 333L380 332M466 332L466 335L467 335L468 332L466 332M586 333L587 334L586 333M162.333 334.667L162.667 335.333L162.333 334.667z"/>
<path style="fill:#291d32; stroke:none;" d="M467 334L468 335L467 334M589 334L590 335L589 334z"/>
<path style="fill:#5d4373; stroke:none;" d="M590 334L590 338L591 338L590 334z"/>
<path style="fill:#3e2c4b; stroke:none;" d="M591 334L592 335L591 334M215.667 335.333L216.333 335.667L215.667 335.333z"/>
<path style="fill:#291d32; stroke:none;" d="M465 335L466 336L465 335z"/>
<path style="fill:#3e2c4b; stroke:none;" d="M588 335L590 338L590 335L588 335M462 336L463 337L462 336M90 340L91 341L90 340M162 340L163 341L162 340M378.667 341.333L379.333 341.667L378.667 341.333M90 345L91 346L90 345M512 346L513 347L512 346z"/>
<path style="fill:#291d32; stroke:none;" d="M297 347L298 348L297 347z"/>
<path style="fill:#3e2c4b; stroke:none;" d="M379 349L380 350L379 349M382 349L383 350L382 349z"/>
<path style="fill:#291d32; stroke:none;" d="M215 350L216 351L215 350z"/>
<path style="fill:#1a1220; stroke:none;" d="M464 350L465 351L464 350z"/>
<path style="fill:#291d32; stroke:none;" d="M464.333 351.667L464.667 352.333L464.333 351.667z"/>
<path style="fill:#3e2c4b; stroke:none;" d="M300.667 352.333L301.333 352.667L300.667 352.333M513 352L514 353L513 352M302 353L303 354L302 353M378 353L379 354L378 353z"/>
<path style="fill:#010101; stroke:none;" d="M295 354L296 357L297 357L297 354L295 354z"/>
<path style="fill:#3e2c4b; stroke:none;" d="M380 354L381 355L380 354M301 355L301 357L303 355L301 355M462 356L463 357L462 356M513.333 356.667L513.667 357.333L513.333 356.667M586 356L587 357L586 356z"/>
<path style="fill:#291d32; stroke:none;" d="M301 357L302 358L301 357z"/>
<path style="fill:#3e2c4b; stroke:none;" d="M515.333 358.667L515.667 359.333L515.333 358.667M380 360L381 361L380 360M215 361L216 362L215 361M462 362L463 363L462 362z"/>
<path style="fill:#010101; stroke:none;" d="M163 369L164 370L163 369z"/>
<path style="fill:#291d32; stroke:none;" d="M585 369L586 370L585 369z"/>
<path style="fill:#3e2c4b; stroke:none;" d="M303 370L304 371L303 370M371.667 370.333L372.333 370.667L371.667 370.333M584.667 370.333L585.333 370.667L584.667 370.333M305 371L306 372L305 371z"/>
<path style="fill:#291d32; stroke:none;" d="M585 371L586 372L585 371z"/>
<path style="fill:#3e2c4b; stroke:none;" d="M366 372L367 373L366 372M584 372L585 373L584 372z"/>
<path style="fill:#5d4373; stroke:none;" d="M89 374L90 380L91 380L89 374z"/>
<path style="fill:#3e2c4b; stroke:none;" d="M90.3333 374.667L90.6667 375.333L90.3333 374.667M88 375L89 380L90 380L88 375M364 375L365 376L364 375M93 376L93 379L94 379L93 376M90 377L91 378L90 377z"/>
<path style="fill:#291d32; stroke:none;" d="M88 378L89 379L88 378z"/>
<path style="fill:#1a1220; stroke:none;" d="M88 379L89 380L88 379z"/>
<path style="fill:#3e2c4b; stroke:none;" d="M221 379L222 380L221 379M453 379L454 380L453 379M582 379L583 380L582 379M320.333 381.667L320.667 382.333L320.333 381.667M323.333 381.667L323.667 382.333L323.333 381.667M170 383L171 384L170 383z"/>
<path style="fill:#291d32; stroke:none;" d="M326 383L327 384L326 383z"/>
<path style="fill:#3e2c4b; stroke:none;" d="M360 384L361 385L360 384M454 384L455 385L454 384z"/>
<path style="fill:#291d32; stroke:none;" d="M171.333 385.667L171.667 386.333L171.333 385.667z"/>
<path style="fill:#3e2c4b; stroke:none;" d="M172.333 385.667L172.667 386.333L172.333 385.667M581 385L582 386L581 385M329 386L330 387L329 386M338.667 386.333L339.333 386.667L338.667 386.333M220.333 387.667L220.667 388.333L220.333 387.667M507.667 387.333L508.333 387.667L507.667 387.333M330 388L331 389L330 388M172 389L173 390L172 389z"/>
<path style="fill:#291d32; stroke:none;" d="M454 389L455 390L454 389z"/>
<path style="fill:#3e2c4b; stroke:none;" d="M506 390L506 393L507 393L506 390M582 390L582 393L583 393L582 390z"/>
<path style="fill:#291d32; stroke:none;" d="M583 390L584 391L583 390z"/>
<path style="fill:#3e2c4b; stroke:none;" d="M580 391L581 392L580 391M455 392L457 395L455 392z"/>
<path style="fill:#291d32; stroke:none;" d="M583 392L584 393L583 392z"/>
<path style="fill:#3e2c4b; stroke:none;" d="M173 393L174 394L173 393M220 393L221 394L220 393M578 393L579 394L578 393M221 394L222 395L221 394M173 395L174 396L173 395M222 395L223 396L222 395z"/>
<path style="fill:#291d32; stroke:none;" d="M456 395L457 396L456 395z"/>
<path style="fill:#1a1220; stroke:none;" d="M98 397L99 398L98 397z"/>
<path style="fill:#3e2c4b; stroke:none;" d="M223 397L224 398L223 397M225 399L226 400L225 399M98 400L99 401L98 400M172 402L173 403L172 402z"/>
<path style="fill:#291d32; stroke:none;" d="M231 402L232 403L231 402z"/>
<path style="fill:#1a1220; stroke:none;" d="M231 403L232 404L231 403z"/>
<path style="fill:#291d32; stroke:none;" d="M98 406L99 407L98 406z"/>
<path style="fill:#3e2c4b; stroke:none;" d="M98.3333 407.667L98.6667 408.333L98.3333 407.667M234 407L235 408L234 407M575 407L576 408L575 407M441 412L442 413L441 412M103 413L104 414L103 413M571 413L572 414L571 413M102 414L103 415L102 414M102 416L103 417L102 416M440 419L440 422L441 422L440 419M239 420L240 421L239 420M242 422L243 423L242 422M439 422L440 423L439 422z"/>
<path style="fill:#291d32; stroke:none;" d="M569 422L570 423L569 422z"/>
<path style="fill:#3e2c4b; stroke:none;" d="M569 423L570 424L569 423M104.333 424.667L104.667 425.333L104.333 424.667z"/>
<path style="fill:#1a1220; stroke:none;" d="M245 424L246 425L245 424z"/>
<path style="fill:#3e2c4b; stroke:none;" d="M492 424L493 425L492 424z"/>
<path style="fill:#291d32; stroke:none;" d="M569 424L570 425L569 424z"/>
<path style="fill:#1a1220; stroke:none;" d="M488.667 427.333L489.333 427.667L488.667 427.333z"/>
<path style="fill:#3e2c4b; stroke:none;" d="M488 428L489 429L488 428z"/>
<path style="fill:#291d32; stroke:none;" d="M489 428L490 429L489 428z"/>
<path style="fill:#3e2c4b; stroke:none;" d="M492 428L493 429L492 428z"/>
<path style="fill:#291d32; stroke:none;" d="M488 429L489 430L488 429z"/>
<path style="fill:#3e2c4b; stroke:none;" d="M253 431L254 432L253 431M426 431L427 432L426 431M428 431L429 432L428 431M492 431L493 432L492 431M111 432L112 433L111 432M186 433L187 434L186 433z"/>
<path style="fill:#1a1220; stroke:none;" d="M196 444L197 445L196 444z"/>
<path style="fill:#3e2c4b; stroke:none;" d="M481 444L482 445L481 444M479.667 445.333L480.333 445.667L479.667 445.333z"/>
<path style="fill:#010101; stroke:none;" d="M554 445L554 449L555 449L554 445z"/>
<path style="fill:#3e2c4b; stroke:none;" d="M555 447L553 449L559 451L559 450L555 447z"/>
<path style="fill:#5d4373; stroke:none;" d="M555 448L556 449L555 448z"/>
<path style="fill:#291d32; stroke:none;" d="M554 449L555 450L554 449z"/>
<path style="fill:#5d4373; stroke:none;" d="M557.333 449.667L557.667 450.333L557.333 449.667z"/>
<path style="fill:#291d32; stroke:none;" d="M558 449L559 450L558 449z"/>
<path style="fill:#1a1220; stroke:none;" d="M553 450L554 451L553 450z"/>
<path style="fill:#291d32; stroke:none;" d="M274 451L275 452L274 451z"/>
<path style="fill:#1a1220; stroke:none;" d="M558 451L559 452L558 451z"/>
<path style="fill:#3e2c4b; stroke:none;" d="M401.667 453.333L402.333 453.667L401.667 453.333z"/>
<path style="fill:#010101; stroke:none;" d="M550 453L551 454L550 453z"/>
<path style="fill:#3e2c4b; stroke:none;" d="M122.667 454.333L123.333 454.667L122.667 454.333M277 454L278 455L277 454M554 454L555 455L554 454z"/>
<path style="fill:#5d4373; stroke:none;" d="M122 455L123 456L122 455z"/>
<path style="fill:#3e2c4b; stroke:none;" d="M554 456L555 457L554 456M280 457L281 458L280 457M396.667 457.333L397.333 457.667L396.667 457.333M399 457L398 460L401 458L399 457z"/>
<path style="fill:#291d32; stroke:none;" d="M400 457L401 458L400 457z"/>
<path style="fill:#3e2c4b; stroke:none;" d="M285 458L286 459L285 458M379 458L380 459L379 458M392 458L393 459L392 458M470 458L471 459L470 458z"/>
<path style="fill:#291d32; stroke:none;" d="M553 458L554 459L553 458z"/>
<path style="fill:#3e2c4b; stroke:none;" d="M125.333 459.667L125.667 460.333L125.333 459.667z"/>
<path style="fill:#291d32; stroke:none;" d="M400 459L401 460L400 459z"/>
<path style="fill:#3e2c4b; stroke:none;" d="M468 459L469 460L468 459z"/>
<path style="fill:#291d32; stroke:none;" d="M552 459L553 460L552 459z"/>
<path style="fill:#3e2c4b; stroke:none;" d="M283 460L284 461L283 460M286 460L286 462L288 462L286 460z"/>
<path style="fill:#291d32; stroke:none;" d="M287 460L288 461L287 460z"/>
<path style="fill:#3e2c4b; stroke:none;" d="M377.667 460.333L378.333 460.667L377.667 460.333M390.667 460.333L391.333 460.667L390.667 460.333M294 461L295 462L294 461z"/>
<path style="fill:#010101; stroke:none;" d="M304 461L305 462L304 461z"/>
<path style="fill:#1a1220; stroke:none;" d="M213.333 462.667L213.667 463.333L213.333 462.667z"/>
<path style="fill:#291d32; stroke:none;" d="M462 464L463 465L462 464z"/>
<path style="fill:#3e2c4b; stroke:none;" d="M127.333 465.667L127.667 466.333L127.333 465.667z"/>
<path style="fill:#291d32; stroke:none;" d="M217 465L218 466L217 465z"/>
<path style="fill:#3e2c4b; stroke:none;" d="M460 465L461 466L460 465M217 466L220 469L217 466z"/>
<path style="fill:#291d32; stroke:none;" d="M127 467L128 468L127 467z"/>
<path style="fill:#3e2c4b; stroke:none;" d="M301 467L302 468L301 467z"/>
<path style="fill:#010101; stroke:none;" d="M216 468L216 471L217 471L216 468z"/>
<path style="fill:#3e2c4b; stroke:none;" d="M303 468L304 469L303 468M221 469L222 470L221 469M217 470L218 471L217 470M303 470L304 471L303 470M130 471L131 472L130 471M301 471L302 472L301 471z"/>
<path style="fill:#010101; stroke:none;" d="M216 472L217 473L216 472M218 472L219 477L220 477L218 472z"/>
<path style="fill:#3e2c4b; stroke:none;" d="M223 472L224 473L223 472z"/>
<path style="fill:#291d32; stroke:none;" d="M224 472L225 473L224 472z"/>
<path style="fill:#3e2c4b; stroke:none;" d="M302 473L303 474L302 473z"/>
<path style="fill:#010101; stroke:none;" d="M452 475L453 476L452 475z"/>
<path style="fill:#3e2c4b; stroke:none;" d="M539 475L540 476L539 475M133 476L134 477L133 476M221 476L222 477L221 476M225 476L226 477L225 476z"/>
<path style="fill:#1a1220; stroke:none;" d="M361 476L362 477L361 476z"/>
<path style="fill:#3e2c4b; stroke:none;" d="M361 477L362 478L361 477M224 478L225 479L224 478M227 479L228 480L227 479M228 480L229 481L228 480M530 483L531 484L530 483M442 484L443 485L442 484z"/>
<path style="fill:#1a1220; stroke:none;" d="M444 484L445 485L444 484z"/>
<path style="fill:#3e2c4b; stroke:none;" d="M531 484L532 485L531 484M530 486L531 487L530 486z"/>
<path style="fill:#291d32; stroke:none;" d="M533 486L534 487L533 486z"/>
<path style="fill:#3e2c4b; stroke:none;" d="M534 486L533 488L535 488L534 486z"/>
<path style="fill:#291d32; stroke:none;" d="M535 486L533 488L533 489L535 486z"/>
<path style="fill:#3e2c4b; stroke:none;" d="M141.667 487.333L142.333 487.667L141.667 487.333M231 487L232 488L231 487M436.667 487.333L437.333 487.667L436.667 487.333z"/>
<path style="fill:#291d32; stroke:none;" d="M141 488L142 489L141 488z"/>
<path style="fill:#3e2c4b; stroke:none;" d="M434 488L435 489L434 488z"/>
<path style="fill:#1a1220; stroke:none;" d="M535 488L536 489L535 488z"/>
<path style="fill:#3e2c4b; stroke:none;" d="M233 489L234 490L233 489z"/>
<path style="fill:#291d32; stroke:none;" d="M433 489L434 490L433 489z"/>
<path style="fill:#3e2c4b; stroke:none;" d="M525 489L526 490L525 489M362.667 490.333L363.333 490.667L362.667 490.333M302 491L304 493L304 491L302 491M433 491L434 492L433 491z"/>
<path style="fill:#291d32; stroke:none;" d="M236 492L237 493L236 492z"/>
<path style="fill:#3e2c4b; stroke:none;" d="M522.667 492.333L523.333 492.667L522.667 492.333M147 493L148 494L147 493M236 493L237 494L236 493M429 493L431 495L431 493L429 493M433 493L434 494L433 493M431 495L432 496L431 495M516 497L517 498L516 497z"/>
<path style="fill:#1a1220; stroke:none;" d="M151 498L152 499L151 498z"/>
<path style="fill:#3e2c4b; stroke:none;" d="M301 498L302 499L301 498M429 498L430 499L429 498M154 500L155 501L154 500z"/>
<path style="fill:#010101; stroke:none;" d="M235 501L236 502L235 501z"/>
<path style="fill:#3e2c4b; stroke:none;" d="M237 504L237 508L238 508L237 504M163 508L164 509L163 508z"/>
<path style="fill:#010101; stroke:none;" d="M307.333 509.667L307.667 510.333L307.333 509.667z"/>
<path style="fill:#3e2c4b; stroke:none;" d="M502 510L503 511L502 510M166 511L168 516L168 511L166 511M241 511L241 513L243 513L243 511L241 511z"/>
<path style="fill:#5d4373; stroke:none;" d="M240 512L242 516L241 514L243 516L244 516L244 512L240 512M167 513L168 516L169 516L169 513L167 513z"/>
<path style="fill:#3e2c4b; stroke:none;" d="M169 513L169 516L170 516L169 513z"/>
<path style="fill:#291d32; stroke:none;" d="M170 514L171 515L170 514z"/>
<path style="fill:#3e2c4b; stroke:none;" d="M241 514L243 516L243 514L241 514z"/>
<path style="fill:#5d4373; stroke:none;" d="M166 515L167 516L166 515z"/>
<path style="fill:#3e2c4b; stroke:none;" d="M365.667 515.333L366.333 515.667L365.667 515.333M499 516L500 517L499 516M172 517L171 521L177 520L172 517M365.667 517.333L366.333 517.667L365.667 517.333z"/>
<path style="fill:#291d32; stroke:none;" d="M175 518L176 519L175 518z"/>
<path style="fill:#5d4373; stroke:none;" d="M171 519L172 520L171 519M174 519L175 520L174 519z"/>
<path style="fill:#291d32; stroke:none;" d="M175 520L176 521L175 520M180 520L181 521L180 520z"/>
<path style="fill:#3e2c4b; stroke:none;" d="M428 522L429 523L428 522z"/>
<path style="fill:#291d32; stroke:none;" d="M366 523L367 524L366 523z"/>
<path style="fill:#3e2c4b; stroke:none;" d="M366 524L367 525L366 524M188 525L189 526L188 525z"/>
<path style="fill:#291d32; stroke:none;" d="M366 525L367 526L366 525z"/>
<path style="fill:#3e2c4b; stroke:none;" d="M306 526L306 529L307 529L306 526M428 526L429 527L428 526M495 526L496 527L495 526z"/>
<path style="fill:#5d4373; stroke:none;" d="M187 528L190 532L187 528z"/>
<path style="fill:#3e2c4b; stroke:none;" d="M188 528L189 529L188 528M495 528L496 529L495 528M186.333 529.667L186.667 530.333L186.333 529.667M428 529L429 530L428 529M492 529L493 530L492 529M190 530L191 531L190 530z"/>
<path style="fill:#5d4373; stroke:none;" d="M428 530L429 531L428 530z"/>
<path style="fill:#3e2c4b; stroke:none;" d="M364.333 531.667L364.667 532.333L364.333 531.667M428 531L429 532L428 531z"/>
<path style="fill:#5d4373; stroke:none;" d="M428 532L428 537L429 537L428 532z"/>
<path style="fill:#3e2c4b; stroke:none;" d="M305 533L306 534L305 533M485.333 533.667L485.667 534.333L485.333 533.667M194 534L195 535L194 534M366.333 534.667L366.667 535.333L366.333 534.667z"/>
<path style="fill:#010101; stroke:none;" d="M203.333 538.667L203.667 539.333L203.333 538.667z"/>
<path style="fill:#3e2c4b; stroke:none;" d="M204 539L205 540L204 539M366 539L367 540L366 539M365 540L366 541L365 540M203 541L204 542L203 541M202 542L203 543L202 542M204 542L205 543L204 542M236.333 542.667L236.667 543.333L236.333 542.667z"/>
<path style="fill:#291d32; stroke:none;" d="M204 543L205 544L204 543z"/>
<path style="fill:#3e2c4b; stroke:none;" d="M208 543L209 544L208 543M213 543L214 544L213 543M365.333 543.667L365.667 544.333L365.333 543.667z"/>
<path style="fill:#291d32; stroke:none;" d="M209 545L210 546L209 545z"/>
<path style="fill:#3e2c4b; stroke:none;" d="M210.333 545.667L210.667 546.333L210.333 545.667M213 545L213 549L214 549L213 545M211.333 547.667L211.667 548.333L211.333 547.667M308 547L309 548L308 547z"/>
<path style="fill:#291d32; stroke:none;" d="M430 548L431 549L430 548M213 549L214 550L213 549z"/>
<path style="fill:#3e2c4b; stroke:none;" d="M468 549L468 552L469 552L468 549z"/>
<path style="fill:#291d32; stroke:none;" d="M366 550L367 551L366 550z"/>
<path style="fill:#3e2c4b; stroke:none;" d="M230 551L233 553L230 551M233 551L234 552L233 551M366 551L367 552L366 551z"/>
<path style="fill:#1a1220; stroke:none;" d="M230 552L231 553L230 552z"/>
<path style="fill:#5d4373; stroke:none;" d="M366.333 552.667L366.667 553.333L366.333 552.667z"/>
<path style="fill:#010101; stroke:none;" d="M457.667 552.333L458.333 552.667L457.667 552.333z"/>
<path style="fill:#3e2c4b; stroke:none;" d="M459 552L460 553L459 552M464 552L464 554L466 554L464 552M458 553L459 554L458 553M460 553L461 554L460 553M310.333 554.667L310.667 555.333L310.333 554.667M366 554L367 555L366 554M455 556L456 557L455 556M431 558L432 559L431 558z"/>
<path style="fill:#1a1220; stroke:none;" d="M366 560L367 561L366 560M429 560L430 561L429 560z"/>
<path style="fill:#291d32; stroke:none;" d="M430 560L429 563L430 563L430 560z"/>
<path style="fill:#3e2c4b; stroke:none;" d="M433 560L434 561L433 560M366 561L367 562L366 561M430.333 561.667L430.667 562.333L430.333 561.667z"/>
<path style="fill:#291d32; stroke:none;" d="M366 562L367 563L366 562M432 563L433 564L432 563z"/>
<path style="fill:#3e2c4b; stroke:none;" d="M432.667 564.333L433.333 564.667L432.667 564.333z"/>
<path style="fill:#291d32; stroke:none;" d="M432.667 565.333L433.333 565.667L432.667 565.333z"/>
<path style="fill:#3e2c4b; stroke:none;" d="M437 566L438 567L437 566M312 571L312 575L313 575L312 571M314 578L314 583L315 583L314 578z"/>
<path style="fill:#291d32; stroke:none;" d="M360 585L361 586L360 585z"/>
<path style="fill:#3e2c4b; stroke:none;" d="M344 593L345 594L344 593M324 595L325 596L324 595M326 595L327 596L326 595z"/>
</svg>
