<?xml version="1.0" standalone="yes"?>
<svg xmlns="http://www.w3.org/2000/svg" width="688" height="688">
<path style="fill:#010101; stroke:none;" d="M0 0L0 688L688 688L688 0L0 0z"/>
<path style="fill:#296353; stroke:none;" d="M323 76L319 103C312.666 103.493 313.416 106.869 315 112L310 112L311 139L307 138L307 134L306 134L304 157C310.368 163.745 305.99 173.495 304.299 181.09C302.518 189.083 300.476 210.491 304 217C296.958 218.408 304.598 225.203 301 230C298.912 232.784 298.736 230.057 299 229L298 229C296.848 232.393 297.196 234.067 301 234L301 238L291 238C290.495 241.867 286.234 241 283 241C282.502 244.809 260.725 251.9 256 252L256 255L238 263L236 266L236 258L234 258L235 266L234 268L223 274L220 277L213.167 284L196 305L195 305L200 295C196.199 293.887 193.438 293.62 191 297L183 294L186 302L185 302L168 290L169 288C164.186 283.984 159.482 277.721 153.778 274.694C149.598 272.477 138.9 272.141 138 266L132 263L125 263C124.173 259.205 122.829 258.304 119 258L119 255L99 247L92 244C86.4633 244 68.4732 238.301 67 245L66 245L66 243L65 243L81 274C87.0446 277.076 92.0152 285.071 95 291L99 291C100.362 295.209 103.985 297.068 106.795 300.324C113.639 308.255 121.912 320.961 133 321L142.5 334.278L150 338L158 349L163 349L163 350C160.046 352.609 163.152 356.668 164 360C159.179 361.033 161.792 366.188 160.5 369.972C156.577 381.459 155 393.095 155 406C155 409.33 153.445 421 157 421L157 424L155 423L155 434L158 434L158 452L164 471L163 471L157 466L158 476L165 481L162 488L168 489L170 507L169 507L169 505L168 505C169.595 509.757 172.961 507.599 177 508L180 517L185 517C186.114 522.479 190.261 526.276 195 529L192 536L194 531L197 539L202 544L202 545C197.833 548.651 204.776 552.656 206 545L203 545L204 539L205 539L210 545L210 546C207.383 548.372 209.158 550.065 212 551L212 547L213 547C214.86 552.847 222.453 559.681 228 562L228 563L222 563C224.427 566.753 227.246 564.834 231 564L233 569L230 569L230 570L234 575L238 572L232 571L232 570L241 569L241 580L250 582L247 579L247 578L252 578L252 588L266.925 583.769L295 597L295 592L299 592L302 600C298.597 600.729 299.013 602.806 299 606L301 607L305 607L304 600L306 605L306 606L310 605L314 607L315 602L320 605L325 603L323 601C327.39 597.711 331.578 595.874 336 600L351 600C351 593.891 365.544 601.699 368 595L369 595L371 597L373 592L389 592L389 589L401 589L401 586L427 580L426 575L431 575L432 570L435 572L442 564L450 564C449.779 557.816 456.115 559.67 459.333 557C461.357 555.321 463.952 549.445 465 547L467 548L473.978 543.262L478.715 532.46L486 523L494 522L501 502L498 499L503 495L502 493L505 492L505 496L506 496L514 478L509 483L508 483L518.981 436L516.812 384.015L511 357L508 357L500 329L505 329L502 331L505 334C506.936 329.666 508.145 327.555 506 323L507 321L511 319L510 316L519 319L520 319C519.454 314.582 518.792 311.438 522 308L521 310L525 308C524.786 301.882 528.487 296.167 535 297L537 288L540 291C547.259 290.762 547.204 286.297 548 280L552 280L552 275C556.373 272.849 557.838 270.876 558 266C566.065 265.904 565.999 262.166 566 255L580 249L578 245L588 236L588 235L588 227C596.963 226.968 596.03 223.624 594 216L602 208C602.033 203.959 604.619 192.57 598.867 191.376C594.97 190.567 589.4 193.984 585 194C584.415 198.475 577.577 197 574 197L575 203L561 203L561 211L555 215C547.917 214.439 536.187 223.305 535 230L530 230C529.719 239.65 515.91 238.986 511 244L514 245C510.221 250.112 505.947 249.999 500 250L500 258L481 264L483 271L482 271L477 270C478.912 279.1 470.757 278.861 467 285L464 285C460.559 279.352 450.75 269.982 444 269L444 266L439 263L420 255L420 252C409.224 251.299 399.252 243.77 388.83 241.298C384.279 240.218 372.935 239.658 369.742 236.397C365.931 232.504 365.001 213.611 365 208L366 208L367 216C374.545 211.109 364.292 201.886 365 195C359.078 192.039 361.599 166.15 365 167L357 142C362.278 140.869 359.466 134.837 356 133C356.424 128.714 355.647 124.594 352 122L351 106L350 106L350 108L349 108L349 91L343 81L343 78L337.75 73.3334L323 76z"/>
<path style="fill:#122b24; stroke:none;" d="M340 77L341 78L340 77z"/>
<path style="fill:#1b4137; stroke:none;" d="M341 78L342 79L341 78M343 80L344 81L343 80M322.333 84.6667L322.667 85.3333L322.333 84.6667z"/>
<path style="fill:#122b24; stroke:none;" d="M347 89L348 90L347 89z"/>
<path style="fill:#1b4137; stroke:none;" d="M348 90L349 91L348 90M348.333 93.6667L348.667 94.3333L348.333 93.6667M320 96L321 97L320 96M318 98L319 99L318 98M348.333 101.667L348.667 102.333L348.333 101.667M350 105L351 106L350 105M313 108L314 109L313 108M310.333 116.667L310.667 117.333L310.333 116.667M353 118L353 122L354 122L353 118z"/>
<path style="fill:#010101; stroke:none;" d="M352 121L353 122L352 121z"/>
<path style="fill:#1b4137; stroke:none;" d="M356.333 127.667L356.667 128.333L356.333 127.667M356 132L357 133L356 132z"/>
<path style="fill:#122b24; stroke:none;" d="M305 135L308 134L305 135z"/>
<path style="fill:#1b4137; stroke:none;" d="M307 134L308 135L307 134z"/>
<path style="fill:#122b24; stroke:none;" d="M304.333 135.667L304.667 136.333L304.333 135.667z"/>
<path style="fill:#1b4137; stroke:none;" d="M306 135L307 136L306 135z"/>
<path style="fill:#122b24; stroke:none;" d="M308 135L309 136L308 135z"/>
<path style="fill:#1b4137; stroke:none;" d="M308 136L309 137L308 136M304.333 137.667L304.667 138.333L304.333 137.667M307 137L308 138L307 137z"/>
<path style="fill:#122b24; stroke:none;" d="M361 138L361 141L362 141L361 138M304 139L305 140L304 139z"/>
<path style="fill:#1b4137; stroke:none;" d="M306 141L307 142L306 141z"/>
<path style="fill:#296353; stroke:none;" d="M361 148L362 153L364 153L365 152L365 148L361 148z"/>
<path style="fill:#122b24; stroke:none;" d="M360 149L361 150L360 149z"/>
<path style="fill:#1b4137; stroke:none;" d="M364 149L365 150L364 149M360 150L361 151L360 150M361.333 152.667L361.667 153.333L361.333 152.667M304 154L305 155L304 154M363 161L364 162L363 161M364 167L365 168L364 167z"/>
<path style="fill:#122b24; stroke:none;" d="M587 191L587 192L590 192L587 191z"/>
<path style="fill:#1b4137; stroke:none;" d="M594 191L595 192L594 191M601 191L602 192L601 191M587 193L588 194L587 193M364 196L365 197L364 196z"/>
<path style="fill:#296353; stroke:none;" d="M366 197C366.263 200.41 366.679 201.901 370 203C369.737 199.59 369.321 198.099 366 197z"/>
<path style="fill:#1b4137; stroke:none;" d="M369 197L370 198L369 197M364 199L365 200L364 199M602.333 200.667L602.667 201.333L602.333 200.667M367.333 203.667L367.667 204.333L367.333 203.667M560.333 203.667L560.667 204.333L560.333 203.667M369 206L370 207L369 206M365.333 208.667L365.667 209.333L365.333 208.667M599 208L600 209L599 208M301 213L302 214L301 213z"/>
<path style="fill:#122b24; stroke:none;" d="M301 214L302 215L301 214z"/>
<path style="fill:#1b4137; stroke:none;" d="M554 214L555 215L554 214M369 215L370 216L369 215z"/>
<path style="fill:#122b24; stroke:none;" d="M301 218L302 219L301 218z"/>
<path style="fill:#1b4137; stroke:none;" d="M301 220L302 221L301 220M595 220L595 223L596 223L595 220M367 221L368 222L367 221M544 221L545 222L544 221M536 222L537 223L536 222M367 223L368 224L367 223M596 223L597 224L596 223M596 225L597 226L596 225M588 227L589 228L588 227z"/>
<path style="fill:#122b24; stroke:none;" d="M371 228L370 230L371 228z"/>
<path style="fill:#1b4137; stroke:none;" d="M297 229L298 230L297 229M371 229L372 230L371 229z"/>
<path style="fill:#296353; stroke:none;" d="M370 234L374 235L374 229L370 234z"/>
<path style="fill:#1b4137; stroke:none;" d="M531 229L532 230L531 229M298 230L299 231L298 230z"/>
<path style="fill:#122b24; stroke:none;" d="M299 230L300 231L299 230z"/>
<path style="fill:#1b4137; stroke:none;" d="M373 230L374 231L373 230M296 231L297 232L296 231z"/>
<path style="fill:#122b24; stroke:none;" d="M375 231L376 232L375 231z"/>
<path style="fill:#1b4137; stroke:none;" d="M375 232L376 233L375 232M296 233L297 234L296 233z"/>
<path style="fill:#122b24; stroke:none;" d="M375 233L376 234L375 233z"/>
<path style="fill:#1b4137; stroke:none;" d="M371.667 234.333L372.333 234.667L371.667 234.333M587 234L588 235L587 234M587 236L588 237L587 236z"/>
<path style="fill:#122b24; stroke:none;" d="M74 237L74 238L77 239L74 237z"/>
<path style="fill:#1b4137; stroke:none;" d="M586 237L587 238L586 237M74.6667 238.333L75.3333 238.667L74.6667 238.333M380 238L381 239L380 238M522 238L523 239L522 238M291 239L292 240L291 239M73.3333 241.667L73.6667 242.333L73.3333 241.667M79 241L80 242L79 241M391 241L392 242L391 241M65 242L66 245L67 245L67 242L65 242M69 242L70 243L69 242M511 242L512 243L511 242z"/>
<path style="fill:#296353; stroke:none;" d="M581 246L585 246L585 242L581 246z"/>
<path style="fill:#1b4137; stroke:none;" d="M511 244L512 245L511 244M579 245L580 246L579 245z"/>
<path style="fill:#122b24; stroke:none;" d="M67 248L68 249L67 248M253 248L254 249L253 248z"/>
<path style="fill:#1b4137; stroke:none;" d="M254 248L253 249L253 250L254 251L255 251L256 250L256 249L254 248z"/>
<path style="fill:#122b24; stroke:none;" d="M255 248L256 249L255 248z"/>
<path style="fill:#1b4137; stroke:none;" d="M103 249L104 250L103 249M264 249L265 250L264 249M410.667 249.333L411.333 249.667L410.667 249.333M510 249L511 250L510 249M578 249L579 250L578 249z"/>
<path style="fill:#122b24; stroke:none;" d="M253 250L254 251L253 250z"/>
<path style="fill:#1b4137; stroke:none;" d="M112 252L113 253L112 252M240.667 252.333L241.333 252.667L240.667 252.333z"/>
<path style="fill:#0c4233; stroke:none;" d="M112 253L113 254L112 253z"/>
<path style="fill:#296353; stroke:none;" d="M238 253L238 258L241 260L243 253L238 253z"/>
<path style="fill:#1b4137; stroke:none;" d="M238 254L239 255L238 254M243.333 254.667L243.667 255.333L243.333 254.667M500 254L501 255L500 254M238 256L239 257L238 256M236 258L237 259L236 258z"/>
<path style="fill:#122b24; stroke:none;" d="M238 258L239 259L238 258z"/>
<path style="fill:#1b4137; stroke:none;" d="M239.333 258.667L239.667 259.333L239.333 258.667M429 258L430 259L429 258M72.3333 259.667L72.6667 260.333L72.3333 259.667z"/>
<path style="fill:#122b24; stroke:none;" d="M228 259L229 260L228 259z"/>
<path style="fill:#1b4137; stroke:none;" d="M229 259L230 264L231 259L229 259M235 259L236 260L235 259M237.333 259.667L237.667 260.333L237.333 259.667z"/>
<path style="fill:#296353; stroke:none;" d="M230.333 260.667L230.667 261.333L230.333 260.667z"/>
<path style="fill:#1b4137; stroke:none;" d="M492 260L493 261L492 260z"/>
<path style="fill:#122b24; stroke:none;" d="M125 262L126 263L125 262M228.333 263.667L228.667 264.333L228.333 263.667M230.333 263.667L230.667 264.333L230.333 263.667M233 263L234 264L233 263z"/>
<path style="fill:#1b4137; stroke:none;" d="M482 263L483 264L482 263z"/>
<path style="fill:#122b24; stroke:none;" d="M131 264L132 265L131 264z"/>
<path style="fill:#1b4137; stroke:none;" d="M238 264L239 265L238 264M481 265L482 266L481 265M565 265L566 266L565 265M477 269L478 270L477 269M477 271L477 275L478 275L477 271z"/>
<path style="fill:#122b24; stroke:none;" d="M149.667 273.333L150.333 273.667L149.667 273.333z"/>
<path style="fill:#1b4137; stroke:none;" d="M555 273L556 274L555 273M552 275L553 276L552 275M455 276L456 277L455 276M552 277L553 278L552 277M206 281L207 282L206 281z"/>
<path style="fill:#296353; stroke:none;" d="M206 282L206 283L211 284C210.308 280.772 208.899 280.98 206 282z"/>
<path style="fill:#1b4137; stroke:none;" d="M164 282L166 284L164 282z"/>
<path style="fill:#122b24; stroke:none;" d="M165 282L166 283L165 282z"/>
<path style="fill:#1b4137; stroke:none;" d="M463 282L464 283L463 282M467 282L468 283L467 282M206 283L206 284L210 285L206 283M166 285L167 286L166 285M211 285L212 286L211 285M547 286L547 290L548 290L547 286z"/>
<path style="fill:#122b24; stroke:none;" d="M208 288L209 289L208 288z"/>
<path style="fill:#1b4137; stroke:none;" d="M540 289L541 290L540 289M546 290L547 291L546 290M199 294L200 295L199 294M101 295L102 296L101 295M183 296L184 297L183 296M190 296L191 297L190 296M532.667 296.333L533.333 296.667L532.667 296.333M106 299L107 300L106 299z"/>
<path style="fill:#122b24; stroke:none;" d="M185 299L186 300L185 299z"/>
<path style="fill:#1b4137; stroke:none;" d="M527 299L528 300L527 299M107 301L108 302L107 301z"/>
<path style="fill:#010101; stroke:none;" d="M191.667 301.333L192.333 301.667L191.667 301.333M370 302C370 309.882 372.573 327.091 365 332L370 343C358.272 343 362 359.434 362 369C362 372.985 360.273 379.987 365 381L367 379L367 375L370 376L368 369L378 371L378 363L384 365L384 360L395 357L395 352L400 352C395.199 339.328 413.951 342.892 416 332C418.732 331.047 420.448 329.322 418 327L419 325L402 316C401.503 311.999 394.79 310.18 391 310C390.211 304.691 379.296 305 375 305L375 304L379 304L370 302z"/>
<path style="fill:#1b4137; stroke:none;" d="M109 304L110 305L109 304M375 304L375 305L378 305L375 304M524 305L525 306L524 305M389 307L390 308L389 307z"/>
<path style="fill:#010101; stroke:none;" d="M270 327L266 327L252 346L256 346L267 357L271 357L271 360L281 362L279 358L285 358L282 365L287 365L287 370L301 379L303 384C309.716 379.493 301.817 377.067 301.731 371.996C301.643 366.722 304 360.748 304 355L303 355L302 360L294 347L300 352L301 352C300.875 347.779 300.317 344.434 296 343C296.535 339.562 297.395 338.073 301 338L301 327C294.201 324.936 294.201 315.064 301 313L301 308L276 321L270 327z"/>
<path style="fill:#1b4137; stroke:none;" d="M521 308L522 309L521 308M523 308L524 309L523 308M391 309L392 310L391 309M522 309L523 310L522 309M293 311L294 312L293 311z"/>
<path style="fill:#122b24; stroke:none;" d="M383 311L383 312L385 314L386 314L383 311z"/>
<path style="fill:#1b4137; stroke:none;" d="M383 312L383 314L385 314L385 312L383 312M120.333 314.667L120.667 315.333L120.333 314.667z"/>
<path style="fill:#122b24; stroke:none;" d="M370 314L371 315L370 314z"/>
<path style="fill:#1b4137; stroke:none;" d="M519.333 314.667L519.667 315.333L519.333 314.667M370 315L371 316L370 315M402 315L403 316L402 315z"/>
<path style="fill:#122b24; stroke:none;" d="M370 316L371 317L370 316z"/>
<path style="fill:#1b4137; stroke:none;" d="M123 317L122 319L124 319L123 317z"/>
<path style="fill:#122b24; stroke:none;" d="M516 317L517 318L516 317z"/>
<path style="fill:#1b4137; stroke:none;" d="M518.333 317.667L518.667 318.333L518.333 317.667M520 317L519 320L520 317z"/>
<path style="fill:#122b24; stroke:none;" d="M520 319L521 320L520 319z"/>
<path style="fill:#1b4137; stroke:none;" d="M274 321L275 322L274 321M507 321L508 322L507 321M370.667 323.333L371.333 323.667L370.667 323.333M506 323L507 326L508 326L508 323L506 323z"/>
<path style="fill:#296353; stroke:none;" d="M370 324L370 330L371 330L372 324L370 324z"/>
<path style="fill:#122b24; stroke:none;" d="M372 325L373 326L372 325z"/>
<path style="fill:#1b4137; stroke:none;" d="M134 326L135 327L134 326M269 326L270 327L269 326z"/>
<path style="fill:#122b24; stroke:none;" d="M272 326L272 327L275 327L272 326z"/>
<path style="fill:#1b4137; stroke:none;" d="M297 326L298 327L297 326M372 326L371 329L372 326z"/>
<path style="fill:#296353; stroke:none;" d="M272.667 327.333L273.333 327.667L272.667 327.333z"/>
<path style="fill:#1b4137; stroke:none;" d="M270 329L270 330L274 329L276 330L276 328L275 327L270 329M506 327L506 330L507 330L506 327M140 329L141 330L140 329z"/>
<path style="fill:#122b24; stroke:none;" d="M265 329L266 330L265 329z"/>
<path style="fill:#296353; stroke:none;" d="M271 329L272 330L271 329M273.333 329.667L273.667 330.333L273.333 329.667z"/>
<path style="fill:#1b4137; stroke:none;" d="M502 329L503 330L502 329M504.333 329.667L504.667 330.333L504.333 329.667M268 330L268 332L270 332L268 330z"/>
<path style="fill:#122b24; stroke:none;" d="M270 330L271 331L270 330M275 330L276 331L275 330z"/>
<path style="fill:#1b4137; stroke:none;" d="M507 330L508 331L507 330M264 331L265 332L264 331z"/>
<path style="fill:#296353; stroke:none;" d="M265 333L269 333L268 335L269 335L270 332L265 333z"/>
<path style="fill:#1b4137; stroke:none;" d="M505 331L505 334L507 331L505 331M266 332L267 333L266 332M416 332L417 333L416 332M267 333L267 335L269 333L267 333M502 333L503 334L502 333z"/>
<path style="fill:#122b24; stroke:none;" d="M269 334L267 335L267 336L269 334z"/>
<path style="fill:#1b4137; stroke:none;" d="M503 334L504 335L503 334z"/>
<path style="fill:#122b24; stroke:none;" d="M298 337L299 338L298 337z"/>
<path style="fill:#1b4137; stroke:none;" d="M367 337L368 338L367 337M502 337L503 338L502 337M406 340L407 341L406 340M408 340L409 341L408 340M152 341L153 342L152 341M404 341L405 342L404 341z"/>
<path style="fill:#122b24; stroke:none;" d="M294 347L294 350L295 350L294 347z"/>
<path style="fill:#1b4137; stroke:none;" d="M295 347L295 350L296 350L295 347z"/>
<path style="fill:#296353; stroke:none;" d="M295 348L296 349L295 348z"/>
<path style="fill:#1b4137; stroke:none;" d="M296 352L297 353L296 352z"/>
<path style="fill:#296353; stroke:none;" d="M387 353L388 357L392 353L387 353z"/>
<path style="fill:#1b4137; stroke:none;" d="M391 352L392 353L391 352M395 352L396 353L395 352M298 354L299 355L298 354M266 355L267 356L266 355M387 355L388 356L387 355M270 357L271 358L270 357M281.667 357.333L282.333 357.667L281.667 357.333M279 358L280 359L279 358M283 358L284 359L283 358z"/>
<path style="fill:#122b24; stroke:none;" d="M284 358L284 361L285 361L284 358z"/>
<path style="fill:#1b4137; stroke:none;" d="M301 359L302 360L301 359M280 362L281 363L280 362M370 368L371 369L370 368M372 368L373 369L372 368z"/>
<path style="fill:#010101; stroke:none;" d="M448 368L451 381L445 380L445 374L437 377L436 379C436.18 384.554 432.887 384.942 428 385L428 390L425 390L425 395L419 393L405 407L395 412C395.132 416.049 393.991 417.359 390 418L390 423L384 423L384 429L370 432L370 440L361 438L362 442L359 443L362 445L361 449C349.532 443.999 347.665 452.707 337.826 455.525C332.268 457.118 327.352 454.708 322 454L317 451L319 455L307 451L285 434C278.85 433.199 262.925 432.094 261 426L266 427C264.554 422.645 260.502 422.144 258 426L256 426L249 412L238 410L235 407L233 404L227 393C222.569 398.533 224 406.295 224 413L222 412L224.414 438.91L232 465L235 465L237 470L236 472C244.324 481.176 251.108 500.793 265 503L269 509L270 509L264 494L265 493L288 507C285.137 517.694 277.697 508.762 271 507C272.76 511.695 276.088 513.659 281 514C281.874 521.04 299.909 525 306 525L306 526L304 527L313 528L313 529L310 529L310 530L329.004 532.995L373 530L372 528L381 527L381 526L379 526L379 525C384.173 524.996 398.242 523.104 399 517C408.239 516.322 429.6 501.526 431 492L437 489L442 476L445 476L451 464L453 451L456 451L456 440L459 440L458.776 395.039L451 368L448 368z"/>
<path style="fill:#1b4137; stroke:none;" d="M368 369L369 370L368 369M301 370L302 371L301 370M374 370L375 371L374 370M368 371L369 372L368 371M301 374L302 375L301 374M445 374L446 375L445 374M449 374L450 375L449 374M367 375L368 376L367 375M157 376L158 377L157 376z"/>
<path style="fill:#122b24; stroke:none;" d="M445 376L446 377L445 376z"/>
<path style="fill:#1b4137; stroke:none;" d="M450 376L450 381L451 381L450 376M155 377L155 381L156 381L155 377z"/>
<path style="fill:#122b24; stroke:none;" d="M450 377L451 378L450 377z"/>
<path style="fill:#1b4137; stroke:none;" d="M445.333 378.667L445.667 379.333L445.333 378.667z"/>
<path style="fill:#122b24; stroke:none;" d="M450 379L451 380L450 379M449 380L450 381L449 380z"/>
<path style="fill:#1b4137; stroke:none;" d="M516 381L517 382L516 381M303 382L304 383L303 382M305.333 382.667L305.667 383.333L305.333 382.667M155.333 391.667L155.667 392.333L155.333 391.667z"/>
<path style="fill:#122b24; stroke:none;" d="M152 393L153 394L152 393z"/>
<path style="fill:#1b4137; stroke:none;" d="M422 393L423 394L422 393z"/>
<path style="fill:#122b24; stroke:none;" d="M150 394L151 395L150 394z"/>
<path style="fill:#296353; stroke:none;" d="M151 394L152 395L151 394z"/>
<path style="fill:#1b4137; stroke:none;" d="M152 394L150 395L150 396L152 394z"/>
<path style="fill:#122b24; stroke:none;" d="M418 394L419 395L418 394z"/>
<path style="fill:#296353; stroke:none;" d="M150 396L153 400L153 396L150 396z"/>
<path style="fill:#1b4137; stroke:none;" d="M230 398L231 399L230 398M150 399L151 400L150 399M152 400L153 401L152 400z"/>
<path style="fill:#010101; stroke:none;" d="M156 401L157 402L156 401z"/>
<path style="fill:#1b4137; stroke:none;" d="M232 401L233 402L232 401M408 403L409 404L408 403z"/>
<path style="fill:#0c4233; stroke:none;" d="M401 407L402 408L401 407z"/>
<path style="fill:#1b4137; stroke:none;" d="M238.667 409.333L239.333 409.667L238.667 409.333M223 412L224 413L223 412M395 414L396 415L395 414M223 419L224 420L223 419z"/>
<path style="fill:#010101; stroke:none;" d="M156 421L156 424L157 424L156 421z"/>
<path style="fill:#1b4137; stroke:none;" d="M155 422L156 423L155 422M258 423L259 424L258 423z"/>
<path style="fill:#122b24; stroke:none;" d="M255 424L256 425L255 424z"/>
<path style="fill:#1b4137; stroke:none;" d="M256.667 425.333L257.333 425.667L256.667 425.333z"/>
<path style="fill:#122b24; stroke:none;" d="M261 426L261 430L262 430L261 426z"/>
<path style="fill:#1b4137; stroke:none;" d="M262 426L263 427L262 426M262 429L263 430L262 429M270 429L268 430L268 431L270 429M266 430L267 431L266 430z"/>
<path style="fill:#122b24; stroke:none;" d="M270.667 430.333L271.333 430.667L270.667 430.333z"/>
<path style="fill:#1b4137; stroke:none;" d="M277.667 431.333L278.333 431.667L277.667 431.333M375 431L376 432L375 431M361 441L362 442L361 441M293 442L293 443L296 443L293 442M359 442L360 443L359 442M296 443L297 444L296 443M516.333 443.667L516.667 444.333L516.333 443.667M359 444L360 445L359 444M298 445L299 446L298 445M301 445L302 446L301 445M303.333 446.667L303.667 447.333L303.333 446.667M361 446L362 447L361 446M516 446L516 449L517 449L516 446M360 447L361 448L360 447M306 448L307 449L306 448z"/>
<path style="fill:#122b24; stroke:none;" d="M360 448L361 449L360 448z"/>
<path style="fill:#0c4233; stroke:none;" d="M308 449L309 450L308 449z"/>
<path style="fill:#010101; stroke:none;" d="M318.667 449.333L319.333 449.667L318.667 449.333z"/>
<path style="fill:#296353; stroke:none;" d="M443 449C443.217 452.605 439.546 458.836 441.136 461.692C444.632 467.971 447.597 458.89 446 455L449 454L446 452L447 449L443 449z"/>
<path style="fill:#122b24; stroke:none;" d="M307 450L308 451L307 450z"/>
<path style="fill:#1b4137; stroke:none;" d="M318 450L319 451L318 450z"/>
<path style="fill:#296353; stroke:none;" d="M347 450L348 451L347 450z"/>
<path style="fill:#1b4137; stroke:none;" d="M348 450L349 451L348 450M443 450L444 451L443 450M446 450L446 452L448 450L446 450M316 451L314 454L316 451M453 451L454 452L453 451z"/>
<path style="fill:#296353; stroke:none;" d="M315 453L315 454L319 454L315 453z"/>
<path style="fill:#122b24; stroke:none;" d="M442 452L443 453L442 452z"/>
<path style="fill:#1b4137; stroke:none;" d="M448 452L449 453L448 452M322 453L323 454L322 453M442 453L443 454L442 453M516 453L517 454L516 453M317.667 454.333L318.333 454.667L317.667 454.333M448 454L449 455L448 454z"/>
<path style="fill:#122b24; stroke:none;" d="M516 454L517 455L516 454z"/>
<path style="fill:#1b4137; stroke:none;" d="M446 455L447 456L446 455M440 458L441 459L440 458M447 458L448 459L447 458M440 462L441 463L440 462M447 462L448 463L447 462M441 463L442 464L441 463M446 463L447 464L446 463M513 463L514 464L513 463M157 465L158 466L157 465M156 466L157 467L156 466z"/>
<path style="fill:#122b24; stroke:none;" d="M163 467L164 468L163 467z"/>
<path style="fill:#1b4137; stroke:none;" d="M158 473L159 474L158 473M158.667 476.333L159.333 476.667L158.667 476.333M513 477L515 479L513 477z"/>
<path style="fill:#122b24; stroke:none;" d="M514 477L515 478L514 477M159 478L160 479L159 478z"/>
<path style="fill:#1b4137; stroke:none;" d="M160 479L161 480L160 479z"/>
<path style="fill:#122b24; stroke:none;" d="M514 479L515 480L514 479z"/>
<path style="fill:#1b4137; stroke:none;" d="M161 480L162 481L161 480M513 480L513 484L514 484L513 480M243 482L244 483L243 482z"/>
<path style="fill:#122b24; stroke:none;" d="M513 484L514 485L513 484M161 485L162 486L161 485z"/>
<path style="fill:#1b4137; stroke:none;" d="M437 485L438 486L437 485M161 486L160 490L164 489L161 486M246 486L247 487L246 486z"/>
<path style="fill:#122b24; stroke:none;" d="M159 488L162 491L162 490L161 488L159 488z"/>
<path style="fill:#1b4137; stroke:none;" d="M511 488L512 489L511 488z"/>
<path style="fill:#122b24; stroke:none;" d="M163 489L164 490L163 489z"/>
<path style="fill:#1b4137; stroke:none;" d="M166 489L167 492L168 492L168 489L166 489M434 489L435 490L434 489M510 491L511 492L510 491M166 492L167 493L166 492M265 493L264 494L266 499L271 498L271 497L265 496L268 494L265 493M502 493L503 494L502 493M167 494L167 498L168 498L167 494z"/>
<path style="fill:#122b24; stroke:none;" d="M268 494L269 495L268 494z"/>
<path style="fill:#1b4137; stroke:none;" d="M506 494L505 497L506 494z"/>
<path style="fill:#122b24; stroke:none;" d="M507.333 494.667L507.667 495.333L507.333 494.667z"/>
<path style="fill:#296353; stroke:none;" d="M265 495L265 496L269 496L265 495z"/>
<path style="fill:#1b4137; stroke:none;" d="M502 495L502 498L503 498L502 495z"/>
<path style="fill:#122b24; stroke:none;" d="M506 496L507 497L506 496z"/>
<path style="fill:#296353; stroke:none;" d="M265 497L266 498L265 497z"/>
<path style="fill:#122b24; stroke:none;" d="M271 497L272 498L271 497M167 498L168 499L167 498z"/>
<path style="fill:#1b4137; stroke:none;" d="M257 498L258 499L257 498z"/>
<path style="fill:#122b24; stroke:none;" d="M265 498L266 499L265 498z"/>
<path style="fill:#1b4137; stroke:none;" d="M272.333 498.667L272.667 499.333L272.333 498.667z"/>
<path style="fill:#296353; stroke:none;" d="M502 498L502 502L505 501L502 498z"/>
<path style="fill:#122b24; stroke:none;" d="M503 498L504 499L503 498z"/>
<path style="fill:#1b4137; stroke:none;" d="M502 499L503 500L502 499M504 499L505 500L504 499M273 500L274 501L273 500z"/>
<path style="fill:#122b24; stroke:none;" d="M425 500L426 501L425 500z"/>
<path style="fill:#1b4137; stroke:none;" d="M169.333 501.667L169.667 502.333L169.333 501.667M404.333 501.667L404.667 502.333L404.333 501.667z"/>
<path style="fill:#296353; stroke:none;" d="M412 502C399.979 498.557 408.03 512.795 412 502z"/>
<path style="fill:#1b4137; stroke:none;" d="M499 501L500 502L499 501M504 501L505 502L504 501M267 502L268 503L267 502z"/>
<path style="fill:#122b24; stroke:none;" d="M503 502L504 503L503 502z"/>
<path style="fill:#1b4137; stroke:none;" d="M268 503L269 504L268 503M278.667 503.333L279.333 503.667L278.667 503.333M169 504L169 507L170 507L169 504z"/>
<path style="fill:#296353; stroke:none;" d="M400 504L402 509L403 505L400 504z"/>
<path style="fill:#1b4137; stroke:none;" d="M405.333 504.667L405.667 505.333L405.333 504.667M411 504L412 505L411 504M500 504L501 505L500 504z"/>
<path style="fill:#122b24; stroke:none;" d="M167.333 505.667L167.667 506.333L167.333 505.667z"/>
<path style="fill:#1b4137; stroke:none;" d="M401 505L402 506L401 505M403 505L403 507L405 507L403 505M409 505L410 506L409 505M499 505L500 506L499 505M284 506L285 507L284 506M410 506L411 507L410 506z"/>
<path style="fill:#122b24; stroke:none;" d="M499 506L500 507L499 506z"/>
<path style="fill:#1b4137; stroke:none;" d="M173 507L173 509L175 509L173 507M273 507L274 508L273 507M285 507L288 510L285 507z"/>
<path style="fill:#296353; stroke:none;" d="M286 507L287 508L286 507z"/>
<path style="fill:#122b24; stroke:none;" d="M287 507L288 508L287 507z"/>
<path style="fill:#1b4137; stroke:none;" d="M401 507L402 508L401 507M405 507L405 508L410 508L405 507M168 508L169 509L168 508M176.333 508.667L176.667 509.333L176.333 508.667M399 508L401 510L399 508z"/>
<path style="fill:#0c4233; stroke:none;" d="M416 508L417 509L416 508z"/>
<path style="fill:#122b24; stroke:none;" d="M168 509L169 510L168 509z"/>
<path style="fill:#1b4137; stroke:none;" d="M290 509L291 510L290 509z"/>
<path style="fill:#122b24; stroke:none;" d="M399 509L400 510L399 509M401 509L402 510L401 509z"/>
<path style="fill:#1b4137; stroke:none;" d="M277.667 510.333L278.333 510.667L277.667 510.333M286.333 510.667L286.667 511.333L286.333 510.667z"/>
<path style="fill:#122b24; stroke:none;" d="M288 510L289 511L288 510z"/>
<path style="fill:#296353; stroke:none;" d="M289 510C289.504 514.887 290.87 518.165 296 519L296 513L292 510L289 510z"/>
<path style="fill:#122b24; stroke:none;" d="M388 510L388 513L389 513L390 510L388 510z"/>
<path style="fill:#1b4137; stroke:none;" d="M496 510L497 511L496 510M288 511L289 516L290 516L288 511M292 511L293 512L292 511M389 511L390 516L391 516L391 511L389 511z"/>
<path style="fill:#122b24; stroke:none;" d="M286 512L287 513L286 512z"/>
<path style="fill:#1b4137; stroke:none;" d="M293 512L293 513L296 513L293 512z"/>
<path style="fill:#296353; stroke:none;" d="M390 512L390 517L391 519C394.5 516.467 394.148 513.375 390 512z"/>
<path style="fill:#1b4137; stroke:none;" d="M393 512L394 517L395 517L393 512z"/>
<path style="fill:#122b24; stroke:none;" d="M394 512L395 513L394 512M395 513L395 517L396 517L395 513z"/>
<path style="fill:#1b4137; stroke:none;" d="M280 514L281 515L280 514z"/>
<path style="fill:#122b24; stroke:none;" d="M389.333 514.667L389.667 515.333L389.333 514.667M288 515L289 516L288 515z"/>
<path style="fill:#1b4137; stroke:none;" d="M404 516L405 517L404 516M390.667 517.333L391.333 517.667L390.667 517.333z"/>
<path style="fill:#122b24; stroke:none;" d="M394 517L395 518L394 517z"/>
<path style="fill:#1b4137; stroke:none;" d="M399 517L400 518L399 517M493 517L494 518L493 517z"/>
<path style="fill:#0c4233; stroke:none;" d="M285 518L286 519L285 518z"/>
<path style="fill:#1b4137; stroke:none;" d="M372 518L372 522L375 521L372 518M392 518L393 519L392 518M293 519L294 520L293 519z"/>
<path style="fill:#122b24; stroke:none;" d="M294 519L295 520L294 519z"/>
<path style="fill:#296353; stroke:none;" d="M366 521L365 524L365 525C369.946 528.138 377.343 523.175 372 522L373 519L366 521z"/>
<path style="fill:#1b4137; stroke:none;" d="M367 520L368 521L367 520z"/>
<path style="fill:#296353; stroke:none;" d="M374 520L375 521L374 520z"/>
<path style="fill:#122b24; stroke:none;" d="M365 521L366 522L365 521z"/>
<path style="fill:#1b4137; stroke:none;" d="M368 521L369 522L368 521M365 522L365 524L367 522L365 522M490 522L491 523L490 522M328.667 523.333L329.333 523.667L328.667 523.333z"/>
<path style="fill:#296353; stroke:none;" d="M330 523.89C325.814 524.068 325.705 529.486 330 529.623C334.391 529.764 334.207 523.712 330 523.89z"/>
<path style="fill:#1b4137; stroke:none;" d="M332 523L333 524L332 523M333 524L334 525L333 524z"/>
<path style="fill:#122b24; stroke:none;" d="M374 524L375 525L374 524z"/>
<path style="fill:#1b4137; stroke:none;" d="M305 525L306 526L305 525M336 525L337 526L336 525z"/>
<path style="fill:#296353; stroke:none;" d="M337 525L337 530L337 525z"/>
<path style="fill:#1b4137; stroke:none;" d="M338 525L339 526L338 525M365 525L366 526L365 525M379 525L380 526L379 525M339 527L338 529L339 527M485 527L486 528L485 527z"/>
<path style="fill:#122b24; stroke:none;" d="M339 528L340 529L339 528z"/>
<path style="fill:#1b4137; stroke:none;" d="M327 529L328 530L327 529M333 529L334 530L333 529M192 531L193 532L192 531M322 531L323 532L322 531M478 531L479 532L478 531M191 532L192 533L191 532M191 534L192 535L191 534M194 534L195 535L194 534M193 535L194 538L193 535M200.667 544.333L201.333 544.667L200.667 544.333M203.667 544.333L204.333 544.667L203.667 544.333M468.333 545.667L468.667 546.333L468.333 545.667M199.333 546.667L199.667 547.333L199.333 546.667M212 547L213 548L212 547M465 547L466 548L465 547z"/>
<path style="fill:#122b24; stroke:none;" d="M467 547L468 548L467 547M199 548L200 549L199 548z"/>
<path style="fill:#1b4137; stroke:none;" d="M205 549L206 550L205 549M201 550L202 551L201 550M208 550L209 551L208 550z"/>
<path style="fill:#122b24; stroke:none;" d="M201 551L202 552L201 551z"/>
<path style="fill:#1b4137; stroke:none;" d="M209.667 551.333L210.333 551.667L209.667 551.333M222 558L223 559L222 558M223 562L224 563L223 562M449 562L450 563L449 562z"/>
<path style="fill:#122b24; stroke:none;" d="M229 568L230 569L229 568z"/>
<path style="fill:#1b4137; stroke:none;" d="M230 568L231 569L230 568z"/>
<path style="fill:#122b24; stroke:none;" d="M231 568L232 569L231 568z"/>
<path style="fill:#1b4137; stroke:none;" d="M441 568L442 569L441 568M229 569L230 570L229 569M233 569L232 571L233 569z"/>
<path style="fill:#122b24; stroke:none;" d="M229 570L230 571L229 570M233 570L234 571L233 570M432 570L433 571L432 570z"/>
<path style="fill:#0c4233; stroke:none;" d="M434 570L435 571L434 570z"/>
<path style="fill:#1b4137; stroke:none;" d="M231 571L232 572L231 571M432 571L433 572L432 571M237 573L238 574L237 573M233 574L234 575L233 574M236 574L237 575L236 574z"/>
<path style="fill:#010101; stroke:none;" d="M245 575L246 576L245 575z"/>
<path style="fill:#1b4137; stroke:none;" d="M427 577L427 580L428 580L427 577z"/>
<path style="fill:#122b24; stroke:none;" d="M247 578L248 579L247 578z"/>
<path style="fill:#010101; stroke:none;" d="M256.333 580.667L256.667 581.333L256.333 580.667z"/>
<path style="fill:#1b4137; stroke:none;" d="M248 582L249 583L248 582M254 588L255 589L254 588M259 590L262 589L259 590z"/>
<path style="fill:#296353; stroke:none;" d="M262 588L260 589L260 590L262 588z"/>
<path style="fill:#1b4137; stroke:none;" d="M263.333 588.667L263.667 589.333L263.333 588.667M276 588L277 589L276 588M401.333 588.667L401.667 589.333L401.333 588.667M389 589L390 590L389 589z"/>
<path style="fill:#122b24; stroke:none;" d="M402 589L403 590L402 589z"/>
<path style="fill:#1b4137; stroke:none;" d="M285 591L286 592L285 591M373 592L374 593L373 592z"/>
<path style="fill:#122b24; stroke:none;" d="M262 593L262 596L267 596L267 593L262 593z"/>
<path style="fill:#1b4137; stroke:none;" d="M263 594L263 595L266 595L263 594M372 594L373 595L372 594M371 596L372 597L371 596M324 597L325 598L324 597M328.667 597.333L329.333 597.667L328.667 597.333M332.667 597.333L333.333 597.667L332.667 597.333M335.333 598.667L335.667 599.333L335.333 598.667z"/>
<path style="fill:#010101; stroke:none;" d="M339 598L340 599L339 598z"/>
<path style="fill:#1b4137; stroke:none;" d="M324.667 599.333L325.333 599.667L324.667 599.333M333 599L334 600L333 599z"/>
<path style="fill:#296353; stroke:none;" d="M334 599L335 600L334 599z"/>
<path style="fill:#1b4137; stroke:none;" d="M338 599L339 600L338 599M359 599L359 600L364 600L359 599z"/>
<path style="fill:#010101; stroke:none;" d="M304 600L307 605L308 604L304 600z"/>
<path style="fill:#1b4137; stroke:none;" d="M305 600L306 601L305 600z"/>
<path style="fill:#122b24; stroke:none;" d="M324 600L325 601L324 600z"/>
<path style="fill:#1b4137; stroke:none;" d="M323.667 601.333L324.333 601.667L323.667 601.333M328 602L328 604L330 604L330 602L328 602M317 603L319 605L319 603L317 603M320 605L323 603L320 605M324 603L325 604L324 603M305 604L307 607L305 604z"/>
<path style="fill:#122b24; stroke:none;" d="M307 604L308 605L307 604z"/>
<path style="fill:#1b4137; stroke:none;" d="M300 605L305 608L305 607L300 605M308 605L308 607L310 605L308 605M314 605L315 606L314 605z"/>
<path style="fill:#122b24; stroke:none;" d="M314 606L315 607L314 606M300 607L301 608L300 607z"/>
</svg>
