<?xml version="1.0" standalone="yes"?>
<svg xmlns="http://www.w3.org/2000/svg" width="688" height="688">
<path style="fill:#010101; stroke:none;" d="M0 0L0 688L688 688L688 0L0 0z"/>
<path style="fill:#811f27; stroke:none;" d="M204 107L197 106C196.122 109.69 194.883 114.276 198 117L198 118C191.149 119.143 195.645 124.155 196 129L191 129L193 136C188.382 137.206 184.363 139.154 183 144C187.136 147.076 187.944 149.965 188 155L183 155L188 166L184 168L181 166L181 171L183 170L181 192L174 189L175 195L172 198C168.808 198.135 168.135 198.808 168 202L171 202L172 198L178 201L178 202L167 208L169 213C166.627 216.193 168.427 217.797 170 221L162 219L169 229L169 239L168 241L162 242C162.52 249.842 162.988 255.618 159 263L162 266L152 263L159 281L157 289C153.136 289.3 151.652 290.089 151 294L154 294L151 303C147.44 302.453 146.581 303.51 146 307L149 307L149 313C142.514 313.005 136.325 317.111 146 318L146 331L144 329L143 329L142 329L139 329L138 329L136 330L138 336L143 336L143 339L138 339L138 344L143 344L138 360L138 355L133 355L133 360L137 360C134.539 362.349 133.556 362.209 131 360L129 360L128 365L137 368L137 371L133 371L133 376L129 374C128.033 377.278 127.242 380.589 130 383L130 384C127.295 386.371 128.92 388.971 130 392C125.128 392.158 119.192 395.681 125 400L125 401L125 402C121.728 404.649 121.854 419.723 125 422L125 423C115.391 423.734 123.33 431.715 116 434L116 439L112 439L112 444L108 442L109 460L114 463L107 476C99.7606 476.578 103.316 480.947 104 486L107 486L102 510L94 513L91 520L91 521L99 525L101 531L107 531L107 534L114 534L115 541L124 541L124 537L119 537L120 533L132 534L131 538C140.275 535.099 145.827 533.415 155 537L155 541L158 541L159 534C162.722 533.72 165.195 530.814 169 531.028C172.771 531.24 174.952 534.637 178.972 533.889C182.39 533.253 184.12 530.417 188 531.111C191.522 531.742 194.503 535.385 198.194 535.583C200.759 535.721 200.91 532.588 203.083 532.056C206.389 531.246 209.735 536.902 211 531L214 534C221.058 531.521 233.667 541.036 237 531L240 531L240 534L260 539C265.23 533.741 272.803 540.823 279 542C279.69 538.696 279.921 536.912 277 535L277 534L297 531L294 536L299 534L312 534L316 534C318.752 530.11 325.113 534.77 329 536L330 531L333 536L336 539L345 542L345 541L343 539L356 541L351 534L368 532L371 534L371 539L377 539L377 531C381.264 532.71 382.183 534.077 386 531L385 536L392 537L391 541L398 541C397.412 537.597 396.351 536.728 393 536L393 531C401.723 531.006 419.717 532.529 426 539L430 537L430 536L428 532L429 532C435.213 539.156 443.121 534.452 449 531C448.495 535.394 448.033 538.169 453 539L453 534C456.194 533.987 458.271 534.403 459 531L466 534L469 531C472.447 536.418 479.141 535.23 485 536L485 531L486 531C490.899 538.181 500.459 533.46 508 534L512 531L512 534C519.027 533.912 529.049 531.873 533 539C536.707 538.499 538.785 537.643 540 534L562 534L562 539L565 539L584 541L582 534L596 539L596 534L601 532L602 532L604 534C609.904 528.416 617.638 528.487 614 518C617.474 517.423 618.423 516.474 619 513L616 510L608 510L603 502L596 494L587 489C583.423 478.15 573.917 481.799 566 478L559 464L551 463L551 460L547 458L546 458L545 458L543 460L540 450L535 450C534.875 446.122 534.498 443.928 531 442L531 446L527 447L529 439L525 440L527 444L519 442L519 441L524 441L522 434L514 441L511 434L504 434L506 426L501 429L498 426L503 421L496 421L494 425L478 409L479 405L475 405L467 405C467 398.044 464.43 387.486 472 384L472 365L477 361L477 352L484 354L484 347L490 346L485 342L485 339L490 339L490 334L485 334L488 331L486 321C491.613 319.799 489.429 314.003 488 310C493.517 308.441 496.274 298.823 494 294L499 295L498 281L505 284L504 273L509 273L503 260C507.69 259.626 510.556 256.323 506 253L509 249C515.545 248.006 513.004 243.074 511 239C515.469 238.369 527.273 232.087 518 229L517 213L522 212L523 215L529 212L526 205L530 204L525 187C535.306 186.178 541.027 175.898 533 168C537.952 166.939 535.208 162.635 532 161L532 160L538 156L532 155L529 147C520.534 142.249 516.678 139.859 507 143L508 147L488 150L489 158L472 157L473 160C467.89 160.001 463.281 159.128 462 165L452 160L448 166L447 163L444 163L435 166L435 171L424 171L424 168L420 168L420 171L414 171L415 176C412.253 174.427 409.48 172.393 407 175L402 176L401 176L400 176L396 174L396 178L395 178L391 176L392 181L388 181L388 186L367 186L366 186L365 186L363 184C359.077 189.275 356.545 187.422 351 188L351 189L354 191C349.735 192.07 346.795 192.233 346 197C341.898 197 334.04 195.147 333 200L328 195L327 195C324.539 196.51 321.548 197.741 321 194L317 200L316 197L312 197L314 205L310 203L311 208L298 208L298 205L287 208L283 205L284 210L278 205L277 205L275 208L278 209L278 210L270 208L271 213C261.287 208.685 262.52 214.812 261 223L259 221L256 223L254 210L251 209C258.181 201.388 251.77 195.347 248 189L252 190L246 181L246 180L246 179C247.858 177.37 247.982 175.915 246.58 173.661C241.571 165.607 239.022 159.596 238 150L235 150L233 141L230.431 128L233 119L240 122L237 120L236 115L235 115L233 119L227 116C226.339 107.293 218.763 104.089 211 105L211 100C206.902 101.078 204.717 102.736 204 107z"/>
<path style="fill:#5b161c; stroke:none;" d="M211 102L212 103L211 102M216 103L217 104L216 103z"/>
<path style="fill:#4c1217; stroke:none;" d="M198 105L199 106L198 105z"/>
<path style="fill:#5b161c; stroke:none;" d="M220 105L221 106L220 105M196 107L197 108L196 107z"/>
<path style="fill:#4c1217; stroke:none;" d="M189 109L190 110L189 109z"/>
<path style="fill:#5b161c; stroke:none;" d="M189 111L190 112L192 109L189 111z"/>
<path style="fill:#811f27; stroke:none;" d="M190 110L191 111L190 110z"/>
<path style="fill:#3a0e11; stroke:none;" d="M189 111L190 112L189 111z"/>
<path style="fill:#4c1217; stroke:none;" d="M191 111L192 112L191 111z"/>
<path style="fill:#5b161c; stroke:none;" d="M234 115L235 116L234 115z"/>
<path style="fill:#4c1217; stroke:none;" d="M236 115L237 116L236 115z"/>
<path style="fill:#5b161c; stroke:none;" d="M233 117L234 118L233 117z"/>
<path style="fill:#3a0e11; stroke:none;" d="M237 117L238 118L237 117z"/>
<path style="fill:#5b161c; stroke:none;" d="M237.333 118.667L237.667 119.333L237.333 118.667z"/>
<path style="fill:#4c1217; stroke:none;" d="M233 119L234 120L233 119M239 119L240 120L239 119z"/>
<path style="fill:#5b161c; stroke:none;" d="M236 121L239 123L236 121M193 122L194 123L193 122M232 122L233 123L232 122z"/>
<path style="fill:#010101; stroke:none;" d="M228.333 123.667L228.667 124.333L228.333 123.667z"/>
<path style="fill:#5b161c; stroke:none;" d="M187.333 137.667L187.667 138.333L187.333 137.667M516 139L517 140L516 139z"/>
<path style="fill:#4c1217; stroke:none;" d="M517 139L518 140L517 139z"/>
<path style="fill:#5b161c; stroke:none;" d="M183 140L184 141L183 140M531.333 141.667L531.667 142.333L531.333 141.667z"/>
<path style="fill:#811f27; stroke:none;" d="M532.333 141.667L532.667 142.333L532.333 141.667z"/>
<path style="fill:#5b161c; stroke:none;" d="M533.333 141.667L533.667 142.333L533.333 141.667M183 142L184 143L183 142z"/>
<path style="fill:#3a0e11; stroke:none;" d="M506 143L507 144L506 143z"/>
<path style="fill:#4c1217; stroke:none;" d="M506 144L507 145L506 144M536 146L538 149L536 146z"/>
<path style="fill:#811f27; stroke:none;" d="M537.333 146.667L537.667 147.333L537.333 146.667z"/>
<path style="fill:#5b161c; stroke:none;" d="M538.333 146.667L538.667 147.333L538.333 146.667z"/>
<path style="fill:#010101; stroke:none;" d="M507 148L511 150L507 148z"/>
<path style="fill:#5b161c; stroke:none;" d="M528 148L529 149L528 148z"/>
<path style="fill:#3a0e11; stroke:none;" d="M536 148L537 149L536 148M538 148L539 149L538 148z"/>
<path style="fill:#5b161c; stroke:none;" d="M529 149L530 150L529 149z"/>
<path style="fill:#010101; stroke:none;" d="M189.333 153.667L189.667 154.333L189.333 153.667z"/>
<path style="fill:#5b161c; stroke:none;" d="M239 153L239 157L240 157L239 153z"/>
<path style="fill:#811f27; stroke:none;" d="M240 153L243 157L240 153z"/>
<path style="fill:#5b161c; stroke:none;" d="M242 153L242 156L243 156L242 153z"/>
<path style="fill:#811f27; stroke:none;" d="M464 153L464 157L469 153L464 153z"/>
<path style="fill:#5b161c; stroke:none;" d="M464 154L465 155L464 154M468 156L469 157L468 156M466 157L467 158L466 157z"/>
<path style="fill:#4c1217; stroke:none;" d="M467 157L468 158L467 157z"/>
<path style="fill:#5b161c; stroke:none;" d="M488 157L489 158L488 157M480 158L481 159L480 158M537.333 158.667L537.667 159.333L537.333 158.667M240.333 160.667L240.667 161.333L240.333 160.667M451 162L452 163L451 162M450 163L451 164L450 163M461 163L462 164L461 163z"/>
<path style="fill:#4c1217; stroke:none;" d="M418 164L419 165L418 164z"/>
<path style="fill:#5b161c; stroke:none;" d="M419 164L418 165L418 166L419 167L420 167L421 166L421 165L419 164z"/>
<path style="fill:#3a0e11; stroke:none;" d="M420 164L421 165L420 164z"/>
<path style="fill:#811f27; stroke:none;" d="M419 165L420 166L419 165z"/>
<path style="fill:#5b161c; stroke:none;" d="M180 166L180 170L181 170L180 166z"/>
<path style="fill:#4c1217; stroke:none;" d="M418 166L419 167L418 166z"/>
<path style="fill:#5b161c; stroke:none;" d="M423 169L424 170L423 169M427 169L428 170L427 169M182 170L183 171L182 170M537 172L538 173L537 172M405 174L406 175L405 174M414 174L415 175L414 174z"/>
<path style="fill:#4c1217; stroke:none;" d="M395 176L396 177L395 176z"/>
<path style="fill:#5b161c; stroke:none;" d="M537 176L538 177L537 176M395 177L396 178L395 177M536 177L537 178L536 177z"/>
<path style="fill:#010101; stroke:none;" d="M244 178L245 179L244 178z"/>
<path style="fill:#4c1217; stroke:none;" d="M535 178L536 179L535 178z"/>
<path style="fill:#5b161c; stroke:none;" d="M395 179L396 180L395 179z"/>
<path style="fill:#010101; stroke:none;" d="M397.333 179.667L397.667 180.333L397.333 179.667M394.667 180.333L395.333 180.667L394.667 180.333z"/>
<path style="fill:#811f27; stroke:none;" d="M355 183L355 185L361 185L361 182L355 183z"/>
<path style="fill:#5b161c; stroke:none;" d="M360 183L361 184L360 183M365 184L366 185L365 184M534.333 184.667L534.667 185.333L534.333 184.667M361 186L362 187L361 186z"/>
<path style="fill:#4c1217; stroke:none;" d="M529 186L530 187L529 186z"/>
<path style="fill:#5b161c; stroke:none;" d="M252 187L251 191L252 187z"/>
<path style="fill:#3a0e11; stroke:none;" d="M354 187L355 188L354 187z"/>
<path style="fill:#5b161c; stroke:none;" d="M354 188L355 189L354 188M175 189L176 190L175 189z"/>
<path style="fill:#3a0e11; stroke:none;" d="M172 190L173 191L172 190z"/>
<path style="fill:#5b161c; stroke:none;" d="M353 190L354 191L353 190M172.333 191.667L172.667 192.333L172.333 191.667M346 192L347 193L346 192M320 195L321 196L320 195M168 197L169 198L168 197M170 197L171 198L170 197z"/>
<path style="fill:#4c1217; stroke:none;" d="M167 198L168 199L167 198M172 198L173 199L172 198M173 199L174 200L173 199z"/>
<path style="fill:#5b161c; stroke:none;" d="M167 200L168 201L167 200M171.333 200.667L171.667 201.333L171.333 200.667M253 200L254 201L253 200z"/>
<path style="fill:#4c1217; stroke:none;" d="M529 200L530 201L529 200z"/>
<path style="fill:#5b161c; stroke:none;" d="M529 201L530 202L529 201M173 202L174 203L173 202z"/>
<path style="fill:#010101; stroke:none;" d="M522 202L526 205L522 202z"/>
<path style="fill:#5b161c; stroke:none;" d="M309 204L310 205L309 204M276.333 205.667L276.667 206.333L276.333 205.667z"/>
<path style="fill:#3a0e11; stroke:none;" d="M278 205L279 206L278 205z"/>
<path style="fill:#4c1217; stroke:none;" d="M170 206L171 207L170 206z"/>
<path style="fill:#5b161c; stroke:none;" d="M278.333 206.667L278.667 207.333L278.333 206.667z"/>
<path style="fill:#4c1217; stroke:none;" d="M271.667 207.333L272.333 207.667L271.667 207.333z"/>
<path style="fill:#5b161c; stroke:none;" d="M287 207L288 208L287 207M280 208L281 209L280 208z"/>
<path style="fill:#010101; stroke:none;" d="M520.667 208.333L521.333 208.667L520.667 208.333z"/>
<path style="fill:#5b161c; stroke:none;" d="M528.333 208.667L528.667 209.333L528.333 208.667M267 210L268 211L267 210z"/>
<path style="fill:#010101; stroke:none;" d="M285 210L288 213L285 210M522 210L523 211L522 210z"/>
<path style="fill:#5b161c; stroke:none;" d="M253 211L254 212L253 211z"/>
<path style="fill:#4c1217; stroke:none;" d="M522 211L523 212L522 211z"/>
<path style="fill:#5b161c; stroke:none;" d="M523 211L524 212L523 211M521 212L522 213L521 212z"/>
<path style="fill:#4c1217; stroke:none;" d="M527 212L528 213L527 212z"/>
<path style="fill:#5b161c; stroke:none;" d="M167 213L168 214L167 213M522.333 213.667L522.667 214.333L522.333 213.667z"/>
<path style="fill:#4c1217; stroke:none;" d="M163 218L164 219L163 218z"/>
<path style="fill:#5b161c; stroke:none;" d="M164 218L165 219L164 218M162 222L163 223L162 222M164 223L165 224L164 223z"/>
<path style="fill:#010101; stroke:none;" d="M512 229L512 230L518 230L512 229z"/>
<path style="fill:#4c1217; stroke:none;" d="M521 229L522 230L521 229z"/>
<path style="fill:#3a0e11; stroke:none;" d="M517 230L518 231L517 230z"/>
<path style="fill:#5b161c; stroke:none;" d="M521.333 234.667L521.667 235.333L521.333 234.667z"/>
<path style="fill:#4c1217; stroke:none;" d="M167 237L168 238L167 237z"/>
<path style="fill:#5b161c; stroke:none;" d="M515.333 237.667L515.667 238.333L515.333 237.667z"/>
<path style="fill:#4c1217; stroke:none;" d="M519.667 237.333L520.333 237.667L519.667 237.333z"/>
<path style="fill:#811f27; stroke:none;" d="M517 239L517 240L521 238L517 239z"/>
<path style="fill:#3a0e11; stroke:none;" d="M521 238L522 239L521 238z"/>
<path style="fill:#5b161c; stroke:none;" d="M520.333 239.667L520.667 240.333L520.333 239.667z"/>
<path style="fill:#4c1217; stroke:none;" d="M521 239L522 240L521 239z"/>
<path style="fill:#5b161c; stroke:none;" d="M167 240L168 241L167 240z"/>
<path style="fill:#4c1217; stroke:none;" d="M517 240L518 241L517 240z"/>
<path style="fill:#3a0e11; stroke:none;" d="M521 240L522 241L521 240z"/>
<path style="fill:#811f27; stroke:none;" d="M156 245L156 249L157 249L156 245z"/>
<path style="fill:#5b161c; stroke:none;" d="M509 249L510 250L509 249z"/>
<path style="fill:#010101; stroke:none;" d="M426 256L419 258C419.019 263.327 419.324 266.605 425 268L426 256z"/>
<path style="fill:#5b161c; stroke:none;" d="M422 257L423 258L422 257M503 260L504 261L503 260z"/>
<path style="fill:#4c1217; stroke:none;" d="M159 261L160 262L159 261z"/>
<path style="fill:#5b161c; stroke:none;" d="M160 262L161 263L160 262M503 262L504 263L503 262z"/>
<path style="fill:#010101; stroke:none;" d="M405 263L406 266L399 265L404 272L394 276C391.426 263.987 374.2 278.037 370 278.889C365.042 279.895 359.061 279 354 279L354 280L357 281L357 283L348 282L347 284L348 289L343 289L345 285L345 284L335 286L335 292L330 292L330 289L324 289L319 297L324 298C321.132 303.019 317.543 299.85 314 297L309 300L310 306C304.291 303.708 288.471 293.676 286 305L278 305L278 308C280.289 308.711 283.614 312.179 278.961 312.384C275.76 312.525 272.456 310.112 269 310L268 316L264 315L266 320L259 318L261 313C257.946 313.654 258.064 315.007 258 318C253.07 315.435 246.002 309.627 243 318L239 316L238 316L241 322L224 321L224 326L222 326L214 323L214 329L217 329L217 334L210 331L208 331L207 332L214 344L206 342L205 364L199 363C200.027 367.13 201.855 369.769 206 371L206 376L199 373C198.996 378.468 199.306 382.994 193 384L191 387L191 388L191 389L191 405L196 405L198 411L197 412L191 410L196 417L196 419L195 420L189 418L190 413L189 413L178.528 435.261L180 447L175 447L183 457L178 454L172 468L202 470L201 465L206 468L209 468C212.696 461.099 217.84 463.548 224 465L224 468L226 468L226 465L230 465L230 462L225 462L225 458L235 460L235 465L243 463C242.381 457.82 241.905 455.68 248 456C248 459.363 247.284 462.204 251 463L249 458L260 460C260.191 450.032 269.093 460.911 272 463C272.107 458.583 272.457 455.435 277 454L276 457L291 463C293.618 458.964 297.096 460.505 301 462L301 455L315 457L315 456L307 450L341 457L341 452L345 452L345 455L349 455L349 452L356 455L354 447L361 450L362 450L359 445L359 443L360 442L372 444L375 435L372 428C378.734 428.035 369.363 420.234 367 419L367 417L368 416L374 420L375 420L375 415L380 415L377 409L383 408L383 407L383 391L388 392L385 389L385 384L388 384L388 378L385 378L384 363L391 367L388 360L396 360L401 344L396 344L396 339L401 339L396 336L400 331L404 334C403.598 330.507 402.883 328.08 406 326L406 319L406 318C403.318 316.228 403.318 314.772 406 313L402 304C404.276 303.734 408.499 305.045 410.393 303.844C412.771 302.336 411.502 297.339 411.666 295C412.067 289.286 413.645 286.295 419 284L422 273L405 263z"/>
<path style="fill:#3a0e11; stroke:none;" d="M412 263L413 264L412 263M151 264L152 265L151 264z"/>
<path style="fill:#5b161c; stroke:none;" d="M151 265L152 266L151 265M402 265L402 266L405 266L402 265z"/>
<path style="fill:#4c1217; stroke:none;" d="M405 265L406 266L405 265z"/>
<path style="fill:#3a0e11; stroke:none;" d="M151 266L152 267L151 266z"/>
<path style="fill:#5b161c; stroke:none;" d="M152.667 267.333L153.333 267.667L152.667 267.333M421 267L422 268L421 267M403.333 270.667L403.667 271.333L403.333 270.667M417 270L418 271L417 270z"/>
<path style="fill:#4c1217; stroke:none;" d="M410 272L411 273L410 272z"/>
<path style="fill:#5b161c; stroke:none;" d="M411 272L410 273L410 274L411 275L412 275L413 274L413 273L411 272z"/>
<path style="fill:#4c1217; stroke:none;" d="M412 272L413 273L412 272z"/>
<path style="fill:#811f27; stroke:none;" d="M411 273L412 274L411 273z"/>
<path style="fill:#3a0e11; stroke:none;" d="M410 274L411 275L410 274z"/>
<path style="fill:#4c1217; stroke:none;" d="M412 274L413 275L412 274z"/>
<path style="fill:#5b161c; stroke:none;" d="M154 275L155 276L154 275M394 275L395 276L394 275z"/>
<path style="fill:#811f27; stroke:none;" d="M376 276L375 281L380 277L376 276z"/>
<path style="fill:#5b161c; stroke:none;" d="M378 276L379 277L378 276M360 278L361 279L360 278M379 279L380 280L379 279M419 279L420 280L419 279z"/>
<path style="fill:#811f27; stroke:none;" d="M370 280L371 284L373 284L374 280L370 280z"/>
<path style="fill:#4c1217; stroke:none;" d="M374 280L375 281L374 280M379 280L380 281L379 280z"/>
<path style="fill:#3a0e11; stroke:none;" d="M407 280L408 281L407 280z"/>
<path style="fill:#5b161c; stroke:none;" d="M408.667 280.333L409.333 280.667L408.667 280.333M350 281L351 282L350 281M374 281L375 282L374 281z"/>
<path style="fill:#4c1217; stroke:none;" d="M407 281L410 283L410 282L407 281z"/>
<path style="fill:#811f27; stroke:none;" d="M408.667 281.333L409.333 281.667L408.667 281.333z"/>
<path style="fill:#4c1217; stroke:none;" d="M356 282L357 283L356 282M374 282L375 283L374 282z"/>
<path style="fill:#3a0e11; stroke:none;" d="M407 282L408 283L407 282z"/>
<path style="fill:#5b161c; stroke:none;" d="M352 283L353 284L352 283z"/>
<path style="fill:#4c1217; stroke:none;" d="M370 283L371 284L370 283z"/>
<path style="fill:#5b161c; stroke:none;" d="M373 283L374 284L373 283M502 283L503 284L502 283M505 283L506 284L505 283z"/>
<path style="fill:#811f27; stroke:none;" d="M357 284L357 289L361 289L361 284L357 284z"/>
<path style="fill:#5b161c; stroke:none;" d="M343 285L344 286L343 285M330 291L331 292L330 291M334 291L335 292L334 291z"/>
<path style="fill:#010101; stroke:none;" d="M493 293L494 294L493 293z"/>
<path style="fill:#5b161c; stroke:none;" d="M498 293L500 295L498 293z"/>
<path style="fill:#4c1217; stroke:none;" d="M499 293L500 294L499 293M498 295L499 296L498 295z"/>
<path style="fill:#3a0e11; stroke:none;" d="M499 295L500 296L499 295z"/>
<path style="fill:#5b161c; stroke:none;" d="M321 297L322 298L321 297z"/>
<path style="fill:#010101; stroke:none;" d="M298 298L299 299L298 298z"/>
<path style="fill:#5b161c; stroke:none;" d="M315 298L316 299L315 298M323 298L324 299L323 298M314 300L312 303L313 304L314 300M322 300L322 302L324 300L322 300M151 301L152 302L151 301M297 301L298 302L297 301z"/>
<path style="fill:#811f27; stroke:none;" d="M313 301L314 302L313 301z"/>
<path style="fill:#5b161c; stroke:none;" d="M319.667 301.333L320.333 301.667L319.667 301.333z"/>
<path style="fill:#4c1217; stroke:none;" d="M146 302L147 303L146 302z"/>
<path style="fill:#5b161c; stroke:none;" d="M150 302L151 303L150 302z"/>
<path style="fill:#811f27; stroke:none;" d="M314 302L314 304L316 302L314 302z"/>
<path style="fill:#3a0e11; stroke:none;" d="M312 303L313 304L312 303z"/>
<path style="fill:#5b161c; stroke:none;" d="M315 303L316 304L315 303M305 304L306 305L305 304z"/>
<path style="fill:#4c1217; stroke:none;" d="M402.333 304.667L402.667 305.333L402.333 304.667z"/>
<path style="fill:#5b161c; stroke:none;" d="M403 304L403 307L404 307L403 304M286 305L287 306L286 305M308.667 305.333L309.333 305.667L308.667 305.333M282 309L283 310L282 309M275 310L276 311L275 310z"/>
<path style="fill:#4c1217; stroke:none;" d="M275 311L276 312L275 311M282 311L283 312L282 311z"/>
<path style="fill:#5b161c; stroke:none;" d="M281 312L282 313L281 312M403 313L404 314L403 313M139 314L140 315L139 314z"/>
<path style="fill:#4c1217; stroke:none;" d="M244 314L245 315L244 314z"/>
<path style="fill:#5b161c; stroke:none;" d="M264 314L265 315L264 314z"/>
<path style="fill:#3a0e11; stroke:none;" d="M266 315L267 316L266 315z"/>
<path style="fill:#5b161c; stroke:none;" d="M267 315L268 316L267 315M139 316L140 317L139 316M140 317L141 318L140 317M142 317L143 318L142 317z"/>
<path style="fill:#4c1217; stroke:none;" d="M259 317L260 318L259 317z"/>
<path style="fill:#5b161c; stroke:none;" d="M403 317L404 318L403 317M238 318L239 319L238 318M264 319L265 320L264 319z"/>
<path style="fill:#010101; stroke:none;" d="M407.333 319.667L407.667 320.333L407.333 319.667z"/>
<path style="fill:#5b161c; stroke:none;" d="M489 319L490 320L489 319M240.333 320.667L240.667 321.333L240.333 320.667z"/>
<path style="fill:#010101; stroke:none;" d="M486.333 321.667L486.667 322.333L486.333 321.667z"/>
<path style="fill:#5b161c; stroke:none;" d="M487 322L488 323L487 322M224 323L225 324L224 323M222 325L223 326L222 325M401 327L402 328L401 327z"/>
<path style="fill:#811f27; stroke:none;" d="M401 328L402 329L401 328z"/>
<path style="fill:#5b161c; stroke:none;" d="M136.667 329.333L137.333 329.667L136.667 329.333M401 329L402 330L401 329M399 331L400 332L399 331z"/>
<path style="fill:#4c1217; stroke:none;" d="M216 333L217 334L216 333z"/>
<path style="fill:#5b161c; stroke:none;" d="M396 335L397 336L396 335M213 339L214 340L213 339M143 340L144 341L143 340z"/>
<path style="fill:#4c1217; stroke:none;" d="M143 341L144 342L143 341z"/>
<path style="fill:#5b161c; stroke:none;" d="M143 342L144 343L143 342z"/>
<path style="fill:#010101; stroke:none;" d="M480 342L481 343L480 342z"/>
<path style="fill:#4c1217; stroke:none;" d="M489 342L490 343L489 342z"/>
<path style="fill:#5b161c; stroke:none;" d="M489 343L490 344L489 343z"/>
<path style="fill:#010101; stroke:none;" d="M482 344L484 347L482 344z"/>
<path style="fill:#811f27; stroke:none;" d="M133 345L133 349L137 349L137 345L133 345z"/>
<path style="fill:#5b161c; stroke:none;" d="M137 345L137 349L138 349L137 345M389.333 346.667L389.667 347.333L389.333 346.667z"/>
<path style="fill:#811f27; stroke:none;" d="M390.333 346.667L390.667 347.333L390.333 346.667z"/>
<path style="fill:#5b161c; stroke:none;" d="M391.333 346.667L391.667 347.333L391.333 346.667M488 346L489 347L488 346M133 347L134 348L133 347M398 348L399 349L398 348M481 353L483 355L481 353z"/>
<path style="fill:#4c1217; stroke:none;" d="M481 354L482 355L481 354M483 354L484 355L483 354z"/>
<path style="fill:#5b161c; stroke:none;" d="M397 355L398 356L397 355M140 358L141 359L140 358M131 360L132 361L131 360M388 360L389 361L388 360z"/>
<path style="fill:#3a0e11; stroke:none;" d="M127 361L128 362L127 361z"/>
<path style="fill:#4c1217; stroke:none;" d="M132 361L133 362L132 361z"/>
<path style="fill:#5b161c; stroke:none;" d="M203 361L204 362L203 361z"/>
<path style="fill:#4c1217; stroke:none;" d="M204 361L205 362L204 361z"/>
<path style="fill:#5b161c; stroke:none;" d="M127.333 362.667L127.667 363.333L127.333 362.667M132 362L133 363L132 362M204 363L205 364L204 363z"/>
<path style="fill:#3a0e11; stroke:none;" d="M384 363L385 364L384 363z"/>
<path style="fill:#5b161c; stroke:none;" d="M476.333 363.667L476.667 364.333L476.333 363.667z"/>
<path style="fill:#4c1217; stroke:none;" d="M383 364L384 365L383 364z"/>
<path style="fill:#3a0e11; stroke:none;" d="M130 365L131 366L130 365z"/>
<path style="fill:#5b161c; stroke:none;" d="M383 365L385 367L383 365z"/>
<path style="fill:#4c1217; stroke:none;" d="M387 365L388 366L387 365z"/>
<path style="fill:#5b161c; stroke:none;" d="M200 366L201 367L200 366z"/>
<path style="fill:#3a0e11; stroke:none;" d="M383 366L384 367L383 366z"/>
<path style="fill:#5b161c; stroke:none;" d="M474 368L475 369L474 368z"/>
<path style="fill:#3a0e11; stroke:none;" d="M383 369L384 370L383 369M202 370L203 371L202 370z"/>
<path style="fill:#4c1217; stroke:none;" d="M383 370L384 371L383 370z"/>
<path style="fill:#010101; stroke:none;" d="M386 370L387 371L386 370z"/>
<path style="fill:#5b161c; stroke:none;" d="M387 370L388 371L387 370M201 371L201 374L202 374L201 371z"/>
<path style="fill:#811f27; stroke:none;" d="M202 371L203 376L206 371L202 371z"/>
<path style="fill:#3a0e11; stroke:none;" d="M383 371L384 372L383 371z"/>
<path style="fill:#5b161c; stroke:none;" d="M204.667 375.333L205.333 375.667L204.667 375.333z"/>
<path style="fill:#811f27; stroke:none;" d="M200 376L200 381L204 377L200 376z"/>
<path style="fill:#5b161c; stroke:none;" d="M202 376L203 377L202 376M471 376L472 377L471 376M198 379L198 382L199 382L198 379M203 380L204 381L203 380M379.667 385.333L380.333 385.667L379.667 385.333z"/>
<path style="fill:#811f27; stroke:none;" d="M379.667 386.333L380.333 386.667L379.667 386.333z"/>
<path style="fill:#5b161c; stroke:none;" d="M123 390L126 387L123 390M379.667 387.333L380.333 387.667L379.667 387.333z"/>
<path style="fill:#811f27; stroke:none;" d="M123 388L124 389L123 388z"/>
<path style="fill:#4c1217; stroke:none;" d="M385 388L386 389L385 388z"/>
<path style="fill:#811f27; stroke:none;" d="M125 389L126 390L125 389z"/>
<path style="fill:#3a0e11; stroke:none;" d="M383 391L384 392L383 391z"/>
<path style="fill:#5b161c; stroke:none;" d="M123 392L124 393L123 392M383 392L384 393L383 392z"/>
<path style="fill:#010101; stroke:none;" d="M465 392L466 393L465 392z"/>
<path style="fill:#4c1217; stroke:none;" d="M122 393L123 394L122 393z"/>
<path style="fill:#5b161c; stroke:none;" d="M466 393L467 394L466 393M122 395L123 396L122 395z"/>
<path style="fill:#4c1217; stroke:none;" d="M383 396L384 397L383 396z"/>
<path style="fill:#5b161c; stroke:none;" d="M122.333 397.667L122.667 398.333L122.333 397.667M375 397L376 398L375 397z"/>
<path style="fill:#811f27; stroke:none;" d="M375 402C382.309 400.782 376.218 394.691 375 402z"/>
<path style="fill:#010101; stroke:none;" d="M465 401L466 402L465 401z"/>
<path style="fill:#5b161c; stroke:none;" d="M122.333 404.667L122.667 405.333L122.333 404.667M195 405L196 406L195 405M476 405L477 406L476 405M479 406L480 407L479 406z"/>
<path style="fill:#4c1217; stroke:none;" d="M122 409L123 410L122 409z"/>
<path style="fill:#5b161c; stroke:none;" d="M196 409L196 412L197 412L196 409z"/>
<path style="fill:#811f27; stroke:none;" d="M197 409L196 411L198 411L197 409z"/>
<path style="fill:#5b161c; stroke:none;" d="M377.333 409.667L377.667 410.333L377.333 409.667M478 409L479 410L478 409z"/>
<path style="fill:#4c1217; stroke:none;" d="M194 410L195 411L194 410z"/>
<path style="fill:#811f27; stroke:none;" d="M195 411L196 412L195 411z"/>
<path style="fill:#4c1217; stroke:none;" d="M494 414L495 415L494 414z"/>
<path style="fill:#5b161c; stroke:none;" d="M494 416L495 417L497 414L494 416z"/>
<path style="fill:#811f27; stroke:none;" d="M495 415L496 416L495 415z"/>
<path style="fill:#5b161c; stroke:none;" d="M194 416L194 419L195 419L194 416M369 416L370 417L369 416z"/>
<path style="fill:#3a0e11; stroke:none;" d="M494 416L495 417L494 416z"/>
<path style="fill:#4c1217; stroke:none;" d="M496 416L497 417L496 416M195.333 417.667L195.667 418.333L195.333 417.667z"/>
<path style="fill:#5b161c; stroke:none;" d="M367.333 417.667L367.667 418.333L367.333 417.667M375.667 420.333L376.333 420.667L375.667 420.333z"/>
<path style="fill:#811f27; stroke:none;" d="M189 421L188 422L190 426L191 426L193 422L189 421z"/>
<path style="fill:#5b161c; stroke:none;" d="M191.667 421.333L192.333 421.667L191.667 421.333z"/>
<path style="fill:#010101; stroke:none;" d="M375 421L375 423L377 423L377 421L375 421z"/>
<path style="fill:#5b161c; stroke:none;" d="M489 422L490 423L489 422M119 423L120 424L119 423z"/>
<path style="fill:#3a0e11; stroke:none;" d="M117 424L118 425L117 424z"/>
<path style="fill:#4c1217; stroke:none;" d="M118 424L119 425L118 424M188 424L189 425L188 424z"/>
<path style="fill:#5b161c; stroke:none;" d="M192 424L193 425L192 424M373 424L374 425L373 424M494 424L495 425L494 424M117.333 425.667L117.667 426.333L117.333 425.667z"/>
<path style="fill:#4c1217; stroke:none;" d="M189 425L190 426L189 425z"/>
<path style="fill:#5b161c; stroke:none;" d="M191 425L192 426L191 425M497 425L498 426L497 425M501 425L502 426L501 425z"/>
<path style="fill:#010101; stroke:none;" d="M498 426C499.459 428.455 500.43 428.289 502 426L498 426z"/>
<path style="fill:#5b161c; stroke:none;" d="M501 427L502 428L501 427M513.667 427.333L514.333 427.667L513.667 427.333z"/>
<path style="fill:#811f27; stroke:none;" d="M513.667 428.333L514.333 428.667L513.667 428.333z"/>
<path style="fill:#5b161c; stroke:none;" d="M513.667 429.333L514.333 429.667L513.667 429.333z"/>
<path style="fill:#4c1217; stroke:none;" d="M115 434L116 435L115 434z"/>
<path style="fill:#3a0e11; stroke:none;" d="M521 434L522 435L521 434z"/>
<path style="fill:#5b161c; stroke:none;" d="M523 434L524 435L523 434M115.333 435.667L115.667 436.333L115.333 435.667z"/>
<path style="fill:#4c1217; stroke:none;" d="M521 435L522 436L521 435z"/>
<path style="fill:#5b161c; stroke:none;" d="M522 435L523 436L522 435M524 435L525 436L524 435M517 436L518 437L517 436M524 437L525 438L524 437M511 438L512 439L511 438z"/>
<path style="fill:#010101; stroke:none;" d="M116 439L116 442L117 442L116 439z"/>
<path style="fill:#5b161c; stroke:none;" d="M514 439L515 440L514 439M525.667 439.333L526.333 439.667L525.667 439.333M529 440L530 441L529 440z"/>
<path style="fill:#4c1217; stroke:none;" d="M107.333 442.667L107.667 443.333L107.333 442.667z"/>
<path style="fill:#3a0e11; stroke:none;" d="M111 442L112 443L111 442z"/>
<path style="fill:#5b161c; stroke:none;" d="M360.333 442.667L360.667 443.333L360.333 442.667M533 442L534 443L533 442M110.667 443.333L111.333 443.667L110.667 443.333z"/>
<path style="fill:#4c1217; stroke:none;" d="M359.333 443.667L359.667 444.333L359.333 443.667z"/>
<path style="fill:#5b161c; stroke:none;" d="M362 443L363 444L362 443M530 443L531 444L530 443M107 444L108 445L107 444M108.333 445.667L108.667 446.333L108.333 445.667M354 447L355 448L354 447M356 447L357 448L356 447z"/>
<path style="fill:#3a0e11; stroke:none;" d="M323 448L324 449L323 448z"/>
<path style="fill:#5b161c; stroke:none;" d="M324 448L325 449L324 448z"/>
<path style="fill:#4c1217; stroke:none;" d="M325 448L326 449L325 448M323 449L326 451L326 450L323 449z"/>
<path style="fill:#811f27; stroke:none;" d="M324.667 449.333L325.333 449.667L324.667 449.333z"/>
<path style="fill:#5b161c; stroke:none;" d="M177 450L178 451L177 450M307 450L307 453L308 453L307 450M312 450L313 451L312 450z"/>
<path style="fill:#3a0e11; stroke:none;" d="M323 450L324 451L323 450z"/>
<path style="fill:#5b161c; stroke:none;" d="M539 453L540 454L539 453M275 454L276 455L275 454z"/>
<path style="fill:#4c1217; stroke:none;" d="M276 454L277 455L276 454z"/>
<path style="fill:#5b161c; stroke:none;" d="M317 454L318 455L317 454M182.333 455.667L182.667 456.333L182.333 455.667z"/>
<path style="fill:#4c1217; stroke:none;" d="M242 455L243 456L242 455z"/>
<path style="fill:#5b161c; stroke:none;" d="M244 455L245 456L244 455M260 455L261 456L260 455M263 455L264 456L263 455M241.667 456.333L242.333 456.667L241.667 456.333M246 456L247 457L246 456z"/>
<path style="fill:#4c1217; stroke:none;" d="M247 456L248 457L247 456z"/>
<path style="fill:#3a0e11; stroke:none;" d="M265 456L266 457L265 456z"/>
<path style="fill:#5b161c; stroke:none;" d="M341 456L342 457L341 456M251.667 457.333L252.333 457.667L251.667 457.333M545 457L546 458L545 457z"/>
<path style="fill:#4c1217; stroke:none;" d="M546 457L547 458L546 457z"/>
<path style="fill:#5b161c; stroke:none;" d="M225 458L226 462L227 462L225 458z"/>
<path style="fill:#4c1217; stroke:none;" d="M241 458L242 459L241 458z"/>
<path style="fill:#5b161c; stroke:none;" d="M247 459L248 460L247 459M272 459L273 460L272 459M269 460L270 461L269 460z"/>
<path style="fill:#811f27; stroke:none;" d="M225 461L226 462L225 461z"/>
<path style="fill:#010101; stroke:none;" d="M257.667 461.333L258.333 461.667L257.667 461.333z"/>
<path style="fill:#4c1217; stroke:none;" d="M269 461L270 462L269 461z"/>
<path style="fill:#5b161c; stroke:none;" d="M215 462L216 463L215 462M212 464L213 465L212 464z"/>
<path style="fill:#4c1217; stroke:none;" d="M201 465L202 466L201 465z"/>
<path style="fill:#5b161c; stroke:none;" d="M226 465L227 466L226 465z"/>
<path style="fill:#010101; stroke:none;" d="M229 466L230 467L229 466z"/>
<path style="fill:#5b161c; stroke:none;" d="M550 466L551 467L550 466z"/>
<path style="fill:#010101; stroke:none;" d="M550 467L551 468L550 467z"/>
<path style="fill:#5b161c; stroke:none;" d="M110 468L111 469L110 468M177 469L178 470L177 469z"/>
<path style="fill:#010101; stroke:none;" d="M553 470L554 471L553 470z"/>
<path style="fill:#5b161c; stroke:none;" d="M570 473L571 474L570 473z"/>
<path style="fill:#811f27; stroke:none;" d="M569 475L569 476L570 479L574 479L573 473L569 475z"/>
<path style="fill:#4c1217; stroke:none;" d="M569 474L570 475L569 474z"/>
<path style="fill:#010101; stroke:none;" d="M107 476L107 479L109 479L109 476L107 476z"/>
<path style="fill:#5b161c; stroke:none;" d="M569 476L570 477L569 476M101 477L102 478L101 477M570 477L571 478L570 477M571.667 478.333L572.333 478.667L571.667 478.333M101 479L102 480L101 479M575 480L576 481L575 480M584.333 480.667L584.667 481.333L584.333 480.667z"/>
<path style="fill:#811f27; stroke:none;" d="M585.333 480.667L585.667 481.333L585.333 480.667z"/>
<path style="fill:#5b161c; stroke:none;" d="M106 486L107 487L106 486z"/>
<path style="fill:#4c1217; stroke:none;" d="M97.3333 488.667L97.6667 489.333L97.3333 488.667z"/>
<path style="fill:#811f27; stroke:none;" d="M98.3333 488.667L98.6667 489.333L98.3333 488.667z"/>
<path style="fill:#5b161c; stroke:none;" d="M99.3333 488.667L99.6667 489.333L99.3333 488.667M592 490L593 491L592 490z"/>
<path style="fill:#4c1217; stroke:none;" d="M595 495L596 496L595 495z"/>
<path style="fill:#5b161c; stroke:none;" d="M598 499L599 500L598 499z"/>
<path style="fill:#3a0e11; stroke:none;" d="M92 503L93 504L92 503z"/>
<path style="fill:#5b161c; stroke:none;" d="M93 503L92 506L95 504L93 503z"/>
<path style="fill:#3a0e11; stroke:none;" d="M94 503L95 504L94 503z"/>
<path style="fill:#811f27; stroke:none;" d="M93 504L94 505L93 504z"/>
<path style="fill:#4c1217; stroke:none;" d="M94 505L95 506L94 505M101 505L102 506L101 505z"/>
<path style="fill:#5b161c; stroke:none;" d="M101 506L102 507L101 506M608 509L609 510L608 509M98 510L99 511L98 510z"/>
<path style="fill:#4c1217; stroke:none;" d="M93 514L94 515L93 514z"/>
<path style="fill:#5b161c; stroke:none;" d="M93 515L94 516L93 515M618 517L619 518L618 517M92 518L93 519L92 518z"/>
<path style="fill:#010101; stroke:none;" d="M94 518L94 519L100 519L94 518z"/>
<path style="fill:#5b161c; stroke:none;" d="M91 519L92 520L91 519M94.6667 519.333L95.3333 519.667L94.6667 519.333M91 521L92 522L91 521M92 522L93 523L92 522M94 524L95 525L94 524M615 524L616 525L615 524z"/>
<path style="fill:#4c1217; stroke:none;" d="M95 525L96 526L95 525z"/>
<path style="fill:#5b161c; stroke:none;" d="M96 525L96 526L99 526L96 525z"/>
<path style="fill:#4c1217; stroke:none;" d="M613 528L614 529L613 528M605 531L606 532L605 531z"/>
<path style="fill:#5b161c; stroke:none;" d="M142 532L143 533L142 532z"/>
<path style="fill:#3a0e11; stroke:none;" d="M205 532L206 533L205 532z"/>
<path style="fill:#010101; stroke:none;" d="M216 532L216 533L220 533L216 532M366.667 532.333L367.333 532.667L366.667 532.333M428.333 532.667L428.667 533.333L428.333 532.667z"/>
<path style="fill:#5b161c; stroke:none;" d="M601.333 532.667L601.667 533.333L601.333 532.667M120 533L120 534L125 534L120 533z"/>
<path style="fill:#4c1217; stroke:none;" d="M173 533L174 534L173 533z"/>
<path style="fill:#5b161c; stroke:none;" d="M181 533L182 534L181 533z"/>
<path style="fill:#4c1217; stroke:none;" d="M201 533L202 534L201 533z"/>
<path style="fill:#5b161c; stroke:none;" d="M205 533L206 534L205 533M216 533L216 534L220 534L216 533M293 533L294 534L293 533z"/>
<path style="fill:#4c1217; stroke:none;" d="M305 533L306 534L305 533M311 533L312 534L311 533z"/>
<path style="fill:#5b161c; stroke:none;" d="M313.667 533.333L314.333 533.667L313.667 533.333M320 533L321 534L320 533M332 533L333 534L332 533M366 533L367 534L366 533z"/>
<path style="fill:#4c1217; stroke:none;" d="M380 533L381 534L380 533z"/>
<path style="fill:#811f27; stroke:none;" d="M395 535L398 533L395 535z"/>
<path style="fill:#4c1217; stroke:none;" d="M403 533L404 534L403 533z"/>
<path style="fill:#5b161c; stroke:none;" d="M404.667 533.333L405.333 533.667L404.667 533.333M462.667 533.333L463.333 533.667L462.667 533.333M469 533L470 534L469 533M497 533L498 534L497 533M499.667 533.333L500.333 533.667L499.667 533.333M506 533L507 534L506 533M518 533L519 534L518 533M604 533L605 534L604 533M113 534L114 535L113 534z"/>
<path style="fill:#4c1217; stroke:none;" d="M418 534L419 535L418 534z"/>
<path style="fill:#5b161c; stroke:none;" d="M428 534L429 535L428 534M112 535L113 536L112 535M114 535L115 536L114 535M200 535L201 536L200 535M248 535L249 536L248 535M253 535L254 536L253 535z"/>
<path style="fill:#811f27; stroke:none;" d="M282 536L282 538L288 536L282 536z"/>
<path style="fill:#5b161c; stroke:none;" d="M287 535L288 536L287 535M296 535L297 536L296 535M303 535L304 536L303 535M436 535L437 536L436 535z"/>
<path style="fill:#4c1217; stroke:none;" d="M119 536L120 537L119 536z"/>
<path style="fill:#5b161c; stroke:none;" d="M120 536L120 537L123 537L120 536M354 536L355 537L354 536z"/>
<path style="fill:#811f27; stroke:none;" d="M358 536L357 541L362 543L363 542L360 536L358 536M364 540L369 541L368 536L364 540z"/>
<path style="fill:#5b161c; stroke:none;" d="M370.333 536.667L370.667 537.333L370.333 536.667M389 536L390 537L389 536M392 536L393 537L392 536z"/>
<path style="fill:#4c1217; stroke:none;" d="M396 536L397 537L396 536z"/>
<path style="fill:#811f27; stroke:none;" d="M513 536L512 541C516.025 540.295 516.645 538.094 513 536z"/>
<path style="fill:#4c1217; stroke:none;" d="M515 536L516 537L515 536M561 536L562 537L561 536z"/>
<path style="fill:#5b161c; stroke:none;" d="M124 537L124 541L125 541L124 537M287 537L288 538L287 537M429 537L430 538L429 537z"/>
<path style="fill:#811f27; stroke:none;" d="M527 538L527 540C530.137 540.494 531 540.036 532 537L527 538z"/>
<path style="fill:#5b161c; stroke:none;" d="M132 538L133 539L132 538M256 538L257 539L256 538z"/>
<path style="fill:#4c1217; stroke:none;" d="M260 538L261 539L260 538M282 538L283 539L282 538M370 538L371 539L370 538z"/>
<path style="fill:#5b161c; stroke:none;" d="M428 538L429 539L428 538M537 538L538 539L537 538M563 538L564 539L563 538M565 538L566 539L565 538M571 538L572 539L571 538M584.333 538.667L584.667 539.333L584.333 538.667M588 538L589 539L588 538M154 539L155 540L154 539M158 539L159 540L158 539M343.333 539.667L343.667 540.333L343.333 539.667M516 539L517 540L516 539M521 539C520.516 542.046 520.823 543.073 524 543L524 542L521 543L521 540L524 541L521 539M558 539L559 540L558 539M575 539L576 540L575 539z"/>
<path style="fill:#4c1217; stroke:none;" d="M154 540L155 541L154 540M158 540L159 541L158 540z"/>
<path style="fill:#5b161c; stroke:none;" d="M226 540L227 541L226 540z"/>
<path style="fill:#811f27; stroke:none;" d="M227 540L226 541L226 542L227 543L228 543L229 542L229 541L227 540z"/>
<path style="fill:#5b161c; stroke:none;" d="M228 540L229 541L228 540z"/>
<path style="fill:#4c1217; stroke:none;" d="M279 540L280 541L279 540z"/>
<path style="fill:#811f27; stroke:none;" d="M286 541L286 542L290 542L286 541z"/>
<path style="fill:#5b161c; stroke:none;" d="M289 540L290 541L289 540z"/>
<path style="fill:#4c1217; stroke:none;" d="M333 540L334 541L333 540z"/>
<path style="fill:#811f27; stroke:none;" d="M334 540L336 543L334 540z"/>
<path style="fill:#5b161c; stroke:none;" d="M347 540L348 541L347 540M362 540L363 541L362 540z"/>
<path style="fill:#3a0e11; stroke:none;" d="M363 540L364 541L363 540z"/>
<path style="fill:#811f27; stroke:none;" d="M521 540L521 543L524 542L524 541L521 540z"/>
<path style="fill:#5b161c; stroke:none;" d="M531 540L532 541L531 540z"/>
<path style="fill:#811f27; stroke:none;" d="M557 540L557 543L561 542L557 540z"/>
<path style="fill:#5b161c; stroke:none;" d="M560 540L561 541L560 540M582 540L583 541L582 540M333 541L335 543L335 541L333 541M341 541L342 542L341 541z"/>
<path style="fill:#4c1217; stroke:none;" d="M363 541L364 542L363 541z"/>
<path style="fill:#5b161c; stroke:none;" d="M226 542L227 543L226 542M228 542L229 543L228 542M286 542L287 543L286 542M289 542L290 543L289 542z"/>
<path style="fill:#4c1217; stroke:none;" d="M333 542L334 543L333 542z"/>
<path style="fill:#5b161c; stroke:none;" d="M336 542L337 543L336 542M342.667 542.333L343.333 542.667L342.667 542.333M362 542L363 543L362 542z"/>
<path style="fill:#3a0e11; stroke:none;" d="M363 542L364 543L363 542z"/>
<path style="fill:#5b161c; stroke:none;" d="M560 542L561 543L560 542M558 543L559 544L558 543z"/>
</svg>
