<?xml version="1.0" standalone="yes"?>
<svg xmlns="http://www.w3.org/2000/svg" width="688" height="688">
<path style="fill:#010101; stroke:none;" d="M0 0L0 688L688 688L688 0L0 0z"/>
<path style="fill:#455980; stroke:none;" d="M346 85L349 85L349 87L342 85C338.074 86.1208 334.819 84.6068 331.17 85.368C328.682 85.8869 327.215 88.3334 324.896 89.2623C319.296 91.5051 302.051 92.6802 297 90L288 92C287.411 96.5068 281.779 94.3808 278.389 95.6111C271.877 97.9743 265.209 102.748 258.917 104.694C255.647 105.706 252.28 104.801 249 106L249 108L252 109L252 110L247 110C244.022 115.508 236.962 117.93 231 118L225 126L218 131C211.199 129.749 210.244 133.167 212 139L200 141L194 152C187.431 152.898 179.505 160.348 179 167L159 182L156 193L153 193L153 198L149 196C149 199.754 148.877 214.969 145 214L143 231L143 239C138.861 239.887 138.634 247.061 142 249L142 250L139 258L138 255C132.955 258.608 138.339 265.404 140 270L135 270L135 275L140 277C136.48 282.075 140.612 288.147 143 293L137 290C135.855 296.924 142.039 303.058 145 309C141.775 311.98 145.121 316.145 146.696 319.424C148.368 322.906 147.564 326.891 149.608 330.231C152.259 334.564 156.792 336.725 158 342L166 355L176 360L176 365C186.78 369.619 192.886 382.865 205 383C206.564 387.709 210.518 387.95 215 388C216.779 392.962 226.014 395.626 231 396L231 399C234.79 399 243.332 399.44 244 404L264 406L264 409L273 414L274 414L275 414C278.156 412.347 281.213 414.15 283 417L287 416L285 412L300 417L304 419L305 419L326 418.481L355 417L366 412L367 412L368 417L371 412L378 414L381 414L389 414L387 410L387 407L390 406C392.881 409.995 397.206 409.237 397 404C405.828 403.33 409.972 396.051 410 388L413 388C413.312 377.288 419.643 366.748 421.124 356.035C421.699 351.881 424.764 347.289 421 344L421 343L421 342L423.299 332.09L426 303L429 306L430 306L428 298L431 297L428 293L428 298L426 298C426 290.183 428.951 276.512 421 272L421 271L421 270L423 265C416.03 261.874 408.227 256.155 405 249L397 244L377.13 237.772L367 239L367 242L362 242L363 247L359 247C358.16 253.179 356.495 263.71 352 268L351 265L350 265L349 280L343 283L346 286L343 285L341 293L335 291L334 294L336 298L331 296L333 299L333 300L333 301L320 313C316.239 313.997 314.084 315.154 313 319C309.462 319.25 305.784 320.323 305 324L295 322L298 326L293 324L291 324L293 329L285 327L287 331C280.625 332.518 271.519 334.358 265.015 333.945C260.628 333.667 256.901 330.52 254 335L259 335L259 337C255.887 337 251.55 337.753 251 334L232 326L228.258 307L228 296L228 295L228 294C230.554 291.768 230.554 288.232 228 286L228 285L228 284L230 280L233 280L230 272C232.851 271.386 232.854 270.697 232 268L235 260L238 260C238.339 254.783 239.885 247.998 246 248L246 234L251 236L251 232L248 232L248 226L255 227L255 216L258 215L256 211L261 211L269 198L274 193L279 185C279.938 177.82 290.614 185.996 287 175L292 175L292 172L297 172L310 162C310.597 157.43 315.003 159.408 317 162C321.088 160.323 322.577 158.453 322 154L329 157L331 149L348 149L359 147L359 148L357 151C360.854 152.841 364.747 154.843 365 149L378 149L378 150L374 151L379 154L391 154L391 157L418 170L426 180L431 177L431 180C437.113 182.718 440.177 188.539 441 195L457 211L457 216L467 226L465 233L471 244L472 244L472 239C480.15 244.111 478.01 261.693 488 265L490 275L488 280L493 283C487.57 284.164 492.63 291.287 495 294C488.108 297.727 492.971 302.778 494 298L495 298L495 316L492 318L491 318L489 316C491.472 325.868 494.34 328.385 490 338L494 337L495 337L495 347C489.357 347.941 491.189 350.92 493 355L488 353L490 365L493 365L488 386C483.847 387.02 480.76 388.588 480 393L483 393L483 399L476 397L475 398L480 404L480 406L472 414L472 419C465.66 419.076 464.359 420.755 465 427C460.036 427.541 452.877 429.776 457 435L447 433L446 442L442 440L441 447L440 447L434 443L436 446L436 447L436 448L436 453L429 453L431 458L427 455L424 455L424 460L418 466L410 465L411 468L409 466L408 466L407 466L398 466L397 467L398 470C393.222 471.504 387.348 471.684 388 478C378.829 478 370.727 481.734 362 483.75C358.868 484.473 353.55 484.753 353 481L349 481L349 486L338 486L338 485L340 481L331 480L336 486L313 486L314 488L309 488L310 486L299 486L296 489C295.346 485.946 293.993 486.064 291 486C289.886 482.061 287.935 481.057 284 482L285 486L274 484L275 488C272.256 488.461 269.486 489.294 269 486L257 486L258 479L254 479L255 483C251.093 483.202 249.212 482.906 248 479C243.761 477.201 240.214 474.487 238 480L233 478L235 474L227 476L227 473L215.541 467.141L206 465L194 453L191 455L191 450L186 452C185.95 448.922 186.297 446.414 183 446L178 440L176 444L171 440L177 440L177 439L170 435L171 440L168 439L167 430L163 431L150 414L147 412L142 414L137 409L135 401L115 399C111.485 394.128 108.071 399.194 104 401C101.529 397.266 97.9245 400.212 101 403L101 404L87 411L87 412L86 436L88 435L88 445L84 445L84 450C93.131 452.772 88.0214 465.033 90 472L94 471C92.8238 474.389 91.7494 476.706 95 479L95 473L96 473L109 499L113 499L112 502L120 509L124 515L133.675 525.714L141 538L143 538L146 535L144 543L147 543L151 540L158 548L177 553L177 556L193 561L200 566L203 564L204 564L205 564L211 566L209 572L217 573L215 569L228 569L226 572C231.195 571.036 236.181 570.008 238 576L255 579L254 577L255 577C263.867 582.32 273.387 580.698 282 576C285.399 574.146 288.261 577.956 288 579L293 579C293 573.447 311.586 575.269 314 579L317 579L330 579L330 574L351 576L349 571L364 571L364 574L382 574L381 571L387 569L387 566L402 566L402 563C408.12 563 412.454 563.593 416 558L417 561L420 561L420 558L430 559L438 556L438 553L457 553L456 548L472 543L472 540C478.496 539.852 486.161 541.764 485 533L490 533L490 530C495.631 529.934 503.058 527.825 505 522L512 523L511 520L523 512L523 509C530.578 508.49 537.437 501.808 536 494L541 494L541 491L545 491L544 486C547.99 485.145 548.92 479.745 549 476L557 471L562 455C568.141 453.264 567 447.324 567 442C576.766 440.566 572.122 433.421 573.297 427.09C573.842 424.153 576.458 422.524 577.437 419.816C579.829 413.196 580 404.025 580 397L584 399L583.028 387L587.639 365.944L585 363L585 360L588 360L585 352L590 352L586 347C590.77 337.833 586.814 322.769 585 313L589 316C589.682 312.326 588.6 310.196 585 309L583 288L580 288C579.996 282.36 579.985 275.541 575 272L575 264L578 263C573.478 254.428 565.111 245.992 565 236L558 228L559 226L549 216L544 205C550.739 203.556 542.715 195.67 539 195L540 189L528 182C529.045 178.506 526.789 172.812 523 172L524 169L521 170L518 167L519 164L500 152C499.84 146.73 498.452 144.384 493 144L494 140L490 141L491 138L485 139L480 128L467 126L467 121L461 115C457.546 114.519 454.978 113.541 454 110L425 100L425 97C418.22 96.925 413.28 93.0787 406.91 92.1435C392.721 90.0602 378.141 91.8437 364.015 89.8565C358.808 89.124 350.096 79.8877 346 85z"/>
<path style="fill:#322e38; stroke:none;" d="M346 83L347 84L346 83z"/>
<path style="fill:#1f2738; stroke:none;" d="M329 84L330 85L329 84z"/>
<path style="fill:#455980; stroke:none;" d="M380 85L380 88L384 88L384 85L380 85z"/>
<path style="fill:#322e38; stroke:none;" d="M327 87L328 88L327 87z"/>
<path style="fill:#1f2738; stroke:none;" d="M297 90L298 91L297 90z"/>
<path style="fill:#322e38; stroke:none;" d="M291 93L292 94L291 93z"/>
<path style="fill:#1f2738; stroke:none;" d="M248 106L249 107L248 106z"/>
<path style="fill:#322e38; stroke:none;" d="M248 107L249 108L248 107z"/>
<path style="fill:#1f2738; stroke:none;" d="M243 113L244 114L243 113z"/>
<path style="fill:#322e38; stroke:none;" d="M239 115L240 116L239 115M231 119L232 120L231 119M210 131L211 132L210 131M210 135L211 136L210 135M488 136L489 137L488 136M493 141L494 142L493 141M200 142L201 143L200 142M194 146L195 147L194 146M350 148L351 149L350 148z"/>
<path style="fill:#1f2738; stroke:none;" d="M356 149L357 150L356 149z"/>
<path style="fill:#010101; stroke:none;" d="M361 149L361 151L363 149L361 149z"/>
<path style="fill:#322e38; stroke:none;" d="M362 150L363 151L362 150M376 150L377 151L376 150M360.333 152.667L360.667 153.333L360.333 152.667M365 152L366 153L365 152M374 152L375 153L374 152M378 152L379 153L378 152M364 153L365 154L364 153M326 156L327 157L326 156M181 159L182 160L181 159M319 161L320 162L319 161M399 162L400 163L399 162M514 162L515 163L514 162M411 166L412 167L411 166M414 168L415 169L414 168M297 169L298 170L297 169M417 170L418 171L417 170M422 175L423 176L422 175M528 177L529 178L528 177M429 179L430 180L429 179M288 181L285 182L285 183C287.199 183.23 288.819 183.366 288 181z"/>
<path style="fill:#1f2738; stroke:none;" d="M148 196L149 197L148 196M150 196L151 197L150 196z"/>
<path style="fill:#322e38; stroke:none;" d="M148.333 197.667L148.667 198.333L148.333 197.667M544 199L545 200L544 199z"/>
<path style="fill:#010101; stroke:none;" d="M542 202L543 203L542 202z"/>
<path style="fill:#1f2738; stroke:none;" d="M546 208L547 209L546 208z"/>
<path style="fill:#010101; stroke:none;" d="M253 214L253 216L255 216L255 214L253 214z"/>
<path style="fill:#322e38; stroke:none;" d="M255 221L256 222L255 221M254 222L255 223L254 222z"/>
<path style="fill:#1f2738; stroke:none;" d="M142 225L143 226L142 225z"/>
<path style="fill:#322e38; stroke:none;" d="M254 225L255 226L254 225M253 226L253 228L255 228L253 226M465 229L465 231L467 229L465 229M248 231L249 232L248 231z"/>
<path style="fill:#010101; stroke:none;" d="M468.333 231.667L468.667 232.333L468.333 231.667z"/>
<path style="fill:#322e38; stroke:none;" d="M466 233L467 234L466 233M467.333 234.667L467.667 235.333L467.333 234.667M376 236L377 237L376 236z"/>
<path style="fill:#455980; stroke:none;" d="M137.333 238.667L137.667 239.333L137.333 238.667z"/>
<path style="fill:#322e38; stroke:none;" d="M470 240L471 241L470 240M472 243L473 244L472 243M246 245L246 249L247 249L246 245z"/>
<path style="fill:#1f2738; stroke:none;" d="M247 245L248 246L247 245M247 247L248 248L247 247z"/>
<path style="fill:#322e38; stroke:none;" d="M477 251L478 252L477 251M572 251L573 252L572 251z"/>
<path style="fill:#1f2738; stroke:none;" d="M572 252L573 253L572 252z"/>
<path style="fill:#322e38; stroke:none;" d="M356 253L357 254L356 253M135 256L136 257L135 256M135 260L136 261L135 260z"/>
<path style="fill:#010101; stroke:none;" d="M139 260L138 262L140 262L139 260z"/>
<path style="fill:#1f2738; stroke:none;" d="M482 260L483 261L482 260z"/>
<path style="fill:#322e38; stroke:none;" d="M577 261L578 262L577 261M419 262L420 263L419 262M349 265L350 266L349 265z"/>
<path style="fill:#1f2738; stroke:none;" d="M577 266L578 267L577 266z"/>
<path style="fill:#322e38; stroke:none;" d="M352 267L353 268L352 267M577 267L578 268L577 267z"/>
<path style="fill:#455980; stroke:none;" d="M484 268L484 272L485 272L484 268z"/>
<path style="fill:#1f2738; stroke:none;" d="M577 268L578 269L577 268z"/>
<path style="fill:#322e38; stroke:none;" d="M350 269L351 270L350 269M577 272L578 273L577 272M232 274L233 275L232 274M345.333 284.667L345.667 285.333L345.333 284.667M489 288L488 290L489 288z"/>
<path style="fill:#1f2738; stroke:none;" d="M136 289L137 290L136 289z"/>
<path style="fill:#455980; stroke:none;" d="M488 290L488 291L491 292L491 289L488 290z"/>
<path style="fill:#322e38; stroke:none;" d="M136 290L137 291L136 290M138 290L139 291L138 290M488 291L489 292L488 291z"/>
<path style="fill:#455980; stroke:none;" d="M585 291L585 295L588 294L588 292L587 291L585 291z"/>
<path style="fill:#322e38; stroke:none;" d="M489 292L490 293L489 292M429 293L430 294L429 293M335 294L336 295L335 294M430 294L431 295L430 294z"/>
<path style="fill:#455980; stroke:none;" d="M232 296L232 300L235 299L235 297L234 296L232 296z"/>
<path style="fill:#322e38; stroke:none;" d="M490 296L491 297L490 296M234 299L235 300L234 299M140 301L141 302L140 301z"/>
<path style="fill:#1f2738; stroke:none;" d="M430 301L431 302L430 301z"/>
<path style="fill:#322e38; stroke:none;" d="M430 302L430 305L431 305L430 302M328 303L329 304L328 303M428 305L429 306L428 305M588 311L589 312L588 311M585 313L586 314L585 313M489 315L490 316L489 315z"/>
<path style="fill:#1f2738; stroke:none;" d="M490 315L491 316L490 315z"/>
<path style="fill:#322e38; stroke:none;" d="M589 315L590 316L589 315M489 317L490 318L489 317z"/>
<path style="fill:#455980; stroke:none;" d="M587 318L587 322L588 322L587 318z"/>
<path style="fill:#322e38; stroke:none;" d="M298 321L298 322L301 322L298 321M587 322L588 323L587 322M295 323L296 324L295 323M290 324L291 325L290 324M425 324L426 325L425 324M284.333 327.667L284.667 328.333L284.333 327.667M425 328L426 329L425 328z"/>
<path style="fill:#1f2738; stroke:none;" d="M244 330L245 331L244 330z"/>
<path style="fill:#322e38; stroke:none;" d="M244 331L244 332L247 332L244 331z"/>
<path style="fill:#1f2738; stroke:none;" d="M246 330L247 331L246 330z"/>
<path style="fill:#322e38; stroke:none;" d="M286 330L287 331L286 330z"/>
<path style="fill:#455980; stroke:none;" d="M245 331L246 332L245 331z"/>
<path style="fill:#322e38; stroke:none;" d="M254 332L255 333L254 332M151 333L152 334L151 333z"/>
<path style="fill:#1f2738; stroke:none;" d="M253 333L254 334L253 333z"/>
<path style="fill:#322e38; stroke:none;" d="M491 334L492 335L491 334z"/>
<path style="fill:#421e0e; stroke:none;" d="M258 335L259 336L258 335z"/>
<path style="fill:#322e38; stroke:none;" d="M490 335L491 336L490 335M258 336L259 337L258 336M152.667 338.333L153.333 338.667L152.667 338.333z"/>
<path style="fill:#455980; stroke:none;" d="M152.667 339.333L153.333 339.667L152.667 339.333z"/>
<path style="fill:#322e38; stroke:none;" d="M152.667 340.333L153.333 340.667L152.667 340.333z"/>
<path style="fill:#010101; stroke:none;" d="M586.333 345.667L586.667 346.333L586.333 345.667z"/>
<path style="fill:#322e38; stroke:none;" d="M587.333 345.667L587.667 346.333L587.333 345.667M490 370L491 371L490 370z"/>
<path style="fill:#1f2738; stroke:none;" d="M415 378L416 379L415 378z"/>
<path style="fill:#322e38; stroke:none;" d="M194 380L195 381L194 380M481 388L482 389L481 388M477 396L478 397L477 396M475 397L476 398L475 397M99 398L100 399L99 398M118 398L119 399L118 398M244 402L245 403L244 402M402 403L403 404L402 403M258 405L259 406L258 405M98 406L99 407L98 406M397 407L398 408L397 407M87 410L88 411L87 410M389 411L390 412L389 411M87.6667 412.333L88.3333 412.667L87.6667 412.333M144 412L145 413L144 412z"/>
<path style="fill:#1f2738; stroke:none;" d="M389 412L390 413L389 412z"/>
<path style="fill:#322e38; stroke:none;" d="M282 414L283 415L282 414M354 415L355 416L354 415M86 416L87 417L86 416M285 416L286 417L285 416M355 416L356 417L355 416M370 416L371 417L370 416z"/>
<path style="fill:#010101; stroke:none;" d="M145 417L145 419L147 419L147 417L145 417z"/>
<path style="fill:#322e38; stroke:none;" d="M305 417L306 418L305 417M340 417L341 418L340 417M464 420L465 421L464 420M157 422L158 423L157 422z"/>
<path style="fill:#010101; stroke:none;" d="M153 426L154 427L153 426z"/>
<path style="fill:#322e38; stroke:none;" d="M162 428L163 429L162 428M165 430L166 431L165 430z"/>
<path style="fill:#1f2738; stroke:none;" d="M167 430L168 431L167 430z"/>
<path style="fill:#322e38; stroke:none;" d="M454 430L455 431L454 430M448 432L449 433L448 432M449 433L450 434L449 433M453 434L454 435L453 434z"/>
<path style="fill:#1f2738; stroke:none;" d="M446 436L447 437L446 436z"/>
<path style="fill:#322e38; stroke:none;" d="M574 436L575 437L574 436M174 437L175 438L174 437M446.333 437.667L446.667 438.333L446.333 437.667M573 437L574 438L573 437M86 440L87 441L86 440z"/>
<path style="fill:#010101; stroke:none;" d="M171 440L177 442L177 441L171 440z"/>
<path style="fill:#322e38; stroke:none;" d="M176.667 440.333L177.333 440.667L176.667 440.333M179 440L180 441L179 440z"/>
<path style="fill:#1f2738; stroke:none;" d="M441 441L442 442L441 441z"/>
<path style="fill:#322e38; stroke:none;" d="M175.667 442.333L176.333 442.667L175.667 442.333z"/>
<path style="fill:#010101; stroke:none;" d="M175 443L176 444L175 443M177 443L183 450L177 443z"/>
<path style="fill:#322e38; stroke:none;" d="M441 443L442 444L441 443M183 445L184 446L183 445M185 445L186 446L185 445z"/>
<path style="fill:#1f2738; stroke:none;" d="M83 446L84 447L83 446z"/>
<path style="fill:#322e38; stroke:none;" d="M186.333 446.667L186.667 447.333L186.333 446.667M83 447L84 448L83 447z"/>
<path style="fill:#1f2738; stroke:none;" d="M83 448L84 449L83 448z"/>
<path style="fill:#322e38; stroke:none;" d="M189 449L190 450L189 449M88 452L89 453L88 452M193 453L194 454L193 453M195 454L196 455L195 454M428 455L429 456L428 455M423 458L424 459L423 458M205 461L206 462L205 461z"/>
<path style="fill:#1f2738; stroke:none;" d="M409 464L410 465L409 464z"/>
<path style="fill:#322e38; stroke:none;" d="M409 465L410 466L409 465M216 466L217 467L216 466M397 466L398 467L397 466z"/>
<path style="fill:#010101; stroke:none;" d="M409 466L409 468L411 468L411 466L409 466z"/>
<path style="fill:#1f2738; stroke:none;" d="M396 467L397 468L396 467z"/>
<path style="fill:#322e38; stroke:none;" d="M89 468L90 469L89 468z"/>
<path style="fill:#010101; stroke:none;" d="M212 469L213 470L212 469z"/>
<path style="fill:#1f2738; stroke:none;" d="M390 470L391 471L390 470z"/>
<path style="fill:#322e38; stroke:none;" d="M391.667 470.333L392.333 470.667L391.667 470.333M89 471L90 472L89 471M394 471L395 472L394 471M90 472L91 473L90 472M95 473L96 474L95 473M232.667 473.333L233.333 473.667L232.667 473.333M92.3333 477.667L92.6667 478.333L92.3333 477.667M358.667 477.333L359.333 477.667L358.667 477.333M235 478L236 479L235 478z"/>
<path style="fill:#455980; stroke:none;" d="M358.667 478.333L359.333 478.667L358.667 478.333z"/>
<path style="fill:#322e38; stroke:none;" d="M237 479L238 480L237 479M358.667 479.333L359.333 479.667L358.667 479.333z"/>
<path style="fill:#455980; stroke:none;" d="M296 481L295 482L295 484L299 485L298 481L296 481M302 484L307 484C305.232 481.25 303.898 481.425 302 484z"/>
<path style="fill:#322e38; stroke:none;" d="M306 481L307 482L306 481M302 482L303 483L302 482z"/>
<path style="fill:#1f2738; stroke:none;" d="M340 482L341 483L340 482z"/>
<path style="fill:#322e38; stroke:none;" d="M352 482L353 483L352 482M249 483L250 484L249 483M291 483L292 484L291 483M340 483L341 484L340 483M328 484L329 485L328 484M297 485L298 486L297 485M312 486L313 487L312 486M268 487L269 488L268 487M299 487L300 488L299 487z"/>
<path style="fill:#010101; stroke:none;" d="M316 487L316 488L319 488L316 487z"/>
<path style="fill:#322e38; stroke:none;" d="M104 488L105 489L104 488M541 491L542 492L541 491M535 501L536 502L535 501M119 512L120 513L119 512z"/>
<path style="fill:#421e0e; stroke:none;" d="M123 515L124 516L123 515z"/>
<path style="fill:#1f2738; stroke:none;" d="M511 523L512 524L511 523z"/>
<path style="fill:#010101; stroke:none;" d="M144 535L144 538L146 538L146 535L144 535z"/>
<path style="fill:#1f2738; stroke:none;" d="M486 536L487 537L486 536z"/>
<path style="fill:#322e38; stroke:none;" d="M143 537L144 538L143 537M486 537L485 540L486 537z"/>
<path style="fill:#010101; stroke:none;" d="M146 538L148 540L148 538L146 538z"/>
<path style="fill:#322e38; stroke:none;" d="M477 539L478 540L477 539M147 541L148 542L147 541M143 542L144 543L143 542M145 542L146 543L145 542z"/>
<path style="fill:#455980; stroke:none;" d="M188 560L189 561L188 560z"/>
<path style="fill:#322e38; stroke:none;" d="M402 563L403 564L402 563M203 565L204 566L203 565z"/>
<path style="fill:#010101; stroke:none;" d="M213 566L213 568L215 568L215 566L213 566z"/>
<path style="fill:#1f2738; stroke:none;" d="M203 567L204 568L203 567z"/>
<path style="fill:#455980; stroke:none;" d="M202 568L203 571L207 568L202 568z"/>
<path style="fill:#322e38; stroke:none;" d="M202 569L203 570L202 569M206 569L207 570L206 569M227 569L228 570L227 569M229 569L230 570L229 569M205 570L206 571L205 570z"/>
<path style="fill:#1f2738; stroke:none;" d="M208 570L209 571L208 570z"/>
<path style="fill:#322e38; stroke:none;" d="M209 570L210 571L209 570M208 571L210 573L208 571M225 571L226 572L225 571M228 571L229 572L228 571z"/>
<path style="fill:#010101; stroke:none;" d="M372 571L372 573L375 573L375 571L372 571z"/>
<path style="fill:#1f2738; stroke:none;" d="M208 572L209 573L208 572z"/>
<path style="fill:#322e38; stroke:none;" d="M213 572L214 573L213 572z"/>
<path style="fill:#455980; stroke:none;" d="M358 573L359 574L358 573z"/>
<path style="fill:#322e38; stroke:none;" d="M359 573L360 574L359 573M382.333 573.667L382.667 574.333L382.333 573.667M369 575L370 576L369 575M375 575L376 576L375 575z"/>
<path style="fill:#010101; stroke:none;" d="M267 576L267 578L269 578L269 576L267 576z"/>
<path style="fill:#322e38; stroke:none;" d="M330 576L331 577L330 576M339 576L340 577L339 576M256 578L257 579L256 578M270 579L271 580L270 579z"/>
<path style="fill:#455980; stroke:none;" d="M294 579L294 581L296 579L294 579z"/>
<path style="fill:#322e38; stroke:none;" d="M325 580L326 581L325 580M270 581L270 582L273 582L273 581L270 581z"/>
<path style="fill:#455980; stroke:none;" d="M271 581L272 582L271 581z"/>
<path style="fill:#1f2738; stroke:none;" d="M272 582L273 583L272 582z"/>
</svg>
