<?xml version="1.0" encoding="UTF-8"?>
<!DOCTYPE svg PUBLIC "-//W3C//DTD SVG 1.1//EN" "http://www.w3.org/Graphics/SVG/1.1/DTD/svg11.dtd">
<svg xmlns="http://www.w3.org/2000/svg" version="1.1" width="639px" height="657px" style="shape-rendering:geometricPrecision; text-rendering:geometricPrecision; image-rendering:optimizeQuality; fill-rule:evenodd; clip-rule:evenodd" xmlns:xlink="http://www.w3.org/1999/xlink">
<g><path style="opacity:0.997" fill="#cb3208" d="M 264.5,68.5 C 265.647,72.6463 265.814,76.9796 265,81.5C 264.346,90.3732 262.679,99.0398 260,107.5C 252.069,114.767 243.569,121.267 234.5,127C 230.908,129.921 228.075,133.421 226,137.5C 223.242,144.272 221.408,151.272 220.5,158.5C 221.078,164.486 223.411,169.653 227.5,174C 230.649,174.274 233.649,173.608 236.5,172C 265.058,159.055 293.058,145.055 320.5,130C 345.135,124.13 370.135,121.797 395.5,123C 411.923,125.178 426.923,130.844 440.5,140C 460.067,148.255 480.067,150.422 500.5,146.5C 493.499,162.1 481.332,170.1 464,170.5C 456.282,170.028 448.782,168.528 441.5,166C 431.102,165.097 421.102,166.764 411.5,171C 407.957,172.608 404.957,174.942 402.5,178C 408.628,180.563 414.295,183.897 419.5,188C 431.295,186.845 443.129,185.678 455,184.5C 486.218,186.611 512.551,198.945 534,221.5C 536.922,227.264 539.255,233.264 541,239.5C 541.786,258.384 548.12,275.051 560,289.5C 565.213,294.377 570.046,299.544 574.5,305C 572.349,307.365 569.683,308.031 566.5,307C 554.619,303.145 544.453,296.645 536,287.5C 532.061,279.955 528.394,272.288 525,264.5C 520.206,257.049 513.373,252.882 504.5,252C 499.628,251.754 494.795,251.254 490,250.5C 488.941,250.63 488.108,251.13 487.5,252C 499.399,263.958 507.566,278.125 512,294.5C 519.408,305.384 524.075,317.384 526,330.5C 526.667,336.833 526.667,343.167 526,349.5C 524.497,366.551 521.163,383.217 516,399.5C 501.22,420.293 496.053,443.293 500.5,468.5C 495.469,468.299 491.136,466.466 487.5,463C 480.953,455.739 477.286,447.239 476.5,437.5C 477.623,426.384 479.456,415.384 482,404.5C 483.717,395.741 482.05,387.741 477,380.5C 474.222,377.862 471.056,375.862 467.5,374.5C 464.696,379.433 461.863,384.433 459,389.5C 462.132,418.84 458.132,447.173 447,474.5C 445,477.833 443,481.167 441,484.5C 434.811,491.054 428.978,497.888 423.5,505C 418.833,508.333 414.167,511.667 409.5,515C 399.073,519.297 389.906,525.463 382,533.5C 376.762,540.313 373.428,547.979 372,556.5C 370.413,557.727 369.079,557.394 368,555.5C 362.913,543.147 363.579,531.147 370,519.5C 380,509.5 390,499.5 400,489.5C 404.694,479.712 404.36,470.045 399,460.5C 393.032,453.955 385.865,452.121 377.5,455C 372.833,460.333 368.167,465.667 363.5,471C 321.913,503.395 275.247,514.061 223.5,503C 203.423,500.681 184.089,503.348 165.5,511C 164.167,512.333 162.833,513.667 161.5,515C 159.155,515.544 157.821,514.544 157.5,512C 162.154,498.013 171.487,488.68 185.5,484C 203.336,482.292 220.336,477.625 236.5,470C 240.916,467.588 244.749,464.422 248,460.5C 250.713,454.906 253.547,449.406 256.5,444C 253.496,441.547 249.996,440.047 246,439.5C 225.025,448.2 203.191,451.7 180.5,450C 170.565,447.433 160.899,444.1 151.5,440C 146.833,435.333 142.167,430.667 137.5,426C 127.562,422.032 118.229,417.032 109.5,411C 99.5689,409.318 89.9022,410.485 80.5,414.5C 78.058,413.616 77.2246,411.949 78,409.5C 90.2512,395.971 105.418,391.138 123.5,395C 142.424,400.598 161.757,402.931 181.5,402C 186.792,401.202 190.459,398.368 192.5,393.5C 191.872,391.742 190.872,390.242 189.5,389C 179.937,386.776 170.27,385.11 160.5,384C 135.736,371.61 119.57,352.443 112,326.5C 106.709,308.177 104.709,289.51 106,270.5C 109.974,255.399 111.307,240.066 110,224.5C 108.565,216.19 105.565,208.524 101,201.5C 100.505,199.527 100.338,197.527 100.5,195.5C 107.184,195.763 112.351,198.763 116,204.5C 124.85,215.037 129.35,227.204 129.5,241C 128.722,250.496 128.556,259.996 129,269.5C 130.416,279.51 135.25,287.343 143.5,293C 149.131,294.729 154.798,294.895 160.5,293.5C 165.24,277.614 169.573,261.614 173.5,245.5C 170.66,230.305 169.826,214.972 171,199.5C 174.507,183.804 178.174,168.137 182,152.5C 184.079,148.007 186.412,143.674 189,139.5C 196.833,131.667 204.667,123.833 212.5,116C 221.276,110.279 230.609,105.612 240.5,102C 244.723,98.4438 248.223,94.2772 251,89.5C 254.078,83.0087 257.412,76.6754 261,70.5C 262.302,69.9152 263.469,69.2485 264.5,68.5 Z M 325.5,197.5 C 340.908,197.06 356.241,197.893 371.5,200C 389.708,207.015 405.875,217.182 420,230.5C 426.193,238.553 430.526,247.553 433,257.5C 435.201,269.507 437.535,281.507 440,293.5C 443.909,315.08 442.909,336.413 437,357.5C 429.264,375.449 417.764,390.615 402.5,403C 384.222,415.656 363.888,421.656 341.5,421C 328.5,421.667 315.5,421.667 302.5,421C 290.697,419.732 279.697,416.066 269.5,410C 257.689,401.521 247.189,391.688 238,380.5C 215.708,341.013 212.375,300.013 228,257.5C 233.06,243.777 241.226,232.277 252.5,223C 265.849,213.326 280.515,206.326 296.5,202C 306.296,200.405 315.963,198.905 325.5,197.5 Z M 328.5,250.5 C 351.038,247.612 368.871,255.279 382,273.5C 386.342,279.511 389.342,286.178 391,293.5C 398.166,323.678 387.999,346.178 360.5,361C 358.212,361.822 355.878,362.489 353.5,363C 338.084,364.039 322.75,363.373 307.5,361C 297.703,359.205 290.87,353.705 287,344.5C 281.4,327.727 278.233,310.561 277.5,293C 279.463,287.449 281.63,281.949 284,276.5C 296.322,263.265 311.155,254.598 328.5,250.5 Z"/></g>
<g><path style="opacity:0.992" fill="#e89102" d="M 328.5,212.5 C 342.258,212.097 355.925,212.93 369.5,215C 381.788,220.141 393.122,226.807 403.5,235C 407.752,238.581 411.252,242.748 414,247.5C 418.698,256.896 423.364,266.229 428,275.5C 430.268,286.385 431.268,297.385 431,308.5C 429.74,320.176 428.406,331.843 427,343.5C 423.519,354.795 418.186,365.129 411,374.5C 404.469,381.365 397.636,387.865 390.5,394C 381.163,399.168 371.163,402.168 360.5,403C 342.889,405.179 325.222,406.179 307.5,406C 299.128,404.907 291.128,402.574 283.5,399C 275.5,392.333 267.5,385.667 259.5,379C 245.131,359.908 236.631,338.408 234,314.5C 230.873,283.882 239.706,257.382 260.5,235C 270.384,228.557 280.717,222.89 291.5,218C 303.872,215.503 316.206,213.669 328.5,212.5 Z M 328.5,250.5 C 311.155,254.598 296.322,263.265 284,276.5C 281.63,281.949 279.463,287.449 277.5,293C 278.233,310.561 281.4,327.727 287,344.5C 290.87,353.705 297.703,359.205 307.5,361C 322.75,363.373 338.084,364.039 353.5,363C 355.878,362.489 358.212,361.822 360.5,361C 387.999,346.178 398.166,323.678 391,293.5C 389.342,286.178 386.342,279.511 382,273.5C 368.871,255.279 351.038,247.612 328.5,250.5 Z"/></g>
<g><path style="opacity:0.995" fill="#cb3108" d="M 333.5,265.5 C 348.509,266.921 361.009,273.255 371,284.5C 377.136,297.104 379.469,310.438 378,324.5C 376.231,333.932 371.064,340.765 362.5,345C 355.6,347.951 348.6,350.617 341.5,353C 303.262,356.759 285.428,339.592 288,301.5C 289.333,297.5 290.667,293.5 292,289.5C 294.884,286.315 298.051,283.482 301.5,281C 309.995,276.587 318.328,271.92 326.5,267C 329.036,266.814 331.369,266.314 333.5,265.5 Z"/></g>
</svg>
