<?xml version="1.0" encoding="UTF-8"?>
<!DOCTYPE svg PUBLIC "-//W3C//DTD SVG 1.1//EN" "http://www.w3.org/Graphics/SVG/1.1/DTD/svg11.dtd">
<svg xmlns="http://www.w3.org/2000/svg" version="1.1" width="637px" height="654px" style="shape-rendering:geometricPrecision; text-rendering:geometricPrecision; image-rendering:optimizeQuality; fill-rule:evenodd; clip-rule:evenodd" xmlns:xlink="http://www.w3.org/1999/xlink">
<g><path style="opacity:0.996" fill="#c6592f" d="M 342.5,60.5 C 363.418,61.7059 379.585,71.0393 391,88.5C 393.971,100.047 392.638,111.047 387,121.5C 372.709,134.606 356.875,137.106 339.5,129C 334.458,125.479 329.125,122.479 323.5,120C 315.472,113.269 311.805,104.602 312.5,94C 315.326,76.3436 325.326,65.1769 342.5,60.5 Z"/></g>
<g><path style="opacity:1" fill="#574b33" d="M 289.5,116.5 C 293.514,116.334 297.514,116.501 301.5,117C 303.041,118.579 304.208,120.413 305,122.5C 324.279,142.868 347.779,150.368 375.5,145C 378.618,143.941 381.618,142.608 384.5,141C 389.69,134.812 395.19,128.979 401,123.5C 418.605,132.385 436.438,140.885 454.5,149C 463.704,156.537 471.871,165.037 479,174.5C 504.212,211.785 521.046,252.618 529.5,297C 529.311,303.564 529.311,309.897 529.5,316C 529.138,317.225 528.638,318.391 528,319.5C 519.265,323.703 511.598,329.37 505,336.5C 495.602,358.683 499.602,378.016 517,394.5C 517.667,396.167 517.667,397.833 517,399.5C 511.401,415.228 506.735,431.228 503,447.5C 494.458,467.372 480.958,482.872 462.5,494C 456.992,497.255 451.325,500.255 445.5,503C 427.404,509.477 409.071,515.143 390.5,520C 374.566,522.224 358.566,523.224 342.5,523C 341.234,522.691 340.067,522.191 339,521.5C 333.878,507.727 325.712,496.227 314.5,487C 299.416,480.099 284.416,480.432 269.5,488C 265.868,490.63 262.535,493.63 259.5,497C 248.088,493.183 237.088,488.183 226.5,482C 213.005,472.751 199.338,463.751 185.5,455C 175.026,447.189 165.193,438.689 156,429.5C 145.325,396.8 137.158,363.467 131.5,329.5C 131.57,328.228 131.903,327.062 132.5,326C 139.318,325.174 145.151,322.341 150,317.5C 156.998,309.157 162.331,299.823 166,289.5C 169.48,271.074 164.48,255.408 151,242.5C 150.833,241.5 150.667,240.5 150.5,239.5C 157.558,217.717 167.058,197.05 179,177.5C 190.378,161.911 201.878,146.411 213.5,131C 223.2,126.989 233.2,123.989 243.5,122C 258.917,119.609 274.251,117.776 289.5,116.5 Z M 240.5,169.5 C 249.679,170.422 258.013,173.589 265.5,179C 266.833,179.167 268.167,179.333 269.5,179.5C 295.974,174.252 322.64,172.752 349.5,175C 369.914,185.621 389.08,198.121 407,212.5C 423.338,202.816 440.172,201.982 457.5,210C 474.422,223.019 481.588,240.186 479,261.5C 476.091,271.682 470.091,279.348 461,284.5C 460.333,287.167 460.333,289.833 461,292.5C 465.46,309.927 468.627,327.594 470.5,345.5C 468.192,356.541 465.692,367.541 463,378.5C 459.668,383.158 457.501,388.325 456.5,394C 458.846,398.52 461.346,403.02 464,407.5C 465.928,413.338 467.094,419.338 467.5,425.5C 465.631,434.941 462.464,443.941 458,452.5C 455.833,454.667 453.667,456.833 451.5,459C 440.238,465.66 428.238,467.993 415.5,466C 405.185,463.24 396.185,458.24 388.5,451C 387.5,450.833 386.5,450.667 385.5,450.5C 363.293,458.657 340.626,460.157 317.5,455C 294.293,448.932 272.293,439.932 251.5,428C 237.597,429.97 223.93,428.637 210.5,424C 182.475,406.955 176.475,384.122 192.5,355.5C 189.559,349.508 187.726,343.175 187,336.5C 184.274,312.119 187.941,288.786 198,266.5C 202.62,256.085 208.12,246.252 214.5,237C 196.673,224.829 193.84,209.663 206,191.5C 212.283,184.211 219.449,178.044 227.5,173C 231.999,171.961 236.332,170.794 240.5,169.5 Z"/></g>
<g><path style="opacity:1" fill="#c65930" d="M 238.5,181.5 C 242.967,181.133 247.3,181.633 251.5,183C 258,188.167 264.5,193.333 271,198.5C 281.562,221.702 274.062,233.702 248.5,234.5C 241.517,234.265 234.85,232.765 228.5,230C 224.238,226.283 220.072,222.45 216,218.5C 212.489,205.371 216.322,194.871 227.5,187C 230.99,184.588 234.657,182.755 238.5,181.5 Z"/></g>
<g><path style="opacity:1" fill="#574b33" d="M 286.5,196.5 C 298.505,196.333 310.505,196.5 322.5,197C 340.267,200.525 357.934,204.525 375.5,209C 383.201,212.202 389.201,217.369 393.5,224.5C 389.317,231.202 386.65,238.535 385.5,246.5C 379.024,241.858 372.691,237.025 366.5,232C 351.068,223.053 334.402,219.219 316.5,220.5C 312.5,220.667 308.5,220.833 304.5,221C 298.859,222.361 293.192,223.528 287.5,224.5C 287.65,215.143 287.317,205.809 286.5,196.5 Z"/></g>
<g><path style="opacity:1" fill="#c65930" d="M 427.5,216.5 C 444.189,214.928 456.356,221.594 464,236.5C 470.422,253.159 465.255,264.659 448.5,271C 429.87,276.603 416.036,270.77 407,253.5C 405.527,236.438 412.36,224.105 427.5,216.5 Z"/></g>
<g><path style="opacity:0.998" fill="#c65930" d="M 315.5,233.5 C 328.277,231.929 339.943,234.762 350.5,242C 359.64,247.993 368.14,254.826 376,262.5C 382.14,272.891 387.14,283.891 391,295.5C 395.286,311.076 395.619,326.743 392,342.5C 388.832,345.963 385.332,349.13 381.5,352C 365.722,359.944 349.055,364.777 331.5,366.5C 315.137,363.435 299.471,358.268 284.5,351C 268.091,335.455 260.924,316.289 263,293.5C 263.344,285.401 264.344,277.401 266,269.5C 269.709,261.801 274.209,254.634 279.5,248C 290.435,240.304 302.435,235.471 315.5,233.5 Z"/></g>
<g><path style="opacity:1" fill="#c65930" d="M 98.5,235.5 C 104.509,235.334 110.509,235.501 116.5,236C 119.376,236.438 122.043,237.438 124.5,239C 129.789,242.62 134.789,246.62 139.5,251C 156.474,268.389 156.808,286.056 140.5,304C 127.002,314.966 112.002,317.966 95.5,313C 87.5179,307.872 82.3513,300.705 80,291.5C 76.3372,282.229 76.0038,272.896 79,263.5C 81.1361,256.758 83.4695,250.091 86,243.5C 89.3407,239.42 93.5074,236.754 98.5,235.5 Z"/></g>
<g><path style="opacity:1" fill="#574b33" d="M 230.5,242.5 C 237.189,243.313 243.856,244.313 250.5,245.5C 246.588,253.657 242.422,261.657 238,269.5C 232.774,283.265 232.107,297.265 236,311.5C 238.471,318.445 241.971,324.778 246.5,330.5C 240.528,331.33 234.528,331.83 228.5,332C 225.18,332.743 222.013,333.91 219,335.5C 211.506,328.511 207.172,319.845 206,309.5C 204.574,298.164 205.907,287.164 210,276.5C 215.085,263.976 221.918,252.643 230.5,242.5 Z"/></g>
<g><path style="opacity:1" fill="#574b33" d="M 415.5,287.5 C 422.75,287.788 429.917,288.454 437,289.5C 439.041,288.577 441.208,288.244 443.5,288.5C 451.112,318.9 448.279,348.234 435,376.5C 434.311,377.357 433.478,378.023 432.5,378.5C 423.964,374.98 415.297,374.647 406.5,377.5C 404.734,377.566 403.734,376.732 403.5,375C 411.907,360.113 417.74,344.28 421,327.5C 421.667,320.167 421.667,312.833 421,305.5C 419.885,301.271 418.219,297.271 416,293.5C 415.505,291.527 415.338,289.527 415.5,287.5 Z"/></g>
<g><path style="opacity:0.992" fill="#c5592f" d="M 532.5,330.5 C 544.584,329.693 554.751,333.693 563,342.5C 567.246,347.991 571.246,353.658 575,359.5C 577.297,381.543 567.463,394.543 545.5,398.5C 516.823,394.83 505.656,378.83 512,350.5C 514.373,344.805 517.54,339.638 521.5,335C 524.979,332.791 528.646,331.291 532.5,330.5 Z"/></g>
<g><path style="opacity:1" fill="#c65930" d="M 230.5,350.5 C 242.655,350.019 251.488,355.019 257,365.5C 259.379,372.517 261.213,379.683 262.5,387C 261.36,393.946 258.36,399.946 253.5,405C 236.222,421.068 219.722,420.234 204,402.5C 190.673,379.623 196.173,363.123 220.5,353C 223.991,352.262 227.325,351.429 230.5,350.5 Z"/></g>
<g><path style="opacity:1" fill="#574b33" d="M 275.5,371.5 C 280.268,374.42 284.934,377.586 289.5,381C 301.54,385.427 313.873,388.76 326.5,391C 344.525,390.942 362.525,390.109 380.5,388.5C 377.761,394.323 375.261,400.323 373,406.5C 371.927,413.154 370.927,419.82 370,426.5C 369.5,427 369,427.5 368.5,428C 351.016,428.122 333.683,426.456 316.5,423C 300.363,419.636 285.03,414.136 270.5,406.5C 270.167,405.833 269.833,405.167 269.5,404.5C 271.884,400.516 273.384,396.183 274,391.5C 274.205,384.754 274.705,378.087 275.5,371.5 Z"/></g>
<g><path style="opacity:1" fill="#c65930" d="M 412.5,393.5 C 420.694,393.198 428.361,395.031 435.5,399C 438,402.833 441.167,406 445,408.5C 452.612,420.944 451.945,432.944 443,444.5C 435.608,451.85 426.775,454.35 416.5,452C 406.219,447.706 397.719,441.206 391,432.5C 385.177,412.191 392.343,399.191 412.5,393.5 Z"/></g>
<g><path style="opacity:1" fill="#c65930" d="M 289.5,493.5 C 298.999,494.25 307.333,497.75 314.5,504C 324.703,512.637 328.203,523.471 325,536.5C 320.842,546.357 313.675,553.19 303.5,557C 290.136,561.661 278.302,559.161 268,549.5C 258.508,534.317 258.174,518.984 267,503.5C 273.938,498.608 281.438,495.275 289.5,493.5 Z"/></g>
</svg>
