<?xml version="1.0" encoding="UTF-8"?>
<!DOCTYPE svg PUBLIC "-//W3C//DTD SVG 1.1//EN" "http://www.w3.org/Graphics/SVG/1.1/DTD/svg11.dtd">
<svg xmlns="http://www.w3.org/2000/svg" version="1.1" width="633px" height="652px" style="shape-rendering:geometricPrecision; text-rendering:geometricPrecision; image-rendering:optimizeQuality; fill-rule:evenodd; clip-rule:evenodd" xmlns:xlink="http://www.w3.org/1999/xlink">
<g><path style="opacity:1" fill="#067a63" d="M 219.5,83.5 C 221.722,83.178 223.556,83.8446 225,85.5C 229.824,95.8175 235.158,105.817 241,115.5C 249.883,140.151 259.55,164.484 270,188.5C 285.548,220.928 300.548,253.594 315,286.5C 319.342,299.358 323.175,312.358 326.5,325.5C 326.594,327.912 325.594,329.745 323.5,331C 318.167,334 312.833,337 307.5,340C 302.953,341.711 298.286,342.378 293.5,342C 292.333,340.833 291.167,339.667 290,338.5C 279.922,318.011 269.589,297.677 259,277.5C 246.026,212.797 232.859,148.131 219.5,83.5 Z"/></g>
<g><path style="opacity:1" fill="#067a63" d="M 459.5,92.5 C 461.701,92.8584 463.035,94.1917 463.5,96.5C 456.283,141.468 447.449,186.135 437,230.5C 432.136,248.424 426.47,266.091 420,283.5C 413.834,294.503 407.167,305.17 400,315.5C 396.279,323.109 392.446,330.609 388.5,338C 380.865,336.629 373.198,335.129 365.5,333.5C 378.472,288.623 391.305,243.623 404,198.5C 409,189.833 414,181.167 419,172.5C 430.678,144.81 444.178,118.144 459.5,92.5 Z"/></g>
<g><path style="opacity:0.984" fill="#067a63" d="M 348.5,104.5 C 350.39,104.297 351.89,104.963 353,106.5C 355.692,142.785 357.026,179.119 357,215.5C 355.393,228.842 353.727,242.176 352,255.5C 351.25,256.126 350.416,256.626 349.5,257C 339.625,257.398 329.792,258.232 320,259.5C 317.147,259.166 315.647,257.499 315.5,254.5C 316.38,249.51 317.213,244.51 318,239.5C 325.944,220.712 329.944,201.045 330,180.5C 334.058,156.21 339.391,132.21 346,108.5C 346.48,106.867 347.313,105.534 348.5,104.5 Z"/></g>
<g><path style="opacity:0.999" fill="#067a62" d="M 130.5,200.5 C 147.959,214.12 165.292,227.953 182.5,242C 188.708,248.539 194.541,255.373 200,262.5C 210.936,271.433 221.269,281.1 231,291.5C 231.667,293.167 231.667,294.833 231,296.5C 222.446,310.942 214.946,325.942 208.5,341.5C 206.994,342.747 205.494,342.747 204,341.5C 185.009,308.518 167.342,274.851 151,240.5C 143.312,228.457 136.146,216.123 129.5,203.5C 129.685,202.416 130.018,201.416 130.5,200.5 Z"/></g>
<g><path style="opacity:1" fill="#067a63" d="M 562.5,239.5 C 568.496,238.333 570.996,240.666 570,246.5C 558.416,264.666 547.083,282.999 536,301.5C 521.613,317.952 507.946,334.952 495,352.5C 491.167,356.333 487.333,360.167 483.5,364C 482.167,364.667 480.833,364.667 479.5,364C 470.824,347.483 462.657,330.983 455,314.5C 464.366,305.902 474.533,298.402 485.5,292C 506.812,276.341 528.812,261.674 551.5,248C 555.235,245.147 558.902,242.313 562.5,239.5 Z"/></g>
<g><path style="opacity:0.994" fill="#d55200" d="M 333.5,262.5 C 346.512,263.644 359.512,264.978 372.5,266.5C 372.658,269.545 371.991,272.379 370.5,275C 370.957,275.414 371.291,275.914 371.5,276.5C 368.735,281.637 367.069,286.47 366.5,291C 363.262,302.116 360.095,313.283 357,324.5C 356.167,325.333 355.333,326.167 354.5,327C 349.442,328.01 344.609,327.51 340,325.5C 333.536,306.609 327.37,287.609 321.5,268.5C 321.57,267.228 321.903,266.062 322.5,265C 326.312,264.205 329.979,263.371 333.5,262.5 Z"/></g>
<g><path style="opacity:0.996" fill="#d55200" d="M 253.5,290.5 C 255.144,290.286 256.644,290.62 258,291.5C 267.789,310.374 277.289,329.374 286.5,348.5C 280.43,358.298 274.597,368.298 269,378.5C 268.107,379.081 267.107,379.415 266,379.5C 247.509,374.836 229.342,369.17 211.5,362.5C 211.167,361.333 210.833,360.167 210.5,359C 212.623,351.582 215.456,344.416 219,337.5C 223.967,328.52 228.967,319.52 234,310.5C 240.032,303.302 246.532,296.636 253.5,290.5 Z"/></g>
<g><path style="opacity:0.995" fill="#d55200" d="M 423.5,302.5 C 428.734,303.892 433.401,306.392 437.5,310C 442.721,315.221 447.887,320.387 453,325.5C 460.34,344.843 467.673,364.177 475,383.5C 476.085,391.179 477.252,398.846 478.5,406.5C 478.55,409.574 477.217,411.741 474.5,413C 459.534,416.364 444.368,418.198 429,418.5C 427.439,418.397 425.939,418.063 424.5,417.5C 424.924,405.071 423.757,392.738 421,380.5C 415.357,368.698 408.857,357.531 401.5,347C 407.649,331.536 414.982,316.702 423.5,302.5 Z"/></g>
<g><path style="opacity:1" fill="#067a63" d="M 341.5,331.5 C 344.166,331.933 346.832,332.433 349.5,333C 362.381,338.041 375.381,342.707 388.5,347C 404.108,361.895 412.108,380.228 412.5,402C 412.594,413.741 408.427,423.574 400,431.5C 398.209,434.993 396.876,438.659 396,442.5C 384.673,455.171 371.173,464.671 355.5,471C 331.358,474.952 311.525,467.452 296,448.5C 284.863,432.731 278.696,415.231 277.5,396C 279.765,382.303 284.932,369.803 293,358.5C 303.049,349.89 313.883,342.39 325.5,336C 330.956,334.473 336.289,332.973 341.5,331.5 Z"/></g>
<g><path style="opacity:1" fill="#067a63" d="M 75.5,336.5 C 139.465,347.322 201.799,364.156 262.5,387C 263.704,388.353 264.371,390.019 264.5,392C 264.034,395.989 263.701,399.989 263.5,404C 264.143,410.192 264.643,416.359 265,422.5C 264.044,423.894 262.711,424.561 261,424.5C 234.476,415.324 208.309,405.157 182.5,394C 170.413,389.86 158.413,385.527 146.5,381C 144.167,378 141.5,375.333 138.5,373C 116.567,363.617 95.4007,352.784 75,340.5C 74.4209,339.072 74.5876,337.738 75.5,336.5 Z"/></g>
<g><path style="opacity:0.997" fill="#d55200" d="M 205.5,439.5 C 215.671,440.734 225.838,442.067 236,443.5C 237.707,443.352 239.374,443.018 241,442.5C 252.505,444.421 264.005,446.254 275.5,448C 288.763,470.241 308.263,483.408 334,487.5C 346.262,488.126 358.095,485.959 369.5,481C 383.103,473.022 395.436,463.356 406.5,452C 418.546,451.188 430.546,451.354 442.5,452.5C 448.82,451.169 455.153,449.836 461.5,448.5C 463.947,448.901 464.947,450.401 464.5,453C 458.83,468.67 451.997,483.837 444,498.5C 438.469,504.366 432.635,509.866 426.5,515C 407.595,522.12 388.929,529.787 370.5,538C 331.199,541.845 293.866,534.845 258.5,517C 250.5,511.333 242.5,505.667 234.5,500C 230.298,496.133 226.465,491.967 223,487.5C 217.349,476.198 211.682,464.864 206,453.5C 205.103,449.848 204.27,446.181 203.5,442.5C 203.942,441.261 204.609,440.261 205.5,439.5 Z"/></g>
</svg>
