<?xml version="1.0" encoding="UTF-8"?>
<!DOCTYPE svg PUBLIC "-//W3C//DTD SVG 1.1//EN" "http://www.w3.org/Graphics/SVG/1.1/DTD/svg11.dtd">
<svg xmlns="http://www.w3.org/2000/svg" version="1.1" width="637px" height="655px" style="shape-rendering:geometricPrecision; text-rendering:geometricPrecision; image-rendering:optimizeQuality; fill-rule:evenodd; clip-rule:evenodd" xmlns:xlink="http://www.w3.org/1999/xlink">
<g><path style="opacity:0.996" fill="#af5ce2" d="M 301.5,83.5 C 353.536,81.6784 402.869,92.1784 449.5,115C 463.856,124.845 477.856,135.179 491.5,146C 498.687,153.553 505.52,161.386 512,169.5C 517.589,179.677 522.922,190.01 528,200.5C 532.874,210.92 537.208,221.586 541,232.5C 544.567,245.775 548.901,258.775 554,271.5C 554.84,286.165 555.173,300.831 555,315.5C 552.908,327.145 550.908,338.812 549,350.5C 543.487,369.555 537.82,388.555 532,407.5C 528.476,413.744 525.143,420.077 522,426.5C 507.958,445.214 492.458,462.714 475.5,479C 465.475,487.696 455.475,496.362 445.5,505C 432.451,512.525 419.118,519.525 405.5,526C 390.956,531.07 376.29,535.737 361.5,540C 358.287,540.703 355.121,540.536 352,539.5C 350.699,538.902 349.865,537.902 349.5,536.5C 351.731,520.953 357.731,507.12 367.5,495C 375.864,488.82 385.197,484.82 395.5,483C 411.521,476.823 427.188,469.823 442.5,462C 463.927,449.574 481.094,432.74 494,411.5C 506.752,384.579 513.752,356.246 515,326.5C 516.179,309.697 515.179,293.03 512,276.5C 507.222,262.279 501.889,248.279 496,234.5C 493.736,216.642 487.069,200.642 476,186.5C 470.5,181 465,175.5 459.5,170C 436.813,153.981 412.813,139.981 387.5,128C 345.084,111.888 303.084,112.888 261.5,131C 248.375,137.396 235.375,144.063 222.5,151C 203.747,169.421 185.247,188.254 167,207.5C 151.397,232.303 141.731,259.303 138,288.5C 132.998,316.8 135.331,344.467 145,371.5C 155.568,393.651 167.902,414.651 182,434.5C 194.705,448.216 208.872,460.049 224.5,470C 230.694,476.194 236.86,482.36 243,488.5C 246.703,493.937 249.036,499.937 250,506.5C 252.152,515.715 253.318,525.048 253.5,534.5C 245.476,533.743 237.809,531.576 230.5,528C 220.686,520.258 210.352,513.258 199.5,507C 180.76,491.596 163.26,474.762 147,456.5C 137.733,442.301 127.733,428.634 117,415.5C 111.804,404.907 106.804,394.24 102,383.5C 99.4636,373.687 96.4636,364.02 93,354.5C 91.2897,321.156 93.9564,288.156 101,255.5C 107,240.167 113,224.833 119,209.5C 125.579,200.675 131.913,191.675 138,182.5C 153.533,166.635 168.7,150.468 183.5,134C 218.096,106.187 257.43,89.3538 301.5,83.5 Z"/></g>
<g><path style="opacity:1" fill="#3c2f89" d="M 316.5,140.5 C 335.379,139.584 354.045,141.084 372.5,145C 401.674,154.344 426.841,170.177 448,192.5C 453.911,199.989 459.577,207.655 465,215.5C 471.531,227.014 473.864,239.347 472,252.5C 470.084,271.93 462.917,289.096 450.5,304C 436.685,314.41 422.351,324.076 407.5,333C 387.333,342.388 367,351.388 346.5,360C 335.833,365.333 325.167,370.667 314.5,376C 305.042,383.156 299.209,392.656 297,404.5C 296.333,407.833 295.667,411.167 295,414.5C 294.6,428.693 293.767,442.86 292.5,457C 293.964,485.514 293.797,514.014 292,542.5C 290.847,544.497 289.347,544.83 287.5,543.5C 278.463,496.276 269.963,448.943 262,401.5C 260.343,392.197 257.676,383.197 254,374.5C 251.241,352.68 257.741,334.18 273.5,319C 283.558,311.211 295.058,307.711 308,308.5C 329.935,312.224 350.769,309.057 370.5,299C 374.422,295.749 377.588,291.916 380,287.5C 380.16,274.139 377.16,261.473 371,249.5C 361.074,236.572 349.574,225.405 336.5,216C 318.316,209.358 302.483,212.858 289,226.5C 280.275,240.336 279.441,254.502 286.5,269C 286.265,269.873 285.931,270.707 285.5,271.5C 273.182,275.262 260.849,275.095 248.5,271C 243.588,267.579 238.254,264.912 232.5,263C 216.847,248.511 210.68,230.678 214,209.5C 216.799,203.768 218.799,197.768 220,191.5C 222.827,188.671 224.827,185.337 226,181.5C 235.719,171.443 247.219,164.276 260.5,160C 277.826,149.506 296.492,143.006 316.5,140.5 Z"/></g>
<g><path style="opacity:1" fill="#3c2f89" d="M 183.5,240.5 C 185.722,240.178 187.556,240.845 189,242.5C 199.667,258.5 210.333,274.5 221,290.5C 222.375,295.748 223.208,301.082 223.5,306.5C 221.409,316.049 220.076,325.715 219.5,335.5C 219.163,353.011 222.663,369.678 230,385.5C 237.265,399.753 244.932,413.753 253,427.5C 258.81,445.693 261.81,464.36 262,483.5C 260.333,486.167 258.667,486.167 257,483.5C 250.007,468.174 241.007,454.174 230,441.5C 213.301,424.469 196.967,407.135 181,389.5C 164.698,366.357 156.531,340.524 156.5,312C 156.526,306.453 157.026,300.953 158,295.5C 160.831,284.676 164.165,274.01 168,263.5C 171.691,254.768 176.858,247.102 183.5,240.5 Z"/></g>
<g><path style="opacity:1" fill="#3c2f89" d="M 432.5,342.5 C 447.992,341.261 462.992,343.095 477.5,348C 491.594,359.77 494.427,373.937 486,390.5C 471.137,414.365 450.971,432.198 425.5,444C 411.956,446.144 398.289,447.144 384.5,447C 375.037,447.733 366.371,450.733 358.5,456C 340.21,482.431 328.377,511.597 323,543.5C 321.951,544.517 320.784,544.684 319.5,544C 315.258,537.88 313.092,531.047 313,523.5C 311.168,498.528 310.501,473.528 311,448.5C 313.239,429.854 321.406,414.354 335.5,402C 341.17,398.537 347.337,396.37 354,395.5C 360.542,397.52 367.042,399.687 373.5,402C 378.996,405.916 384.663,409.582 390.5,413C 396.5,413.667 402.5,413.667 408.5,413C 419.302,405.226 422.468,395.059 418,382.5C 414.053,377.107 408.719,375.107 402,376.5C 398.833,376.667 395.667,376.833 392.5,377C 387.267,379.116 381.934,380.949 376.5,382.5C 375.09,382.132 374.09,381.299 373.5,380C 374.655,368.715 380.322,360.382 390.5,355C 404.484,350.278 418.484,346.111 432.5,342.5 Z"/></g>
</svg>
