<?xml version="1.0" encoding="UTF-8"?>
<!DOCTYPE svg PUBLIC "-//W3C//DTD SVG 1.1//EN" "http://www.w3.org/Graphics/SVG/1.1/DTD/svg11.dtd">
<svg xmlns="http://www.w3.org/2000/svg" version="1.1" width="637px" height="656px" style="shape-rendering:geometricPrecision; text-rendering:geometricPrecision; image-rendering:optimizeQuality; fill-rule:evenodd; clip-rule:evenodd" xmlns:xlink="http://www.w3.org/1999/xlink">
<g><path style="opacity:0.97" fill="#000000" d="M 423.5,76.5 C 424.816,79.0866 425.483,82.0866 425.5,85.5C 425.265,91.8541 424.765,98.1874 424,104.5C 419.077,131.783 414.41,159.116 410,186.5C 409.726,195.39 408.892,204.223 407.5,213C 407.833,214.5 408.167,216 408.5,217.5C 444.564,200.534 481.897,187.034 520.5,177C 523.146,176.503 525.813,176.336 528.5,176.5C 527.515,180.809 525.681,184.809 523,188.5C 515.667,197.833 508.333,207.167 501,216.5C 486.396,233.106 471.062,249.106 455,264.5C 451.389,270.444 447.389,276.111 443,281.5C 422.049,300.781 402.882,321.614 385.5,344C 432.622,326.176 479.955,308.51 527.5,291C 539.536,287.266 551.536,283.432 563.5,279.5C 564.614,280.723 564.781,282.056 564,283.5C 562.833,284.667 561.667,285.833 560.5,287C 531.833,305.333 503.167,323.667 474.5,342C 454.614,353.777 434.28,364.777 413.5,375C 404.13,382.019 394.13,388.019 383.5,393C 337.485,420.678 290.818,447.345 243.5,473C 227.098,483.729 210.432,494.063 193.5,504C 191.833,504.667 190.167,504.667 188.5,504C 179.959,499.291 173.292,492.791 168.5,484.5C 182.54,455.414 199.374,428.081 219,402.5C 245.081,356.67 271.414,311.003 298,265.5C 327.23,225.4 354.23,183.733 379,140.5C 394.09,119.312 408.923,97.9789 423.5,76.5 Z"/></g>
<g><path style="opacity:0.974" fill="#fe2403" d="M 326.5,133.5 C 330.487,133.652 331.987,135.652 331,139.5C 326.95,149.526 322.95,159.526 319,169.5C 314.771,176.5 311.104,183.833 308,191.5C 306.491,192.09 304.991,192.756 303.5,193.5C 302.826,195.517 301.659,197.183 300,198.5C 291.46,213.581 283.46,228.915 276,244.5C 269.945,252.222 264.278,260.222 259,268.5C 245.76,293.311 232.76,318.311 220,343.5C 211.441,355.949 204.441,369.283 199,383.5C 193.111,393.443 187.611,403.61 182.5,414C 179.774,418.12 176.94,418.287 174,414.5C 173.833,413.333 173.667,412.167 173.5,411C 181.21,346.276 188.043,281.442 194,216.5C 196.105,198.345 196.605,180.178 195.5,162C 196.808,159.663 197.808,157.163 198.5,154.5C 200.042,153.253 201.542,153.253 203,154.5C 211.274,167.38 218.774,180.713 225.5,194.5C 243.673,182.581 261.673,170.414 279.5,158C 294.976,149.264 310.643,141.097 326.5,133.5 Z"/></g>
<g><path style="opacity:0.937" fill="#000000" d="M 158.5,158.5 C 159.675,158.281 160.675,158.614 161.5,159.5C 163.514,162.357 164.514,165.524 164.5,169C 164.78,190.71 164.78,212.544 164.5,234.5C 164.732,236.798 165.399,238.965 166.5,241C 165.229,243.823 165.229,246.657 166.5,249.5C 166.444,250.737 165.944,251.737 165,252.5C 164.095,290.237 161.762,327.904 158,365.5C 157.5,366 157,366.5 156.5,367C 157.489,379.109 157.322,391.276 156,403.5C 155.5,404 155,404.5 154.5,405C 155.141,407.578 155.475,410.245 155.5,413C 154.917,422.162 154.417,431.329 154,440.5C 153.13,441.108 152.63,441.941 152.5,443C 153.609,449.462 153.775,455.962 153,462.5C 152.388,465.032 150.888,465.865 148.5,465C 145.382,460.214 141.882,455.714 138,451.5C 128.3,435.296 118.8,418.963 109.5,402.5C 93.9353,371.24 84.4353,338.24 81,303.5C 80.1686,293.455 80.5019,283.455 82,273.5C 85.5897,272.595 89.0897,273.095 92.5,275C 100.453,280.618 108.12,286.618 115.5,293C 117.473,293.495 119.473,293.662 121.5,293.5C 129.186,261.24 136.686,228.907 144,196.5C 147.781,183.308 152.614,170.641 158.5,158.5 Z"/></g>
<g><path style="opacity:0.959" fill="#fe2404" d="M 525.5,349.5 C 526.5,349.5 527.5,349.5 528.5,349.5C 528.919,352.325 527.919,354.491 525.5,356C 491.02,387.052 456.02,417.385 420.5,447C 441.522,449.157 462.522,451.49 483.5,454C 488.404,455.156 488.738,457.156 484.5,460C 438.979,470.77 392.979,479.104 346.5,485C 326.19,489.495 305.857,493.828 285.5,498C 259.666,505.867 233.333,511.367 206.5,514.5C 206.423,511.491 207.756,509.324 210.5,508C 243.415,489.375 277.081,472.042 311.5,456C 329.653,446.759 347.32,436.759 364.5,426C 404.079,407.211 443.413,387.877 482.5,368C 497.14,362.296 511.473,356.129 525.5,349.5 Z"/></g>
<g><path style="opacity:0.94" fill="#000000" d="M 362.5,499.5 C 369.635,502.49 376.968,504.99 384.5,507C 398.896,508.645 413.229,510.645 427.5,513C 433.242,514.803 438.909,516.803 444.5,519C 445.406,520.699 445.739,522.533 445.5,524.5C 418.142,532.756 390.475,539.923 362.5,546C 349.509,547.249 336.509,548.416 323.5,549.5C 304.449,546.982 285.449,544.149 266.5,541C 255.74,538.482 245.073,535.649 234.5,532.5C 233.261,530.993 233.595,529.826 235.5,529C 277.937,519.008 320.27,509.174 362.5,499.5 Z"/></g>
</svg>
