<?xml version="1.0" encoding="UTF-8"?>
<!DOCTYPE svg PUBLIC "-//W3C//DTD SVG 1.1//EN" "http://www.w3.org/Graphics/SVG/1.1/DTD/svg11.dtd">
<svg xmlns="http://www.w3.org/2000/svg" version="1.1" width="641px" height="656px" style="shape-rendering:geometricPrecision; text-rendering:geometricPrecision; image-rendering:optimizeQuality; fill-rule:evenodd; clip-rule:evenodd" xmlns:xlink="http://www.w3.org/1999/xlink">
<g><path style="opacity:0.998" fill="#3245a4" d="M 315.5,105.5 C 324.112,104.795 332.445,105.962 340.5,109C 348.036,113.601 355.703,117.934 363.5,122C 366.833,122.667 370.167,122.667 373.5,122C 390.375,117.066 407.375,116.399 424.5,120C 436.795,125.627 446.629,134.127 454,145.5C 459.744,154.988 464.41,164.988 468,175.5C 473.241,181.652 478.241,187.985 483,194.5C 491.281,201.446 500.114,207.612 509.5,213C 524.335,228.171 533.168,246.337 536,267.5C 538.821,289.627 536.821,311.293 530,332.5C 525.942,341.339 522.276,350.339 519,359.5C 516.992,372.901 514.659,386.235 512,399.5C 500.336,442.838 473.502,472.671 431.5,489C 422.898,491.495 414.232,493.828 405.5,496C 391.953,501.206 380.287,509.206 370.5,520C 359.837,528.003 348.503,535.003 336.5,541C 324.433,545.975 311.933,549.142 299,550.5C 286.049,549.577 273.549,546.744 261.5,542C 256.167,538.667 250.833,535.333 245.5,532C 241,527.5 236.5,523 232,518.5C 231.251,517.365 231.417,516.365 232.5,515.5C 241.742,514.393 250.742,512.226 259.5,509C 279.48,499.702 299.48,490.369 319.5,481C 334.574,476.065 349.907,472.065 365.5,469C 375.283,466.189 384.283,461.856 392.5,456C 399.365,449.469 405.865,442.636 412,435.5C 421.553,419.95 431.886,404.95 443,390.5C 450.888,378.39 456.888,365.39 461,351.5C 464.273,332.476 463.939,313.476 460,294.5C 456.933,285.965 454.266,277.299 452,268.5C 450.864,258.8 449.53,249.133 448,239.5C 431.361,204.561 403.861,183.395 365.5,176C 357.792,175.294 350.125,175.628 342.5,177C 333.972,179.567 325.306,181.4 316.5,182.5C 301.999,180.867 287.499,179.2 273,177.5C 250.952,179.694 231.952,188.361 216,203.5C 212,208.167 208,212.833 204,217.5C 193.954,233.592 184.954,250.259 177,267.5C 174.663,275.178 172.329,282.844 170,290.5C 167.452,302.368 168.118,314.035 172,325.5C 183.13,345.287 199.63,358.453 221.5,365C 232.423,366.863 243.423,368.03 254.5,368.5C 269.937,366.036 282.77,359.036 293,347.5C 305.252,328.105 301.085,313.271 280.5,303C 278.899,302.727 277.399,302.227 276,301.5C 268.176,303.966 260.343,303.799 252.5,301C 242.179,293.102 240.679,283.602 248,272.5C 251.5,269 255,265.5 258.5,262C 265.313,258.548 272.313,255.548 279.5,253C 294.054,249.609 306.721,252.942 317.5,263C 322.167,267.667 326.833,272.333 331.5,277C 354.183,285.388 364.183,301.721 361.5,326C 357.362,358.136 340.362,380.47 310.5,393C 298.031,396.53 285.698,400.196 273.5,404C 259.167,413 244.833,422 230.5,431C 217.108,436.154 203.275,439.321 189,440.5C 176.586,439.473 165.086,435.64 154.5,429C 147.885,421.61 142.385,413.444 138,404.5C 129,396.833 120.667,388.5 113,379.5C 103.801,362.253 99.8013,343.919 101,324.5C 102.873,318.431 104.373,312.264 105.5,306C 99.7496,269.52 106.583,235.686 126,204.5C 134.874,196.311 144.707,189.478 155.5,184C 164.05,181.117 172.383,177.784 180.5,174C 182.705,171.46 185.205,169.293 188,167.5C 194.535,146.298 208.368,132.465 229.5,126C 242.541,125.878 255.541,125.211 268.5,124C 271.845,121.909 275.512,120.576 279.5,120C 290.093,111.548 302.093,106.715 315.5,105.5 Z"/></g>
<g><path style="opacity:0.995" fill="#42b4be" d="M 346.5,187.5 C 353.278,187.514 359.945,188.347 366.5,190C 378.899,196.399 388.733,205.565 396,217.5C 407.809,229.065 419.809,240.398 432,251.5C 441.496,263.307 444.496,276.64 441,291.5C 437.139,304.753 433.473,318.087 430,331.5C 433.851,371.643 421.018,405.143 391.5,432C 385.764,436.064 379.764,439.73 373.5,443C 359.12,447.09 345.12,452.09 331.5,458C 326.533,461.966 321.866,466.299 317.5,471C 311.924,475.87 305.424,478.37 298,478.5C 291.512,477.248 285.012,476.415 278.5,476C 276.122,476.511 273.788,477.178 271.5,478C 259.295,489.178 244.962,493.511 228.5,491C 220.553,489.098 212.886,486.431 205.5,483C 202.628,480.463 200.128,477.63 198,474.5C 197.132,470.328 198.632,467.162 202.5,465C 226.302,459.928 247.969,450.262 267.5,436C 272.648,428.517 279.315,422.85 287.5,419C 297.662,415.876 307.995,413.543 318.5,412C 337.061,406.78 350.894,395.613 360,378.5C 363.193,370.961 366.86,363.628 371,356.5C 381.17,333.256 382.17,309.59 374,285.5C 358.639,260.047 336.139,244.881 306.5,240C 297.647,238.679 288.813,238.179 280,238.5C 265.479,239.593 253.812,245.927 245,257.5C 240,263.833 235,270.167 230,276.5C 222.669,289.48 222.669,302.48 230,315.5C 233.352,320.092 237.852,322.426 243.5,322.5C 249.404,320.876 255.404,320.376 261.5,321C 265.02,321.504 267.52,323.337 269,326.5C 270.745,333.564 269.245,339.731 264.5,345C 255.937,350.41 246.603,352.743 236.5,352C 225.445,347.973 215.112,342.64 205.5,336C 199.285,328.786 193.451,321.286 188,313.5C 183.179,294.748 185.179,276.748 194,259.5C 198.06,255.708 201.393,251.374 204,246.5C 207.632,243.87 210.965,240.87 214,237.5C 224.971,202.25 248.805,187.75 285.5,194C 293.781,195.817 302.115,197.317 310.5,198.5C 323.081,196.415 335.081,192.748 346.5,187.5 Z"/></g>
</svg>
