<?xml version="1.0" encoding="UTF-8"?>
<!DOCTYPE svg PUBLIC "-//W3C//DTD SVG 1.1//EN" "http://www.w3.org/Graphics/SVG/1.1/DTD/svg11.dtd">
<svg xmlns="http://www.w3.org/2000/svg" version="1.1" width="48px" height="48px" style="shape-rendering:geometricPrecision; text-rendering:geometricPrecision; image-rendering:optimizeQuality; fill-rule:evenodd; clip-rule:evenodd" xmlns:xlink="http://www.w3.org/1999/xlink">
<g><path style="opacity:0.972" fill="#e71d64" d="M 23.5,3.5 C 23.5,9.83333 23.5,16.1667 23.5,22.5C 23.1667,22.5 22.8333,22.5 22.5,22.5C 19.7674,16.7019 16.7674,11.0353 13.5,5.5C 16.7635,4.51779 20.0968,3.85112 23.5,3.5 Z"/></g>
<g><path style="opacity:0.993" fill="#f44335" d="M 23.5,3.5 C 26.9032,3.85112 30.2365,4.51779 33.5,5.5C 30.8333,10.8333 28.1667,16.1667 25.5,21.5C 25.1667,22.1667 24.8333,22.8333 24.5,23.5C 24.1667,23.5 23.8333,23.5 23.5,23.5C 23.5,23.1667 23.5,22.8333 23.5,22.5C 23.5,16.1667 23.5,9.83333 23.5,3.5 Z"/></g>
<g><path style="opacity:0.965" fill="#9d27af" d="M 13.5,5.5 C 16.7674,11.0353 19.7674,16.7019 22.5,22.5C 16.9647,19.2326 11.2981,16.2326 5.5,13.5C 7.83333,10.5 10.5,7.83333 13.5,5.5 Z"/></g>
<g><path style="opacity:0.977" fill="#fe5722" d="M 33.5,5.5 C 36.5,7.83333 39.1667,10.5 41.5,13.5C 36.1667,16.1667 30.8333,18.8333 25.5,21.5C 28.1667,16.1667 30.8333,10.8333 33.5,5.5 Z"/></g>
<g><path style="opacity:0.966" fill="#6839b6" d="M 5.5,13.5 C 11.2981,16.2326 16.9647,19.2326 22.5,22.5C 22.8333,22.5 23.1667,22.5 23.5,22.5C 23.5,22.8333 23.5,23.1667 23.5,23.5C 16.8333,23.5 10.1667,23.5 3.5,23.5C 3.85112,20.0968 4.51779,16.7635 5.5,13.5 Z"/></g>
<g><path style="opacity:0.951" fill="#ff9600" d="M 41.5,13.5 C 42.4822,16.7635 43.1489,20.0968 43.5,23.5C 37.1667,23.5 30.8333,23.5 24.5,23.5C 24.8333,22.8333 25.1667,22.1667 25.5,21.5C 30.8333,18.8333 36.1667,16.1667 41.5,13.5 Z"/></g>
<g><path style="opacity:0.983" fill="#3e53b6" d="M 3.5,23.5 C 10.1667,23.5 16.8333,23.5 23.5,23.5C 23.5,23.8333 23.5,24.1667 23.5,24.5C 22.8333,24.8333 22.1667,25.1667 21.5,25.5C 16.1667,28.1667 10.8333,30.8333 5.5,33.5C 4.51779,30.2365 3.85112,26.9032 3.5,23.5 Z"/></g>
<g><path style="opacity:0.981" fill="#fec108" d="M 23.5,24.5 C 23.5,24.1667 23.5,23.8333 23.5,23.5C 23.8333,23.5 24.1667,23.5 24.5,23.5C 30.8333,23.5 37.1667,23.5 43.5,23.5C 43.1489,26.9032 42.4822,30.2365 41.5,33.5C 35.7019,30.7674 30.0353,27.7674 24.5,24.5C 24.1667,24.5 23.8333,24.5 23.5,24.5 Z"/></g>
<g><path style="opacity:0.97" fill="#4bae52" d="M 23.5,24.5 C 23.5,30.8333 23.5,37.1667 23.5,43.5C 20.0968,43.1489 16.7635,42.4822 13.5,41.5C 16.1667,36.1667 18.8333,30.8333 21.5,25.5C 22.1667,25.1667 22.8333,24.8333 23.5,24.5 Z"/></g>
<g><path style="opacity:0.966" fill="#8cc349" d="M 23.5,24.5 C 23.8333,24.5 24.1667,24.5 24.5,24.5C 27.2326,30.2981 30.2326,35.9647 33.5,41.5C 30.2365,42.4822 26.9032,43.1489 23.5,43.5C 23.5,37.1667 23.5,30.8333 23.5,24.5 Z"/></g>
<g><path style="opacity:0.897" fill="#fce93a" d="M 24.5,24.5 C 30.0353,27.7674 35.7019,30.7674 41.5,33.5C 39.1667,36.5 36.5,39.1667 33.5,41.5C 30.2326,35.9647 27.2326,30.2981 24.5,24.5 Z"/></g>
<g><path style="opacity:0.977" fill="#06a7f1" d="M 21.5,25.5 C 18.8333,30.8333 16.1667,36.1667 13.5,41.5C 10.5,39.1667 7.83333,36.5 5.5,33.5C 10.8333,30.8333 16.1667,28.1667 21.5,25.5 Z"/></g>
</svg>
