<svg xmlns="http://www.w3.org/2000/svg" viewBox="0 0 45.78 45.78" fill="#d8eff9">
  <g>
    <path class="cls-1" d="m20.78,45.78c-.79.06-1.49-1.39-1.7-1.81-1.61-3.25-5.65-9.46-8.74-12.81-3.32-3.6-4.98-5.41-7.72-6.9C1.67,23.73.09,22.98,0,21.78c-.09-1.28,1.55-2.34,2.43-2.92,2.63-1.75,6.87-4.57,9.39-7.19,4.64-4.82,6.69-9.56,6.69-9.56C18.74,1.56,19.4-.02,20.23,0c.8.02,1.35,1.53,1.54,2.02,1.43,3.74,4.23,7.93,5.68,9.64,3.18,3.75,9.62,7.14,11.44,8.09.48.25,1.94,1,1.89,1.91-.04.73-1.02,1.22-1.3,1.36-3.37,1.74-8.68,6.77-8.84,6.93-4.34,4.12-7.87,12.54-8.67,14.44-.13.32-.54,1.32-1.19,1.37Z"/>
  </g>
</svg>