<svg xmlns="http://www.w3.org/2000/svg" viewBox="0 0 51.3 51.3" fill="#ff6100">
  <g  >
    <path class="cls-1" d="m34.34,28.37c-.22-.04-.45.34-.54.5,0,0-2.88,4.81-4.25,6.64-.24.33-2.1,2.74-4.72,3.19-3.97.69-8.49-3.29-10.03-7.69-.48-1.37-2.04-6.71,1.39-10.03,2.26-2.19,5.84-2.68,8.53-1.53,1.48.63,3.59,2.15,3.39,3.53-.14.97-2.15,1.99-6.18,3.98-.4.2-.74.36-.97.47-.14.09-.48.34-.43.51.04.14.34.18.5.19,5.3.17,6.59-.34,6.59-.34,1.11-.44,4.39-1.73,5.13-4.48.47-1.77-.4-3-.77-4.43-1.86-7.07,9.03-15.03,7.99-16.24-.63-.74-5.7,1.07-8.67,4.72-1.11,1.37-2.56,2.86-5.44,5.83-.13.13-.42.43-.89.67-1.33.68-3.2.46-4.41-.36-2.43-1.64-2.34-5.77-2.31-7.46,0-.28.04-1.16.08-2.92.05-2.06.04-1.99.06-2.08.08-.54.19-.87.03-1-.28-.22-1.13.38-1.5.69-.87.75-1.37,1.95-1.62,5.8-.24,3.78.08,4.97-.83,6.94-.09.19-.39.7-1,1.72-2.32,3.9-2.36,3.42-2.83,4.54-.71,1.7-1.5,4.94-1.4,6.27,0,.12.05.59-.16.7-.22.11-.6-.25-.72-.35-1.13-1.03-2.55-1.71-3.75-2.67-2.94-2.35-3.18-2.46-3.56-3.14-.28-.5-.6-1.25-.83-1.19C0,19.41,0,20.21,0,20.46c.02,3.81,4.03,8.34,4.03,8.34,3.44,3.89,3.55,3.01,6.42,6.29,3.59,4.1,5.89,8.27,9.07,8.26.37,0,.79-.06.94.18.73,1.21-7.83,6.8-7.35,7.63.43.74,9.72-1.59,16.07-9.11,5.81-6.87,5.58-12.79,5.44-13.26-.03-.1-.12-.4-.3-.43Z"/>
  </g>
</svg>