<?xml version="1.0" encoding="UTF-8"?>
<svg id="_Слой_2" data-name="Слой 2" xmlns="http://www.w3.org/2000/svg" viewBox="0 0 47.94 44.16">
  <defs>
    <style>
      .cls-1 {
        fill: #d8e537;
      }
    </style>
  </defs>
  <g id="_Корона" data-name="Корона">
    <path class="cls-1" d="m39.93,26.22c-.84.39-1.89.83-2,1.63-.13.93,1.11,1.53,3.04,3.26,1.85,1.66,3.9,3.49,4.45,6.04.11.49.48,2.18-.23,3.64-2.58,5.34-17.66,3.56-18.76.05-.46-1.44-.83-2.1-1.57-3.4-.15-.26-.49-.81-.89-.81-.47-.01-.83.61-.93.78h0s-1.73,3.24-2.81,4.15C16.61,44.59.16,38.54,0,28.96c-.09-5.49,5.19-11.32,8.71-10.92,1.84.21,3.75,2.2,8.33,3.95.57.22,1.62.6,1.93.22.39-.47-.58-1.85-.89-2.3-2.98-4.28-7.78-4.62-8.67-7.04C7.8,8.5,19.33-2.09,24.82.36c1.52.68,2.59,2.36,4.3,5.04,2.43,3.81,2.02,5.1,3.56,6,2.87,1.68,5.61-2.04,9.37-.9,4.15,1.26,7.07,7.69,5.45,10.68-1.13,2.07-5.26,3.98-7.56,5.04Z"/>
  </g>
</svg>