<?xml version="1.0" encoding="UTF-8"?>
<svg id="_Слой_2" data-name="Слой 2" xmlns="http://www.w3.org/2000/svg" viewBox="0 0 43.82 39.96">
  <defs>
    <style>
      .cls-1 {
        fill: #3c640d;
      }
    </style>
  </defs>
  <g id="_Корона" data-name="Корона">
    <path class="cls-1" d="m38.79,5.79C30.6-2.08,14.43-1.93,6.05,6.25,1.46,10.73-1.51,18.34.8,21.56c.97,1.35,4.62,4.39,7.38,4.82.38.06,1.66.22,2.15,1.11.3.54.18,1.12.15,1.33-.31,1.8-.76,8.46,1.7,10.22.8.57,2,.69,2.67.22.65-.45.64-1.33.74-4.81.1-3.3.17-4.52.96-4.96.3-.17.83-.3,1.26-.07,2.01,1.04-1.17,8.32,1.33,10.07.56.39,1.36.41,2.96.44,1.82.04,2.74.06,3.26-.44,1.04-1-.05-2.98.22-7.56.05-.75.15-1.91.89-2.3.44-.23,1-.13,1.31.03,2.19,1.1-.89,8.47,1.43,9.97,1.26.81,3.75-.32,5.06-1.78.99-1.1,1.25-2.31,1.31-2.59.56-2.82-1.5-4.34-.74-6,.5-1.1,1.72-1.15,3.05-1.77,3.88-1.82,5.9-7.22,5.92-11.21.02-5.63-3.94-9.45-5.04-10.51Zm-21.27,15.93c-.49,1.16-1.83,1.76-2.89,1.85-2.66.23-5.6-2.57-5.04-4.96.36-1.53,2.1-2.68,3.7-2.67,2.82.02,5.14,3.61,4.22,5.78Zm12.07,1.78c-1.38-.59-2-3.31-1.11-5.33.61-1.38,2.18-3.03,4.07-2.74,1.4.21,2.58,1.41,2.81,2.67.55,2.87-3.77,6.26-5.78,5.41Z"/>
  </g>
</svg>